0
SECTION
2
HEADER
9
$ACADVER
1
AC1002
9
$INSUNITS
70
4
0
ENDSEC
0
SECTION
2
TABLES
0
TABLE
2
LTYPE
70
1
0
LTYPE
2
DASH
70
0
3
---
72
65
73
2
40
0.6
49
0.3
49
-0.3
0
ENDTAB
0
ENDSEC
0
SECTION
2
ENTITIES
0
POLYLINE
66
1
8
Sketch
62
0
0
VERTEX
8
Sketch
10
127.64
20
-36.024
0
VERTEX
8
Sketch
10
127.56
20
-36.424
0
SEQEND
0
POLYLINE
66
1
8
Sketch
62
0
0
VERTEX
8
Sketch
10
127
20
-35.784
0
VERTEX
8
Sketch
10
127.16
20
-36.344
0
SEQEND
0
POLYLINE
66
1
8
Sketch
62
0
0
VERTEX
8
Sketch
10
126.6
20
-36.264
0
VERTEX
8
Sketch
10
126.76
20
-36.104
0
SEQEND
0
POLYLINE
66
1
8
Sketch
62
0
0
VERTEX
8
Sketch
10
126.76
20
-36.824
0
VERTEX
8
Sketch
10
127
20
-36.664
0
SEQEND
0
POLYLINE
66
1
8
Sketch
62
0
0
VERTEX
8
Sketch
10
127.4
20
-36.824
0
VERTEX
8
Sketch
10
127.72
20
-36.984
0
SEQEND
0
POLYLINE
66
1
8
Sketch
62
0
0
VERTEX
8
Sketch
10
126.6
20
-35.624
0
VERTEX
8
Sketch
10
126.6
20
-36.344
0
VERTEX
8
Sketch
10
126.84
20
-36.904
0
VERTEX
8
Sketch
10
127.24
20
-37.304
0
VERTEX
8
Sketch
10
127.32
20
-37.544
0
VERTEX
8
Sketch
10
127.64
20
-37.704
0
VERTEX
8
Sketch
10
127.8
20
-37.304
0
SEQEND
0
POLYLINE
66
1
8
Sketch
62
0
0
VERTEX
8
Sketch
10
126.6
20
-35.464
0
VERTEX
8
Sketch
10
127
20
-35.704
0
VERTEX
8
Sketch
10
128.04
20
-35.784
0
VERTEX
8
Sketch
10
128.52
20
-35.784
0
VERTEX
8
Sketch
10
127.96
20
-36.584
0
VERTEX
8
Sketch
10
127.72
20
-37.384
0
SEQEND
0
POLYLINE
66
1
8
Sketch
62
0
0
VERTEX
8
Sketch
10
127.08
20
-30.504
0
VERTEX
8
Sketch
10
126.84
20
-31.304
0
VERTEX
8
Sketch
10
126.84
20
-31.784
0
VERTEX
8
Sketch
10
126.6
20
-31.864
0
VERTEX
8
Sketch
10
126.52
20
-32.024
0
VERTEX
8
Sketch
10
126.52
20
-32.344
0
VERTEX
8
Sketch
10
126.68
20
-32.504
0
VERTEX
8
Sketch
10
126.12
20
-32.904
0
VERTEX
8
Sketch
10
125.64
20
-33.944
0
VERTEX
8
Sketch
10
125.64
20
-34.264
0
VERTEX
8
Sketch
10
125.48
20
-34.664
0
VERTEX
8
Sketch
10
125.56
20
-34.824
0
VERTEX
8
Sketch
10
125.48
20
-35.144
0
VERTEX
8
Sketch
10
125.08
20
-35.704
0
VERTEX
8
Sketch
10
125.08
20
-36.104
0
VERTEX
8
Sketch
10
125
20
-36.264
0
SEQEND
0
POLYLINE
66
1
8
Sketch
62
0
0
VERTEX
8
Sketch
10
127.8
20
-30.104
0
VERTEX
8
Sketch
10
127.64
20
-30.344
0
VERTEX
8
Sketch
10
127.64
20
-30.184
0
VERTEX
8
Sketch
10
127.4
20
-30.424
0
VERTEX
8
Sketch
10
127.24
20
-30.744
0
SEQEND
0
POLYLINE
66
1
8
Sketch
62
0
0
VERTEX
8
Sketch
10
123.88
20
-28.744
0
VERTEX
8
Sketch
10
125.56
20
-29.144
0
VERTEX
8
Sketch
10
126.28
20
-29.384
0
VERTEX
8
Sketch
10
126.44
20
-29.544
0
VERTEX
8
Sketch
10
126.6
20
-29.544
0
VERTEX
8
Sketch
10
127
20
-29.784
0
VERTEX
8
Sketch
10
127.24
20
-29.784
0
VERTEX
8
Sketch
10
127.88
20
-30.184
0
VERTEX
8
Sketch
10
127.88
20
-30.024
0
SEQEND
0
POINT
8
Sketch
62
0
10
124.36
20
-28.584
0
POLYLINE
66
1
8
Sketch
62
0
0
VERTEX
8
Sketch
10
121.96
20
-27.944
0
VERTEX
8
Sketch
10
121.96
20
-27.944
0
VERTEX
8
Sketch
10
122.6
20
-28.264
0
VERTEX
8
Sketch
10
124.04
20
-28.824
0
VERTEX
8
Sketch
10
124.92
20
-29.384
0
VERTEX
8
Sketch
10
126.12
20
-30.024
0
VERTEX
8
Sketch
10
126.44
20
-30.104
0
VERTEX
8
Sketch
10
127.16
20
-30.344
0
VERTEX
8
Sketch
10
127.24
20
-30.504
0
VERTEX
8
Sketch
10
127.24
20
-30.344
0
SEQEND
0
POLYLINE
66
1
8
Sketch
62
0
0
VERTEX
8
Sketch
10
124.84
20
-36.104
0
VERTEX
8
Sketch
10
124.84
20
-37.304
0
VERTEX
8
Sketch
10
124.68
20
-37.784
0
VERTEX
8
Sketch
10
124.76
20
-38.184
0
VERTEX
8
Sketch
10
125.48
20
-38.744
0
VERTEX
8
Sketch
10
126.28
20
-39.064
0
SEQEND
0
POLYLINE
66
1
8
Sketch
62
0
0
VERTEX
8
Sketch
10
132.6
20
-40.424
0
VERTEX
8
Sketch
10
131.88
20
-40.424
0
VERTEX
8
Sketch
10
130.92
20
-40.264
0
VERTEX
8
Sketch
10
129.64
20
-39.704
0
VERTEX
8
Sketch
10
129.48
20
-39.704
0
VERTEX
8
Sketch
10
128.92
20
-39.304
0
VERTEX
8
Sketch
10
128.6
20
-39.224
0
VERTEX
8
Sketch
10
127.48
20
-38.824
0
VERTEX
8
Sketch
10
125.96
20
-38.584
0
SEQEND
0
POLYLINE
66
1
8
Sketch
62
0
0
VERTEX
8
Sketch
10
131.48
20
-36.744
0
VERTEX
8
Sketch
10
132.84
20
-38.184
0
VERTEX
8
Sketch
10
133
20
-38.584
0
VERTEX
8
Sketch
10
133.32
20
-39.064
0
SEQEND
0
POLYLINE
66
1
8
Sketch
62
0
0
VERTEX
8
Sketch
10
132.2
20
-31.384
0
VERTEX
8
Sketch
10
132.04
20
-31.384
0
VERTEX
8
Sketch
10
131.96
20
-31.624
0
VERTEX
8
Sketch
10
132.28
20
-32.024
0
VERTEX
8
Sketch
10
132.2
20
-32.344
0
VERTEX
8
Sketch
10
132.12
20
-32.744
0
VERTEX
8
Sketch
10
132.2
20
-32.984
0
VERTEX
8
Sketch
10
132.68
20
-33.304
0
VERTEX
8
Sketch
10
132.76
20
-33.464
0
VERTEX
8
Sketch
10
131.88
20
-34.504
0
VERTEX
8
Sketch
10
131.88
20
-34.664
0
VERTEX
8
Sketch
10
131.4
20
-35.304
0
VERTEX
8
Sketch
10
131.32
20
-35.704
0
VERTEX
8
Sketch
10
131.32
20
-35.944
0
VERTEX
8
Sketch
10
131.24
20
-36.264
0
VERTEX
8
Sketch
10
131.48
20
-36.744
0
SEQEND
0
POLYLINE
66
1
8
Sketch
62
0
0
VERTEX
8
Sketch
10
133.48
20
-29.944
0
VERTEX
8
Sketch
10
133.08
20
-30.344
0
VERTEX
8
Sketch
10
132.36
20
-30.904
0
VERTEX
8
Sketch
10
131.96
20
-31.304
0
SEQEND
0
POLYLINE
66
1
8
Sketch
62
0
0
VERTEX
8
Sketch
10
132.36
20
-27.624
0
VERTEX
8
Sketch
10
133.4
20
-27.864
0
VERTEX
8
Sketch
10
134.12
20
-28.104
0
VERTEX
8
Sketch
10
134.2
20
-28.584
0
VERTEX
8
Sketch
10
133.4
20
-29.224
0
VERTEX
8
Sketch
10
133.4
20
-29.624
0
SEQEND
0
POLYLINE
66
1
8
Sketch
62
0
0
VERTEX
8
Sketch
10
129.08
20
-23.944
0
VERTEX
8
Sketch
10
129.08
20
-24.504
0
VERTEX
8
Sketch
10
129.16
20
-25.064
0
VERTEX
8
Sketch
10
129.08
20
-25.384
0
VERTEX
8
Sketch
10
129.08
20
-25.784
0
VERTEX
8
Sketch
10
129.16
20
-26.104
0
VERTEX
8
Sketch
10
129.16
20
-26.584
0
VERTEX
8
Sketch
10
128.52
20
-26.504
0
VERTEX
8
Sketch
10
128.12
20
-26.584
0
VERTEX
8
Sketch
10
127.96
20
-26.584
0
SEQEND
0
POLYLINE
66
1
8
Sketch
62
0
0
VERTEX
8
Sketch
10
129.8
20
-25.864
0
VERTEX
8
Sketch
10
129.88
20
-26.184
0
VERTEX
8
Sketch
10
130.2
20
-26.424
0
VERTEX
8
Sketch
10
130.52
20
-26.504
0
VERTEX
8
Sketch
10
131.08
20
-26.744
0
VERTEX
8
Sketch
10
131.56
20
-27.144
0
VERTEX
8
Sketch
10
131.8
20
-27.144
0
VERTEX
8
Sketch
10
131.96
20
-27.304
0
VERTEX
8
Sketch
10
132.36
20
-27.384
0
VERTEX
8
Sketch
10
132.76
20
-27.784
0
VERTEX
8
Sketch
10
132.84
20
-28.184
0
VERTEX
8
Sketch
10
132.76
20
-28.504
0
VERTEX
8
Sketch
10
132.84
20
-28.904
0
SEQEND
0
POLYLINE
66
1
8
Sketch
62
0
0
VERTEX
8
Sketch
10
129.72
20
-23.864
0
VERTEX
8
Sketch
10
129.8
20
-24.744
0
VERTEX
8
Sketch
10
129.72
20
-25.464
0
VERTEX
8
Sketch
10
129.72
20
-25.784
0
VERTEX
8
Sketch
10
129.8
20
-26.104
0
VERTEX
8
Sketch
10
129.8
20
-26.104
0
SEQEND
0
POLYLINE
66
1
8
Sketch
62
0
0
VERTEX
8
Sketch
10
126.28
20
-26.344
0
VERTEX
8
Sketch
10
126.52
20
-26.344
0
VERTEX
8
Sketch
10
127.08
20
-26.584
0
VERTEX
8
Sketch
10
129.96
20
-27.064
0
VERTEX
8
Sketch
10
131.16
20
-27.464
0
VERTEX
8
Sketch
10
132.52
20
-27.624
0
VERTEX
8
Sketch
10
133.16
20
-27.784
0
VERTEX
8
Sketch
10
133.4
20
-27.784
0
VERTEX
8
Sketch
10
133.72
20
-27.864
0
SEQEND
0
POLYLINE
66
1
8
Sketch
62
0
0
VERTEX
8
Sketch
10
120.52
20
-25.224
0
VERTEX
8
Sketch
10
120.76
20
-25.224
0
VERTEX
8
Sketch
10
121.32
20
-25.464
0
VERTEX
8
Sketch
10
121.56
20
-25.464
0
VERTEX
8
Sketch
10
122.28
20
-25.704
0
VERTEX
8
Sketch
10
124.44
20
-26.104
0
VERTEX
8
Sketch
10
124.76
20
-26.104
0
VERTEX
8
Sketch
10
125
20
-26.344
0
VERTEX
8
Sketch
10
125.32
20
-26.184
0
VERTEX
8
Sketch
10
126.84
20
-26.664
0
SEQEND
0
POLYLINE
66
1
8
Sketch
62
0
0
VERTEX
8
Sketch
10
111.32
20
-22.824
0
VERTEX
8
Sketch
10
111.88
20
-22.984
0
VERTEX
8
Sketch
10
112.6
20
-23.304
0
VERTEX
8
Sketch
10
113.24
20
-23.464
0
VERTEX
8
Sketch
10
113.88
20
-23.624
0
VERTEX
8
Sketch
10
114.44
20
-23.704
0
VERTEX
8
Sketch
10
115.16
20
-23.704
0
VERTEX
8
Sketch
10
116.36
20
-24.024
0
VERTEX
8
Sketch
10
116.6
20
-24.024
0
VERTEX
8
Sketch
10
119.16
20
-25.064
0
VERTEX
8
Sketch
10
119.48
20
-25.064
0
SEQEND
0
POLYLINE
66
1
8
Sketch
62
0
0
VERTEX
8
Sketch
10
110.28
20
-24.904
0
VERTEX
8
Sketch
10
109.4
20
-25.064
0
VERTEX
8
Sketch
10
108.68
20
-25.064
0
VERTEX
8
Sketch
10
108.36
20
-24.984
0
VERTEX
8
Sketch
10
108.44
20
-24.424
0
VERTEX
8
Sketch
10
108.36
20
-23.784
0
VERTEX
8
Sketch
10
108.36
20
-23.624
0
SEQEND
0
POLYLINE
66
1
8
Sketch
62
0
0
VERTEX
8
Sketch
10
114.84
20
-26.424
0
VERTEX
8
Sketch
10
115.32
20
-26.504
0
VERTEX
8
Sketch
10
115.56
20
-26.664
0
VERTEX
8
Sketch
10
116.84
20
-26.984
0
VERTEX
8
Sketch
10
117.16
20
-26.984
0
VERTEX
8
Sketch
10
117.56
20
-27.144
0
VERTEX
8
Sketch
10
118.76
20
-27.384
0
VERTEX
8
Sketch
10
119.16
20
-27.384
0
VERTEX
8
Sketch
10
119.48
20
-27.464
0
VERTEX
8
Sketch
10
119.88
20
-27.464
0
VERTEX
8
Sketch
10
120.2
20
-27.624
0
VERTEX
8
Sketch
10
120.68
20
-27.704
0
VERTEX
8
Sketch
10
121.8
20
-28.104
0
VERTEX
8
Sketch
10
121.96
20
-28.264
0
SEQEND
0
POLYLINE
66
1
8
Sketch
62
0
0
VERTEX
8
Sketch
10
109.16
20
-25.064
0
VERTEX
8
Sketch
10
110.2
20
-25.304
0
VERTEX
8
Sketch
10
110.76
20
-25.304
0
VERTEX
8
Sketch
10
112.76
20
-25.944
0
VERTEX
8
Sketch
10
113
20
-25.944
0
VERTEX
8
Sketch
10
113.32
20
-26.024
0
VERTEX
8
Sketch
10
114.04
20
-26.104
0
VERTEX
8
Sketch
10
114.36
20
-26.184
0
VERTEX
8
Sketch
10
114.6
20
-26.184
0
SEQEND
0
POINT
8
Sketch
62
0
10
108.28
20
-25.224
0
POLYLINE
66
1
8
Sketch
62
0
0
VERTEX
8
Sketch
10
106.06
20
-22.024
0
VERTEX
8
Sketch
10
107.38
20
-22.444
0
VERTEX
8
Sketch
10
107.56
20
-22.444
0
VERTEX
8
Sketch
10
108.04
20
-22.564
0
VERTEX
8
Sketch
10
108.22
20
-22.684
0
VERTEX
8
Sketch
10
108.76
20
-22.744
0
VERTEX
8
Sketch
10
109
20
-22.864
0
VERTEX
8
Sketch
10
109.48
20
-22.924
0
VERTEX
8
Sketch
10
109.72
20
-22.984
0
VERTEX
8
Sketch
10
111.16
20
-23.164
0
VERTEX
8
Sketch
10
111.28
20
-23.164
0
SEQEND
0
POINT
8
Sketch
62
0
10
108.1
20
-22.984
0
POLYLINE
66
1
8
Sketch
62
0
0
VERTEX
8
Sketch
10
102.64
20
-23.404
0
VERTEX
8
Sketch
10
102.82
20
-23.344
0
VERTEX
8
Sketch
10
103
20
-23.404
0
VERTEX
8
Sketch
10
103.42
20
-23.404
0
VERTEX
8
Sketch
10
104.2
20
-23.464
0
VERTEX
8
Sketch
10
104.44
20
-23.464
0
VERTEX
8
Sketch
10
104.68
20
-23.524
0
VERTEX
8
Sketch
10
105.34
20
-23.584
0
VERTEX
8
Sketch
10
106.42
20
-23.584
0
VERTEX
8
Sketch
10
106.6
20
-23.524
0
VERTEX
8
Sketch
10
106.9
20
-23.584
0
VERTEX
8
Sketch
10
107.32
20
-23.584
0
VERTEX
8
Sketch
10
107.56
20
-23.524
0
VERTEX
8
Sketch
10
107.98
20
-23.524
0
SEQEND
0
POINT
8
Sketch
62
0
10
107.92
20
-23.584
0
POLYLINE
66
1
8
Sketch
62
0
0
VERTEX
8
Sketch
10
106.9
20
-23.584
0
VERTEX
8
Sketch
10
107.2
20
-23.644
0
VERTEX
8
Sketch
10
107.8
20
-23.644
0
SEQEND
0
POLYLINE
66
1
8
Sketch
62
0
0
VERTEX
8
Sketch
10
102.52
20
-23.404
0
VERTEX
8
Sketch
10
102.58
20
-23.584
0
VERTEX
8
Sketch
10
102.88
20
-23.404
0
VERTEX
8
Sketch
10
103.24
20
-23.344
0
VERTEX
8
Sketch
10
103.6
20
-23.344
0
VERTEX
8
Sketch
10
103.9
20
-23.284
0
VERTEX
8
Sketch
10
104.08
20
-23.284
0
VERTEX
8
Sketch
10
104.2
20
-23.344
0
VERTEX
8
Sketch
10
104.32
20
-23.284
0
VERTEX
8
Sketch
10
104.5
20
-23.344
0
VERTEX
8
Sketch
10
104.74
20
-23.284
0
VERTEX
8
Sketch
10
104.98
20
-23.284
0
VERTEX
8
Sketch
10
105.52
20
-23.404
0
VERTEX
8
Sketch
10
106
20
-23.524
0
VERTEX
8
Sketch
10
106.3
20
-23.524
0
VERTEX
8
Sketch
10
107.08
20
-23.644
0
VERTEX
8
Sketch
10
107.5
20
-23.644
0
VERTEX
8
Sketch
10
107.62
20
-23.704
0
SEQEND
0
POLYLINE
66
1
8
Sketch
62
0
0
VERTEX
8
Sketch
10
102.52
20
-22.564
0
VERTEX
8
Sketch
10
102.34
20
-23.164
0
VERTEX
8
Sketch
10
102.34
20
-23.584
0
VERTEX
8
Sketch
10
102.4
20
-23.404
0
SEQEND
0
POLYLINE
66
1
8
Sketch
62
0
0
VERTEX
8
Sketch
10
93.46
20
-20.884
0
VERTEX
8
Sketch
10
93.7
20
-21.004
0
VERTEX
8
Sketch
10
93.88
20
-21.004
0
VERTEX
8
Sketch
10
94.6
20
-21.244
0
VERTEX
8
Sketch
10
94.48
20
-21.424
0
VERTEX
8
Sketch
10
94.3
20
-21.484
0
VERTEX
8
Sketch
10
94.24
20
-21.724
0
VERTEX
8
Sketch
10
94.06
20
-21.484
0
VERTEX
8
Sketch
10
92.86
20
-21.064
0
SEQEND
0
POLYLINE
66
1
8
Sketch
62
0
0
VERTEX
8
Sketch
10
92.14
20
-20.404
0
VERTEX
8
Sketch
10
92.5
20
-20.704
0
VERTEX
8
Sketch
10
92.8
20
-20.884
0
VERTEX
8
Sketch
10
92.86
20
-21.004
0
VERTEX
8
Sketch
10
92.5
20
-20.884
0
VERTEX
8
Sketch
10
91.6
20
-20.824
0
VERTEX
8
Sketch
10
91.48
20
-20.824
0
SEQEND
0
POLYLINE
66
1
8
Sketch
62
0
0
VERTEX
8
Sketch
10
92.32
20
-20.524
0
VERTEX
8
Sketch
10
91.96
20
-20.524
0
VERTEX
8
Sketch
10
91.66
20
-20.404
0
VERTEX
8
Sketch
10
91.3
20
-20.404
0
VERTEX
8
Sketch
10
91.3
20
-20.704
0
VERTEX
8
Sketch
10
91.36
20
-20.824
0
SEQEND
0
POLYLINE
66
1
8
Sketch
62
0
0
VERTEX
8
Sketch
10
90.34
20
-19.924
0
VERTEX
8
Sketch
10
90.28
20
-20.524
0
VERTEX
8
Sketch
10
90.22
20
-20.644
0
VERTEX
8
Sketch
10
90.52
20
-19.924
0
VERTEX
8
Sketch
10
90.82
20
-20.224
0
VERTEX
8
Sketch
10
90.88
20
-20.644
0
VERTEX
8
Sketch
10
90.76
20
-20.704
0
VERTEX
8
Sketch
10
90.64
20
-20.644
0
SEQEND
0
POLYLINE
66
1
8
Sketch
62
0
0
VERTEX
8
Sketch
10
93.28
20
-20.824
0
VERTEX
8
Sketch
10
93.34
20
-21.004
0
SEQEND
0
POLYLINE
66
1
8
Sketch
62
0
0
VERTEX
8
Sketch
10
93.34
20
-20.824
0
VERTEX
8
Sketch
10
92.98
20
-20.824
0
VERTEX
8
Sketch
10
92.5
20
-20.704
0
VERTEX
8
Sketch
10
92.56
20
-20.884
0
VERTEX
8
Sketch
10
92.92
20
-21.244
0
VERTEX
8
Sketch
10
92.98
20
-21.484
0
SEQEND
0
POLYLINE
66
1
8
Sketch
62
0
0
VERTEX
8
Sketch
10
95.86
20
-21.544
0
VERTEX
8
Sketch
10
96.1
20
-21.844
0
VERTEX
8
Sketch
10
95.8
20
-21.904
0
VERTEX
8
Sketch
10
95.26
20
-21.964
0
VERTEX
8
Sketch
10
95.08
20
-22.084
0
VERTEX
8
Sketch
10
95.02
20
-21.964
0
SEQEND
0
POLYLINE
66
1
8
Sketch
62
0
0
VERTEX
8
Sketch
10
96.34
20
-21.664
0
VERTEX
8
Sketch
10
95.98
20
-21.724
0
VERTEX
8
Sketch
10
95.38
20
-21.664
0
VERTEX
8
Sketch
10
95.14
20
-21.724
0
VERTEX
8
Sketch
10
94.72
20
-21.664
0
VERTEX
8
Sketch
10
94.6
20
-21.544
0
VERTEX
8
Sketch
10
94.42
20
-21.544
0
VERTEX
8
Sketch
10
94.18
20
-21.424
0
VERTEX
8
Sketch
10
94.54
20
-21.784
0
VERTEX
8
Sketch
10
94.54
20
-21.904
0
VERTEX
8
Sketch
10
94.72
20
-21.844
0
SEQEND
0
POINT
8
Sketch
62
0
10
96.7
20
-21.784
0
POLYLINE
66
1
8
Sketch
62
0
0
VERTEX
8
Sketch
10
97.06
20
-21.424
0
VERTEX
8
Sketch
10
96.82
20
-21.424
0
SEQEND
0
POLYLINE
66
1
8
Sketch
62
0
0
VERTEX
8
Sketch
10
96.88
20
-22.024
0
VERTEX
8
Sketch
10
97.12
20
-22.084
0
VERTEX
8
Sketch
10
98.08
20
-22.084
0
VERTEX
8
Sketch
10
98.2
20
-22.264
0
VERTEX
8
Sketch
10
98.38
20
-22.084
0
VERTEX
8
Sketch
10
99.22
20
-22.204
0
VERTEX
8
Sketch
10
99.4
20
-22.204
0
VERTEX
8
Sketch
10
99.7
20
-22.264
0
VERTEX
8
Sketch
10
100.36
20
-22.384
0
VERTEX
8
Sketch
10
100.66
20
-22.384
0
VERTEX
8
Sketch
10
100.9
20
-22.504
0
VERTEX
8
Sketch
10
101.38
20
-22.504
0
VERTEX
8
Sketch
10
101.74
20
-22.624
0
VERTEX
8
Sketch
10
102.1
20
-22.624
0
VERTEX
8
Sketch
10
103
20
-22.864
0
VERTEX
8
Sketch
10
103.12
20
-22.864
0
SEQEND
0
POLYLINE
66
1
8
Sketch
62
0
0
VERTEX
8
Sketch
10
97.78
20
-20.464
0
VERTEX
8
Sketch
10
98.2
20
-20.584
0
VERTEX
8
Sketch
10
98.62
20
-20.584
0
VERTEX
8
Sketch
10
100.42
20
-20.764
0
VERTEX
8
Sketch
10
100.96
20
-20.824
0
VERTEX
8
Sketch
10
101.26
20
-20.824
0
VERTEX
8
Sketch
10
101.98
20
-21.064
0
VERTEX
8
Sketch
10
102.1
20
-21.124
0
VERTEX
8
Sketch
10
102.34
20
-21.064
0
VERTEX
8
Sketch
10
103
20
-21.244
0
VERTEX
8
Sketch
10
103.48
20
-21.304
0
VERTEX
8
Sketch
10
104.5
20
-21.544
0
VERTEX
8
Sketch
10
104.8
20
-21.604
0
VERTEX
8
Sketch
10
104.92
20
-21.604
0
SEQEND
0
POLYLINE
66
1
8
Sketch
62
0
0
VERTEX
8
Sketch
10
89.62
20
-17.884
0
VERTEX
8
Sketch
10
89.68
20
-18.064
0
VERTEX
8
Sketch
10
90.52
20
-18.544
0
VERTEX
8
Sketch
10
91.6
20
-18.904
0
VERTEX
8
Sketch
10
92.08
20
-19.444
0
VERTEX
8
Sketch
10
92.74
20
-19.804
0
VERTEX
8
Sketch
10
93.64
20
-20.104
0
VERTEX
8
Sketch
10
94
20
-20.164
0
VERTEX
8
Sketch
10
95.62
20
-20.584
0
VERTEX
8
Sketch
10
96.04
20
-20.584
0
VERTEX
8
Sketch
10
96.28
20
-20.644
0
VERTEX
8
Sketch
10
97.18
20
-20.824
0
VERTEX
8
Sketch
10
97.6
20
-20.944
0
SEQEND
0
POLYLINE
66
1
8
Sketch
62
0
0
VERTEX
8
Sketch
10
96.64
20
-22.444
0
VERTEX
8
Sketch
10
96.58
20
-22.324
0
VERTEX
8
Sketch
10
95.26
20
-22.144
0
VERTEX
8
Sketch
10
94.3
20
-21.904
0
VERTEX
8
Sketch
10
94
20
-21.784
0
VERTEX
8
Sketch
10
93.7
20
-21.784
0
VERTEX
8
Sketch
10
93.46
20
-21.664
0
VERTEX
8
Sketch
10
93.28
20
-21.664
0
VERTEX
8
Sketch
10
92.32
20
-21.244
0
VERTEX
8
Sketch
10
92.02
20
-21.244
0
VERTEX
8
Sketch
10
91.18
20
-21.004
0
VERTEX
8
Sketch
10
90.76
20
-21.004
0
VERTEX
8
Sketch
10
90.46
20
-20.944
0
VERTEX
8
Sketch
10
90.04
20
-20.884
0
VERTEX
8
Sketch
10
89.68
20
-20.884
0
VERTEX
8
Sketch
10
88.36
20
-20.584
0
VERTEX
8
Sketch
10
88.06
20
-20.584
0
SEQEND
0
POLYLINE
66
1
8
Sketch
62
0
0
VERTEX
8
Sketch
10
86.86
20
-20.824
0
VERTEX
8
Sketch
10
86.86
20
-20.824
0
VERTEX
8
Sketch
10
87.16
20
-20.884
0
VERTEX
8
Sketch
10
87.4
20
-20.824
0
VERTEX
8
Sketch
10
87.4
20
-20.884
0
VERTEX
8
Sketch
10
87.64
20
-20.824
0
SEQEND
0
POLYLINE
66
1
8
Sketch
62
0
0
VERTEX
8
Sketch
10
86.14
20
-18.904
0
VERTEX
8
Sketch
10
86.5
20
-19.324
0
VERTEX
8
Sketch
10
86.56
20
-19.564
0
VERTEX
8
Sketch
10
86.56
20
-20.224
0
VERTEX
8
Sketch
10
86.68
20
-20.644
0
VERTEX
8
Sketch
10
86.74
20
-20.524
0
SEQEND
0
POLYLINE
66
1
8
Sketch
62
0
0
VERTEX
8
Sketch
10
85.9
20
-18.484
0
VERTEX
8
Sketch
10
86.14
20
-18.904
0
VERTEX
8
Sketch
10
86.14
20
-19.024
0
VERTEX
8
Sketch
10
86.2
20
-18.904
0
VERTEX
8
Sketch
10
86.32
20
-19.024
0
VERTEX
8
Sketch
10
86.44
20
-19.684
0
VERTEX
8
Sketch
10
86.86
20
-20.344
0
VERTEX
8
Sketch
10
87.04
20
-20.644
0
VERTEX
8
Sketch
10
87.04
20
-20.884
0
SEQEND
0
POLYLINE
66
1
8
Sketch
62
0
0
VERTEX
8
Sketch
10
84.04
20
-15.604
0
VERTEX
8
Sketch
10
84.1
20
-15.904
0
VERTEX
8
Sketch
10
83.98
20
-16.384
0
VERTEX
8
Sketch
10
83.98
20
-16.744
0
VERTEX
8
Sketch
10
84.16
20
-17.044
0
VERTEX
8
Sketch
10
84.58
20
-17.344
0
VERTEX
8
Sketch
10
84.88
20
-17.764
0
VERTEX
8
Sketch
10
85.72
20
-18.304
0
VERTEX
8
Sketch
10
85.9
20
-18.604
0
SEQEND
0
POLYLINE
66
1
8
Sketch
62
0
0
VERTEX
8
Sketch
10
89.74
20
-16.924
0
VERTEX
8
Sketch
10
89.74
20
-17.164
0
VERTEX
8
Sketch
10
89.68
20
-17.524
0
VERTEX
8
Sketch
10
89.62
20
-17.764
0
VERTEX
8
Sketch
10
89.56
20
-18.064
0
VERTEX
8
Sketch
10
89.62
20
-17.944
0
SEQEND
0
POLYLINE
66
1
8
Sketch
62
0
0
VERTEX
8
Sketch
10
88.78
20
-16.744
0
VERTEX
8
Sketch
10
89.2
20
-16.804
0
VERTEX
8
Sketch
10
89.32
20
-16.744
0
SEQEND
0
POLYLINE
66
1
8
Sketch
62
0
0
VERTEX
8
Sketch
10
87.76
20
-16.624
0
VERTEX
8
Sketch
10
87.88
20
-16.744
0
VERTEX
8
Sketch
10
88.06
20
-16.744
0
VERTEX
8
Sketch
10
88.06
20
-16.564
0
SEQEND
0
POLYLINE
66
1
8
Sketch
62
0
0
VERTEX
8
Sketch
10
85.36
20
-15.484
0
VERTEX
8
Sketch
10
85.42
20
-15.724
0
VERTEX
8
Sketch
10
86.2
20
-16.384
0
VERTEX
8
Sketch
10
86.56
20
-16.684
0
VERTEX
8
Sketch
10
86.86
20
-16.864
0
VERTEX
8
Sketch
10
87.7
20
-16.864
0
VERTEX
8
Sketch
10
87.82
20
-16.804
0
SEQEND
0
POLYLINE
66
1
8
Sketch
62
0
0
VERTEX
8
Sketch
10
85.24
20
-15.064
0
VERTEX
8
Sketch
10
85.24
20
-15.484
0
VERTEX
8
Sketch
10
85.3
20
-15.604
0
SEQEND
0
POINT
8
Sketch
62
0
10
85.24
20
-15.184
0
POLYLINE
66
1
8
Sketch
62
0
0
VERTEX
8
Sketch
10
85.54
20
-14.404
0
VERTEX
8
Sketch
10
85.18
20
-15.244
0
VERTEX
8
Sketch
10
85.18
20
-15.364
0
SEQEND
0
POLYLINE
66
1
8
Sketch
62
0
0
VERTEX
8
Sketch
10
85.54
20
-14.764
0
VERTEX
8
Sketch
10
85.48
20
-14.584
0
SEQEND
0
POLYLINE
66
1
8
Sketch
62
0
0
VERTEX
8
Sketch
10
83.68
20
-14.164
0
VERTEX
8
Sketch
10
83.92
20
-14.584
0
VERTEX
8
Sketch
10
83.92
20
-14.944
0
VERTEX
8
Sketch
10
84.1
20
-14.884
0
VERTEX
8
Sketch
10
84.1
20
-15.304
0
VERTEX
8
Sketch
10
84.04
20
-15.604
0
VERTEX
8
Sketch
10
84.04
20
-15.844
0
SEQEND
0
LINE
8
Shots
62
1
10
139.342
20
-35.548
11
143.608
21
-36.246
0
CIRCLE
8
Shots
62
1
10
143.608
20
-36.246
40
0.1
0
LINE
8
XSect
62
1
10
143.608
20
-36.246
11
143.196
21
-38.934
0
LINE
8
XSect
62
1
10
143.608
20
-36.246
11
145.038
21
-27.676
0
LINE
8
XSect
62
1
10
143.608
20
-36.246
11
139.406
21
-34.618
0
LINE
8
XSect
62
1
10
143.608
20
-36.246
11
139.52
21
-30.436
0
LINE
8
XSect
62
1
10
143.608
20
-36.246
11
143.068
21
-29.548
0
LINE
8
Shots
62
1
10
130.636
20
-35.968
11
139.342
21
-35.548
0
CIRCLE
8
Shots
62
1
10
139.342
20
-35.548
40
0.1
0
LINE
8
XSect
62
1
10
139.342
20
-35.548
11
139.492
21
-35.044
0
LINE
8
XSect
62
1
10
139.342
20
-35.548
11
140.162
21
-36.164
0
LINE
8
XSect
62
1
10
139.342
20
-35.548
11
138.97
21
-36.698
0
LINE
8
XSect
62
1
10
139.342
20
-35.548
11
144.306
21
-34.802
0
LINE
8
XSect
62
1
10
139.342
20
-35.548
11
144.02
21
-34.826
0
LINE
8
XSect
62
1
10
139.342
20
-35.548
11
144.984
21
-34.342
0
LINE
8
XSect
62
1
10
139.342
20
-35.548
11
144.78
21
-33.48
0
LINE
8
XSect
62
1
10
139.342
20
-35.548
11
142.814
21
-32.37
0
LINE
8
XSect
62
1
6
DASH
10
139.342
20
-35.548
11
140.39
21
-34.738
0
LINE
8
XSect
62
1
10
139.342
20
-35.548
11
145.426
21
-31.55
0
LINE
8
XSect
62
1
10
139.342
20
-35.548
11
144.984
21
-31.426
0
LINE
8
Shots
62
1
10
126.006
20
-26.872
11
130.636
21
-35.968
0
CIRCLE
8
Shots
62
1
10
130.636
20
-35.968
40
0.1
0
LINE
8
XSect
62
1
6
DASH
10
130.636
20
-35.968
11
129.864
21
-36.89
0
LINE
8
XSect
62
1
10
130.636
20
-35.968
11
126.168
21
-36.788
0
LINE
8
XSect
62
1
10
130.636
20
-35.968
11
125.052
21
-36.248
0
LINE
8
XSect
62
1
10
130.636
20
-35.968
11
130.692
21
-40.166
0
LINE
8
XSect
62
1
6
DASH
10
130.636
20
-35.968
11
130.792
21
-39.652
0
LINE
8
XSect
62
1
10
130.636
20
-35.968
11
133.426
21
-38.984
0
LINE
8
XSect
62
1
10
130.636
20
-35.968
11
136.506
21
-38.514
0
LINE
8
XSect
62
1
10
130.636
20
-35.968
11
129.59
21
-27.366
0
LINE
8
XSect
62
1
10
130.636
20
-35.968
11
129.898
21
-26.26
0
LINE
8
XSect
62
1
10
130.636
20
-35.968
11
129.546
21
-24.108
0
LINE
8
XSect
62
1
10
130.636
20
-35.968
11
130.198
21
-30.708
0
LINE
8
XSect
62
1
10
130.636
20
-35.968
11
130.502
21
-32.01
0
LINE
8
XSect
62
1
10
130.636
20
-35.968
11
133.898
21
-30.726
0
LINE
8
Shots
62
1
10
119.15
20
-25.286
11
126.006
21
-26.872
0
CIRCLE
8
Shots
62
1
10
126.006
20
-26.872
40
0.1
0
LINE
8
XSect
62
1
10
126.006
20
-26.872
11
130.23
21
-29.618
0
LINE
8
XSect
62
1
10
126.006
20
-26.872
11
130.368
21
-29.742
0
LINE
8
XSect
62
1
10
126.006
20
-26.872
11
133.84
21
-29.772
0
LINE
8
XSect
62
1
10
126.006
20
-26.872
11
133.998
21
-28.124
0
LINE
8
XSect
62
1
10
126.006
20
-26.872
11
134.528
21
-27.922
0
LINE
8
XSect
62
1
10
126.006
20
-26.872
11
126.71
21
-26.572
0
LINE
8
XSect
62
1
6
DASH
10
126.006
20
-26.872
11
128.048
21
-27.81
0
LINE
8
XSect
62
1
10
126.006
20
-26.872
11
129.576
21
-28.03
0
LINE
8
XSect
62
1
10
126.006
20
-26.872
11
131.35
21
-28.198
0
LINE
8
XSect
62
1
10
126.006
20
-26.872
11
132.842
21
-28.244
0
LINE
8
XSect
62
1
10
126.006
20
-26.872
11
132.208
21
-27.85
0
LINE
8
XSect
62
1
10
126.006
20
-26.872
11
133.358
21
-28.272
0
LINE
8
XSect
62
1
10
126.006
20
-26.872
11
133.396
21
-40.178
0
LINE
8
Shots
62
1
10
108.146
20
-23.222
11
119.15
21
-25.286
0
CIRCLE
8
Shots
62
1
10
119.15
20
-25.286
40
0.1
0
LINE
8
XSect
62
1
10
119.15
20
-25.286
11
118.898
21
-27.012
0
LINE
8
XSect
62
1
10
119.15
20
-25.286
11
110.924
21
-23.448
0
LINE
8
XSect
62
1
10
119.15
20
-25.286
11
113.544
21
-23.884
0
LINE
8
XSect
62
1
10
119.15
20
-25.286
11
111.096
21
-23.526
0
LINE
8
XSect
62
1
6
DASH
10
119.15
20
-25.286
11
119.206
21
-25.498
0
LINE
8
XSect
62
1
10
119.15
20
-25.286
11
116.054
21
-24.548
0
LINE
8
XSect
62
1
10
119.15
20
-25.286
11
111.458
21
-23.668
0
LINE
8
XSect
62
1
10
119.15
20
-25.286
11
114.506
21
-24.392
0
LINE
8
XSect
62
1
10
119.15
20
-25.286
11
114.146
21
-24.09
0
LINE
8
XSect
62
1
6
DASH
10
119.15
20
-25.286
11
111.762
21
-23.608
0
LINE
8
XSect
62
1
6
DASH
10
119.15
20
-25.286
11
115.306
21
-24.682
0
LINE
8
XSect
62
1
6
DASH
10
119.15
20
-25.286
11
115.842
21
-24.8
0
LINE
8
XSect
62
1
6
DASH
10
119.15
20
-25.286
11
117.886
21
-25.11
0
LINE
8
XSect
62
1
6
DASH
10
119.15
20
-25.286
11
119.444
21
-25.72
0
LINE
8
XSect
62
1
10
119.15
20
-25.286
11
120.97
21
-25.996
0
LINE
8
XSect
62
1
10
119.15
20
-25.286
11
122.078
21
-26.116
0
LINE
8
XSect
62
1
10
119.15
20
-25.286
11
124.214
21
-26.686
0
LINE
8
XSect
62
1
10
119.15
20
-25.286
11
135.908
21
-28.702
0
LINE
8
XSect
62
1
6
DASH
10
119.15
20
-25.286
11
120.424
21
-25.698
0
LINE
8
XSect
62
1
10
119.15
20
-25.286
11
122.394
21
-26.114
0
LINE
8
XSect
62
1
10
119.15
20
-25.286
11
124.13
21
-26.438
0
LINE
8
XSect
62
1
10
119.15
20
-25.286
11
129.04
21
-27.508
0
LINE
8
XSect
62
1
10
119.15
20
-25.286
11
124.182
21
-29.122
0
LINE
8
XSect
62
1
10
119.15
20
-25.286
11
128.12
21
-28.904
0
LINE
8
Shots
62
1
10
101.65
20
-22.268
11
108.146
21
-23.222
0
CIRCLE
8
Shots
62
1
10
108.146
20
-23.222
40
0.1
0
LINE
8
XSect
62
1
10
108.146
20
-23.222
11
107.992
21
-25.534
0
LINE
8
XSect
62
1
6
DASH
10
108.146
20
-23.222
11
108.03
21
-23.442
0
LINE
8
XSect
62
1
6
DASH
10
108.146
20
-23.222
11
108.214
21
-22.73
0
LINE
8
XSect
62
1
10
108.146
20
-23.222
11
110.64
21
-24.258
0
LINE
8
XSect
62
1
10
108.146
20
-23.222
11
112.704
21
-24.536
0
LINE
8
XSect
62
1
10
108.146
20
-23.222
11
114.186
21
-24.378
0
LINE
8
XSect
62
1
10
108.146
20
-23.222
11
110.74
21
-24.108
0
LINE
8
XSect
62
1
10
108.146
20
-23.222
11
111.804
21
-26.102
0
LINE
8
XSect
62
1
10
108.146
20
-23.222
11
114.908
21
-26.362
0
LINE
8
XSect
62
1
10
108.146
20
-23.222
11
133.266
21
-28.82
0
LINE
8
Shots
62
1
10
97.124
20
-21.238
11
101.65
21
-22.268
0
CIRCLE
8
Shots
62
1
10
101.65
20
-22.268
40
0.1
0
LINE
8
XSect
62
1
10
101.65
20
-22.268
11
101.846
21
-21.15
0
LINE
8
XSect
62
1
6
DASH
10
101.65
20
-22.268
11
103.446
21
-21.56
0
LINE
8
XSect
62
1
10
101.65
20
-22.268
11
99.776
21
-22.38
0
LINE
8
XSect
62
1
6
DASH
10
101.65
20
-22.268
11
101.114
21
-22.374
0
LINE
8
XSect
62
1
6
DASH
10
101.65
20
-22.268
11
102.19
21
-22.74
0
LINE
8
XSect
62
1
6
DASH
10
101.65
20
-22.268
11
103.456
21
-22.828
0
LINE
8
XSect
62
1
10
101.65
20
-22.268
11
105.754
21
-23.068
0
LINE
8
XSect
62
1
10
101.65
20
-22.268
11
107.156
21
-23.05
0
LINE
8
XSect
62
1
10
101.65
20
-22.268
11
108.564
21
-23.082
0
LINE
8
XSect
62
1
10
101.65
20
-22.268
11
105.552
21
-23.256
0
LINE
8
XSect
62
1
10
101.65
20
-22.268
11
107.734
21
-23.528
0
LINE
8
Shots
62
1
10
86.54
20
-18.9
11
97.124
21
-21.238
0
CIRCLE
8
Shots
62
1
10
97.124
20
-21.238
40
0.1
0
LINE
8
XSect
62
1
10
97.124
20
-21.238
11
97.046
21
-20.748
0
LINE
8
XSect
62
1
10
97.124
20
-21.238
11
96.758
21
-22.25
0
LINE
8
XSect
62
1
10
97.124
20
-21.238
11
90.02
21
-20.112
0
LINE
8
XSect
62
1
10
97.124
20
-21.238
11
91.288
21
-20.346
0
LINE
8
XSect
62
1
10
97.124
20
-21.238
11
93.318
21
-20.734
0
LINE
8
XSect
62
1
6
DASH
10
97.124
20
-21.238
11
94.812
21
-20.938
0
LINE
8
XSect
62
1
10
97.124
20
-21.238
11
91.35
21
-19.808
0
LINE
8
XSect
62
1
6
DASH
10
97.124
20
-21.238
11
95.442
21
-20.964
0
LINE
8
XSect
62
1
6
DASH
10
97.124
20
-21.238
11
98.16
21
-20.81
0
LINE
8
XSect
62
1
6
DASH
10
97.124
20
-21.238
11
100.714
21
-21.272
0
LINE
8
Shots
62
1
10
84.22
20
-14.616
11
86.54
21
-18.9
0
CIRCLE
8
Shots
62
1
10
86.54
20
-18.9
40
0.1
0
LINE
8
XSect
62
1
10
86.54
20
-18.9
11
87.148
21
-20.728
0
LINE
8
XSect
62
1
10
86.54
20
-18.9
11
91.524
21
-19.482
0
LINE
8
XSect
62
1
10
86.54
20
-18.9
11
89.718
21
-18.148
0
LINE
8
XSect
62
1
10
86.54
20
-18.9
11
91.02
21
-19.272
0
LINE
8
XSect
62
1
10
86.54
20
-18.9
11
95.764
21
-20.774
0
LINE
8
XSect
62
1
6
DASH
10
86.54
20
-18.9
11
86.98
21
-18.84
0
LINE
8
Shots
62
1
10
84.22
20
-14.616
11
84.22
21
-14.616
0
CIRCLE
8
Shots
62
1
10
84.22
20
-14.616
40
0.1
0
LINE
8
XSect
62
1
10
84.22
20
-14.616
11
85.314
21
-15.27
0
LINE
8
XSect
62
1
10
84.22
20
-14.616
11
84.966
21
-15.484
0
LINE
8
XSect
62
1
10
84.22
20
-14.616
11
84.18
21
-16.172
0
ENDSEC
0
EOF
