0
SECTION
2
HEADER
9
$ACADVER
1
AC1002
9
$INSUNITS
70
4
0
ENDSEC
0
SECTION
2
TABLES
0
TABLE
2
LTYPE
70
1
0
LTYPE
2
DASH
70
0
3
---
72
65
73
2
40
0.6
49
0.3
49
-0.3
0
ENDTAB
0
ENDSEC
0
SECTION
2
ENTITIES
0
POLYLINE
66
1
8
Sketch
62
5
0
VERTEX
8
Sketch
10
-20.672
20
-55.598
0
VERTEX
8
Sketch
10
-20.552
20
-56.018
0
VERTEX
8
Sketch
10
-20.432
20
-56.078
0
VERTEX
8
Sketch
10
-20.132
20
-55.898
0
VERTEX
8
Sketch
10
-19.772
20
-55.478
0
SEQEND
0
POLYLINE
66
1
8
Sketch
62
5
0
VERTEX
8
Sketch
10
-20.072
20
-54.218
0
VERTEX
8
Sketch
10
-20.252
20
-54.158
0
VERTEX
8
Sketch
10
-20.372
20
-54.278
0
VERTEX
8
Sketch
10
-20.312
20
-54.758
0
VERTEX
8
Sketch
10
-20.432
20
-55.178
0
VERTEX
8
Sketch
10
-20.372
20
-55.538
0
VERTEX
8
Sketch
10
-20.432
20
-55.658
0
SEQEND
0
POLYLINE
66
1
8
Sketch
62
0
0
VERTEX
8
Sketch
10
-21.272
20
-51.278
0
VERTEX
8
Sketch
10
-21.452
20
-51.518
0
VERTEX
8
Sketch
10
-21.392
20
-51.818
0
VERTEX
8
Sketch
10
-21.152
20
-51.878
0
VERTEX
8
Sketch
10
-20.972
20
-51.698
0
VERTEX
8
Sketch
10
-20.792
20
-51.758
0
VERTEX
8
Sketch
10
-20.672
20
-51.638
0
VERTEX
8
Sketch
10
-20.732
20
-51.278
0
VERTEX
8
Sketch
10
-21.092
20
-51.278
0
VERTEX
8
Sketch
10
-21.632
20
-51.518
0
VERTEX
8
Sketch
10
-21.812
20
-51.818
0
VERTEX
8
Sketch
10
-21.632
20
-51.998
0
VERTEX
8
Sketch
10
-21.332
20
-51.698
0
VERTEX
8
Sketch
10
-21.332
20
-51.578
0
VERTEX
8
Sketch
10
-21.452
20
-51.458
0
VERTEX
8
Sketch
10
-21.632
20
-51.758
0
VERTEX
8
Sketch
10
-21.632
20
-51.938
0
VERTEX
8
Sketch
10
-21.332
20
-52.058
0
VERTEX
8
Sketch
10
-21.092
20
-51.878
0
VERTEX
8
Sketch
10
-20.972
20
-51.578
0
VERTEX
8
Sketch
10
-21.092
20
-51.458
0
VERTEX
8
Sketch
10
-21.212
20
-51.458
0
VERTEX
8
Sketch
10
-20.732
20
-50.978
0
VERTEX
8
Sketch
10
-20.732
20
-50.858
0
VERTEX
8
Sketch
10
-20.492
20
-51.038
0
VERTEX
8
Sketch
10
-20.312
20
-50.618
0
VERTEX
8
Sketch
10
-20.492
20
-49.958
0
VERTEX
8
Sketch
10
-20.552
20
-50.138
0
VERTEX
8
Sketch
10
-20.432
20
-50.198
0
VERTEX
8
Sketch
10
-20.192
20
-49.718
0
VERTEX
8
Sketch
10
-20.192
20
-49.358
0
VERTEX
8
Sketch
10
-20.252
20
-49.178
0
VERTEX
8
Sketch
10
-20.432
20
-49.058
0
VERTEX
8
Sketch
10
-20.552
20
-49.058
0
VERTEX
8
Sketch
10
-20.612
20
-49.178
0
SEQEND
0
POLYLINE
66
1
8
Sketch
62
0
0
VERTEX
8
Sketch
10
-20.732
20
-50.138
0
VERTEX
8
Sketch
10
-20.852
20
-50.618
0
VERTEX
8
Sketch
10
-20.792
20
-50.738
0
VERTEX
8
Sketch
10
-20.672
20
-50.738
0
VERTEX
8
Sketch
10
-20.432
20
-50.438
0
VERTEX
8
Sketch
10
-20.432
20
-50.318
0
VERTEX
8
Sketch
10
-20.612
20
-50.198
0
VERTEX
8
Sketch
10
-20.912
20
-50.318
0
VERTEX
8
Sketch
10
-21.092
20
-50.618
0
VERTEX
8
Sketch
10
-21.032
20
-50.798
0
VERTEX
8
Sketch
10
-20.852
20
-50.858
0
VERTEX
8
Sketch
10
-20.672
20
-50.558
0
VERTEX
8
Sketch
10
-20.792
20
-50.438
0
VERTEX
8
Sketch
10
-20.972
20
-50.438
0
VERTEX
8
Sketch
10
-21.032
20
-50.678
0
VERTEX
8
Sketch
10
-20.852
20
-51.038
0
SEQEND
0
POLYLINE
66
1
8
Sketch
62
0
0
VERTEX
8
Sketch
10
-20.672
20
-49.778
0
VERTEX
8
Sketch
10
-20.732
20
-49.898
0
VERTEX
8
Sketch
10
-20.552
20
-50.198
0
VERTEX
8
Sketch
10
-20.432
20
-50.258
0
VERTEX
8
Sketch
10
-20.252
20
-50.198
0
VERTEX
8
Sketch
10
-20.012
20
-49.898
0
VERTEX
8
Sketch
10
-20.192
20
-49.598
0
VERTEX
8
Sketch
10
-20.432
20
-49.478
0
VERTEX
8
Sketch
10
-20.672
20
-49.658
0
VERTEX
8
Sketch
10
-20.672
20
-49.778
0
VERTEX
8
Sketch
10
-20.492
20
-49.838
0
SEQEND
0
POLYLINE
66
1
8
Sketch
62
0
0
VERTEX
8
Sketch
10
-21.812
20
-51.998
0
VERTEX
8
Sketch
10
-21.812
20
-52.298
0
VERTEX
8
Sketch
10
-21.572
20
-52.538
0
VERTEX
8
Sketch
10
-21.392
20
-52.538
0
VERTEX
8
Sketch
10
-21.092
20
-52.358
0
SEQEND
0
POLYLINE
66
1
8
Sketch
62
0
0
VERTEX
8
Sketch
10
-20.792
20
-52.778
0
VERTEX
8
Sketch
10
-20.852
20
-52.958
0
VERTEX
8
Sketch
10
-20.792
20
-53.258
0
VERTEX
8
Sketch
10
-20.852
20
-53.798
0
SEQEND
0
POLYLINE
66
1
8
Sketch
62
0
0
VERTEX
8
Sketch
10
-21.452
20
-51.878
0
VERTEX
8
Sketch
10
-21.692
20
-52.058
0
VERTEX
8
Sketch
10
-21.692
20
-52.358
0
VERTEX
8
Sketch
10
-21.032
20
-52.658
0
VERTEX
8
Sketch
10
-20.972
20
-52.838
0
SEQEND
0
POLYLINE
66
1
8
Sketch
62
0
0
VERTEX
8
Sketch
10
-19.652
20
-52.358
0
VERTEX
8
Sketch
10
-19.772
20
-52.658
0
VERTEX
8
Sketch
10
-19.832
20
-53.138
0
VERTEX
8
Sketch
10
-20.072
20
-53.978
0
SEQEND
0
POLYLINE
66
1
8
Sketch
62
0
0
VERTEX
8
Sketch
10
-20.312
20
-52.658
0
VERTEX
8
Sketch
10
-20.492
20
-53.258
0
VERTEX
8
Sketch
10
-20.492
20
-53.498
0
VERTEX
8
Sketch
10
-20.552
20
-53.618
0
SEQEND
0
POLYLINE
66
1
8
Sketch
62
0
0
VERTEX
8
Sketch
10
-20.072
20
-52.598
0
VERTEX
8
Sketch
10
-20.252
20
-52.898
0
VERTEX
8
Sketch
10
-20.252
20
-53.198
0
VERTEX
8
Sketch
10
-20.372
20
-53.498
0
SEQEND
0
POLYLINE
66
1
8
Sketch
62
0
0
VERTEX
8
Sketch
10
-19.532
20
-51.758
0
VERTEX
8
Sketch
10
-19.652
20
-52.238
0
VERTEX
8
Sketch
10
-19.712
20
-52.358
0
VERTEX
8
Sketch
10
-19.712
20
-52.598
0
VERTEX
8
Sketch
10
-19.772
20
-52.478
0
SEQEND
0
POLYLINE
66
1
8
Sketch
62
0
0
VERTEX
8
Sketch
10
-21.032
20
-49.178
0
VERTEX
8
Sketch
10
-21.212
20
-49.898
0
VERTEX
8
Sketch
10
-21.272
20
-50.018
0
VERTEX
8
Sketch
10
-21.272
20
-50.258
0
VERTEX
8
Sketch
10
-21.632
20
-51.158
0
VERTEX
8
Sketch
10
-21.752
20
-51.278
0
VERTEX
8
Sketch
10
-21.752
20
-51.458
0
VERTEX
8
Sketch
10
-21.872
20
-51.578
0
VERTEX
8
Sketch
10
-21.992
20
-52.238
0
VERTEX
8
Sketch
10
-22.052
20
-52.478
0
SEQEND
0
POLYLINE
66
1
8
Sketch
62
0
0
VERTEX
8
Sketch
10
-17.732
20
-48.878
0
VERTEX
8
Sketch
10
-17.852
20
-48.998
0
VERTEX
8
Sketch
10
-18.092
20
-49.058
0
VERTEX
8
Sketch
10
-18.512
20
-49.358
0
VERTEX
8
Sketch
10
-18.692
20
-49.358
0
VERTEX
8
Sketch
10
-19.352
20
-49.538
0
VERTEX
8
Sketch
10
-19.172
20
-49.598
0
VERTEX
8
Sketch
10
-18.812
20
-49.358
0
VERTEX
8
Sketch
10
-18.692
20
-49.358
0
VERTEX
8
Sketch
10
-17.912
20
-48.878
0
VERTEX
8
Sketch
10
-17.432
20
-48.338
0
VERTEX
8
Sketch
10
-17.192
20
-47.858
0
VERTEX
8
Sketch
10
-17.372
20
-48.098
0
VERTEX
8
Sketch
10
-17.552
20
-48.158
0
VERTEX
8
Sketch
10
-17.732
20
-48.458
0
VERTEX
8
Sketch
10
-18.152
20
-48.758
0
VERTEX
8
Sketch
10
-18.572
20
-49.178
0
VERTEX
8
Sketch
10
-19.112
20
-49.598
0
VERTEX
8
Sketch
10
-19.352
20
-49.958
0
VERTEX
8
Sketch
10
-19.352
20
-50.198
0
VERTEX
8
Sketch
10
-19.412
20
-50.018
0
VERTEX
8
Sketch
10
-19.472
20
-50.498
0
VERTEX
8
Sketch
10
-19.472
20
-50.738
0
VERTEX
8
Sketch
10
-19.532
20
-50.978
0
VERTEX
8
Sketch
10
-19.532
20
-51.398
0
VERTEX
8
Sketch
10
-19.772
20
-51.578
0
VERTEX
8
Sketch
10
-19.952
20
-51.878
0
VERTEX
8
Sketch
10
-20.312
20
-52.118
0
VERTEX
8
Sketch
10
-20.252
20
-51.998
0
SEQEND
0
POLYLINE
66
1
8
Sketch
62
0
0
VERTEX
8
Sketch
10
-17.672
20
-49.058
0
VERTEX
8
Sketch
10
-18.512
20
-49.658
0
VERTEX
8
Sketch
10
-18.812
20
-49.838
0
VERTEX
8
Sketch
10
-18.932
20
-49.958
0
VERTEX
8
Sketch
10
-18.812
20
-49.778
0
SEQEND
0
POLYLINE
66
1
8
Sketch
62
0
0
VERTEX
8
Sketch
10
-20.432
20
-48.998
0
VERTEX
8
Sketch
10
-20.492
20
-49.178
0
VERTEX
8
Sketch
10
-20.372
20
-49.298
0
VERTEX
8
Sketch
10
-20.192
20
-49.118
0
VERTEX
8
Sketch
10
-20.132
20
-48.878
0
VERTEX
8
Sketch
10
-20.432
20
-48.638
0
VERTEX
8
Sketch
10
-20.612
20
-48.878
0
VERTEX
8
Sketch
10
-20.612
20
-48.998
0
VERTEX
8
Sketch
10
-20.432
20
-49.058
0
SEQEND
0
POLYLINE
66
1
8
Sketch
62
0
0
VERTEX
8
Sketch
10
-20.072
20
-47.498
0
VERTEX
8
Sketch
10
-20.372
20
-48.038
0
VERTEX
8
Sketch
10
-20.312
20
-48.338
0
VERTEX
8
Sketch
10
-20.192
20
-48.458
0
VERTEX
8
Sketch
10
-19.832
20
-47.978
0
VERTEX
8
Sketch
10
-19.772
20
-47.798
0
VERTEX
8
Sketch
10
-19.892
20
-47.618
0
VERTEX
8
Sketch
10
-20.132
20
-47.678
0
VERTEX
8
Sketch
10
-20.252
20
-48.038
0
SEQEND
0
POLYLINE
66
1
8
Sketch
62
0
0
VERTEX
8
Sketch
10
-20.312
20
-48.338
0
VERTEX
8
Sketch
10
-20.372
20
-48.638
0
VERTEX
8
Sketch
10
-20.312
20
-48.758
0
VERTEX
8
Sketch
10
-20.132
20
-48.518
0
VERTEX
8
Sketch
10
-20.192
20
-48.218
0
VERTEX
8
Sketch
10
-20.312
20
-48.158
0
SEQEND
0
POLYLINE
66
1
8
Sketch
62
0
0
VERTEX
8
Sketch
10
-19.712
20
-46.118
0
VERTEX
8
Sketch
10
-20.012
20
-46.478
0
VERTEX
8
Sketch
10
-20.732
20
-48.398
0
VERTEX
8
Sketch
10
-20.792
20
-48.698
0
VERTEX
8
Sketch
10
-20.912
20
-48.818
0
VERTEX
8
Sketch
10
-20.912
20
-48.998
0
VERTEX
8
Sketch
10
-21.032
20
-49.118
0
VERTEX
8
Sketch
10
-21.032
20
-49.298
0
VERTEX
8
Sketch
10
-21.152
20
-49.658
0
VERTEX
8
Sketch
10
-21.152
20
-49.718
0
SEQEND
0
POLYLINE
66
1
8
Sketch
62
0
0
VERTEX
8
Sketch
10
-19.832
20
-48.518
0
VERTEX
8
Sketch
10
-19.952
20
-48.518
0
VERTEX
8
Sketch
10
-20.012
20
-48.938
0
VERTEX
8
Sketch
10
-19.832
20
-49.118
0
VERTEX
8
Sketch
10
-19.712
20
-48.578
0
VERTEX
8
Sketch
10
-20.072
20
-48.218
0
VERTEX
8
Sketch
10
-20.192
20
-48.338
0
VERTEX
8
Sketch
10
-20.252
20
-48.638
0
VERTEX
8
Sketch
10
-19.952
20
-48.758
0
SEQEND
0
POLYLINE
66
1
8
Sketch
62
0
0
VERTEX
8
Sketch
10
-19.412
20
-48.998
0
VERTEX
8
Sketch
10
-19.532
20
-48.938
0
VERTEX
8
Sketch
10
-19.532
20
-49.118
0
VERTEX
8
Sketch
10
-19.652
20
-49.478
0
VERTEX
8
Sketch
10
-19.652
20
-49.658
0
VERTEX
8
Sketch
10
-19.412
20
-49.418
0
VERTEX
8
Sketch
10
-19.412
20
-49.298
0
VERTEX
8
Sketch
10
-19.532
20
-49.118
0
VERTEX
8
Sketch
10
-19.712
20
-49.058
0
VERTEX
8
Sketch
10
-19.712
20
-49.298
0
SEQEND
0
POLYLINE
66
1
8
Sketch
62
0
0
VERTEX
8
Sketch
10
-19.952
20
-47.378
0
VERTEX
8
Sketch
10
-19.592
20
-47.978
0
VERTEX
8
Sketch
10
-19.592
20
-48.158
0
VERTEX
8
Sketch
10
-19.412
20
-48.818
0
VERTEX
8
Sketch
10
-19.412
20
-49.718
0
SEQEND
0
POINT
8
Sketch
62
0
10
-19.292
20
-45.998
0
POLYLINE
66
1
8
Sketch
62
0
0
VERTEX
8
Sketch
10
-19.892
20
-48.698
0
VERTEX
8
Sketch
10
-19.772
20
-48.578
0
VERTEX
8
Sketch
10
-19.772
20
-48.398
0
VERTEX
8
Sketch
10
-20.012
20
-48.158
0
VERTEX
8
Sketch
10
-20.132
20
-48.158
0
VERTEX
8
Sketch
10
-20.252
20
-48.278
0
SEQEND
0
POLYLINE
66
1
8
Sketch
62
0
0
VERTEX
8
Sketch
10
-19.952
20
-48.098
0
VERTEX
8
Sketch
10
-20.072
20
-48.098
0
VERTEX
8
Sketch
10
-19.952
20
-48.398
0
VERTEX
8
Sketch
10
-19.952
20
-48.578
0
SEQEND
0
POLYLINE
66
1
8
Sketch
62
0
0
VERTEX
8
Sketch
10
-19.112
20
-46.298
0
VERTEX
8
Sketch
10
-19.232
20
-46.238
0
VERTEX
8
Sketch
10
-19.352
20
-46.418
0
VERTEX
8
Sketch
10
-19.232
20
-47.078
0
VERTEX
8
Sketch
10
-18.872
20
-46.718
0
VERTEX
8
Sketch
10
-18.932
20
-46.178
0
VERTEX
8
Sketch
10
-19.172
20
-46.838
0
SEQEND
0
POLYLINE
66
1
8
Sketch
62
0
0
VERTEX
8
Sketch
10
-18.992
20
-47.078
0
VERTEX
8
Sketch
10
-19.232
20
-47.018
0
VERTEX
8
Sketch
10
-19.292
20
-47.138
0
VERTEX
8
Sketch
10
-19.292
20
-47.558
0
VERTEX
8
Sketch
10
-19.052
20
-47.738
0
VERTEX
8
Sketch
10
-18.872
20
-47.558
0
VERTEX
8
Sketch
10
-18.812
20
-47.258
0
VERTEX
8
Sketch
10
-18.992
20
-46.838
0
VERTEX
8
Sketch
10
-19.052
20
-47.018
0
VERTEX
8
Sketch
10
-18.992
20
-47.258
0
SEQEND
0
POLYLINE
66
1
8
Sketch
62
0
0
VERTEX
8
Sketch
10
-19.532
20
-47.138
0
VERTEX
8
Sketch
10
-19.652
20
-47.078
0
VERTEX
8
Sketch
10
-19.832
20
-47.438
0
VERTEX
8
Sketch
10
-19.772
20
-47.678
0
VERTEX
8
Sketch
10
-19.292
20
-47.738
0
VERTEX
8
Sketch
10
-19.172
20
-47.438
0
VERTEX
8
Sketch
10
-19.412
20
-47.198
0
VERTEX
8
Sketch
10
-19.472
20
-47.378
0
SEQEND
0
POLYLINE
66
1
8
Sketch
62
0
0
VERTEX
8
Sketch
10
-19.232
20
-47.738
0
VERTEX
8
Sketch
10
-19.472
20
-47.978
0
VERTEX
8
Sketch
10
-19.532
20
-48.278
0
VERTEX
8
Sketch
10
-19.412
20
-48.278
0
VERTEX
8
Sketch
10
-19.232
20
-47.918
0
VERTEX
8
Sketch
10
-19.232
20
-47.798
0
VERTEX
8
Sketch
10
-19.352
20
-47.738
0
VERTEX
8
Sketch
10
-19.652
20
-47.738
0
VERTEX
8
Sketch
10
-19.772
20
-47.858
0
VERTEX
8
Sketch
10
-19.832
20
-48.098
0
VERTEX
8
Sketch
10
-19.712
20
-48.158
0
VERTEX
8
Sketch
10
-19.532
20
-47.918
0
VERTEX
8
Sketch
10
-19.532
20
-47.738
0
VERTEX
8
Sketch
10
-19.592
20
-47.618
0
VERTEX
8
Sketch
10
-19.772
20
-47.558
0
VERTEX
8
Sketch
10
-19.832
20
-47.678
0
VERTEX
8
Sketch
10
-19.772
20
-47.858
0
VERTEX
8
Sketch
10
-19.592
20
-47.918
0
SEQEND
0
POLYLINE
66
1
8
Sketch
62
0
0
VERTEX
8
Sketch
10
-18.992
20
-47.918
0
VERTEX
8
Sketch
10
-19.172
20
-48.158
0
VERTEX
8
Sketch
10
-19.172
20
-48.638
0
VERTEX
8
Sketch
10
-19.052
20
-48.818
0
VERTEX
8
Sketch
10
-18.812
20
-48.578
0
VERTEX
8
Sketch
10
-18.752
20
-48.218
0
VERTEX
8
Sketch
10
-18.992
20
-47.978
0
VERTEX
8
Sketch
10
-19.172
20
-47.918
0
VERTEX
8
Sketch
10
-19.292
20
-48.038
0
VERTEX
8
Sketch
10
-19.292
20
-48.158
0
VERTEX
8
Sketch
10
-19.172
20
-48.338
0
VERTEX
8
Sketch
10
-18.872
20
-48.398
0
SEQEND
0
POLYLINE
66
1
8
Sketch
62
0
0
VERTEX
8
Sketch
10
-18.512
20
-48.398
0
VERTEX
8
Sketch
10
-18.692
20
-48.758
0
VERTEX
8
Sketch
10
-18.872
20
-48.878
0
VERTEX
8
Sketch
10
-18.992
20
-48.878
0
VERTEX
8
Sketch
10
-19.352
20
-49.118
0
SEQEND
0
POLYLINE
66
1
8
Sketch
62
0
0
VERTEX
8
Sketch
10
-18.452
20
-48.278
0
VERTEX
8
Sketch
10
-18.512
20
-48.518
0
VERTEX
8
Sketch
10
-18.572
20
-48.758
0
VERTEX
8
Sketch
10
-18.752
20
-49.058
0
SEQEND
0
POLYLINE
66
1
8
Sketch
62
5
0
VERTEX
8
Sketch
10
-18.032
20
-49.478
0
VERTEX
8
Sketch
10
-18.272
20
-49.958
0
VERTEX
8
Sketch
10
-18.272
20
-50.078
0
VERTEX
8
Sketch
10
-17.612
20
-49.958
0
SEQEND
0
POLYLINE
66
1
8
Sketch
62
5
0
VERTEX
8
Sketch
10
-16.412
20
-46.358
0
VERTEX
8
Sketch
10
-16.472
20
-46.598
0
VERTEX
8
Sketch
10
-16.472
20
-46.478
0
VERTEX
8
Sketch
10
-16.832
20
-47.018
0
VERTEX
8
Sketch
10
-17.012
20
-47.558
0
VERTEX
8
Sketch
10
-17.372
20
-48.038
0
VERTEX
8
Sketch
10
-17.432
20
-48.518
0
VERTEX
8
Sketch
10
-17.552
20
-48.578
0
VERTEX
8
Sketch
10
-17.552
20
-48.938
0
VERTEX
8
Sketch
10
-18.032
20
-49.598
0
VERTEX
8
Sketch
10
-18.152
20
-49.658
0
SEQEND
0
POLYLINE
66
1
8
Sketch
62
0
0
VERTEX
8
Sketch
10
-17.252
20
-43.298
0
VERTEX
8
Sketch
10
-17.492
20
-43.538
0
VERTEX
8
Sketch
10
-17.732
20
-44.078
0
VERTEX
8
Sketch
10
-17.732
20
-44.198
0
VERTEX
8
Sketch
10
-17.552
20
-44.198
0
VERTEX
8
Sketch
10
-17.192
20
-43.598
0
VERTEX
8
Sketch
10
-17.372
20
-43.538
0
VERTEX
8
Sketch
10
-17.372
20
-43.658
0
VERTEX
8
Sketch
10
-17.552
20
-43.838
0
SEQEND
0
POLYLINE
66
1
8
Sketch
62
0
0
VERTEX
8
Sketch
10
-18.272
20
-45.338
0
VERTEX
8
Sketch
10
-18.572
20
-45.398
0
VERTEX
8
Sketch
10
-18.692
20
-45.758
0
VERTEX
8
Sketch
10
-18.572
20
-45.818
0
VERTEX
8
Sketch
10
-18.272
20
-45.638
0
VERTEX
8
Sketch
10
-18.212
20
-45.518
0
VERTEX
8
Sketch
10
-18.332
20
-45.518
0
VERTEX
8
Sketch
10
-18.392
20
-45.638
0
VERTEX
8
Sketch
10
-18.332
20
-45.758
0
SEQEND
0
POLYLINE
66
1
8
Sketch
62
0
0
VERTEX
8
Sketch
10
-18.272
20
-46.418
0
VERTEX
8
Sketch
10
-18.512
20
-46.478
0
VERTEX
8
Sketch
10
-18.572
20
-46.598
0
VERTEX
8
Sketch
10
-18.452
20
-46.838
0
VERTEX
8
Sketch
10
-18.332
20
-46.838
0
VERTEX
8
Sketch
10
-18.392
20
-46.418
0
VERTEX
8
Sketch
10
-18.512
20
-46.478
0
VERTEX
8
Sketch
10
-18.572
20
-46.778
0
VERTEX
8
Sketch
10
-18.392
20
-46.838
0
SEQEND
0
POLYLINE
66
1
8
Sketch
62
0
0
VERTEX
8
Sketch
10
-16.952
20
-45.698
0
VERTEX
8
Sketch
10
-17.072
20
-45.518
0
VERTEX
8
Sketch
10
-17.192
20
-45.638
0
SEQEND
0
POLYLINE
66
1
8
Sketch
62
0
0
VERTEX
8
Sketch
10
-17.432
20
-45.998
0
VERTEX
8
Sketch
10
-17.672
20
-46.178
0
VERTEX
8
Sketch
10
-17.852
20
-47.018
0
VERTEX
8
Sketch
10
-17.492
20
-47.378
0
VERTEX
8
Sketch
10
-17.072
20
-47.198
0
VERTEX
8
Sketch
10
-16.772
20
-46.778
0
VERTEX
8
Sketch
10
-16.832
20
-46.418
0
VERTEX
8
Sketch
10
-16.952
20
-46.478
0
SEQEND
0
POLYLINE
66
1
8
Sketch
62
0
0
VERTEX
8
Sketch
10
-17.792
20
-47.498
0
VERTEX
8
Sketch
10
-17.912
20
-47.378
0
VERTEX
8
Sketch
10
-18.032
20
-47.378
0
VERTEX
8
Sketch
10
-18.212
20
-47.498
0
VERTEX
8
Sketch
10
-18.272
20
-47.858
0
VERTEX
8
Sketch
10
-18.212
20
-48.038
0
VERTEX
8
Sketch
10
-18.092
20
-48.038
0
VERTEX
8
Sketch
10
-17.612
20
-47.558
0
VERTEX
8
Sketch
10
-17.972
20
-47.318
0
VERTEX
8
Sketch
10
-18.272
20
-47.258
0
VERTEX
8
Sketch
10
-18.452
20
-47.318
0
VERTEX
8
Sketch
10
-18.452
20
-47.558
0
SEQEND
0
POLYLINE
66
1
8
Sketch
62
0
0
VERTEX
8
Sketch
10
-17.912
20
-45.458
0
VERTEX
8
Sketch
10
-18.152
20
-45.578
0
VERTEX
8
Sketch
10
-18.212
20
-45.758
0
VERTEX
8
Sketch
10
-18.212
20
-46.238
0
VERTEX
8
Sketch
10
-18.092
20
-46.478
0
VERTEX
8
Sketch
10
-17.792
20
-46.718
0
VERTEX
8
Sketch
10
-17.612
20
-46.538
0
VERTEX
8
Sketch
10
-18.032
20
-46.178
0
VERTEX
8
Sketch
10
-18.152
20
-46.238
0
VERTEX
8
Sketch
10
-18.212
20
-46.478
0
VERTEX
8
Sketch
10
-18.032
20
-46.778
0
VERTEX
8
Sketch
10
-17.792
20
-46.718
0
SEQEND
0
POLYLINE
66
1
8
Sketch
62
0
0
VERTEX
8
Sketch
10
-17.552
20
-45.038
0
VERTEX
8
Sketch
10
-17.672
20
-44.978
0
VERTEX
8
Sketch
10
-17.912
20
-45.098
0
VERTEX
8
Sketch
10
-17.972
20
-45.398
0
VERTEX
8
Sketch
10
-17.912
20
-45.758
0
VERTEX
8
Sketch
10
-17.552
20
-45.878
0
VERTEX
8
Sketch
10
-17.252
20
-45.758
0
VERTEX
8
Sketch
10
-17.072
20
-45.458
0
VERTEX
8
Sketch
10
-17.252
20
-45.098
0
VERTEX
8
Sketch
10
-17.612
20
-44.978
0
VERTEX
8
Sketch
10
-17.792
20
-44.798
0
VERTEX
8
Sketch
10
-17.852
20
-44.918
0
VERTEX
8
Sketch
10
-17.732
20
-45.218
0
SEQEND
0
POLYLINE
66
1
8
Sketch
62
0
0
VERTEX
8
Sketch
10
-16.832
20
-45.698
0
VERTEX
8
Sketch
10
-17.012
20
-45.638
0
VERTEX
8
Sketch
10
-17.252
20
-45.878
0
VERTEX
8
Sketch
10
-17.312
20
-45.998
0
VERTEX
8
Sketch
10
-17.132
20
-46.178
0
VERTEX
8
Sketch
10
-16.892
20
-45.998
0
VERTEX
8
Sketch
10
-17.072
20
-45.698
0
SEQEND
0
POLYLINE
66
1
8
Sketch
62
5
0
VERTEX
8
Sketch
10
-15.992
20
-44.498
0
VERTEX
8
Sketch
10
-16.232
20
-44.858
0
VERTEX
8
Sketch
10
-16.232
20
-44.978
0
VERTEX
8
Sketch
10
-16.112
20
-45.038
0
VERTEX
8
Sketch
10
-15.932
20
-44.918
0
VERTEX
8
Sketch
10
-15.932
20
-44.798
0
VERTEX
8
Sketch
10
-16.052
20
-44.738
0
VERTEX
8
Sketch
10
-16.292
20
-44.918
0
VERTEX
8
Sketch
10
-16.232
20
-45.158
0
VERTEX
8
Sketch
10
-16.112
20
-45.218
0
VERTEX
8
Sketch
10
-15.872
20
-45.038
0
VERTEX
8
Sketch
10
-15.872
20
-44.918
0
VERTEX
8
Sketch
10
-16.112
20
-44.858
0
VERTEX
8
Sketch
10
-16.292
20
-45.158
0
VERTEX
8
Sketch
10
-16.232
20
-45.278
0
VERTEX
8
Sketch
10
-16.052
20
-45.278
0
VERTEX
8
Sketch
10
-15.932
20
-45.158
0
VERTEX
8
Sketch
10
-15.932
20
-45.038
0
VERTEX
8
Sketch
10
-16.112
20
-44.978
0
VERTEX
8
Sketch
10
-16.292
20
-45.038
0
VERTEX
8
Sketch
10
-16.292
20
-45.218
0
VERTEX
8
Sketch
10
-16.172
20
-45.338
0
VERTEX
8
Sketch
10
-15.932
20
-45.158
0
VERTEX
8
Sketch
10
-15.932
20
-44.978
0
VERTEX
8
Sketch
10
-16.052
20
-45.038
0
SEQEND
0
POLYLINE
66
1
8
Sketch
62
0
0
VERTEX
8
Sketch
10
-13.712
20
-44.498
0
VERTEX
8
Sketch
10
-13.832
20
-44.618
0
VERTEX
8
Sketch
10
-14.072
20
-44.678
0
VERTEX
8
Sketch
10
-14.372
20
-44.858
0
VERTEX
8
Sketch
10
-14.852
20
-45.518
0
VERTEX
8
Sketch
10
-14.852
20
-45.758
0
VERTEX
8
Sketch
10
-15.092
20
-45.818
0
VERTEX
8
Sketch
10
-15.332
20
-46.118
0
SEQEND
0
POLYLINE
66
1
8
Sketch
62
0
0
VERTEX
8
Sketch
10
-18.152
20
-50.018
0
VERTEX
8
Sketch
10
-17.852
20
-49.598
0
VERTEX
8
Sketch
10
-17.252
20
-48.338
0
VERTEX
8
Sketch
10
-17.072
20
-48.038
0
VERTEX
8
Sketch
10
-16.712
20
-47.438
0
VERTEX
8
Sketch
10
-16.532
20
-47.378
0
VERTEX
8
Sketch
10
-16.412
20
-47.078
0
VERTEX
8
Sketch
10
-15.632
20
-46.178
0
VERTEX
8
Sketch
10
-15.452
20
-45.758
0
SEQEND
0
POLYLINE
66
1
8
Sketch
62
0
0
VERTEX
8
Sketch
10
-17.552
20
-41.618
0
VERTEX
8
Sketch
10
-17.552
20
-41.738
0
VERTEX
8
Sketch
10
-17.732
20
-41.978
0
VERTEX
8
Sketch
10
-17.732
20
-41.978
0
VERTEX
8
Sketch
10
-18.512
20
-42.878
0
VERTEX
8
Sketch
10
-18.512
20
-43.058
0
VERTEX
8
Sketch
10
-18.632
20
-43.298
0
VERTEX
8
Sketch
10
-18.632
20
-43.478
0
VERTEX
8
Sketch
10
-19.052
20
-44.378
0
VERTEX
8
Sketch
10
-19.052
20
-44.558
0
VERTEX
8
Sketch
10
-19.352
20
-45.158
0
VERTEX
8
Sketch
10
-19.352
20
-45.278
0
VERTEX
8
Sketch
10
-19.592
20
-45.638
0
VERTEX
8
Sketch
10
-19.592
20
-45.818
0
VERTEX
8
Sketch
10
-19.952
20
-46.598
0
SEQEND
0
POLYLINE
66
1
8
Sketch
62
0
0
VERTEX
8
Sketch
10
-16.172
20
-39.038
0
VERTEX
8
Sketch
10
-16.892
20
-40.538
0
VERTEX
8
Sketch
10
-17.252
20
-41.438
0
VERTEX
8
Sketch
10
-17.432
20
-41.678
0
VERTEX
8
Sketch
10
-17.552
20
-41.978
0
VERTEX
8
Sketch
10
-17.492
20
-42.098
0
SEQEND
0
POLYLINE
66
1
8
Sketch
62
5
0
VERTEX
8
Sketch
10
-15.092
20
-44.678
0
VERTEX
8
Sketch
10
-15.332
20
-44.738
0
VERTEX
8
Sketch
10
-15.932
20
-45.038
0
VERTEX
8
Sketch
10
-16.112
20
-45.278
0
VERTEX
8
Sketch
10
-16.112
20
-45.398
0
VERTEX
8
Sketch
10
-15.512
20
-46.178
0
SEQEND
0
POLYLINE
66
1
8
Sketch
62
5
0
VERTEX
8
Sketch
10
-15.692
20
-45.158
0
VERTEX
8
Sketch
10
-15.392
20
-45.098
0
VERTEX
8
Sketch
10
-15.392
20
-45.218
0
VERTEX
8
Sketch
10
-15.332
20
-45.158
0
VERTEX
8
Sketch
10
-15.152
20
-45.758
0
VERTEX
8
Sketch
10
-14.732
20
-45.758
0
VERTEX
8
Sketch
10
-14.432
20
-45.938
0
VERTEX
8
Sketch
10
-13.952
20
-45.938
0
VERTEX
8
Sketch
10
-13.592
20
-46.478
0
VERTEX
8
Sketch
10
-13.472
20
-46.598
0
VERTEX
8
Sketch
10
-13.292
20
-46.598
0
VERTEX
8
Sketch
10
-13.172
20
-46.658
0
SEQEND
0
POLYLINE
66
1
8
Sketch
62
0
0
VERTEX
8
Sketch
10
-15.392
20
-38.618
0
VERTEX
8
Sketch
10
-15.692
20
-38.858
0
VERTEX
8
Sketch
10
-15.692
20
-39.098
0
VERTEX
8
Sketch
10
-15.392
20
-39.278
0
VERTEX
8
Sketch
10
-15.152
20
-39.278
0
VERTEX
8
Sketch
10
-14.912
20
-39.458
0
VERTEX
8
Sketch
10
-14.852
20
-39.218
0
VERTEX
8
Sketch
10
-14.912
20
-38.918
0
VERTEX
8
Sketch
10
-15.332
20
-38.498
0
SEQEND
0
POLYLINE
66
1
8
Sketch
62
0
0
VERTEX
8
Sketch
10
-13.652
20
-39.518
0
VERTEX
8
Sketch
10
-13.712
20
-39.818
0
VERTEX
8
Sketch
10
-13.772
20
-40.058
0
VERTEX
8
Sketch
10
-13.772
20
-40.238
0
VERTEX
8
Sketch
10
-13.652
20
-40.238
0
VERTEX
8
Sketch
10
-13.412
20
-40.478
0
VERTEX
8
Sketch
10
-13.112
20
-39.998
0
VERTEX
8
Sketch
10
-13.412
20
-39.578
0
VERTEX
8
Sketch
10
-13.532
20
-39.518
0
VERTEX
8
Sketch
10
-13.772
20
-39.638
0
SEQEND
0
POLYLINE
66
1
8
Sketch
62
0
0
VERTEX
8
Sketch
10
-15.032
20
-36.818
0
VERTEX
8
Sketch
10
-15.572
20
-38.078
0
VERTEX
8
Sketch
10
-15.572
20
-38.318
0
VERTEX
8
Sketch
10
-15.752
20
-38.918
0
VERTEX
8
Sketch
10
-15.812
20
-38.918
0
VERTEX
8
Sketch
10
-15.812
20
-39.218
0
VERTEX
8
Sketch
10
-16.112
20
-39.878
0
VERTEX
8
Sketch
10
-16.112
20
-40.058
0
VERTEX
8
Sketch
10
-16.292
20
-40.598
0
SEQEND
0
POLYLINE
66
1
8
Sketch
62
0
0
VERTEX
8
Sketch
10
-10.892
20
-35.138
0
VERTEX
8
Sketch
10
-11.312
20
-35.858
0
VERTEX
8
Sketch
10
-12.632
20
-38.738
0
VERTEX
8
Sketch
10
-12.632
20
-38.858
0
VERTEX
8
Sketch
10
-12.752
20
-38.978
0
VERTEX
8
Sketch
10
-12.752
20
-39.158
0
VERTEX
8
Sketch
10
-12.872
20
-39.338
0
VERTEX
8
Sketch
10
-12.932
20
-39.578
0
VERTEX
8
Sketch
10
-13.112
20
-40.058
0
VERTEX
8
Sketch
10
-13.112
20
-40.478
0
VERTEX
8
Sketch
10
-13.232
20
-40.898
0
VERTEX
8
Sketch
10
-13.232
20
-41.138
0
VERTEX
8
Sketch
10
-13.352
20
-41.678
0
VERTEX
8
Sketch
10
-13.292
20
-41.798
0
VERTEX
8
Sketch
10
-13.352
20
-42.038
0
VERTEX
8
Sketch
10
-13.412
20
-42.578
0
VERTEX
8
Sketch
10
-13.412
20
-42.758
0
VERTEX
8
Sketch
10
-13.532
20
-43.118
0
VERTEX
8
Sketch
10
-13.532
20
-43.298
0
VERTEX
8
Sketch
10
-13.712
20
-44.018
0
VERTEX
8
Sketch
10
-13.712
20
-44.198
0
VERTEX
8
Sketch
10
-13.952
20
-45.098
0
SEQEND
0
POLYLINE
66
1
8
Sketch
62
0
0
VERTEX
8
Sketch
10
-14.672
20
-39.218
0
VERTEX
8
Sketch
10
-14.792
20
-39.398
0
VERTEX
8
Sketch
10
-14.852
20
-39.758
0
VERTEX
8
Sketch
10
-14.912
20
-39.878
0
VERTEX
8
Sketch
10
-14.432
20
-39.398
0
VERTEX
8
Sketch
10
-14.432
20
-39.098
0
VERTEX
8
Sketch
10
-14.552
20
-39.038
0
SEQEND
0
POLYLINE
66
1
8
Sketch
62
0
0
VERTEX
8
Sketch
10
-14.192
20
-37.178
0
VERTEX
8
Sketch
10
-14.552
20
-38.258
0
VERTEX
8
Sketch
10
-14.252
20
-38.318
0
VERTEX
8
Sketch
10
-14.192
20
-38.498
0
VERTEX
8
Sketch
10
-14.192
20
-38.318
0
VERTEX
8
Sketch
10
-13.952
20
-37.898
0
VERTEX
8
Sketch
10
-13.892
20
-37.538
0
VERTEX
8
Sketch
10
-14.072
20
-37.358
0
VERTEX
8
Sketch
10
-14.072
20
-37.238
0
SEQEND
0
POLYLINE
66
1
8
Sketch
62
0
0
VERTEX
8
Sketch
10
-13.232
20
-34.598
0
VERTEX
8
Sketch
10
-13.412
20
-34.838
0
VERTEX
8
Sketch
10
-13.412
20
-34.958
0
VERTEX
8
Sketch
10
-13.652
20
-35.198
0
VERTEX
8
Sketch
10
-13.832
20
-35.618
0
VERTEX
8
Sketch
10
-13.772
20
-35.738
0
VERTEX
8
Sketch
10
-13.232
20
-35.918
0
VERTEX
8
Sketch
10
-13.052
20
-35.918
0
VERTEX
8
Sketch
10
-13.052
20
-35.498
0
VERTEX
8
Sketch
10
-12.992
20
-35.258
0
VERTEX
8
Sketch
10
-13.052
20
-35.078
0
VERTEX
8
Sketch
10
-12.872
20
-34.838
0
VERTEX
8
Sketch
10
-12.872
20
-34.718
0
VERTEX
8
Sketch
10
-13.112
20
-34.718
0
VERTEX
8
Sketch
10
-13.232
20
-34.658
0
SEQEND
0
POLYLINE
66
1
8
Sketch
62
0
0
VERTEX
8
Sketch
10
-13.832
20
-38.738
0
VERTEX
8
Sketch
10
-14.072
20
-38.978
0
VERTEX
8
Sketch
10
-14.132
20
-39.278
0
VERTEX
8
Sketch
10
-14.072
20
-39.458
0
VERTEX
8
Sketch
10
-13.892
20
-39.158
0
VERTEX
8
Sketch
10
-13.712
20
-39.038
0
VERTEX
8
Sketch
10
-13.772
20
-38.798
0
VERTEX
8
Sketch
10
-13.952
20
-38.618
0
VERTEX
8
Sketch
10
-14.132
20
-38.918
0
VERTEX
8
Sketch
10
-14.132
20
-39.038
0
VERTEX
8
Sketch
10
-13.952
20
-39.038
0
SEQEND
0
POLYLINE
66
1
8
Sketch
62
0
0
VERTEX
8
Sketch
10
-13.412
20
-38.018
0
VERTEX
8
Sketch
10
-13.652
20
-38.378
0
VERTEX
8
Sketch
10
-13.292
20
-38.138
0
VERTEX
8
Sketch
10
-13.232
20
-37.958
0
VERTEX
8
Sketch
10
-13.472
20
-37.718
0
VERTEX
8
Sketch
10
-13.592
20
-37.718
0
VERTEX
8
Sketch
10
-13.772
20
-37.958
0
SEQEND
0
POLYLINE
66
1
8
Sketch
62
0
0
VERTEX
8
Sketch
10
-13.172
20
-36.818
0
VERTEX
8
Sketch
10
-13.352
20
-37.118
0
VERTEX
8
Sketch
10
-13.352
20
-37.238
0
VERTEX
8
Sketch
10
-13.232
20
-37.298
0
VERTEX
8
Sketch
10
-13.052
20
-37.178
0
VERTEX
8
Sketch
10
-13.112
20
-36.878
0
VERTEX
8
Sketch
10
-13.412
20
-36.818
0
VERTEX
8
Sketch
10
-13.472
20
-37.058
0
VERTEX
8
Sketch
10
-13.352
20
-37.118
0
SEQEND
0
POLYLINE
66
1
8
Sketch
62
0
0
VERTEX
8
Sketch
10
-12.572
20
-35.618
0
VERTEX
8
Sketch
10
-12.692
20
-35.978
0
VERTEX
8
Sketch
10
-12.692
20
-35.978
0
VERTEX
8
Sketch
10
-12.812
20
-35.918
0
VERTEX
8
Sketch
10
-12.932
20
-35.978
0
VERTEX
8
Sketch
10
-12.932
20
-36.098
0
SEQEND
0
POLYLINE
66
1
8
Sketch
62
0
0
VERTEX
8
Sketch
10
-12.392
20
-34.658
0
VERTEX
8
Sketch
10
-12.512
20
-34.958
0
VERTEX
8
Sketch
10
-12.332
20
-35.258
0
VERTEX
8
Sketch
10
-12.032
20
-35.078
0
VERTEX
8
Sketch
10
-11.912
20
-34.958
0
VERTEX
8
Sketch
10
-11.912
20
-34.778
0
VERTEX
8
Sketch
10
-12.152
20
-34.718
0
VERTEX
8
Sketch
10
-12.272
20
-34.718
0
VERTEX
8
Sketch
10
-12.572
20
-34.958
0
SEQEND
0
POLYLINE
66
1
8
Sketch
62
0
0
VERTEX
8
Sketch
10
-13.172
20
-33.758
0
VERTEX
8
Sketch
10
-13.352
20
-33.938
0
VERTEX
8
Sketch
10
-13.472
20
-34.238
0
VERTEX
8
Sketch
10
-13.772
20
-34.658
0
VERTEX
8
Sketch
10
-13.772
20
-34.778
0
VERTEX
8
Sketch
10
-14.432
20
-36.218
0
VERTEX
8
Sketch
10
-14.492
20
-36.458
0
VERTEX
8
Sketch
10
-14.792
20
-37.058
0
VERTEX
8
Sketch
10
-14.912
20
-37.178
0
VERTEX
8
Sketch
10
-14.852
20
-37.298
0
SEQEND
0
POLYLINE
66
1
8
Sketch
62
0
0
VERTEX
8
Sketch
10
-11.792
20
-33.218
0
VERTEX
8
Sketch
10
-11.912
20
-33.158
0
VERTEX
8
Sketch
10
-12.092
20
-33.458
0
VERTEX
8
Sketch
10
-12.032
20
-33.638
0
VERTEX
8
Sketch
10
-11.732
20
-33.638
0
VERTEX
8
Sketch
10
-11.432
20
-33.578
0
VERTEX
8
Sketch
10
-11.372
20
-33.278
0
VERTEX
8
Sketch
10
-11.432
20
-33.158
0
VERTEX
8
Sketch
10
-11.552
20
-33.158
0
SEQEND
0
POLYLINE
66
1
8
Sketch
62
0
0
VERTEX
8
Sketch
10
-11.492
20
-31.778
0
VERTEX
8
Sketch
10
-11.672
20
-31.838
0
VERTEX
8
Sketch
10
-11.732
20
-31.958
0
VERTEX
8
Sketch
10
-11.492
20
-31.838
0
VERTEX
8
Sketch
10
-11.612
20
-31.778
0
SEQEND
0
POLYLINE
66
1
8
Sketch
62
0
0
VERTEX
8
Sketch
10
-10.892
20
-29.858
0
VERTEX
8
Sketch
10
-11.132
20
-30.098
0
VERTEX
8
Sketch
10
-11.132
20
-30.218
0
VERTEX
8
Sketch
10
-11.012
20
-30.338
0
VERTEX
8
Sketch
10
-10.892
20
-30.338
0
VERTEX
8
Sketch
10
-10.832
20
-30.218
0
VERTEX
8
Sketch
10
-10.892
20
-30.038
0
VERTEX
8
Sketch
10
-11.012
20
-29.978
0
SEQEND
0
POLYLINE
66
1
8
Sketch
62
0
0
VERTEX
8
Sketch
10
-10.472
20
-28.238
0
VERTEX
8
Sketch
10
-10.832
20
-28.598
0
VERTEX
8
Sketch
10
-10.832
20
-28.718
0
VERTEX
8
Sketch
10
-10.712
20
-28.778
0
VERTEX
8
Sketch
10
-10.532
20
-28.718
0
VERTEX
8
Sketch
10
-10.532
20
-28.598
0
VERTEX
8
Sketch
10
-10.772
20
-28.658
0
SEQEND
0
POLYLINE
66
1
8
Sketch
62
0
0
VERTEX
8
Sketch
10
-8.492
20
-26.678
0
VERTEX
8
Sketch
10
-8.792
20
-26.858
0
VERTEX
8
Sketch
10
-8.852
20
-26.978
0
VERTEX
8
Sketch
10
-8.672
20
-27.098
0
VERTEX
8
Sketch
10
-8.312
20
-26.918
0
VERTEX
8
Sketch
10
-8.192
20
-26.798
0
VERTEX
8
Sketch
10
-8.312
20
-26.678
0
VERTEX
8
Sketch
10
-8.432
20
-26.738
0
SEQEND
0
POLYLINE
66
1
8
Sketch
62
0
0
VERTEX
8
Sketch
10
-7.952
20
-24.938
0
VERTEX
8
Sketch
10
-7.952
20
-24.938
0
VERTEX
8
Sketch
10
-8.252
20
-25.538
0
VERTEX
8
Sketch
10
-8.192
20
-25.658
0
VERTEX
8
Sketch
10
-7.832
20
-25.598
0
VERTEX
8
Sketch
10
-7.412
20
-25.358
0
VERTEX
8
Sketch
10
-7.232
20
-25.058
0
VERTEX
8
Sketch
10
-7.472
20
-24.998
0
VERTEX
8
Sketch
10
-7.652
20
-24.998
0
SEQEND
0
POLYLINE
66
1
8
Sketch
62
0
0
VERTEX
8
Sketch
10
-10.052
20
-31.898
0
VERTEX
8
Sketch
10
-10.172
20
-31.958
0
VERTEX
8
Sketch
10
-10.352
20
-32.438
0
VERTEX
8
Sketch
10
-10.292
20
-32.558
0
VERTEX
8
Sketch
10
-9.992
20
-32.498
0
VERTEX
8
Sketch
10
-9.812
20
-32.018
0
VERTEX
8
Sketch
10
-9.932
20
-32.018
0
SEQEND
0
POLYLINE
66
1
8
Sketch
62
0
0
VERTEX
8
Sketch
10
-9.452
20
-28.778
0
VERTEX
8
Sketch
10
-9.692
20
-28.838
0
VERTEX
8
Sketch
10
-9.812
20
-28.958
0
VERTEX
8
Sketch
10
-9.752
20
-29.138
0
VERTEX
8
Sketch
10
-9.452
20
-29.198
0
VERTEX
8
Sketch
10
-9.152
20
-29.198
0
VERTEX
8
Sketch
10
-8.852
20
-28.958
0
VERTEX
8
Sketch
10
-8.852
20
-28.838
0
VERTEX
8
Sketch
10
-9.092
20
-28.598
0
VERTEX
8
Sketch
10
-9.392
20
-28.778
0
SEQEND
0
POLYLINE
66
1
8
Sketch
62
0
0
VERTEX
8
Sketch
10
-10.172
20
-30.158
0
VERTEX
8
Sketch
10
-10.292
20
-30.218
0
SEQEND
0
POLYLINE
66
1
8
Sketch
62
0
0
VERTEX
8
Sketch
10
-10.592
20
-30.398
0
VERTEX
8
Sketch
10
-10.412
20
-30.578
0
VERTEX
8
Sketch
10
-10.112
20
-30.638
0
SEQEND
0
POLYLINE
66
1
8
Sketch
62
0
0
VERTEX
8
Sketch
10
-11.852
20
-28.838
0
VERTEX
8
Sketch
10
-11.912
20
-29.078
0
VERTEX
8
Sketch
10
-11.972
20
-29.678
0
VERTEX
8
Sketch
10
-12.032
20
-29.978
0
VERTEX
8
Sketch
10
-12.212
20
-30.398
0
VERTEX
8
Sketch
10
-12.272
20
-30.758
0
VERTEX
8
Sketch
10
-12.392
20
-30.998
0
VERTEX
8
Sketch
10
-12.392
20
-31.178
0
VERTEX
8
Sketch
10
-12.512
20
-31.298
0
VERTEX
8
Sketch
10
-12.632
20
-31.838
0
VERTEX
8
Sketch
10
-13.112
20
-33.218
0
VERTEX
8
Sketch
10
-13.172
20
-33.698
0
VERTEX
8
Sketch
10
-13.412
20
-34.238
0
VERTEX
8
Sketch
10
-13.412
20
-34.358
0
SEQEND
0
POLYLINE
66
1
8
Sketch
62
0
0
VERTEX
8
Sketch
10
-9.512
20
-25.478
0
VERTEX
8
Sketch
10
-9.512
20
-25.658
0
VERTEX
8
Sketch
10
-9.872
20
-26.018
0
VERTEX
8
Sketch
10
-10.352
20
-26.618
0
VERTEX
8
Sketch
10
-10.772
20
-27.098
0
VERTEX
8
Sketch
10
-11.792
20
-28.418
0
VERTEX
8
Sketch
10
-12.032
20
-28.958
0
VERTEX
8
Sketch
10
-12.212
20
-29.258
0
SEQEND
0
POLYLINE
66
1
8
Sketch
62
0
0
VERTEX
8
Sketch
10
-7.952
20
-28.058
0
VERTEX
8
Sketch
10
-7.952
20
-28.178
0
VERTEX
8
Sketch
10
-8.432
20
-29.078
0
VERTEX
8
Sketch
10
-8.492
20
-29.378
0
VERTEX
8
Sketch
10
-8.972
20
-30.338
0
VERTEX
8
Sketch
10
-9.332
20
-30.938
0
VERTEX
8
Sketch
10
-9.572
20
-31.598
0
VERTEX
8
Sketch
10
-9.572
20
-31.778
0
VERTEX
8
Sketch
10
-9.752
20
-32.018
0
VERTEX
8
Sketch
10
-10.412
20
-34.298
0
VERTEX
8
Sketch
10
-10.772
20
-35.378
0
SEQEND
0
POLYLINE
66
1
8
Sketch
62
0
0
VERTEX
8
Sketch
10
-6.752
20
-25.658
0
VERTEX
8
Sketch
10
-6.932
20
-26.018
0
VERTEX
8
Sketch
10
-6.932
20
-26.198
0
VERTEX
8
Sketch
10
-7.232
20
-26.618
0
VERTEX
8
Sketch
10
-7.232
20
-26.738
0
VERTEX
8
Sketch
10
-8.252
20
-28.058
0
VERTEX
8
Sketch
10
-8.312
20
-28.298
0
VERTEX
8
Sketch
10
-8.252
20
-28.418
0
VERTEX
8
Sketch
10
-8.372
20
-28.658
0
VERTEX
8
Sketch
10
-8.012
20
-28.718
0
SEQEND
0
POLYLINE
66
1
8
Sketch
62
0
0
VERTEX
8
Sketch
10
-8.192
20
-23.978
0
VERTEX
8
Sketch
10
-8.372
20
-24.158
0
VERTEX
8
Sketch
10
-8.912
20
-24.878
0
VERTEX
8
Sketch
10
-9.092
20
-25.178
0
VERTEX
8
Sketch
10
-9.452
20
-25.598
0
VERTEX
8
Sketch
10
-9.572
20
-25.898
0
VERTEX
8
Sketch
10
-10.172
20
-26.618
0
VERTEX
8
Sketch
10
-10.352
20
-26.918
0
VERTEX
8
Sketch
10
-10.652
20
-27.278
0
SEQEND
0
POLYLINE
66
1
8
Sketch
62
0
0
VERTEX
8
Sketch
10
-8.932
20
-23.738
0
VERTEX
8
Sketch
10
-8.892
20
-24.138
0
SEQEND
0
POLYLINE
66
1
8
Sketch
62
0
0
VERTEX
8
Sketch
10
-9.092
20
-21.738
0
VERTEX
8
Sketch
10
-9.132
20
-21.898
0
VERTEX
8
Sketch
10
-9.092
20
-22.098
0
VERTEX
8
Sketch
10
-9.172
20
-22.458
0
VERTEX
8
Sketch
10
-9.132
20
-22.538
0
VERTEX
8
Sketch
10
-8.972
20
-22.498
0
SEQEND
0
POLYLINE
66
1
8
Sketch
62
0
0
VERTEX
8
Sketch
10
-7.212
20
-18.218
0
VERTEX
8
Sketch
10
-7.132
20
-18.018
0
VERTEX
8
Sketch
10
-7.132
20
-18.018
0
VERTEX
8
Sketch
10
-7.252
20
-18.138
0
VERTEX
8
Sketch
10
-7.372
20
-18.378
0
VERTEX
8
Sketch
10
-7.532
20
-18.578
0
VERTEX
8
Sketch
10
-7.532
20
-18.658
0
SEQEND
0
POLYLINE
66
1
8
Sketch
62
0
0
VERTEX
8
Sketch
10
-8.652
20
-20.618
0
VERTEX
8
Sketch
10
-8.132
20
-19.698
0
VERTEX
8
Sketch
10
-8.052
20
-19.538
0
SEQEND
0
POLYLINE
66
1
8
Sketch
62
0
0
VERTEX
8
Sketch
10
-7.812
20
-22.938
0
VERTEX
8
Sketch
10
-7.892
20
-23.138
0
VERTEX
8
Sketch
10
-7.972
20
-23.218
0
VERTEX
8
Sketch
10
-8.212
20
-23.818
0
VERTEX
8
Sketch
10
-8.372
20
-24.098
0
VERTEX
8
Sketch
10
-8.412
20
-24.298
0
SEQEND
0
POLYLINE
66
1
8
Sketch
62
0
0
VERTEX
8
Sketch
10
-7.132
20
-21.138
0
VERTEX
8
Sketch
10
-7.292
20
-21.378
0
VERTEX
8
Sketch
10
-7.292
20
-21.458
0
VERTEX
8
Sketch
10
-7.372
20
-21.578
0
VERTEX
8
Sketch
10
-7.372
20
-21.658
0
VERTEX
8
Sketch
10
-7.652
20
-22.338
0
VERTEX
8
Sketch
10
-7.932
20
-23.138
0
VERTEX
8
Sketch
10
-7.932
20
-23.218
0
VERTEX
8
Sketch
10
-8.012
20
-23.338
0
VERTEX
8
Sketch
10
-8.012
20
-23.498
0
SEQEND
0
POLYLINE
66
1
8
Sketch
62
0
0
VERTEX
8
Sketch
10
-6.572
20
-18.938
0
VERTEX
8
Sketch
10
-6.772
20
-19.778
0
VERTEX
8
Sketch
10
-6.972
20
-20.258
0
VERTEX
8
Sketch
10
-7.012
20
-20.458
0
VERTEX
8
Sketch
10
-7.092
20
-20.618
0
VERTEX
8
Sketch
10
-7.092
20
-20.818
0
VERTEX
8
Sketch
10
-7.172
20
-21.298
0
SEQEND
0
POLYLINE
66
1
8
Sketch
62
0
0
VERTEX
8
Sketch
10
-4.972
20
-21.618
0
VERTEX
8
Sketch
10
-5.252
20
-22.098
0
VERTEX
8
Sketch
10
-5.252
20
-22.178
0
VERTEX
8
Sketch
10
-5.652
20
-23.018
0
VERTEX
8
Sketch
10
-6.092
20
-23.818
0
VERTEX
8
Sketch
10
-6.212
20
-23.978
0
VERTEX
8
Sketch
10
-6.332
20
-24.378
0
VERTEX
8
Sketch
10
-6.452
20
-24.578
0
VERTEX
8
Sketch
10
-6.572
20
-24.858
0
VERTEX
8
Sketch
10
-6.572
20
-24.978
0
VERTEX
8
Sketch
10
-6.772
20
-25.338
0
VERTEX
8
Sketch
10
-6.772
20
-25.458
0
VERTEX
8
Sketch
10
-6.892
20
-25.658
0
VERTEX
8
Sketch
10
-6.852
20
-26.098
0
VERTEX
8
Sketch
10
-6.572
20
-26.418
0
SEQEND
0
POLYLINE
66
1
8
Sketch
62
0
0
VERTEX
8
Sketch
10
-5.532
20
-15.058
0
VERTEX
8
Sketch
10
-5.532
20
-15.178
0
VERTEX
8
Sketch
10
-5.572
20
-15.378
0
VERTEX
8
Sketch
10
-5.652
20
-15.458
0
VERTEX
8
Sketch
10
-5.732
20
-15.818
0
VERTEX
8
Sketch
10
-5.932
20
-16.498
0
VERTEX
8
Sketch
10
-5.972
20
-16.818
0
VERTEX
8
Sketch
10
-6.012
20
-16.978
0
VERTEX
8
Sketch
10
-6.012
20
-17.098
0
VERTEX
8
Sketch
10
-6.132
20
-17.618
0
VERTEX
8
Sketch
10
-6.132
20
-17.738
0
VERTEX
8
Sketch
10
-6.412
20
-18.658
0
VERTEX
8
Sketch
10
-6.452
20
-19.058
0
SEQEND
0
POLYLINE
66
1
8
Sketch
62
0
0
VERTEX
8
Sketch
10
-4.892
20
-19.298
0
VERTEX
8
Sketch
10
-4.932
20
-19.498
0
VERTEX
8
Sketch
10
-5.092
20
-19.698
0
VERTEX
8
Sketch
10
-5.092
20
-19.778
0
VERTEX
8
Sketch
10
-5.292
20
-20.258
0
VERTEX
8
Sketch
10
-5.292
20
-20.618
0
VERTEX
8
Sketch
10
-5.212
20
-20.698
0
VERTEX
8
Sketch
10
-5.012
20
-20.698
0
VERTEX
8
Sketch
10
-4.852
20
-20.738
0
VERTEX
8
Sketch
10
-4.652
20
-20.138
0
VERTEX
8
Sketch
10
-4.572
20
-20.018
0
VERTEX
8
Sketch
10
-4.532
20
-19.858
0
VERTEX
8
Sketch
10
-4.572
20
-19.738
0
VERTEX
8
Sketch
10
-4.452
20
-19.498
0
VERTEX
8
Sketch
10
-4.452
20
-19.418
0
VERTEX
8
Sketch
10
-4.612
20
-19.258
0
SEQEND
0
POLYLINE
66
1
8
Sketch
62
0
0
VERTEX
8
Sketch
10
-6.092
20
-18.618
0
VERTEX
8
Sketch
10
-6.292
20
-18.938
0
VERTEX
8
Sketch
10
-6.332
20
-19.178
0
VERTEX
8
Sketch
10
-6.132
20
-19.298
0
VERTEX
8
Sketch
10
-5.932
20
-19.058
0
VERTEX
8
Sketch
10
-5.852
20
-18.858
0
VERTEX
8
Sketch
10
-6.172
20
-18.498
0
SEQEND
0
POLYLINE
66
1
8
Sketch
62
0
0
VERTEX
8
Sketch
10
-5.972
20
-17.818
0
VERTEX
8
Sketch
10
-6.052
20
-18.018
0
VERTEX
8
Sketch
10
-6.052
20
-18.338
0
VERTEX
8
Sketch
10
-5.892
20
-18.458
0
VERTEX
8
Sketch
10
-5.812
20
-18.378
0
VERTEX
8
Sketch
10
-5.812
20
-17.978
0
VERTEX
8
Sketch
10
-5.892
20
-17.898
0
SEQEND
0
POLYLINE
66
1
8
Sketch
62
0
0
VERTEX
8
Sketch
10
-5.252
20
-18.138
0
VERTEX
8
Sketch
10
-5.372
20
-18.338
0
VERTEX
8
Sketch
10
-5.372
20
-18.418
0
VERTEX
8
Sketch
10
-5.492
20
-18.618
0
VERTEX
8
Sketch
10
-5.492
20
-18.698
0
VERTEX
8
Sketch
10
-5.572
20
-18.818
0
VERTEX
8
Sketch
10
-5.532
20
-18.898
0
VERTEX
8
Sketch
10
-5.572
20
-19.138
0
VERTEX
8
Sketch
10
-5.652
20
-19.218
0
VERTEX
8
Sketch
10
-5.652
20
-19.298
0
VERTEX
8
Sketch
10
-5.572
20
-19.378
0
VERTEX
8
Sketch
10
-5.372
20
-19.418
0
VERTEX
8
Sketch
10
-5.172
20
-19.618
0
VERTEX
8
Sketch
10
-4.892
20
-18.898
0
VERTEX
8
Sketch
10
-4.852
20
-18.658
0
VERTEX
8
Sketch
10
-4.772
20
-18.458
0
SEQEND
0
POLYLINE
66
1
8
Sketch
62
0
0
VERTEX
8
Sketch
10
-5.332
20
-18.178
0
VERTEX
8
Sketch
10
-5.252
20
-18.258
0
VERTEX
8
Sketch
10
-5.012
20
-18.258
0
VERTEX
8
Sketch
10
-4.852
20
-18.378
0
VERTEX
8
Sketch
10
-4.972
20
-18.578
0
VERTEX
8
Sketch
10
-5.132
20
-19.058
0
SEQEND
0
POLYLINE
66
1
8
Sketch
62
0
0
VERTEX
8
Sketch
10
-4.012
20
-19.378
0
VERTEX
8
Sketch
10
-4.452
20
-20.458
0
VERTEX
8
Sketch
10
-4.452
20
-20.578
0
VERTEX
8
Sketch
10
-4.612
20
-20.738
0
VERTEX
8
Sketch
10
-4.652
20
-20.938
0
VERTEX
8
Sketch
10
-4.812
20
-21.258
0
VERTEX
8
Sketch
10
-4.852
20
-21.418
0
VERTEX
8
Sketch
10
-4.972
20
-21.618
0
VERTEX
8
Sketch
10
-5.012
20
-21.938
0
SEQEND
0
POLYLINE
66
1
8
Sketch
62
0
0
VERTEX
8
Sketch
10
-2.652
20
-16.218
0
VERTEX
8
Sketch
10
-2.772
20
-16.578
0
VERTEX
8
Sketch
10
-2.852
20
-16.658
0
VERTEX
8
Sketch
10
-2.852
20
-16.778
0
VERTEX
8
Sketch
10
-3.052
20
-17.178
0
VERTEX
8
Sketch
10
-3.052
20
-17.258
0
VERTEX
8
Sketch
10
-3.452
20
-18.018
0
VERTEX
8
Sketch
10
-3.572
20
-18.458
0
VERTEX
8
Sketch
10
-3.612
20
-18.658
0
VERTEX
8
Sketch
10
-3.692
20
-18.738
0
VERTEX
8
Sketch
10
-3.732
20
-18.938
0
VERTEX
8
Sketch
10
-3.932
20
-19.258
0
VERTEX
8
Sketch
10
-3.932
20
-19.378
0
VERTEX
8
Sketch
10
-4.012
20
-19.458
0
VERTEX
8
Sketch
10
-4.012
20
-19.578
0
SEQEND
0
POLYLINE
66
1
8
Sketch
62
0
0
VERTEX
8
Sketch
10
-3.772
20
-15.858
0
VERTEX
8
Sketch
10
-3.892
20
-16.138
0
VERTEX
8
Sketch
10
-4.292
20
-17.138
0
VERTEX
8
Sketch
10
-4.412
20
-17.298
0
VERTEX
8
Sketch
10
-4.492
20
-17.618
0
VERTEX
8
Sketch
10
-4.612
20
-17.898
0
VERTEX
8
Sketch
10
-4.612
20
-18.018
0
VERTEX
8
Sketch
10
-4.652
20
-18.218
0
VERTEX
8
Sketch
10
-4.372
20
-18.298
0
VERTEX
8
Sketch
10
-4.292
20
-18.298
0
VERTEX
8
Sketch
10
-3.492
20
-17.618
0
VERTEX
8
Sketch
10
-3.452
20
-17.258
0
VERTEX
8
Sketch
10
-3.412
20
-17.018
0
VERTEX
8
Sketch
10
-3.372
20
-16.778
0
VERTEX
8
Sketch
10
-3.372
20
-16.458
0
VERTEX
8
Sketch
10
-3.452
20
-16.178
0
VERTEX
8
Sketch
10
-3.612
20
-15.938
0
VERTEX
8
Sketch
10
-3.772
20
-15.938
0
VERTEX
8
Sketch
10
-3.572
20
-16.058
0
VERTEX
8
Sketch
10
-3.492
20
-16.058
0
VERTEX
8
Sketch
10
-3.372
20
-16.178
0
VERTEX
8
Sketch
10
-3.292
20
-16.178
0
VERTEX
8
Sketch
10
-3.252
20
-16.258
0
VERTEX
8
Sketch
10
-3.372
20
-16.698
0
VERTEX
8
Sketch
10
-3.372
20
-16.858
0
VERTEX
8
Sketch
10
-3.492
20
-17.138
0
VERTEX
8
Sketch
10
-3.572
20
-17.378
0
VERTEX
8
Sketch
10
-3.532
20
-17.458
0
VERTEX
8
Sketch
10
-3.612
20
-17.698
0
VERTEX
8
Sketch
10
-3.892
20
-18.058
0
VERTEX
8
Sketch
10
-4.052
20
-18.458
0
VERTEX
8
Sketch
10
-4.212
20
-18.418
0
VERTEX
8
Sketch
10
-4.252
20
-18.498
0
VERTEX
8
Sketch
10
-4.292
20
-18.378
0
VERTEX
8
Sketch
10
-4.412
20
-18.378
0
VERTEX
8
Sketch
10
-4.452
20
-18.218
0
SEQEND
0
POLYLINE
66
1
8
Sketch
62
0
0
VERTEX
8
Sketch
10
-4.612
20
-15.818
0
VERTEX
8
Sketch
10
-4.652
20
-15.978
0
VERTEX
8
Sketch
10
-5.052
20
-16.538
0
VERTEX
8
Sketch
10
-5.492
20
-17.258
0
VERTEX
8
Sketch
10
-5.532
20
-17.458
0
VERTEX
8
Sketch
10
-5.652
20
-17.618
0
VERTEX
8
Sketch
10
-5.292
20
-17.818
0
VERTEX
8
Sketch
10
-5.172
20
-17.818
0
VERTEX
8
Sketch
10
-4.852
20
-18.098
0
VERTEX
8
Sketch
10
-4.652
20
-17.898
0
VERTEX
8
Sketch
10
-4.332
20
-17.338
0
VERTEX
8
Sketch
10
-4.332
20
-17.258
0
VERTEX
8
Sketch
10
-3.932
20
-16.538
0
VERTEX
8
Sketch
10
-3.812
20
-16.298
0
VERTEX
8
Sketch
10
-3.812
20
-16.098
0
VERTEX
8
Sketch
10
-3.892
20
-15.898
0
VERTEX
8
Sketch
10
-4.292
20
-15.658
0
VERTEX
8
Sketch
10
-4.612
20
-15.538
0
VERTEX
8
Sketch
10
-4.532
20
-15.618
0
SEQEND
0
POLYLINE
66
1
8
Sketch
62
0
0
VERTEX
8
Sketch
10
-5.332
20
-17.658
0
VERTEX
8
Sketch
10
-5.332
20
-17.738
0
VERTEX
8
Sketch
10
-5.332
20
-17.618
0
SEQEND
0
POINT
8
Sketch
62
0
10
-5.092
20
-17.218
0
POLYLINE
66
1
8
Sketch
62
0
0
VERTEX
8
Sketch
10
-4.332
20
-15.578
0
VERTEX
8
Sketch
10
-4.332
20
-15.578
0
VERTEX
8
Sketch
10
-4.612
20
-15.858
0
VERTEX
8
Sketch
10
-4.692
20
-16.178
0
VERTEX
8
Sketch
10
-4.732
20
-16.298
0
SEQEND
0
POLYLINE
66
1
8
Sketch
62
0
0
VERTEX
8
Sketch
10
-3.092
20
-13.538
0
VERTEX
8
Sketch
10
-3.212
20
-13.418
0
VERTEX
8
Sketch
10
-3.332
20
-13.538
0
VERTEX
8
Sketch
10
-3.372
20
-13.698
0
VERTEX
8
Sketch
10
-3.252
20
-13.858
0
VERTEX
8
Sketch
10
-3.132
20
-13.858
0
VERTEX
8
Sketch
10
-2.972
20
-13.618
0
VERTEX
8
Sketch
10
-3.012
20
-13.378
0
VERTEX
8
Sketch
10
-3.052
20
-13.258
0
SEQEND
0
POLYLINE
66
1
8
Sketch
62
0
0
VERTEX
8
Sketch
10
-2.812
20
-14.178
0
VERTEX
8
Sketch
10
-2.892
20
-14.098
0
VERTEX
8
Sketch
10
-2.972
20
-14.218
0
VERTEX
8
Sketch
10
-2.932
20
-14.458
0
VERTEX
8
Sketch
10
-2.852
20
-14.538
0
VERTEX
8
Sketch
10
-2.732
20
-14.258
0
VERTEX
8
Sketch
10
-2.812
20
-14.138
0
SEQEND
0
POLYLINE
66
1
8
Sketch
62
0
0
VERTEX
8
Sketch
10
-2.772
20
-15.658
0
VERTEX
8
Sketch
10
-2.852
20
-15.538
0
VERTEX
8
Sketch
10
-3.012
20
-15.578
0
VERTEX
8
Sketch
10
-3.132
20
-15.738
0
VERTEX
8
Sketch
10
-3.132
20
-15.818
0
VERTEX
8
Sketch
10
-2.972
20
-15.978
0
VERTEX
8
Sketch
10
-2.772
20
-15.898
0
VERTEX
8
Sketch
10
-2.692
20
-15.818
0
VERTEX
8
Sketch
10
-2.772
20
-15.578
0
VERTEX
8
Sketch
10
-2.932
20
-15.418
0
SEQEND
0
POLYLINE
66
1
8
Sketch
62
0
0
VERTEX
8
Sketch
10
-3.092
20
-14.898
0
VERTEX
8
Sketch
10
-3.252
20
-14.858
0
VERTEX
8
Sketch
10
-3.452
20
-14.938
0
VERTEX
8
Sketch
10
-3.532
20
-15.218
0
VERTEX
8
Sketch
10
-3.492
20
-15.298
0
VERTEX
8
Sketch
10
-3.412
20
-15.298
0
VERTEX
8
Sketch
10
-3.372
20
-15.138
0
VERTEX
8
Sketch
10
-3.412
20
-15.058
0
VERTEX
8
Sketch
10
-3.452
20
-15.258
0
SEQEND
0
POLYLINE
66
1
8
Sketch
62
0
0
VERTEX
8
Sketch
10
-2.772
20
-14.778
0
VERTEX
8
Sketch
10
-2.972
20
-14.898
0
VERTEX
8
Sketch
10
-2.972
20
-15.018
0
VERTEX
8
Sketch
10
-2.852
20
-15.138
0
VERTEX
8
Sketch
10
-2.732
20
-14.978
0
VERTEX
8
Sketch
10
-2.732
20
-14.778
0
SEQEND
0
POLYLINE
66
1
8
Sketch
62
0
0
VERTEX
8
Sketch
10
-3.652
20
-13.938
0
VERTEX
8
Sketch
10
-3.852
20
-14.018
0
VERTEX
8
Sketch
10
-4.212
20
-14.378
0
VERTEX
8
Sketch
10
-4.292
20
-14.578
0
VERTEX
8
Sketch
10
-4.012
20
-14.698
0
VERTEX
8
Sketch
10
-3.892
20
-14.698
0
VERTEX
8
Sketch
10
-3.732
20
-14.738
0
VERTEX
8
Sketch
10
-3.612
20
-14.738
0
VERTEX
8
Sketch
10
-3.252
20
-14.578
0
VERTEX
8
Sketch
10
-3.172
20
-14.418
0
VERTEX
8
Sketch
10
-3.252
20
-14.178
0
VERTEX
8
Sketch
10
-3.452
20
-13.978
0
VERTEX
8
Sketch
10
-3.452
20
-14.058
0
VERTEX
8
Sketch
10
-3.452
20
-13.938
0
SEQEND
0
POLYLINE
66
1
8
Sketch
62
0
0
VERTEX
8
Sketch
10
-1.852
20
-13.058
0
VERTEX
8
Sketch
10
-2.012
20
-13.138
0
VERTEX
8
Sketch
10
-2.252
20
-13.138
0
VERTEX
8
Sketch
10
-2.812
20
-13.858
0
VERTEX
8
Sketch
10
-2.812
20
-13.938
0
VERTEX
8
Sketch
10
-2.572
20
-14.138
0
VERTEX
8
Sketch
10
-2.492
20
-14.178
0
VERTEX
8
Sketch
10
-2.212
20
-14.058
0
VERTEX
8
Sketch
10
-1.812
20
-13.618
0
VERTEX
8
Sketch
10
-1.772
20
-13.538
0
VERTEX
8
Sketch
10
-1.812
20
-13.378
0
VERTEX
8
Sketch
10
-1.732
20
-13.218
0
VERTEX
8
Sketch
10
-1.852
20
-13.138
0
VERTEX
8
Sketch
10
-1.932
20
-13.218
0
SEQEND
0
POLYLINE
66
1
8
Sketch
62
0
0
VERTEX
8
Sketch
10
-1.812
20
-13.258
0
VERTEX
8
Sketch
10
-1.892
20
-13.298
0
SEQEND
0
POLYLINE
66
1
8
Sketch
62
0
0
VERTEX
8
Sketch
10
-3.572
20
-11.098
0
VERTEX
8
Sketch
10
-3.732
20
-11.218
0
VERTEX
8
Sketch
10
-3.772
20
-11.338
0
VERTEX
8
Sketch
10
-3.612
20
-11.458
0
VERTEX
8
Sketch
10
-3.572
20
-11.378
0
VERTEX
8
Sketch
10
-3.652
20
-11.298
0
VERTEX
8
Sketch
10
-3.772
20
-11.338
0
VERTEX
8
Sketch
10
-3.772
20
-11.418
0
SEQEND
0
POLYLINE
66
1
8
Sketch
62
0
0
VERTEX
8
Sketch
10
-2.772
20
-10.578
0
VERTEX
8
Sketch
10
-2.892
20
-10.578
0
VERTEX
8
Sketch
10
-3.092
20
-10.698
0
VERTEX
8
Sketch
10
-3.012
20
-10.778
0
VERTEX
8
Sketch
10
-2.852
20
-10.778
0
VERTEX
8
Sketch
10
-2.732
20
-10.618
0
VERTEX
8
Sketch
10
-2.812
20
-10.538
0
VERTEX
8
Sketch
10
-2.932
20
-10.578
0
VERTEX
8
Sketch
10
-3.132
20
-10.538
0
SEQEND
0
POLYLINE
66
1
8
Sketch
62
0
0
VERTEX
8
Sketch
10
-3.132
20
-11.258
0
VERTEX
8
Sketch
10
-3.332
20
-11.298
0
VERTEX
8
Sketch
10
-3.252
20
-11.418
0
VERTEX
8
Sketch
10
-3.092
20
-11.458
0
VERTEX
8
Sketch
10
-3.012
20
-11.338
0
VERTEX
8
Sketch
10
-3.012
20
-11.178
0
SEQEND
0
POLYLINE
66
1
8
Sketch
62
0
0
VERTEX
8
Sketch
10
-2.052
20
-11.098
0
VERTEX
8
Sketch
10
-2.132
20
-11.218
0
VERTEX
8
Sketch
10
-2.332
20
-11.338
0
VERTEX
8
Sketch
10
-2.612
20
-11.698
0
VERTEX
8
Sketch
10
-2.652
20
-11.858
0
VERTEX
8
Sketch
10
-2.532
20
-11.898
0
VERTEX
8
Sketch
10
-2.172
20
-11.778
0
VERTEX
8
Sketch
10
-1.932
20
-11.618
0
VERTEX
8
Sketch
10
-1.852
20
-11.538
0
VERTEX
8
Sketch
10
-1.852
20
-11.338
0
VERTEX
8
Sketch
10
-1.972
20
-11.218
0
VERTEX
8
Sketch
10
-2.052
20
-11.178
0
VERTEX
8
Sketch
10
-2.132
20
-11.218
0
SEQEND
0
POLYLINE
66
1
8
Sketch
62
0
0
VERTEX
8
Sketch
10
-0.212
20
-12.058
0
VERTEX
8
Sketch
10
-0.412
20
-12.418
0
VERTEX
8
Sketch
10
-0.892
20
-13.138
0
VERTEX
8
Sketch
10
-1.052
20
-13.298
0
VERTEX
8
Sketch
10
-1.572
20
-13.818
0
VERTEX
8
Sketch
10
-1.892
20
-14.058
0
VERTEX
8
Sketch
10
-1.932
20
-14.178
0
VERTEX
8
Sketch
10
-2.212
20
-14.458
0
VERTEX
8
Sketch
10
-2.292
20
-14.778
0
VERTEX
8
Sketch
10
-2.292
20
-15.058
0
VERTEX
8
Sketch
10
-2.412
20
-15.538
0
VERTEX
8
Sketch
10
-2.652
20
-16.338
0
SEQEND
0
POLYLINE
66
1
8
Sketch
62
0
0
VERTEX
8
Sketch
10
-0.452
20
-12.658
0
VERTEX
8
Sketch
10
-1.132
20
-13.418
0
VERTEX
8
Sketch
10
-1.252
20
-13.618
0
VERTEX
8
Sketch
10
-1.812
20
-14.498
0
VERTEX
8
Sketch
10
-2.172
20
-15.178
0
VERTEX
8
Sketch
10
-2.532
20
-15.778
0
VERTEX
8
Sketch
10
-2.652
20
-16.018
0
VERTEX
8
Sketch
10
-2.652
20
-16.218
0
SEQEND
0
POLYLINE
66
1
8
Sketch
62
0
0
VERTEX
8
Sketch
10
-4.852
20
-12.658
0
VERTEX
8
Sketch
10
-4.852
20
-12.858
0
VERTEX
8
Sketch
10
-4.932
20
-13.018
0
VERTEX
8
Sketch
10
-4.892
20
-13.098
0
VERTEX
8
Sketch
10
-5.092
20
-13.898
0
VERTEX
8
Sketch
10
-5.292
20
-14.498
0
VERTEX
8
Sketch
10
-5.292
20
-14.618
0
VERTEX
8
Sketch
10
-5.572
20
-15.218
0
VERTEX
8
Sketch
10
-5.572
20
-15.298
0
SEQEND
0
POLYLINE
66
1
8
Sketch
62
0
0
VERTEX
8
Sketch
10
-4.892
20
-12.618
0
VERTEX
8
Sketch
10
-4.892
20
-12.818
0
SEQEND
0
POLYLINE
66
1
8
Sketch
62
0
0
VERTEX
8
Sketch
10
-4.732
20
-12.058
0
VERTEX
8
Sketch
10
-4.812
20
-12.218
0
SEQEND
0
POLYLINE
66
1
8
Sketch
62
0
0
VERTEX
8
Sketch
10
-4.532
20
-11.658
0
VERTEX
8
Sketch
10
-4.652
20
-11.698
0
SEQEND
0
POINT
8
Sketch
62
0
10
-4.532
20
-11.538
0
POLYLINE
66
1
8
Sketch
62
0
0
VERTEX
8
Sketch
10
-4.372
20
-11.378
0
VERTEX
8
Sketch
10
-4.452
20
-11.458
0
SEQEND
0
POINT
8
Sketch
62
0
10
-4.012
20
-11.178
0
POINT
8
Sketch
62
0
10
-3.092
20
-10.418
0
POLYLINE
66
1
8
Sketch
62
0
0
VERTEX
8
Sketch
10
-2.732
20
-10.138
0
VERTEX
8
Sketch
10
-2.812
20
-10.218
0
SEQEND
0
POLYLINE
66
1
8
Sketch
62
0
0
VERTEX
8
Sketch
10
-2.372
20
-9.898
0
VERTEX
8
Sketch
10
-2.452
20
-9.938
0
SEQEND
0
POLYLINE
66
1
8
Sketch
62
0
0
VERTEX
8
Sketch
10
-2.012
20
-9.778
0
VERTEX
8
Sketch
10
-2.092
20
-9.818
0
SEQEND
0
POINT
8
Sketch
62
0
10
-1.932
20
-9.818
0
POLYLINE
66
1
8
Sketch
62
0
0
VERTEX
8
Sketch
10
-1.612
20
-10.938
0
VERTEX
8
Sketch
10
-1.612
20
-10.938
0
VERTEX
8
Sketch
10
-1.652
20
-11.098
0
VERTEX
8
Sketch
10
-1.652
20
-10.978
0
VERTEX
8
Sketch
10
-1.932
20
-11.378
0
VERTEX
8
Sketch
10
-1.932
20
-11.458
0
VERTEX
8
Sketch
10
-1.812
20
-11.458
0
VERTEX
8
Sketch
10
-1.652
20
-11.338
0
VERTEX
8
Sketch
10
-1.612
20
-11.218
0
VERTEX
8
Sketch
10
-1.412
20
-10.938
0
VERTEX
8
Sketch
10
-1.572
20
-10.818
0
VERTEX
8
Sketch
10
-1.652
20
-10.858
0
SEQEND
0
POLYLINE
66
1
8
Sketch
62
0
0
VERTEX
8
Sketch
10
-1.012
20
-10.138
0
VERTEX
8
Sketch
10
-1.292
20
-10.378
0
VERTEX
8
Sketch
10
-1.372
20
-10.578
0
VERTEX
8
Sketch
10
-1.172
20
-10.698
0
VERTEX
8
Sketch
10
-1.012
20
-10.418
0
VERTEX
8
Sketch
10
-1.012
20
-10.218
0
VERTEX
8
Sketch
10
-1.132
20
-10.218
0
VERTEX
8
Sketch
10
-1.292
20
-10.378
0
SEQEND
0
POLYLINE
66
1
8
Sketch
62
0
0
VERTEX
8
Sketch
10
-0.692
20
-9.578
0
VERTEX
8
Sketch
10
-0.732
20
-9.738
0
VERTEX
8
Sketch
10
-0.852
20
-9.858
0
VERTEX
8
Sketch
10
-0.892
20
-9.938
0
VERTEX
8
Sketch
10
-0.852
20
-10.018
0
VERTEX
8
Sketch
10
-0.612
20
-9.778
0
VERTEX
8
Sketch
10
-0.492
20
-9.498
0
VERTEX
8
Sketch
10
-0.692
20
-9.458
0
VERTEX
8
Sketch
10
-0.812
20
-9.618
0
SEQEND
0
POLYLINE
66
1
8
Sketch
62
0
0
VERTEX
8
Sketch
10
-0.052
20
-8.658
0
VERTEX
8
Sketch
10
-0.372
20
-9.098
0
VERTEX
8
Sketch
10
-0.412
20
-9.298
0
VERTEX
8
Sketch
10
-0.332
20
-9.298
0
VERTEX
8
Sketch
10
-0.092
20
-9.058
0
VERTEX
8
Sketch
10
0.188
20
-8.538
0
VERTEX
8
Sketch
10
0.188
20
-8.458
0
VERTEX
8
Sketch
10
0.028
20
-8.498
0
VERTEX
8
Sketch
10
-0.132
20
-8.618
0
SEQEND
0
POLYLINE
66
1
8
Sketch
62
0
0
VERTEX
8
Sketch
10
0.628
20
-7.418
0
VERTEX
8
Sketch
10
0.628
20
-7.538
0
VERTEX
8
Sketch
10
0.508
20
-7.698
0
VERTEX
8
Sketch
10
0.468
20
-7.818
0
VERTEX
8
Sketch
10
0.148
20
-8.258
0
VERTEX
8
Sketch
10
0.268
20
-8.258
0
VERTEX
8
Sketch
10
0.468
20
-8.178
0
VERTEX
8
Sketch
10
0.628
20
-7.978
0
VERTEX
8
Sketch
10
0.628
20
-7.858
0
VERTEX
8
Sketch
10
0.668
20
-7.778
0
VERTEX
8
Sketch
10
0.508
20
-7.818
0
VERTEX
8
Sketch
10
0.428
20
-8.018
0
VERTEX
8
Sketch
10
0.348
20
-8.018
0
VERTEX
8
Sketch
10
0.188
20
-8.178
0
VERTEX
8
Sketch
10
0.028
20
-8.458
0
SEQEND
0
POLYLINE
66
1
8
Sketch
62
0
0
VERTEX
8
Sketch
10
1.188
20
-6.338
0
VERTEX
8
Sketch
10
0.828
20
-7.138
0
VERTEX
8
Sketch
10
1.068
20
-6.978
0
VERTEX
8
Sketch
10
1.228
20
-6.738
0
VERTEX
8
Sketch
10
1.228
20
-6.538
0
VERTEX
8
Sketch
10
1.268
20
-6.418
0
VERTEX
8
Sketch
10
0.988
20
-6.698
0
VERTEX
8
Sketch
10
0.748
20
-7.258
0
SEQEND
0
POLYLINE
66
1
8
Sketch
62
0
0
VERTEX
8
Sketch
10
1.868
20
-5.378
0
VERTEX
8
Sketch
10
1.628
20
-5.538
0
VERTEX
8
Sketch
10
1.388
20
-5.938
0
VERTEX
8
Sketch
10
1.428
20
-6.098
0
VERTEX
8
Sketch
10
1.588
20
-6.058
0
VERTEX
8
Sketch
10
1.708
20
-5.938
0
VERTEX
8
Sketch
10
1.708
20
-5.738
0
VERTEX
8
Sketch
10
1.548
20
-5.858
0
SEQEND
0
POLYLINE
66
1
8
Sketch
62
0
0
VERTEX
8
Sketch
10
2.948
20
-7.138
0
VERTEX
8
Sketch
10
2.388
20
-7.898
0
VERTEX
8
Sketch
10
1.908
20
-8.698
0
VERTEX
8
Sketch
10
1.668
20
-9.098
0
VERTEX
8
Sketch
10
1.108
20
-10.018
0
VERTEX
8
Sketch
10
0.988
20
-10.218
0
VERTEX
8
Sketch
10
0.828
20
-10.458
0
VERTEX
8
Sketch
10
0.828
20
-10.578
0
VERTEX
8
Sketch
10
0.788
20
-10.498
0
VERTEX
8
Sketch
10
0.228
20
-11.498
0
VERTEX
8
Sketch
10
-0.132
20
-12.018
0
VERTEX
8
Sketch
10
-0.332
20
-12.378
0
VERTEX
8
Sketch
10
-0.492
20
-12.618
0
VERTEX
8
Sketch
10
-0.572
20
-12.818
0
SEQEND
0
POLYLINE
66
1
8
Sketch
62
0
0
VERTEX
8
Sketch
10
2.268
20
-4.698
0
VERTEX
8
Sketch
10
1.908
20
-5.338
0
VERTEX
8
Sketch
10
1.748
20
-5.778
0
VERTEX
8
Sketch
10
1.508
20
-6.258
0
SEQEND
0
POLYLINE
66
1
8
Sketch
62
0
0
VERTEX
8
Sketch
10
1.148
20
-7.058
0
VERTEX
8
Sketch
10
0.748
20
-7.658
0
VERTEX
8
Sketch
10
0.548
20
-8.058
0
VERTEX
8
Sketch
10
0.548
20
-7.938
0
VERTEX
8
Sketch
10
0.868
20
-7.458
0
VERTEX
8
Sketch
10
0.868
20
-7.378
0
VERTEX
8
Sketch
10
1.188
20
-6.938
0
VERTEX
8
Sketch
10
1.348
20
-6.698
0
VERTEX
8
Sketch
10
1.588
20
-6.218
0
VERTEX
8
Sketch
10
1.628
20
-6.338
0
VERTEX
8
Sketch
10
1.628
20
-6.218
0
SEQEND
0
POLYLINE
66
1
8
Sketch
62
0
0
VERTEX
8
Sketch
10
3.308
20
-6.778
0
VERTEX
8
Sketch
10
3.268
20
-6.898
0
VERTEX
8
Sketch
10
3.268
20
-6.818
0
VERTEX
8
Sketch
10
3.148
20
-7.178
0
VERTEX
8
Sketch
10
3.068
20
-7.338
0
SEQEND
0
POLYLINE
66
1
8
Sketch
62
0
0
VERTEX
8
Sketch
10
0.428
20
-4.538
0
VERTEX
8
Sketch
10
0.188
20
-4.818
0
VERTEX
8
Sketch
10
0.148
20
-4.938
0
SEQEND
0
POLYLINE
66
1
8
Sketch
62
0
0
VERTEX
8
Sketch
10
0.948
20
-3.538
0
VERTEX
8
Sketch
10
0.628
20
-4.178
0
SEQEND
0
POLYLINE
66
1
8
Sketch
62
0
0
VERTEX
8
Sketch
10
1.548
20
-2.538
0
VERTEX
8
Sketch
10
1.348
20
-2.898
0
VERTEX
8
Sketch
10
1.188
20
-3.138
0
SEQEND
0
POLYLINE
66
1
8
Sketch
62
0
0
VERTEX
8
Sketch
10
1.548
20
-2.858
0
VERTEX
8
Sketch
10
1.468
20
-2.938
0
SEQEND
0
POLYLINE
66
1
8
Sketch
62
0
0
VERTEX
8
Sketch
10
2.028
20
-1.898
0
VERTEX
8
Sketch
10
1.908
20
-2.018
0
VERTEX
8
Sketch
10
1.868
20
-2.138
0
SEQEND
0
POLYLINE
66
1
8
Sketch
62
0
0
VERTEX
8
Sketch
10
2.068
20
-4.498
0
VERTEX
8
Sketch
10
2.028
20
-4.698
0
VERTEX
8
Sketch
10
2.148
20
-4.738
0
VERTEX
8
Sketch
10
2.348
20
-4.698
0
VERTEX
8
Sketch
10
2.628
20
-4.298
0
VERTEX
8
Sketch
10
2.588
20
-4.098
0
VERTEX
8
Sketch
10
2.588
20
-4.018
0
VERTEX
8
Sketch
10
2.428
20
-3.938
0
SEQEND
0
POLYLINE
66
1
8
Sketch
62
0
0
VERTEX
8
Sketch
10
2.428
20
-3.898
0
VERTEX
8
Sketch
10
2.108
20
-4.338
0
SEQEND
0
POLYLINE
66
1
8
Sketch
62
0
0
VERTEX
8
Sketch
10
3.268
20
-3.098
0
VERTEX
8
Sketch
10
3.028
20
-3.258
0
VERTEX
8
Sketch
10
2.828
20
-3.338
0
VERTEX
8
Sketch
10
2.548
20
-3.658
0
VERTEX
8
Sketch
10
2.508
20
-3.778
0
VERTEX
8
Sketch
10
2.388
20
-3.858
0
VERTEX
8
Sketch
10
2.428
20
-3.978
0
VERTEX
8
Sketch
10
2.628
20
-4.018
0
VERTEX
8
Sketch
10
2.748
20
-3.818
0
VERTEX
8
Sketch
10
3.108
20
-3.498
0
VERTEX
8
Sketch
10
3.308
20
-3.018
0
VERTEX
8
Sketch
10
3.228
20
-3.058
0
SEQEND
0
POLYLINE
66
1
8
Sketch
62
0
0
VERTEX
8
Sketch
10
3.508
20
-2.258
0
VERTEX
8
Sketch
10
3.308
20
-2.338
0
VERTEX
8
Sketch
10
2.948
20
-2.618
0
VERTEX
8
Sketch
10
2.828
20
-2.818
0
VERTEX
8
Sketch
10
2.828
20
-2.978
0
VERTEX
8
Sketch
10
2.948
20
-3.178
0
VERTEX
8
Sketch
10
3.228
20
-3.218
0
VERTEX
8
Sketch
10
3.308
20
-3.178
0
VERTEX
8
Sketch
10
3.468
20
-3.178
0
VERTEX
8
Sketch
10
3.668
20
-3.018
0
VERTEX
8
Sketch
10
3.868
20
-2.898
0
VERTEX
8
Sketch
10
3.748
20
-2.658
0
VERTEX
8
Sketch
10
3.548
20
-2.538
0
VERTEX
8
Sketch
10
3.348
20
-2.578
0
SEQEND
0
POLYLINE
66
1
8
Sketch
62
0
0
VERTEX
8
Sketch
10
3.428
20
-2.018
0
VERTEX
8
Sketch
10
3.228
20
-2.098
0
VERTEX
8
Sketch
10
3.188
20
-2.178
0
VERTEX
8
Sketch
10
3.228
20
-2.498
0
VERTEX
8
Sketch
10
3.348
20
-2.658
0
VERTEX
8
Sketch
10
3.468
20
-2.658
0
VERTEX
8
Sketch
10
3.628
20
-2.498
0
VERTEX
8
Sketch
10
3.668
20
-2.298
0
VERTEX
8
Sketch
10
3.468
20
-2.138
0
VERTEX
8
Sketch
10
3.388
20
-2.138
0
SEQEND
0
POLYLINE
66
1
8
Sketch
62
0
0
VERTEX
8
Sketch
10
5.188
20
-4.018
0
VERTEX
8
Sketch
10
4.908
20
-4.418
0
VERTEX
8
Sketch
10
4.908
20
-4.538
0
VERTEX
8
Sketch
10
4.708
20
-4.618
0
VERTEX
8
Sketch
10
4.588
20
-4.818
0
VERTEX
8
Sketch
10
4.428
20
-4.898
0
VERTEX
8
Sketch
10
3.868
20
-5.778
0
VERTEX
8
Sketch
10
3.748
20
-5.978
0
VERTEX
8
Sketch
10
3.228
20
-6.738
0
VERTEX
8
Sketch
10
3.228
20
-6.858
0
SEQEND
0
POLYLINE
66
1
8
Sketch
62
0
0
VERTEX
8
Sketch
10
5.268
20
-4.058
0
VERTEX
8
Sketch
10
5.228
20
-3.978
0
SEQEND
0
POLYLINE
66
1
8
Sketch
62
1
0
VERTEX
8
Sketch
10
6.868
20
-0.018
0
VERTEX
8
Sketch
10
6.868
20
-0.138
0
SEQEND
0
POLYLINE
66
1
8
Sketch
62
1
0
VERTEX
8
Sketch
10
7.628
20
3.702
0
VERTEX
8
Sketch
10
7.588
20
3.342
0
SEQEND
0
POLYLINE
66
1
8
Sketch
62
1
0
VERTEX
8
Sketch
10
7.228
20
3.182
0
VERTEX
8
Sketch
10
7.228
20
2.982
0
VERTEX
8
Sketch
10
7.188
20
2.902
0
SEQEND
0
POLYLINE
66
1
8
Sketch
62
1
0
VERTEX
8
Sketch
10
6.588
20
2.062
0
VERTEX
8
Sketch
10
6.508
20
1.942
0
VERTEX
8
Sketch
10
6.508
20
1.822
0
SEQEND
0
POLYLINE
66
1
8
Sketch
62
1
0
VERTEX
8
Sketch
10
5.828
20
0.902
0
VERTEX
8
Sketch
10
5.788
20
0.742
0
SEQEND
0
POLYLINE
66
1
8
Sketch
62
1
0
VERTEX
8
Sketch
10
5.228
20
-0.058
0
VERTEX
8
Sketch
10
5.148
20
-0.138
0
VERTEX
8
Sketch
10
5.148
20
-0.218
0
VERTEX
8
Sketch
10
5.228
20
-0.178
0
SEQEND
0
POLYLINE
66
1
8
Sketch
62
1
0
VERTEX
8
Sketch
10
4.868
20
-1.938
0
VERTEX
8
Sketch
10
4.868
20
-2.058
0
SEQEND
0
POLYLINE
66
1
8
Sketch
62
1
0
VERTEX
8
Sketch
10
5.148
20
-1.618
0
VERTEX
8
Sketch
10
5.148
20
-1.618
0
VERTEX
8
Sketch
10
5.268
20
-1.578
0
SEQEND
0
POLYLINE
66
1
8
Sketch
62
1
0
VERTEX
8
Sketch
10
5.708
20
-0.538
0
VERTEX
8
Sketch
10
5.708
20
-0.538
0
VERTEX
8
Sketch
10
5.908
20
-0.498
0
SEQEND
0
POLYLINE
66
1
8
Sketch
62
1
0
VERTEX
8
Sketch
10
6.668
20
-0.298
0
VERTEX
8
Sketch
10
6.788
20
-0.298
0
VERTEX
8
Sketch
10
6.868
20
-0.258
0
SEQEND
0
POLYLINE
66
1
8
Sketch
62
1
0
VERTEX
8
Sketch
10
5.628
20
-1.738
0
VERTEX
8
Sketch
10
5.788
20
-1.578
0
VERTEX
8
Sketch
10
5.868
20
-1.578
0
VERTEX
8
Sketch
10
6.068
20
-1.338
0
SEQEND
0
POLYLINE
66
1
8
Sketch
62
1
0
VERTEX
8
Sketch
10
5.188
20
-2.618
0
VERTEX
8
Sketch
10
5.428
20
-2.458
0
VERTEX
8
Sketch
10
5.508
20
-2.458
0
SEQEND
0
POLYLINE
66
1
8
Sketch
62
1
0
VERTEX
8
Sketch
10
4.828
20
-3.378
0
VERTEX
8
Sketch
10
5.308
20
-3.258
0
SEQEND
0
POLYLINE
66
1
8
Sketch
62
0
0
VERTEX
8
Sketch
10
7.188
20
1.462
0
VERTEX
8
Sketch
10
6.988
20
1.182
0
VERTEX
8
Sketch
10
7.108
20
0.982
0
VERTEX
8
Sketch
10
7.468
20
0.702
0
VERTEX
8
Sketch
10
7.788
20
0.262
0
VERTEX
8
Sketch
10
7.828
20
0.142
0
VERTEX
8
Sketch
10
7.828
20
0.222
0
VERTEX
8
Sketch
10
7.868
20
0.142
0
VERTEX
8
Sketch
10
7.468
20
-0.298
0
VERTEX
8
Sketch
10
7.148
20
-0.738
0
VERTEX
8
Sketch
10
7.028
20
-0.938
0
VERTEX
8
Sketch
10
6.428
20
-1.858
0
VERTEX
8
Sketch
10
5.828
20
-3.178
0
VERTEX
8
Sketch
10
5.228
20
-3.938
0
VERTEX
8
Sketch
10
4.988
20
-4.258
0
SEQEND
0
POLYLINE
66
1
8
Sketch
62
0
0
VERTEX
8
Sketch
10
9.688
20
8.682
0
VERTEX
8
Sketch
10
9.388
20
8.382
0
VERTEX
8
Sketch
10
9.388
20
8.202
0
VERTEX
8
Sketch
10
9.568
20
7.782
0
VERTEX
8
Sketch
10
9.808
20
7.602
0
VERTEX
8
Sketch
10
9.868
20
7.242
0
VERTEX
8
Sketch
10
9.808
20
7.122
0
SEQEND
0
POLYLINE
66
1
8
Sketch
62
0
0
VERTEX
8
Sketch
10
8.788
20
7.902
0
VERTEX
8
Sketch
10
8.368
20
8.382
0
VERTEX
8
Sketch
10
8.308
20
8.622
0
SEQEND
0
POLYLINE
66
1
8
Sketch
62
0
0
VERTEX
8
Sketch
10
8.848
20
7.722
0
VERTEX
8
Sketch
10
8.488
20
7.182
0
VERTEX
8
Sketch
10
8.428
20
6.942
0
VERTEX
8
Sketch
10
8.248
20
6.642
0
VERTEX
8
Sketch
10
8.248
20
6.522
0
VERTEX
8
Sketch
10
7.888
20
5.922
0
VERTEX
8
Sketch
10
7.408
20
5.082
0
SEQEND
0
POLYLINE
66
1
8
Sketch
62
0
0
VERTEX
8
Sketch
10
5.608
20
3.762
0
VERTEX
8
Sketch
10
5.548
20
3.582
0
VERTEX
8
Sketch
10
5.908
20
4.062
0
VERTEX
8
Sketch
10
6.688
20
4.602
0
VERTEX
8
Sketch
10
7.168
20
4.962
0
VERTEX
8
Sketch
10
7.288
20
4.962
0
VERTEX
8
Sketch
10
7.588
20
5.322
0
SEQEND
0
POLYLINE
66
1
8
Sketch
62
0
0
VERTEX
8
Sketch
10
6.148
20
3.462
0
VERTEX
8
Sketch
10
6.028
20
3.462
0
VERTEX
8
Sketch
10
5.848
20
3.102
0
VERTEX
8
Sketch
10
5.908
20
2.742
0
VERTEX
8
Sketch
10
6.208
20
3.042
0
VERTEX
8
Sketch
10
6.268
20
3.462
0
VERTEX
8
Sketch
10
6.088
20
3.702
0
SEQEND
0
POLYLINE
66
1
8
Sketch
62
0
0
VERTEX
8
Sketch
10
5.428
20
2.262
0
VERTEX
8
Sketch
10
5.308
20
2.262
0
VERTEX
8
Sketch
10
4.948
20
1.602
0
VERTEX
8
Sketch
10
4.948
20
1.422
0
VERTEX
8
Sketch
10
5.008
20
1.302
0
VERTEX
8
Sketch
10
5.188
20
1.362
0
VERTEX
8
Sketch
10
5.428
20
1.782
0
VERTEX
8
Sketch
10
5.548
20
2.322
0
SEQEND
0
POLYLINE
66
1
8
Sketch
62
0
0
VERTEX
8
Sketch
10
4.288
20
0.582
0
VERTEX
8
Sketch
10
4.108
20
0.582
0
VERTEX
8
Sketch
10
3.928
20
0.282
0
VERTEX
8
Sketch
10
3.868
20
-0.018
0
VERTEX
8
Sketch
10
3.928
20
-0.138
0
VERTEX
8
Sketch
10
4.048
20
-0.138
0
VERTEX
8
Sketch
10
4.408
20
0.162
0
VERTEX
8
Sketch
10
4.528
20
0.522
0
VERTEX
8
Sketch
10
4.468
20
0.762
0
SEQEND
0
POLYLINE
66
1
8
Sketch
62
0
0
VERTEX
8
Sketch
10
3.868
20
-0.258
0
VERTEX
8
Sketch
10
3.568
20
-0.378
0
VERTEX
8
Sketch
10
3.388
20
-0.798
0
VERTEX
8
Sketch
10
3.388
20
-0.978
0
VERTEX
8
Sketch
10
3.508
20
-1.098
0
VERTEX
8
Sketch
10
3.628
20
-1.098
0
VERTEX
8
Sketch
10
3.688
20
-0.978
0
VERTEX
8
Sketch
10
3.688
20
-0.498
0
VERTEX
8
Sketch
10
3.628
20
-0.258
0
SEQEND
0
POLYLINE
66
1
8
Sketch
62
0
0
VERTEX
8
Sketch
10
4.168
20
-1.218
0
VERTEX
8
Sketch
10
3.988
20
-1.398
0
VERTEX
8
Sketch
10
4.108
20
-1.518
0
VERTEX
8
Sketch
10
4.168
20
-1.398
0
VERTEX
8
Sketch
10
4.108
20
-1.218
0
SEQEND
0
POLYLINE
66
1
8
Sketch
62
0
0
VERTEX
8
Sketch
10
2.968
20
-0.078
0
VERTEX
8
Sketch
10
2.308
20
-1.158
0
VERTEX
8
Sketch
10
2.548
20
-1.518
0
VERTEX
8
Sketch
10
2.548
20
-1.398
0
VERTEX
8
Sketch
10
2.608
20
-1.518
0
VERTEX
8
Sketch
10
2.908
20
-1.638
0
VERTEX
8
Sketch
10
2.968
20
-1.818
0
SEQEND
0
POLYLINE
66
1
8
Sketch
62
0
0
VERTEX
8
Sketch
10
3.088
20
0.042
0
VERTEX
8
Sketch
10
3.268
20
0.522
0
VERTEX
8
Sketch
10
3.508
20
0.822
0
VERTEX
8
Sketch
10
3.688
20
1.122
0
VERTEX
8
Sketch
10
4.048
20
1.542
0
SEQEND
0
POLYLINE
66
1
8
Sketch
62
0
0
VERTEX
8
Sketch
10
3.988
20
-3.078
0
VERTEX
8
Sketch
10
3.868
20
-2.598
0
VERTEX
8
Sketch
10
3.028
20
-1.758
0
VERTEX
8
Sketch
10
2.728
20
-1.578
0
SEQEND
0
POLYLINE
66
1
8
Sketch
62
0
0
VERTEX
8
Sketch
10
5.428
20
3.762
0
VERTEX
8
Sketch
10
5.248
20
3.222
0
VERTEX
8
Sketch
10
5.248
20
3.102
0
VERTEX
8
Sketch
10
5.068
20
2.802
0
VERTEX
8
Sketch
10
4.588
20
1.902
0
VERTEX
8
Sketch
10
4.168
20
1.242
0
SEQEND
0
POLYLINE
66
1
8
Sketch
62
0
0
VERTEX
8
Sketch
10
7.228
20
1.182
0
VERTEX
8
Sketch
10
7.108
20
1.062
0
VERTEX
8
Sketch
10
7.048
20
0.822
0
SEQEND
0
POLYLINE
66
1
8
Sketch
62
0
0
VERTEX
8
Sketch
10
8.608
20
4.542
0
VERTEX
8
Sketch
10
8.548
20
4.242
0
VERTEX
8
Sketch
10
8.368
20
4.002
0
VERTEX
8
Sketch
10
8.188
20
3.462
0
VERTEX
8
Sketch
10
8.008
20
3.162
0
VERTEX
8
Sketch
10
8.008
20
3.042
0
VERTEX
8
Sketch
10
7.768
20
2.502
0
VERTEX
8
Sketch
10
7.528
20
1.722
0
VERTEX
8
Sketch
10
7.528
20
1.902
0
VERTEX
8
Sketch
10
7.228
20
1.122
0
SEQEND
0
POLYLINE
66
1
8
Sketch
62
0
0
VERTEX
8
Sketch
10
9.868
20
7.122
0
VERTEX
8
Sketch
10
9.568
20
6.582
0
VERTEX
8
Sketch
10
9.148
20
5.922
0
VERTEX
8
Sketch
10
8.968
20
5.502
0
VERTEX
8
Sketch
10
8.548
20
4.602
0
VERTEX
8
Sketch
10
8.488
20
4.362
0
VERTEX
8
Sketch
10
8.428
20
4.182
0
SEQEND
0
POLYLINE
66
1
8
Sketch
62
0
0
VERTEX
8
Sketch
10
9.448
20
8.262
0
VERTEX
8
Sketch
10
9.508
20
8.022
0
VERTEX
8
Sketch
10
9.508
20
7.842
0
VERTEX
8
Sketch
10
9.808
20
7.482
0
SEQEND
0
POLYLINE
66
1
8
Sketch
62
0
0
VERTEX
8
Sketch
10
13.628
20
13.742
0
VERTEX
8
Sketch
10
12.708
20
12.742
0
VERTEX
8
Sketch
10
12.668
20
12.622
0
VERTEX
8
Sketch
10
12.428
20
12.382
0
VERTEX
8
Sketch
10
12.348
20
12.182
0
VERTEX
8
Sketch
10
12.228
20
12.102
0
VERTEX
8
Sketch
10
12.108
20
11.902
0
VERTEX
8
Sketch
10
11.388
20
10.822
0
VERTEX
8
Sketch
10
11.308
20
10.622
0
VERTEX
8
Sketch
10
11.028
20
10.262
0
VERTEX
8
Sketch
10
10.868
20
9.902
0
VERTEX
8
Sketch
10
10.508
20
9.342
0
VERTEX
8
Sketch
10
10.428
20
9.342
0
VERTEX
8
Sketch
10
10.068
20
8.822
0
VERTEX
8
Sketch
10
9.788
20
8.502
0
VERTEX
8
Sketch
10
9.788
20
8.422
0
SEQEND
0
POLYLINE
66
1
8
Sketch
62
0
0
VERTEX
8
Sketch
10
15.068
20
17.902
0
VERTEX
8
Sketch
10
15.268
20
17.942
0
VERTEX
8
Sketch
10
15.668
20
18.022
0
VERTEX
8
Sketch
10
15.828
20
17.982
0
VERTEX
8
Sketch
10
15.948
20
17.822
0
VERTEX
8
Sketch
10
15.828
20
17.262
0
VERTEX
8
Sketch
10
15.668
20
16.902
0
VERTEX
8
Sketch
10
15.588
20
16.822
0
VERTEX
8
Sketch
10
15.588
20
16.742
0
VERTEX
8
Sketch
10
15.388
20
16.542
0
VERTEX
8
Sketch
10
15.348
20
16.422
0
VERTEX
8
Sketch
10
15.228
20
16.302
0
VERTEX
8
Sketch
10
15.028
20
15.942
0
VERTEX
8
Sketch
10
14.588
20
15.342
0
VERTEX
8
Sketch
10
14.548
20
15.222
0
VERTEX
8
Sketch
10
14.388
20
15.022
0
VERTEX
8
Sketch
10
14.028
20
14.302
0
VERTEX
8
Sketch
10
13.908
20
14.182
0
VERTEX
8
Sketch
10
13.868
20
13.982
0
VERTEX
8
Sketch
10
13.748
20
13.822
0
VERTEX
8
Sketch
10
13.748
20
13.742
0
SEQEND
0
POLYLINE
66
1
8
Sketch
62
0
0
VERTEX
8
Sketch
10
15.108
20
17.942
0
VERTEX
8
Sketch
10
14.668
20
17.382
0
VERTEX
8
Sketch
10
14.588
20
17.182
0
VERTEX
8
Sketch
10
14.068
20
16.542
0
VERTEX
8
Sketch
10
13.948
20
16.342
0
SEQEND
0
POLYLINE
66
1
8
Sketch
62
0
0
VERTEX
8
Sketch
10
12.468
20
16.422
0
VERTEX
8
Sketch
10
12.548
20
16.382
0
VERTEX
8
Sketch
10
12.708
20
16.422
0
VERTEX
8
Sketch
10
12.788
20
16.422
0
VERTEX
8
Sketch
10
12.868
20
16.342
0
VERTEX
8
Sketch
10
12.868
20
16.422
0
VERTEX
8
Sketch
10
12.988
20
16.382
0
VERTEX
8
Sketch
10
13.108
20
16.262
0
VERTEX
8
Sketch
10
13.388
20
16.262
0
VERTEX
8
Sketch
10
13.508
20
16.222
0
VERTEX
8
Sketch
10
13.668
20
16.262
0
VERTEX
8
Sketch
10
13.788
20
16.262
0
VERTEX
8
Sketch
10
13.868
20
16.222
0
SEQEND
0
POLYLINE
66
1
8
Sketch
62
0
0
VERTEX
8
Sketch
10
12.308
20
16.182
0
VERTEX
8
Sketch
10
11.988
20
15.782
0
VERTEX
8
Sketch
10
11.548
20
15.302
0
VERTEX
8
Sketch
10
11.508
20
15.182
0
VERTEX
8
Sketch
10
11.348
20
15.062
0
VERTEX
8
Sketch
10
11.308
20
14.942
0
VERTEX
8
Sketch
10
11.108
20
14.782
0
VERTEX
8
Sketch
10
11.108
20
14.782
0
VERTEX
8
Sketch
10
10.628
20
14.102
0
VERTEX
8
Sketch
10
9.988
20
13.302
0
VERTEX
8
Sketch
10
9.588
20
12.702
0
VERTEX
8
Sketch
10
9.388
20
12.502
0
VERTEX
8
Sketch
10
9.068
20
12.062
0
VERTEX
8
Sketch
10
8.668
20
11.582
0
SEQEND
0
POINT
8
Sketch
62
0
10
2.428
20
12.102
0
POLYLINE
66
1
8
Sketch
62
0
0
VERTEX
8
Sketch
10
8.108
20
10.062
0
VERTEX
8
Sketch
10
8.308
20
10.502
0
VERTEX
8
Sketch
10
8.308
20
10.582
0
VERTEX
8
Sketch
10
8.428
20
10.822
0
VERTEX
8
Sketch
10
8.748
20
11.222
0
VERTEX
8
Sketch
10
8.868
20
11.342
0
SEQEND
0
POLYLINE
66
1
8
Sketch
62
0
0
VERTEX
8
Sketch
10
8.668
20
11.662
0
VERTEX
8
Sketch
10
8.468
20
11.462
0
VERTEX
8
Sketch
10
8.068
20
11.182
0
VERTEX
8
Sketch
10
7.828
20
10.942
0
VERTEX
8
Sketch
10
7.708
20
10.862
0
SEQEND
0
POLYLINE
66
1
8
Sketch
62
0
0
VERTEX
8
Sketch
10
7.068
20
10.342
0
VERTEX
8
Sketch
10
7.068
20
10.222
0
VERTEX
8
Sketch
10
6.428
20
8.782
0
VERTEX
8
Sketch
10
5.988
20
8.062
0
VERTEX
8
Sketch
10
5.468
20
7.422
0
SEQEND
0
POLYLINE
66
1
8
Sketch
62
0
0
VERTEX
8
Sketch
10
6.228
20
8.302
0
VERTEX
8
Sketch
10
6.468
20
8.182
0
VERTEX
8
Sketch
10
6.628
20
8.022
0
VERTEX
8
Sketch
10
6.588
20
7.662
0
VERTEX
8
Sketch
10
6.388
20
7.382
0
SEQEND
0
POLYLINE
66
1
8
Sketch
62
0
0
VERTEX
8
Sketch
10
6.188
20
8.342
0
VERTEX
8
Sketch
10
5.828
20
7.582
0
VERTEX
8
Sketch
10
5.828
20
7.502
0
VERTEX
8
Sketch
10
5.948
20
7.502
0
VERTEX
8
Sketch
10
6.028
20
7.542
0
VERTEX
8
Sketch
10
6.148
20
7.502
0
VERTEX
8
Sketch
10
6.228
20
7.302
0
SEQEND
0
POLYLINE
66
1
8
Sketch
62
0
0
VERTEX
8
Sketch
10
7.068
20
8.662
0
VERTEX
8
Sketch
10
7.188
20
8.462
0
VERTEX
8
Sketch
10
7.188
20
8.342
0
VERTEX
8
Sketch
10
7.228
20
8.142
0
VERTEX
8
Sketch
10
7.148
20
8.182
0
VERTEX
8
Sketch
10
6.708
20
8.022
0
SEQEND
0
POLYLINE
66
1
8
Sketch
62
0
0
VERTEX
8
Sketch
10
7.148
20
8.742
0
VERTEX
8
Sketch
10
7.028
20
8.782
0
VERTEX
8
Sketch
10
6.748
20
8.662
0
VERTEX
8
Sketch
10
6.468
20
8.382
0
VERTEX
8
Sketch
10
6.668
20
8.382
0
VERTEX
8
Sketch
10
6.748
20
8.302
0
VERTEX
8
Sketch
10
6.708
20
7.982
0
VERTEX
8
Sketch
10
6.708
20
8.062
0
VERTEX
8
Sketch
10
6.748
20
7.982
0
VERTEX
8
Sketch
10
6.908
20
8.022
0
SEQEND
0
POLYLINE
66
1
8
Sketch
62
0
0
VERTEX
8
Sketch
10
7.188
20
10.182
0
VERTEX
8
Sketch
10
7.188
20
10.302
0
VERTEX
8
Sketch
10
7.428
20
10.542
0
VERTEX
8
Sketch
10
7.948
20
11.062
0
SEQEND
0
POLYLINE
66
1
8
Sketch
62
0
0
VERTEX
8
Sketch
10
7.388
20
10.502
0
VERTEX
8
Sketch
10
6.988
20
10.062
0
VERTEX
8
Sketch
10
6.908
20
9.902
0
VERTEX
8
Sketch
10
6.868
20
10.022
0
VERTEX
8
Sketch
10
6.268
20
9.582
0
VERTEX
8
Sketch
10
6.068
20
9.502
0
VERTEX
8
Sketch
10
5.668
20
9.022
0
VERTEX
8
Sketch
10
5.228
20
8.142
0
VERTEX
8
Sketch
10
5.188
20
7.982
0
VERTEX
8
Sketch
10
5.028
20
7.542
0
VERTEX
8
Sketch
10
5.028
20
7.382
0
VERTEX
8
Sketch
10
4.868
20
6.702
0
VERTEX
8
Sketch
10
4.748
20
6.382
0
VERTEX
8
Sketch
10
4.668
20
6.262
0
VERTEX
8
Sketch
10
4.668
20
6.142
0
VERTEX
8
Sketch
10
4.628
20
6.262
0
SEQEND
0
POLYLINE
66
1
8
Sketch
62
0
0
VERTEX
8
Sketch
10
6.668
20
7.382
0
VERTEX
8
Sketch
10
6.748
20
7.462
0
VERTEX
8
Sketch
10
6.748
20
7.542
0
VERTEX
8
Sketch
10
7.468
20
8.262
0
VERTEX
8
Sketch
10
7.508
20
8.382
0
VERTEX
8
Sketch
10
7.628
20
8.462
0
SEQEND
0
POLYLINE
66
1
8
Sketch
62
0
0
VERTEX
8
Sketch
10
8.388
20
10.182
0
VERTEX
8
Sketch
10
8.148
20
9.782
0
VERTEX
8
Sketch
10
8.068
20
9.422
0
VERTEX
8
Sketch
10
7.988
20
9.262
0
VERTEX
8
Sketch
10
7.988
20
9.142
0
VERTEX
8
Sketch
10
7.668
20
8.462
0
VERTEX
8
Sketch
10
7.668
20
8.382
0
VERTEX
8
Sketch
10
7.548
20
8.182
0
VERTEX
8
Sketch
10
7.308
20
7.662
0
VERTEX
8
Sketch
10
7.308
20
7.582
0
VERTEX
8
Sketch
10
7.188
20
7.422
0
VERTEX
8
Sketch
10
7.148
20
7.262
0
VERTEX
8
Sketch
10
6.988
20
6.862
0
VERTEX
8
Sketch
10
6.988
20
6.742
0
VERTEX
8
Sketch
10
6.788
20
6.262
0
VERTEX
8
Sketch
10
6.748
20
6.062
0
VERTEX
8
Sketch
10
6.628
20
5.822
0
VERTEX
8
Sketch
10
6.588
20
5.582
0
VERTEX
8
Sketch
10
6.348
20
5.382
0
VERTEX
8
Sketch
10
6.108
20
4.902
0
SEQEND
0
POLYLINE
66
1
8
Sketch
62
0
0
VERTEX
8
Sketch
10
6.388
20
7.102
0
VERTEX
8
Sketch
10
6.748
20
7.462
0
VERTEX
8
Sketch
10
6.628
20
7.382
0
SEQEND
0
POLYLINE
66
1
8
Sketch
62
0
0
VERTEX
8
Sketch
10
6.468
20
7.102
0
VERTEX
8
Sketch
10
6.348
20
6.822
0
VERTEX
8
Sketch
10
6.228
20
6.782
0
VERTEX
8
Sketch
10
5.868
20
6.302
0
VERTEX
8
Sketch
10
5.828
20
6.142
0
VERTEX
8
Sketch
10
5.788
20
5.982
0
VERTEX
8
Sketch
10
5.788
20
5.742
0
VERTEX
8
Sketch
10
5.828
20
5.582
0
VERTEX
8
Sketch
10
5.828
20
5.662
0
SEQEND
0
POLYLINE
66
1
8
Sketch
62
0
0
VERTEX
8
Sketch
10
5.388
20
6.462
0
VERTEX
8
Sketch
10
5.188
20
6.102
0
VERTEX
8
Sketch
10
5.388
20
5.862
0
VERTEX
8
Sketch
10
5.588
20
5.822
0
VERTEX
8
Sketch
10
5.788
20
6.062
0
VERTEX
8
Sketch
10
5.628
20
6.302
0
VERTEX
8
Sketch
10
5.468
20
6.462
0
VERTEX
8
Sketch
10
5.388
20
6.462
0
SEQEND
0
POLYLINE
66
1
8
Sketch
62
0
0
VERTEX
8
Sketch
10
5.668
20
7.302
0
VERTEX
8
Sketch
10
5.668
20
7.262
0
VERTEX
8
Sketch
10
5.388
20
6.982
0
VERTEX
8
Sketch
10
5.308
20
6.822
0
VERTEX
8
Sketch
10
5.468
20
6.622
0
VERTEX
8
Sketch
10
5.668
20
6.502
0
VERTEX
8
Sketch
10
6.028
20
6.662
0
VERTEX
8
Sketch
10
6.028
20
6.742
0
VERTEX
8
Sketch
10
5.828
20
7.142
0
VERTEX
8
Sketch
10
5.828
20
7.222
0
SEQEND
0
POLYLINE
66
1
8
Sketch
62
0
0
VERTEX
8
Sketch
10
0.748
20
-0.058
0
VERTEX
8
Sketch
10
1.468
20
0.782
0
VERTEX
8
Sketch
10
2.108
20
1.302
0
VERTEX
8
Sketch
10
2.308
20
1.382
0
VERTEX
8
Sketch
10
2.548
20
1.582
0
VERTEX
8
Sketch
10
3.268
20
2.102
0
VERTEX
8
Sketch
10
3.388
20
2.142
0
VERTEX
8
Sketch
10
3.748
20
2.502
0
VERTEX
8
Sketch
10
4.908
20
3.582
0
VERTEX
8
Sketch
10
5.028
20
3.782
0
VERTEX
8
Sketch
10
5.188
20
3.902
0
VERTEX
8
Sketch
10
5.308
20
4.102
0
VERTEX
8
Sketch
10
5.588
20
4.502
0
VERTEX
8
Sketch
10
5.748
20
4.782
0
VERTEX
8
Sketch
10
6.108
20
5.302
0
VERTEX
8
Sketch
10
6.188
20
5.222
0
VERTEX
8
Sketch
10
6.188
20
5.342
0
VERTEX
8
Sketch
10
6.468
20
5.542
0
SEQEND
0
POLYLINE
66
1
8
Sketch
62
0
0
VERTEX
8
Sketch
10
4.668
20
6.182
0
VERTEX
8
Sketch
10
4.668
20
6.142
0
VERTEX
8
Sketch
10
4.268
20
5.742
0
VERTEX
8
Sketch
10
3.388
20
4.822
0
VERTEX
8
Sketch
10
2.988
20
4.342
0
VERTEX
8
Sketch
10
2.548
20
3.942
0
VERTEX
8
Sketch
10
2.548
20
3.862
0
VERTEX
8
Sketch
10
2.508
20
3.942
0
VERTEX
8
Sketch
10
1.988
20
3.142
0
VERTEX
8
Sketch
10
1.988
20
3.022
0
VERTEX
8
Sketch
10
1.908
20
2.942
0
VERTEX
8
Sketch
10
1.868
20
2.782
0
VERTEX
8
Sketch
10
1.708
20
2.342
0
VERTEX
8
Sketch
10
1.508
20
2.062
0
VERTEX
8
Sketch
10
1.348
20
2.022
0
VERTEX
8
Sketch
10
1.188
20
1.982
0
VERTEX
8
Sketch
10
0.908
20
2.062
0
VERTEX
8
Sketch
10
0.708
20
2.022
0
VERTEX
8
Sketch
10
0.548
20
2.022
0
VERTEX
8
Sketch
10
0.548
20
1.942
0
SEQEND
0
LINE
8
Shots
62
1
10
-20.146
20
-46.538
11
-18.74
21
-50.236
0
CIRCLE
8
Shots
62
1
10
-18.74
20
-50.236
40
0.1
0
LINE
8
XSect
62
1
6
DASH
10
-18.74
20
-50.236
11
-18.84
21
-50.36
0
LINE
8
XSect
62
1
10
-18.74
20
-50.236
11
-21.48
21
-49.706
0
LINE
8
XSect
62
1
10
-18.74
20
-50.236
11
-22.116
21
-52.18
0
LINE
8
XSect
62
1
10
-18.74
20
-50.236
11
-19.704
21
-52.08
0
LINE
8
XSect
62
1
6
DASH
10
-18.74
20
-50.236
11
-18.058
21
-50.99
0
LINE
8
Shots
62
1
10
-16.972
20
-42.108
11
-20.146
21
-46.538
0
CIRCLE
8
Shots
62
1
10
-20.146
20
-46.538
40
0.1
0
LINE
8
XSect
62
1
10
-20.146
20
-46.538
11
-18.086
21
-46.944
0
LINE
8
XSect
62
1
6
DASH
10
-20.146
20
-46.538
11
-19.396
21
-46.574
0
LINE
8
XSect
62
1
6
DASH
10
-20.146
20
-46.538
11
-18.202
21
-46.778
0
LINE
8
XSect
62
1
6
DASH
10
-20.146
20
-46.538
11
-20.026
21
-46.656
0
LINE
8
XSect
62
1
10
-20.146
20
-46.538
11
-20.11
21
-48.31
0
LINE
8
XSect
62
1
10
-20.146
20
-46.538
11
-19.866
21
-51.328
0
LINE
8
XSect
62
1
10
-20.146
20
-46.538
11
-18.578
21
-48.252
0
LINE
8
XSect
62
1
10
-20.146
20
-46.538
11
-20.83
21
-48.602
0
LINE
8
XSect
62
1
10
-20.146
20
-46.538
11
-17.362
21
-48.208
0
LINE
8
XSect
62
1
10
-20.146
20
-46.538
11
-18.01
21
-49.678
0
LINE
8
XSect
62
1
10
-20.146
20
-46.538
11
-18.216
21
-49.998
0
LINE
8
Shots
62
1
10
-15.226
20
-37.544
11
-16.972
21
-42.108
0
CIRCLE
8
Shots
62
1
10
-16.972
20
-42.108
40
0.1
0
LINE
8
XSect
62
1
6
DASH
10
-16.972
20
-42.108
11
-15.832
21
-42.446
0
LINE
8
XSect
62
1
6
DASH
10
-16.972
20
-42.108
11
-16.89
21
-41.736
0
LINE
8
XSect
62
1
6
DASH
10
-16.972
20
-42.108
11
-17.962
21
-41.588
0
LINE
8
XSect
62
1
6
DASH
10
-16.972
20
-42.108
11
-17.662
21
-43.848
0
LINE
8
XSect
62
1
10
-16.972
20
-42.108
11
-16.002
21
-43.204
0
LINE
8
XSect
62
1
10
-16.972
20
-42.108
11
-16.266
21
-42.884
0
LINE
8
XSect
62
1
10
-16.972
20
-42.108
11
-16.54
21
-44.666
0
LINE
8
XSect
62
1
10
-16.972
20
-42.108
11
-18.07
21
-46.744
0
LINE
8
XSect
62
1
10
-16.972
20
-42.108
11
-19.17
21
-49.342
0
LINE
8
XSect
62
1
10
-16.972
20
-42.108
11
-19.09
21
-49.24
0
LINE
8
XSect
62
1
10
-16.972
20
-42.108
11
-18.318
21
-48.408
0
LINE
8
XSect
62
1
10
-16.972
20
-42.108
11
-18.332
21
-48.406
0
LINE
8
XSect
62
1
6
DASH
10
-16.972
20
-42.108
11
-16.32
21
-42.282
0
LINE
8
XSect
62
1
6
DASH
10
-16.972
20
-42.108
11
-17.714
21
-42.456
0
LINE
8
XSect
62
1
10
-16.972
20
-42.108
11
-17.774
21
-42
0
LINE
8
XSect
62
1
10
-16.972
20
-42.108
11
-12.78
21
-40.49
0
LINE
8
XSect
62
1
10
-16.972
20
-42.108
11
-19.252
21
-46.066
0
LINE
8
XSect
62
1
10
-16.972
20
-42.108
11
-19.65
21
-47.54
0
LINE
8
XSect
62
1
10
-16.972
20
-42.108
11
-19.008
21
-46.98
0
LINE
8
XSect
62
1
10
-16.972
20
-42.108
11
-19.992
21
-46.082
0
LINE
8
XSect
62
1
10
-16.972
20
-42.108
11
-18.156
21
-45.716
0
LINE
8
Shots
62
1
10
-10.756
20
-34.184
11
-15.226
21
-37.544
0
CIRCLE
8
Shots
62
1
10
-15.226
20
-37.544
40
0.1
0
LINE
8
XSect
62
1
10
-15.226
20
-37.544
11
-12.598
21
-38.964
0
LINE
8
XSect
62
1
6
DASH
10
-15.226
20
-37.544
11
-14.922
21
-37.888
0
LINE
8
XSect
62
1
10
-15.226
20
-37.544
11
-14.126
21
-35.224
0
LINE
8
XSect
62
1
10
-15.226
20
-37.544
11
-16.21
21
-39.768
0
LINE
8
XSect
62
1
10
-15.226
20
-37.544
11
-15.948
21
-42.556
0
LINE
8
XSect
62
1
10
-15.226
20
-37.544
11
-18.112
21
-49.336
0
LINE
8
XSect
62
1
10
-15.226
20
-37.544
11
-13.396
21
-42.556
0
LINE
8
XSect
62
1
10
-15.226
20
-37.544
11
-14.204
21
-44.842
0
LINE
8
XSect
62
1
10
-15.226
20
-37.544
11
-13.392
21
-40.994
0
LINE
8
Shots
62
1
10
-10.658
20
-27.17
11
-10.756
21
-34.184
0
CIRCLE
8
Shots
62
1
10
-10.756
20
-34.184
40
0.1
0
LINE
8
XSect
62
1
10
-10.756
20
-34.184
11
-12.99
21
-33.554
0
LINE
8
XSect
62
1
6
DASH
10
-10.756
20
-34.184
11
-11.118
21
-34.232
0
LINE
8
XSect
62
1
10
-10.756
20
-34.184
11
-11.604
21
-33.894
0
LINE
8
XSect
62
1
10
-10.756
20
-34.184
11
-14.98
21
-37.246
0
LINE
8
XSect
62
1
10
-10.756
20
-34.184
11
-13.542
21
-40.17
0
LINE
8
XSect
62
1
10
-10.756
20
-34.184
11
-15.572
21
-42.85
0
LINE
8
Shots
62
1
10
-6.436
20
-22.828
11
-10.658
21
-27.17
0
CIRCLE
8
Shots
62
1
10
-10.658
20
-27.17
40
0.1
0
LINE
8
XSect
62
1
10
-10.658
20
-27.17
11
-10.338
21
-26.544
0
LINE
8
XSect
62
1
6
DASH
10
-10.658
20
-27.17
11
-10.4
21
-27.268
0
LINE
8
XSect
62
1
10
-10.658
20
-27.17
11
-8.798
21
-28.38
0
LINE
8
XSect
62
1
6
DASH
10
-10.658
20
-27.17
11
-11.838
21
-28.236
0
LINE
8
XSect
62
1
10
-10.658
20
-27.17
11
-12.35
21
-29.992
0
LINE
8
XSect
62
1
10
-10.658
20
-27.17
11
-12.2
21
-30.89
0
LINE
8
XSect
62
1
10
-10.658
20
-27.17
11
-9.12
21
-30.72
0
LINE
8
XSect
62
1
10
-10.658
20
-27.17
11
-10.074
21
-32.176
0
LINE
8
XSect
62
1
10
-10.658
20
-27.17
11
-10.736
21
-35.016
0
LINE
8
XSect
62
1
10
-10.658
20
-27.17
11
-13.306
21
-34.106
0
LINE
8
Shots
62
1
10
-5.438
20
-14.784
11
-6.436
21
-22.828
0
CIRCLE
8
Shots
62
1
10
-6.436
20
-22.828
40
0.1
0
LINE
8
XSect
62
1
6
DASH
10
-6.436
20
-22.828
11
-6.4
21
-22.78
0
LINE
8
XSect
62
1
6
DASH
10
-6.436
20
-22.828
11
-6.988
21
-22.462
0
LINE
8
XSect
62
1
6
DASH
10
-6.436
20
-22.828
11
-8.242
21
-21.83
0
LINE
8
XSect
62
1
6
DASH
10
-6.436
20
-22.828
11
-8.922
21
-21.296
0
LINE
8
XSect
62
1
10
-6.436
20
-22.828
11
-7.4
21
-22.008
0
LINE
8
XSect
62
1
10
-6.436
20
-22.828
11
-7.198
21
-25.446
0
LINE
8
XSect
62
1
10
-6.436
20
-22.828
11
-8.694
21
-24.198
0
LINE
8
XSect
62
1
10
-6.436
20
-22.828
11
-3.848
21
-15.292
0
LINE
8
XSect
62
1
10
-6.436
20
-22.828
11
-4.142
21
-16.79
0
LINE
8
XSect
62
1
10
-6.436
20
-22.828
11
-9.102
21
-24.064
0
LINE
8
XSect
62
1
10
-6.436
20
-22.828
11
-8.856
21
-24.308
0
LINE
8
Shots
62
1
10
-1.574
20
-12.57
11
-5.438
21
-14.784
0
CIRCLE
8
Shots
62
1
10
-5.438
20
-14.784
40
0.1
0
LINE
8
XSect
62
1
6
DASH
10
-5.438
20
-14.784
11
-5.332
21
-14.876
0
LINE
8
XSect
62
1
6
DASH
10
-5.438
20
-14.784
11
-4.954
21
-14.736
0
LINE
8
XSect
62
1
10
-5.438
20
-14.784
11
-2.694
21
-16.262
0
LINE
8
XSect
62
1
10
-5.438
20
-14.784
11
-2.636
21
-10.358
0
LINE
8
XSect
62
1
10
-5.438
20
-14.784
11
-4.218
21
-19.226
0
LINE
8
XSect
62
1
10
-5.438
20
-14.784
11
-5.39
21
-21.84
0
LINE
8
XSect
62
1
10
-5.438
20
-14.784
11
-5.486
21
-15.1
0
LINE
8
XSect
62
1
10
-5.438
20
-14.784
11
-7.934
21
-22.352
0
LINE
8
Shots
62
1
10
0.496
20
-9.962
11
-1.574
21
-12.57
0
CIRCLE
8
Shots
62
1
10
-1.574
20
-12.57
40
0.1
0
LINE
8
XSect
62
1
6
DASH
10
-1.574
20
-12.57
11
-1.588
21
-12.522
0
LINE
8
XSect
62
1
6
DASH
10
-1.574
20
-12.57
11
-1.714
21
-12.49
0
LINE
8
XSect
62
1
10
-1.574
20
-12.57
11
-2.666
21
-11.758
0
LINE
8
XSect
62
1
10
-1.574
20
-12.57
11
-4.618
21
-11.786
0
LINE
8
XSect
62
1
10
-1.574
20
-12.57
11
-4.396
21
-12.818
0
LINE
8
XSect
62
1
10
-1.574
20
-12.57
11
-2.296
21
-14.564
0
LINE
8
XSect
62
1
10
-1.574
20
-12.57
11
-5.012
21
-13.8
0
LINE
8
XSect
62
1
10
-1.574
20
-12.57
11
-5.618
21
-14.48
0
LINE
8
Shots
62
1
10
3.662
20
-5.446
11
0.496
21
-9.962
0
CIRCLE
8
Shots
62
1
10
0.496
20
-9.962
40
0.1
0
LINE
8
XSect
62
1
6
DASH
10
0.496
20
-9.962
11
0.45
21
-9.864
0
LINE
8
XSect
62
1
10
0.496
20
-9.962
11
1.02
21
-10.346
0
LINE
8
XSect
62
1
10
0.496
20
-9.962
11
-0.194
21
-9.194
0
LINE
8
XSect
62
1
10
0.496
20
-9.962
11
-0.438
21
-12.2
0
LINE
8
XSect
62
1
10
0.496
20
-9.962
11
-1.792
21
-11.168
0
LINE
8
XSect
62
1
10
0.496
20
-9.962
11
-0.966
21
-11.87
0
LINE
8
Shots
62
1
10
6.808
20
1.188
11
3.662
21
-5.446
0
CIRCLE
8
Shots
62
1
10
3.662
20
-5.446
40
0.1
0
LINE
8
XSect
62
1
10
3.662
20
-5.446
11
2.306
21
-4.794
0
LINE
8
XSect
62
1
6
DASH
10
3.662
20
-5.446
11
3.548
21
-5.39
0
LINE
8
XSect
62
1
6
DASH
10
3.662
20
-5.446
11
3.43
21
-5.476
0
LINE
8
XSect
62
1
10
3.662
20
-5.446
11
0.066
21
-5.11
0
LINE
8
XSect
62
1
10
3.662
20
-5.446
11
0.526
21
-7.78
0
LINE
8
XSect
62
1
10
3.662
20
-5.446
11
0.892
21
-8.39
0
LINE
8
XSect
62
1
10
3.662
20
-5.446
11
0.552
21
-8.962
0
LINE
8
XSect
62
1
10
3.662
20
-5.446
11
0.568
21
-9.918
0
LINE
8
Shots
62
1
10
8.95
20
9.89
11
6.808
21
1.188
0
CIRCLE
8
Shots
62
1
10
6.808
20
1.188
40
0.1
0
LINE
8
XSect
62
1
6
DASH
10
6.808
20
1.188
11
6.768
21
1.118
0
LINE
8
XSect
62
1
6
DASH
10
6.808
20
1.188
11
6.7
21
1.104
0
LINE
8
XSect
62
1
10
6.808
20
1.188
11
5.276
21
3.304
0
LINE
8
XSect
62
1
10
6.808
20
1.188
11
4.904
21
2.054
0
LINE
8
XSect
62
1
10
6.808
20
1.188
11
3.892
21
0.972
0
LINE
8
XSect
62
1
10
6.808
20
1.188
11
1.884
21
-1.82
0
LINE
8
XSect
62
1
10
6.808
20
1.188
11
3.486
21
-2.012
0
LINE
8
XSect
62
1
10
6.808
20
1.188
11
3.98
21
-3.046
0
LINE
8
XSect
62
1
10
6.808
20
1.188
11
7.472
21
4.756
0
LINE
8
XSect
62
1
10
6.808
20
1.188
11
9.226
21
6.606
0
LINE
8
XSect
62
1
10
6.808
20
1.188
11
7.722
21
-0.068
0
LINE
8
XSect
62
1
10
6.808
20
1.188
11
6.292
21
-2.186
0
LINE
8
XSect
62
1
10
6.808
20
1.188
11
4.924
21
-3.9
0
LINE
8
Shots
62
1
10
8.95
20
9.89
11
8.95
21
9.89
0
CIRCLE
8
Shots
62
1
10
8.95
20
9.89
40
0.1
0
LINE
8
XSect
62
1
10
8.95
20
9.89
11
9.758
21
8.754
0
LINE
8
XSect
62
1
10
8.95
20
9.89
11
9.076
21
7.794
0
LINE
8
XSect
62
1
10
8.95
20
9.89
11
8.858
21
5.386
0
LINE
8
Shots
62
1
10
8.95
20
9.89
11
12.964
21
13.676
0
CIRCLE
8
Shots
62
1
10
12.964
20
13.676
40
0.1
0
LINE
8
XSect
62
1
6
DASH
10
12.964
20
13.676
11
12.846
21
13.514
0
LINE
8
XSect
62
1
10
12.964
20
13.676
11
13.732
21
13.814
0
LINE
8
XSect
62
1
10
12.964
20
13.676
11
12.512
21
14.706
0
LINE
8
XSect
62
1
10
12.964
20
13.676
11
13.142
21
15.372
0
LINE
8
XSect
62
1
10
12.964
20
13.676
11
13.724
21
16.154
0
LINE
8
XSect
62
1
10
12.964
20
13.676
11
15.114
21
17.812
0
LINE
8
XSect
62
1
10
12.964
20
13.676
11
15.832
21
18.066
0
LINE
8
XSect
62
1
10
12.964
20
13.676
11
15.886
21
17.826
0
LINE
8
XSect
62
1
10
12.964
20
13.676
11
15.836
21
17.866
0
LINE
8
XSect
62
1
10
12.964
20
13.676
11
15.142
21
16.162
0
LINE
8
XSect
62
1
10
12.964
20
13.676
11
13.794
21
15.122
0
LINE
8
XSect
62
1
10
12.964
20
13.676
11
15.17
21
17.88
0
LINE
8
Shots
62
1
10
8.398
20
11.216
11
8.95
21
9.89
0
CIRCLE
8
Shots
62
1
10
8.95
20
9.89
40
0.1
0
LINE
8
XSect
62
1
10
8.95
20
9.89
11
10.042
21
9.094
0
LINE
8
XSect
62
1
10
8.95
20
9.89
11
8.226
21
10.136
0
LINE
8
XSect
62
1
6
DASH
10
8.95
20
9.89
11
9.304
21
9.66
0
LINE
8
XSect
62
1
6
DASH
10
8.95
20
9.89
11
9.054
21
9.848
0
LINE
8
XSect
62
1
10
8.95
20
9.89
11
12.484
21
16.54
0
LINE
8
XSect
62
1
10
8.95
20
9.89
11
12.892
21
16.202
0
LINE
8
XSect
62
1
10
8.95
20
9.89
11
11.13
21
14.106
0
LINE
8
Shots
62
1
10
7.97
20
9.722
11
8.398
21
11.216
0
CIRCLE
8
Shots
62
1
10
8.398
20
11.216
40
0.1
0
LINE
8
XSect
62
1
6
DASH
10
8.398
20
11.216
11
8.474
21
11.248
0
LINE
8
XSect
62
1
10
8.398
20
11.216
11
8.906
21
10.814
0
LINE
8
XSect
62
1
6
DASH
10
8.398
20
11.216
11
8.586
21
11.2
0
LINE
8
XSect
62
1
10
8.398
20
11.216
11
12.768
21
15.976
0
LINE
8
XSect
62
1
10
8.398
20
11.216
11
10.942
21
14.274
0
LINE
8
XSect
62
1
10
8.398
20
11.216
11
12.418
21
14.422
0
LINE
8
Shots
62
1
10
3.708
20
4.506
11
7.97
21
9.722
0
CIRCLE
8
Shots
62
1
10
7.97
20
9.722
40
0.1
0
LINE
8
XSect
62
1
6
DASH
10
7.97
20
9.722
11
7.896
21
9.792
0
LINE
8
XSect
62
1
6
DASH
10
7.97
20
9.722
11
7.984
21
10.204
0
LINE
8
XSect
62
1
10
7.97
20
9.722
11
7.352
21
10.372
0
LINE
8
XSect
62
1
10
7.97
20
9.722
11
6.118
21
9.446
0
LINE
8
XSect
62
1
10
7.97
20
9.722
11
9.292
21
11.624
0
LINE
8
Shots
62
1
10
0
20
0
11
3.708
21
4.506
0
CIRCLE
8
Shots
62
1
10
3.708
20
4.506
40
0.1
0
LINE
8
XSect
62
1
6
DASH
10
3.708
20
4.506
11
3.95
21
4.504
0
LINE
8
XSect
62
1
6
DASH
10
3.708
20
4.506
11
3.28
21
4.896
0
LINE
8
XSect
62
1
10
3.708
20
4.506
11
4.928
21
3.862
0
LINE
8
XSect
62
1
10
3.708
20
4.506
11
3.292
21
2.392
0
LINE
8
XSect
62
1
10
3.708
20
4.506
11
2.874
21
1.732
0
LINE
8
XSect
62
1
10
3.708
20
4.506
11
2.184
21
2.728
0
LINE
8
XSect
62
1
10
3.708
20
4.506
11
2.692
21
4.09
0
LINE
8
XSect
62
1
10
3.708
20
4.506
11
4.362
21
5.656
0
LINE
8
XSect
62
1
10
3.708
20
4.506
11
5.41
21
6.022
0
LINE
8
XSect
62
1
10
3.708
20
4.506
11
5.914
21
5.798
0
LINE
8
XSect
62
1
10
3.708
20
4.506
11
5.512
21
6.774
0
LINE
8
XSect
62
1
10
3.708
20
4.506
11
6.028
21
7.708
0
LINE
8
XSect
62
1
10
3.708
20
4.506
11
6.618
21
7.84
0
LINE
8
XSect
62
1
10
3.708
20
4.506
11
7.99
21
9.71
0
LINE
8
XSect
62
1
10
3.708
20
4.506
11
8.386
21
10.18
0
LINE
8
Shots
62
1
10
0
20
0
11
3.71
21
4.5
0
CIRCLE
8
Shots
62
1
10
3.71
20
4.5
40
0.1
0
LINE
8
XSect
62
1
10
0
20
0
11
-0.336
21
1.388
0
LINE
8
XSect
62
1
10
0
20
0
11
0.674
21
2.066
0
LINE
8
XSect
62
1
10
0
20
0
11
1.332
21
1.938
0
LINE
8
XSect
62
1
6
DASH
10
0
20
0
11
-0.026
21
0.116
0
LINE
8
XSect
62
1
6
DASH
10
0
20
0
11
0.558
21
-0.056
0
LINE
8
XSect
62
1
10
0
20
0
11
2.944
21
3.562
0
ENDSEC
0
EOF
