0
SECTION
2
HEADER
9
$ACADVER
1
AC1002
9
$INSUNITS
70
4
0
ENDSEC
0
SECTION
2
TABLES
0
TABLE
2
LTYPE
70
1
0
LTYPE
2
DASH
70
0
3
---
72
65
73
2
40
0.6
49
0.3
49
-0.3
0
ENDTAB
0
ENDSEC
0
SECTION
2
ENTITIES
0
POLYLINE
66
1
8
Sketch
62
5
0
VERTEX
8
Sketch
10
-53.086
20
-15.334
0
VERTEX
8
Sketch
10
-52.686
20
-15.174
0
VERTEX
8
Sketch
10
-53.086
20
-15.174
0
VERTEX
8
Sketch
10
-53.886
20
-15.814
0
VERTEX
8
Sketch
10
-53.726
20
-16.054
0
VERTEX
8
Sketch
10
-53.486
20
-16.054
0
VERTEX
8
Sketch
10
-53.326
20
-16.134
0
SEQEND
0
POLYLINE
66
1
8
Sketch
62
5
0
VERTEX
8
Sketch
10
-54.526
20
-15.254
0
VERTEX
8
Sketch
10
-54.926
20
-15.654
0
VERTEX
8
Sketch
10
-55.326
20
-15.894
0
VERTEX
8
Sketch
10
-55.406
20
-16.054
0
VERTEX
8
Sketch
10
-55.246
20
-16.134
0
VERTEX
8
Sketch
10
-54.926
20
-16.134
0
VERTEX
8
Sketch
10
-54.526
20
-16.054
0
SEQEND
0
POLYLINE
66
1
8
Sketch
62
5
0
VERTEX
8
Sketch
10
-56.926
20
-15.094
0
VERTEX
8
Sketch
10
-57.086
20
-15.094
0
VERTEX
8
Sketch
10
-57.486
20
-15.654
0
VERTEX
8
Sketch
10
-57.086
20
-15.894
0
VERTEX
8
Sketch
10
-56.606
20
-15.894
0
VERTEX
8
Sketch
10
-56.446
20
-15.974
0
SEQEND
0
POLYLINE
66
1
8
Sketch
62
5
0
VERTEX
8
Sketch
10
-50.446
20
-15.094
0
VERTEX
8
Sketch
10
-50.606
20
-15.174
0
VERTEX
8
Sketch
10
-51.246
20
-14.934
0
VERTEX
8
Sketch
10
-51.646
20
-14.934
0
VERTEX
8
Sketch
10
-52.046
20
-15.094
0
VERTEX
8
Sketch
10
-52.366
20
-15.014
0
VERTEX
8
Sketch
10
-53.486
20
-15.574
0
VERTEX
8
Sketch
10
-53.806
20
-15.574
0
VERTEX
8
Sketch
10
-53.966
20
-15.734
0
VERTEX
8
Sketch
10
-53.966
20
-15.574
0
VERTEX
8
Sketch
10
-55.646
20
-15.574
0
VERTEX
8
Sketch
10
-55.966
20
-15.494
0
VERTEX
8
Sketch
10
-56.366
20
-15.494
0
VERTEX
8
Sketch
10
-56.926
20
-15.574
0
VERTEX
8
Sketch
10
-57.166
20
-15.574
0
SEQEND
0
POLYLINE
66
1
8
Sketch
62
0
0
VERTEX
8
Sketch
10
-53.406
20
-12.534
0
VERTEX
8
Sketch
10
-53.246
20
-12.854
0
VERTEX
8
Sketch
10
-53.086
20
-12.694
0
VERTEX
8
Sketch
10
-52.926
20
-12.774
0
VERTEX
8
Sketch
10
-53.566
20
-12.934
0
VERTEX
8
Sketch
10
-53.326
20
-13.174
0
VERTEX
8
Sketch
10
-52.926
20
-12.934
0
VERTEX
8
Sketch
10
-53.006
20
-12.614
0
VERTEX
8
Sketch
10
-53.406
20
-12.854
0
SEQEND
0
POLYLINE
66
1
8
Sketch
62
0
0
VERTEX
8
Sketch
10
-55.806
20
-12.934
0
VERTEX
8
Sketch
10
-56.126
20
-12.934
0
VERTEX
8
Sketch
10
-56.286
20
-13.014
0
VERTEX
8
Sketch
10
-56.366
20
-13.334
0
VERTEX
8
Sketch
10
-56.286
20
-13.174
0
VERTEX
8
Sketch
10
-55.326
20
-13.094
0
VERTEX
8
Sketch
10
-54.686
20
-13.094
0
VERTEX
8
Sketch
10
-54.526
20
-13.174
0
VERTEX
8
Sketch
10
-54.126
20
-13.094
0
SEQEND
0
POLYLINE
66
1
8
Sketch
62
0
0
VERTEX
8
Sketch
10
-54.366
20
-12.694
0
VERTEX
8
Sketch
10
-54.766
20
-12.694
0
VERTEX
8
Sketch
10
-55.086
20
-12.934
0
VERTEX
8
Sketch
10
-54.846
20
-13.174
0
VERTEX
8
Sketch
10
-54.686
20
-13.254
0
VERTEX
8
Sketch
10
-55.006
20
-12.934
0
VERTEX
8
Sketch
10
-55.166
20
-12.854
0
VERTEX
8
Sketch
10
-55.486
20
-13.094
0
SEQEND
0
POLYLINE
66
1
8
Sketch
62
0
0
VERTEX
8
Sketch
10
-53.326
20
-12.694
0
VERTEX
8
Sketch
10
-53.726
20
-12.534
0
VERTEX
8
Sketch
10
-54.126
20
-12.614
0
VERTEX
8
Sketch
10
-54.286
20
-12.774
0
VERTEX
8
Sketch
10
-54.286
20
-12.934
0
VERTEX
8
Sketch
10
-53.886
20
-13.014
0
VERTEX
8
Sketch
10
-53.726
20
-12.854
0
SEQEND
0
POLYLINE
66
1
8
Sketch
62
0
0
VERTEX
8
Sketch
10
-54.366
20
-10.694
0
VERTEX
8
Sketch
10
-54.686
20
-10.694
0
VERTEX
8
Sketch
10
-54.926
20
-10.614
0
VERTEX
8
Sketch
10
-55.646
20
-10.854
0
VERTEX
8
Sketch
10
-56.206
20
-10.934
0
VERTEX
8
Sketch
10
-57.006
20
-11.254
0
SEQEND
0
POLYLINE
66
1
8
Sketch
62
0
0
VERTEX
8
Sketch
10
-55.086
20
-10.614
0
VERTEX
8
Sketch
10
-55.406
20
-10.614
0
VERTEX
8
Sketch
10
-56.446
20
-10.854
0
VERTEX
8
Sketch
10
-57.086
20
-11.094
0
SEQEND
0
POLYLINE
66
1
8
Sketch
62
0
0
VERTEX
8
Sketch
10
-53.166
20
-10.054
0
VERTEX
8
Sketch
10
-53.166
20
-10.294
0
VERTEX
8
Sketch
10
-53.246
20
-10.454
0
VERTEX
8
Sketch
10
-53.566
20
-10.534
0
VERTEX
8
Sketch
10
-54.046
20
-10.854
0
VERTEX
8
Sketch
10
-55.006
20
-10.854
0
VERTEX
8
Sketch
10
-55.166
20
-10.934
0
VERTEX
8
Sketch
10
-55.486
20
-10.854
0
VERTEX
8
Sketch
10
-55.726
20
-10.854
0
SEQEND
0
POLYLINE
66
1
8
Sketch
62
0
0
VERTEX
8
Sketch
10
-52.366
20
-8.454
0
VERTEX
8
Sketch
10
-52.766
20
-8.854
0
VERTEX
8
Sketch
10
-53.006
20
-9.654
0
VERTEX
8
Sketch
10
-53.086
20
-10.374
0
SEQEND
0
POLYLINE
66
1
8
Sketch
62
0
0
VERTEX
8
Sketch
10
-52.206
20
-8.454
0
VERTEX
8
Sketch
10
-52.366
20
-8.454
0
VERTEX
8
Sketch
10
-52.926
20
-8.774
0
VERTEX
8
Sketch
10
-53.166
20
-9.334
0
VERTEX
8
Sketch
10
-53.326
20
-9.494
0
VERTEX
8
Sketch
10
-53.326
20
-9.654
0
VERTEX
8
Sketch
10
-53.486
20
-9.814
0
SEQEND
0
POLYLINE
66
1
8
Sketch
62
5
0
VERTEX
8
Sketch
10
-47.646
20
-10.054
0
VERTEX
8
Sketch
10
-47.726
20
-10.374
0
VERTEX
8
Sketch
10
-47.646
20
-11.174
0
VERTEX
8
Sketch
10
-47.646
20
-12.054
0
VERTEX
8
Sketch
10
-47.566
20
-12.454
0
VERTEX
8
Sketch
10
-47.646
20
-12.614
0
VERTEX
8
Sketch
10
-47.646
20
-12.934
0
VERTEX
8
Sketch
10
-47.566
20
-13.094
0
VERTEX
8
Sketch
10
-47.646
20
-13.414
0
VERTEX
8
Sketch
10
-47.646
20
-13.734
0
VERTEX
8
Sketch
10
-47.726
20
-13.894
0
VERTEX
8
Sketch
10
-47.646
20
-14.454
0
VERTEX
8
Sketch
10
-47.646
20
-14.774
0
VERTEX
8
Sketch
10
-47.486
20
-15.494
0
SEQEND
0
POLYLINE
66
1
8
Sketch
62
0
0
VERTEX
8
Sketch
10
-46.206
20
-6.374
0
VERTEX
8
Sketch
10
-45.886
20
-6.374
0
VERTEX
8
Sketch
10
-45.566
20
-6.614
0
SEQEND
0
POLYLINE
66
1
8
Sketch
62
0
0
VERTEX
8
Sketch
10
-51.086
20
-15.014
0
VERTEX
8
Sketch
10
-51.246
20
-14.934
0
VERTEX
8
Sketch
10
-51.406
20
-15.094
0
VERTEX
8
Sketch
10
-51.646
20
-15.014
0
VERTEX
8
Sketch
10
-52.046
20
-15.494
0
VERTEX
8
Sketch
10
-51.806
20
-15.574
0
VERTEX
8
Sketch
10
-51.406
20
-15.334
0
VERTEX
8
Sketch
10
-51.246
20
-15.334
0
VERTEX
8
Sketch
10
-51.406
20
-15.014
0
SEQEND
0
POLYLINE
66
1
8
Sketch
62
0
0
VERTEX
8
Sketch
10
-45.166
20
-15.014
0
VERTEX
8
Sketch
10
-46.286
20
-15.094
0
VERTEX
8
Sketch
10
-47.006
20
-15.414
0
VERTEX
8
Sketch
10
-47.086
20
-15.734
0
VERTEX
8
Sketch
10
-46.446
20
-15.814
0
VERTEX
8
Sketch
10
-46.126
20
-15.814
0
VERTEX
8
Sketch
10
-45.726
20
-15.734
0
VERTEX
8
Sketch
10
-45.646
20
-15.894
0
VERTEX
8
Sketch
10
-45.566
20
-15.654
0
VERTEX
8
Sketch
10
-45.806
20
-15.494
0
VERTEX
8
Sketch
10
-46.046
20
-15.494
0
VERTEX
8
Sketch
10
-46.206
20
-15.414
0
VERTEX
8
Sketch
10
-46.446
20
-15.494
0
VERTEX
8
Sketch
10
-46.606
20
-15.734
0
SEQEND
0
POLYLINE
66
1
8
Sketch
62
0
0
VERTEX
8
Sketch
10
-47.966
20
-15.014
0
VERTEX
8
Sketch
10
-48.286
20
-14.934
0
VERTEX
8
Sketch
10
-48.686
20
-15.014
0
VERTEX
8
Sketch
10
-49.406
20
-15.334
0
VERTEX
8
Sketch
10
-49.486
20
-15.494
0
VERTEX
8
Sketch
10
-49.086
20
-15.574
0
VERTEX
8
Sketch
10
-48.766
20
-15.574
0
VERTEX
8
Sketch
10
-47.726
20
-15.334
0
VERTEX
8
Sketch
10
-47.566
20
-15.174
0
VERTEX
8
Sketch
10
-47.806
20
-15.094
0
VERTEX
8
Sketch
10
-48.206
20
-15.254
0
VERTEX
8
Sketch
10
-48.446
20
-15.254
0
VERTEX
8
Sketch
10
-48.446
20
-15.494
0
VERTEX
8
Sketch
10
-48.126
20
-15.654
0
SEQEND
0
POLYLINE
66
1
8
Sketch
62
0
0
VERTEX
8
Sketch
10
-48.526
20
-15.014
0
VERTEX
8
Sketch
10
-49.086
20
-14.854
0
VERTEX
8
Sketch
10
-50.286
20
-14.934
0
VERTEX
8
Sketch
10
-50.686
20
-15.334
0
VERTEX
8
Sketch
10
-50.766
20
-15.734
0
VERTEX
8
Sketch
10
-50.526
20
-15.974
0
VERTEX
8
Sketch
10
-49.726
20
-15.814
0
VERTEX
8
Sketch
10
-49.246
20
-15.334
0
VERTEX
8
Sketch
10
-49.326
20
-15.094
0
VERTEX
8
Sketch
10
-49.966
20
-15.014
0
VERTEX
8
Sketch
10
-50.446
20
-15.254
0
VERTEX
8
Sketch
10
-50.846
20
-15.734
0
SEQEND
0
POLYLINE
66
1
8
Sketch
62
0
0
VERTEX
8
Sketch
10
-44.766
20
-15.414
0
VERTEX
8
Sketch
10
-44.926
20
-15.334
0
VERTEX
8
Sketch
10
-45.246
20
-15.414
0
VERTEX
8
Sketch
10
-45.486
20
-15.414
0
VERTEX
8
Sketch
10
-45.646
20
-15.494
0
VERTEX
8
Sketch
10
-45.886
20
-15.414
0
VERTEX
8
Sketch
10
-46.046
20
-15.574
0
VERTEX
8
Sketch
10
-46.046
20
-15.414
0
VERTEX
8
Sketch
10
-47.486
20
-15.414
0
VERTEX
8
Sketch
10
-48.846
20
-15.494
0
VERTEX
8
Sketch
10
-49.406
20
-15.654
0
VERTEX
8
Sketch
10
-50.366
20
-14.934
0
VERTEX
8
Sketch
10
-50.606
20
-15.094
0
VERTEX
8
Sketch
10
-50.846
20
-14.934
0
VERTEX
8
Sketch
10
-51.246
20
-14.934
0
SEQEND
0
POLYLINE
66
1
8
Sketch
62
0
0
VERTEX
8
Sketch
10
-44.366
20
-15.734
0
VERTEX
8
Sketch
10
-44.526
20
-15.574
0
VERTEX
8
Sketch
10
-45.086
20
-15.574
0
VERTEX
8
Sketch
10
-45.486
20
-15.494
0
VERTEX
8
Sketch
10
-46.206
20
-15.574
0
VERTEX
8
Sketch
10
-46.446
20
-15.574
0
VERTEX
8
Sketch
10
-47.486
20
-15.334
0
SEQEND
0
POLYLINE
66
1
8
Sketch
62
0
0
VERTEX
8
Sketch
10
-52.606
20
-8.614
0
VERTEX
8
Sketch
10
-52.366
20
-8.614
0
VERTEX
8
Sketch
10
-51.646
20
-8.374
0
VERTEX
8
Sketch
10
-51.086
20
-8.214
0
VERTEX
8
Sketch
10
-50.766
20
-8.214
0
VERTEX
8
Sketch
10
-50.286
20
-8.134
0
VERTEX
8
Sketch
10
-49.406
20
-7.974
0
VERTEX
8
Sketch
10
-48.846
20
-8.054
0
VERTEX
8
Sketch
10
-48.206
20
-8.054
0
VERTEX
8
Sketch
10
-48.046
20
-7.974
0
SEQEND
0
POLYLINE
66
1
8
Sketch
62
0
0
VERTEX
8
Sketch
10
-51.246
20
-8.214
0
VERTEX
8
Sketch
10
-51.966
20
-8.374
0
SEQEND
0
POLYLINE
66
1
8
Sketch
62
0
0
VERTEX
8
Sketch
10
-47.806
20
-7.814
0
VERTEX
8
Sketch
10
-48.366
20
-8.054
0
VERTEX
8
Sketch
10
-48.686
20
-7.894
0
SEQEND
0
POLYLINE
66
1
8
Sketch
62
0
0
VERTEX
8
Sketch
10
-46.046
20
-6.534
0
VERTEX
8
Sketch
10
-47.006
20
-7.014
0
VERTEX
8
Sketch
10
-47.086
20
-7.174
0
VERTEX
8
Sketch
10
-47.246
20
-7.174
0
VERTEX
8
Sketch
10
-47.406
20
-7.574
0
VERTEX
8
Sketch
10
-47.726
20
-7.814
0
VERTEX
8
Sketch
10
-47.646
20
-7.574
0
SEQEND
0
POLYLINE
66
1
8
Sketch
62
0
0
VERTEX
8
Sketch
10
-40.846
20
-9.174
0
VERTEX
8
Sketch
10
-40.606
20
-9.414
0
VERTEX
8
Sketch
10
-39.406
20
-9.814
0
VERTEX
8
Sketch
10
-38.686
20
-10.134
0
VERTEX
8
Sketch
10
-38.446
20
-10.134
0
VERTEX
8
Sketch
10
-36.926
20
-10.694
0
VERTEX
8
Sketch
10
-36.206
20
-10.694
0
VERTEX
8
Sketch
10
-35.646
20
-10.534
0
VERTEX
8
Sketch
10
-35.326
20
-10.614
0
SEQEND
0
POLYLINE
66
1
8
Sketch
62
0
0
VERTEX
8
Sketch
10
-40.766
20
-12.934
0
VERTEX
8
Sketch
10
-40.606
20
-13.094
0
VERTEX
8
Sketch
10
-40.046
20
-13.094
0
VERTEX
8
Sketch
10
-39.406
20
-13.174
0
VERTEX
8
Sketch
10
-39.246
20
-13.414
0
VERTEX
8
Sketch
10
-38.926
20
-13.174
0
VERTEX
8
Sketch
10
-38.686
20
-13.334
0
VERTEX
8
Sketch
10
-38.526
20
-13.174
0
VERTEX
8
Sketch
10
-38.046
20
-13.174
0
VERTEX
8
Sketch
10
-37.886
20
-13.094
0
VERTEX
8
Sketch
10
-36.846
20
-13.334
0
VERTEX
8
Sketch
10
-35.726
20
-13.174
0
VERTEX
8
Sketch
10
-35.406
20
-13.014
0
SEQEND
0
POLYLINE
66
1
8
Sketch
62
0
0
VERTEX
8
Sketch
10
-45.486
20
-15.394
0
VERTEX
8
Sketch
10
-44.166
20
-14.914
0
VERTEX
8
Sketch
10
-44.046
20
-14.794
0
VERTEX
8
Sketch
10
-43.866
20
-14.794
0
VERTEX
8
Sketch
10
-43.326
20
-14.434
0
VERTEX
8
Sketch
10
-42.726
20
-14.194
0
VERTEX
8
Sketch
10
-41.766
20
-13.534
0
VERTEX
8
Sketch
10
-41.406
20
-13.234
0
VERTEX
8
Sketch
10
-40.866
20
-13.234
0
VERTEX
8
Sketch
10
-40.806
20
-13.354
0
SEQEND
0
POLYLINE
66
1
8
Sketch
62
0
0
VERTEX
8
Sketch
10
-45.186
20
-6.454
0
VERTEX
8
Sketch
10
-45.426
20
-6.634
0
VERTEX
8
Sketch
10
-45.426
20
-6.874
0
VERTEX
8
Sketch
10
-45.546
20
-7.474
0
VERTEX
8
Sketch
10
-45.606
20
-8.254
0
VERTEX
8
Sketch
10
-45.546
20
-8.974
0
VERTEX
8
Sketch
10
-45.486
20
-9.274
0
SEQEND
0
POLYLINE
66
1
8
Sketch
62
0
0
VERTEX
8
Sketch
10
-44.346
20
-9.394
0
VERTEX
8
Sketch
10
-44.766
20
-9.394
0
VERTEX
8
Sketch
10
-45.066
20
-9.214
0
VERTEX
8
Sketch
10
-45.186
20
-9.334
0
SEQEND
0
POLYLINE
66
1
8
Sketch
62
0
0
VERTEX
8
Sketch
10
-40.986
20
-9.454
0
VERTEX
8
Sketch
10
-41.706
20
-9.454
0
VERTEX
8
Sketch
10
-42.126
20
-9.514
0
VERTEX
8
Sketch
10
-42.726
20
-9.514
0
VERTEX
8
Sketch
10
-43.146
20
-9.574
0
VERTEX
8
Sketch
10
-43.686
20
-9.574
0
VERTEX
8
Sketch
10
-43.986
20
-9.634
0
VERTEX
8
Sketch
10
-44.226
20
-9.634
0
SEQEND
0
POLYLINE
66
1
8
Sketch
62
5
0
VERTEX
8
Sketch
10
-48.006
20
-9.094
0
VERTEX
8
Sketch
10
-47.826
20
-9.694
0
VERTEX
8
Sketch
10
-47.706
20
-9.814
0
VERTEX
8
Sketch
10
-47.286
20
-9.634
0
VERTEX
8
Sketch
10
-47.166
20
-9.514
0
SEQEND
0
POLYLINE
66
1
8
Sketch
62
5
0
VERTEX
8
Sketch
10
-47.826
20
-8.194
0
VERTEX
8
Sketch
10
-48.066
20
-8.434
0
VERTEX
8
Sketch
10
-47.946
20
-8.614
0
VERTEX
8
Sketch
10
-47.466
20
-8.674
0
VERTEX
8
Sketch
10
-47.346
20
-8.794
0
VERTEX
8
Sketch
10
-47.346
20
-8.914
0
VERTEX
8
Sketch
10
-47.646
20
-9.214
0
VERTEX
8
Sketch
10
-47.526
20
-9.214
0
VERTEX
8
Sketch
10
-47.466
20
-9.394
0
VERTEX
8
Sketch
10
-47.586
20
-9.514
0
VERTEX
8
Sketch
10
-47.466
20
-9.514
0
SEQEND
0
POLYLINE
66
1
8
Sketch
62
0
0
VERTEX
8
Sketch
10
-31.866
20
-10.114
0
VERTEX
8
Sketch
10
-31.926
20
-10.234
0
VERTEX
8
Sketch
10
-32.226
20
-10.294
0
VERTEX
8
Sketch
10
-32.586
20
-10.234
0
VERTEX
8
Sketch
10
-32.826
20
-10.294
0
VERTEX
8
Sketch
10
-33.006
20
-10.294
0
VERTEX
8
Sketch
10
-33.306
20
-10.534
0
VERTEX
8
Sketch
10
-33.366
20
-10.354
0
VERTEX
8
Sketch
10
-33.786
20
-10.474
0
VERTEX
8
Sketch
10
-34.386
20
-10.594
0
VERTEX
8
Sketch
10
-34.686
20
-10.714
0
VERTEX
8
Sketch
10
-34.866
20
-10.714
0
VERTEX
8
Sketch
10
-35.106
20
-10.774
0
VERTEX
8
Sketch
10
-34.986
20
-10.594
0
SEQEND
0
POLYLINE
66
1
8
Sketch
62
0
0
VERTEX
8
Sketch
10
-28.206
20
-12.094
0
VERTEX
8
Sketch
10
-28.506
20
-12.154
0
VERTEX
8
Sketch
10
-28.806
20
-12.154
0
VERTEX
8
Sketch
10
-29.106
20
-12.214
0
VERTEX
8
Sketch
10
-30.006
20
-12.274
0
VERTEX
8
Sketch
10
-30.366
20
-12.274
0
VERTEX
8
Sketch
10
-30.486
20
-12.334
0
VERTEX
8
Sketch
10
-30.786
20
-12.274
0
VERTEX
8
Sketch
10
-30.906
20
-12.334
0
VERTEX
8
Sketch
10
-31.026
20
-12.274
0
VERTEX
8
Sketch
10
-31.386
20
-12.334
0
VERTEX
8
Sketch
10
-31.746
20
-12.274
0
VERTEX
8
Sketch
10
-32.046
20
-12.394
0
VERTEX
8
Sketch
10
-32.166
20
-12.334
0
VERTEX
8
Sketch
10
-32.946
20
-12.514
0
VERTEX
8
Sketch
10
-33.546
20
-12.634
0
VERTEX
8
Sketch
10
-33.666
20
-12.574
0
VERTEX
8
Sketch
10
-33.546
20
-12.514
0
SEQEND
0
POINT
8
Sketch
62
0
10
-28.386
20
-11.974
0
POLYLINE
66
1
8
Sketch
62
0
0
VERTEX
8
Sketch
10
-31.626
20
-10.174
0
VERTEX
8
Sketch
10
-31.386
20
-8.854
0
VERTEX
8
Sketch
10
-31.386
20
-8.434
0
VERTEX
8
Sketch
10
-31.206
20
-7.714
0
SEQEND
0
POLYLINE
66
1
8
Sketch
62
0
0
VERTEX
8
Sketch
10
-28.266
20
-7.354
0
VERTEX
8
Sketch
10
-28.386
20
-7.414
0
VERTEX
8
Sketch
10
-28.806
20
-7.294
0
VERTEX
8
Sketch
10
-29.046
20
-7.354
0
VERTEX
8
Sketch
10
-29.286
20
-7.294
0
VERTEX
8
Sketch
10
-29.586
20
-7.234
0
VERTEX
8
Sketch
10
-29.826
20
-7.294
0
VERTEX
8
Sketch
10
-30.246
20
-7.294
0
VERTEX
8
Sketch
10
-30.486
20
-7.354
0
VERTEX
8
Sketch
10
-30.726
20
-7.414
0
VERTEX
8
Sketch
10
-31.206
20
-7.774
0
VERTEX
8
Sketch
10
-31.266
20
-7.894
0
VERTEX
8
Sketch
10
-31.146
20
-8.014
0
SEQEND
0
POLYLINE
66
1
8
Sketch
62
0
0
VERTEX
8
Sketch
10
-28.386
20
-7.594
0
VERTEX
8
Sketch
10
-28.386
20
-7.954
0
VERTEX
8
Sketch
10
-28.446
20
-8.314
0
VERTEX
8
Sketch
10
-28.386
20
-8.554
0
VERTEX
8
Sketch
10
-28.386
20
-8.854
0
VERTEX
8
Sketch
10
-28.266
20
-9.214
0
VERTEX
8
Sketch
10
-28.266
20
-9.514
0
VERTEX
8
Sketch
10
-28.206
20
-9.754
0
VERTEX
8
Sketch
10
-28.206
20
-9.754
0
VERTEX
8
Sketch
10
-27.906
20
-10.714
0
VERTEX
8
Sketch
10
-27.606
20
-10.894
0
VERTEX
8
Sketch
10
-27.246
20
-10.834
0
VERTEX
8
Sketch
10
-26.886
20
-10.474
0
VERTEX
8
Sketch
10
-26.706
20
-10.414
0
SEQEND
0
POINT
8
Sketch
62
0
10
-25.746
20
-6.334
0
POINT
8
Sketch
62
0
10
-26.346
20
-6.574
0
POINT
8
Sketch
62
0
10
-26.946
20
-6.334
0
POINT
8
Sketch
62
0
10
-27.366
20
-6.214
0
POLYLINE
66
1
8
Sketch
62
0
0
VERTEX
8
Sketch
10
-28.146
20
-6.394
0
VERTEX
8
Sketch
10
-28.026
20
-6.394
0
SEQEND
0
POINT
8
Sketch
62
0
10
-28.746
20
-6.334
0
POLYLINE
66
1
8
Sketch
62
0
0
VERTEX
8
Sketch
10
-29.106
20
-6.274
0
VERTEX
8
Sketch
10
-28.986
20
-6.394
0
SEQEND
0
POINT
8
Sketch
62
0
10
-29.526
20
-6.274
0
POINT
8
Sketch
62
0
10
-30.126
20
-6.334
0
POLYLINE
66
1
8
Sketch
62
0
0
VERTEX
8
Sketch
10
-25.086
20
-10.234
0
VERTEX
8
Sketch
10
-25.086
20
-10.354
0
VERTEX
8
Sketch
10
-25.506
20
-10.354
0
VERTEX
8
Sketch
10
-25.746
20
-10.474
0
VERTEX
8
Sketch
10
-26.046
20
-10.474
0
VERTEX
8
Sketch
10
-26.586
20
-10.594
0
VERTEX
8
Sketch
10
-26.766
20
-10.594
0
VERTEX
8
Sketch
10
-27.006
20
-10.714
0
VERTEX
8
Sketch
10
-27.186
20
-10.714
0
VERTEX
8
Sketch
10
-27.186
20
-10.594
0
VERTEX
8
Sketch
10
-27.246
20
-10.714
0
SEQEND
0
POLYLINE
66
1
8
Sketch
62
0
0
VERTEX
8
Sketch
10
-24.546
20
-11.854
0
VERTEX
8
Sketch
10
-25.086
20
-12.094
0
VERTEX
8
Sketch
10
-25.206
20
-12.094
0
VERTEX
8
Sketch
10
-25.326
20
-12.214
0
VERTEX
8
Sketch
10
-25.386
20
-12.094
0
VERTEX
8
Sketch
10
-25.566
20
-12.034
0
VERTEX
8
Sketch
10
-25.806
20
-12.094
0
VERTEX
8
Sketch
10
-25.926
20
-12.034
0
VERTEX
8
Sketch
10
-26.046
20
-12.094
0
VERTEX
8
Sketch
10
-26.466
20
-12.034
0
VERTEX
8
Sketch
10
-26.706
20
-11.974
0
VERTEX
8
Sketch
10
-26.826
20
-12.034
0
VERTEX
8
Sketch
10
-27.126
20
-11.974
0
VERTEX
8
Sketch
10
-27.606
20
-11.914
0
VERTEX
8
Sketch
10
-28.026
20
-11.914
0
SEQEND
0
POINT
8
Sketch
62
0
10
-25.326
20
-6.634
0
POINT
8
Sketch
62
0
10
-24.966
20
-6.514
0
POLYLINE
66
1
8
Sketch
62
0
0
VERTEX
8
Sketch
10
-23.526
20
-6.154
0
VERTEX
8
Sketch
10
-23.766
20
-6.214
0
SEQEND
0
POLYLINE
66
1
8
Sketch
62
0
0
VERTEX
8
Sketch
10
-22.446
20
-5.734
0
VERTEX
8
Sketch
10
-22.686
20
-5.854
0
VERTEX
8
Sketch
10
-22.926
20
-6.154
0
SEQEND
0
POLYLINE
66
1
8
Sketch
62
0
0
VERTEX
8
Sketch
10
-22.026
20
-5.554
0
VERTEX
8
Sketch
10
-22.146
20
-5.674
0
SEQEND
0
POLYLINE
66
1
8
Sketch
62
0
0
VERTEX
8
Sketch
10
-25.026
20
-9.874
0
VERTEX
8
Sketch
10
-25.026
20
-9.574
0
VERTEX
8
Sketch
10
-24.966
20
-9.454
0
VERTEX
8
Sketch
10
-25.146
20
-8.794
0
VERTEX
8
Sketch
10
-25.206
20
-8.674
0
VERTEX
8
Sketch
10
-25.206
20
-8.974
0
VERTEX
8
Sketch
10
-25.266
20
-9.094
0
VERTEX
8
Sketch
10
-24.966
20
-8.854
0
VERTEX
8
Sketch
10
-24.966
20
-8.554
0
VERTEX
8
Sketch
10
-25.026
20
-8.374
0
VERTEX
8
Sketch
10
-25.146
20
-8.374
0
VERTEX
8
Sketch
10
-25.326
20
-8.614
0
VERTEX
8
Sketch
10
-25.386
20
-8.914
0
VERTEX
8
Sketch
10
-25.326
20
-9.094
0
VERTEX
8
Sketch
10
-25.146
20
-9.034
0
SEQEND
0
POLYLINE
66
1
8
Sketch
62
0
0
VERTEX
8
Sketch
10
-25.266
20
-8.254
0
VERTEX
8
Sketch
10
-25.326
20
-8.374
0
VERTEX
8
Sketch
10
-25.266
20
-8.494
0
VERTEX
8
Sketch
10
-25.146
20
-8.494
0
VERTEX
8
Sketch
10
-25.206
20
-8.734
0
VERTEX
8
Sketch
10
-25.206
20
-9.034
0
VERTEX
8
Sketch
10
-25.146
20
-9.514
0
VERTEX
8
Sketch
10
-25.026
20
-9.634
0
VERTEX
8
Sketch
10
-24.966
20
-9.874
0
SEQEND
0
POLYLINE
66
1
8
Sketch
62
0
0
VERTEX
8
Sketch
10
-25.086
20
-8.194
0
VERTEX
8
Sketch
10
-24.726
20
-8.134
0
VERTEX
8
Sketch
10
-24.006
20
-7.954
0
VERTEX
8
Sketch
10
-23.766
20
-8.014
0
VERTEX
8
Sketch
10
-23.226
20
-8.014
0
VERTEX
8
Sketch
10
-22.926
20
-7.954
0
VERTEX
8
Sketch
10
-22.566
20
-7.954
0
VERTEX
8
Sketch
10
-22.146
20
-8.014
0
SEQEND
0
POLYLINE
66
1
8
Sketch
62
0
0
VERTEX
8
Sketch
10
-24.966
20
-8.194
0
VERTEX
8
Sketch
10
-24.966
20
-10.054
0
SEQEND
0
POLYLINE
66
1
8
Sketch
62
0
0
VERTEX
8
Sketch
10
-21.906
20
-11.914
0
VERTEX
8
Sketch
10
-22.026
20
-12.034
0
VERTEX
8
Sketch
10
-22.206
20
-12.034
0
VERTEX
8
Sketch
10
-22.446
20
-11.974
0
VERTEX
8
Sketch
10
-23.946
20
-11.974
0
VERTEX
8
Sketch
10
-24.186
20
-12.034
0
VERTEX
8
Sketch
10
-24.546
20
-12.034
0
SEQEND
0
POLYLINE
66
1
8
Sketch
62
0
0
VERTEX
8
Sketch
10
-18.386
20
-11.374
0
VERTEX
8
Sketch
10
-18.506
20
-11.374
0
VERTEX
8
Sketch
10
-18.666
20
-11.494
0
VERTEX
8
Sketch
10
-18.586
20
-11.534
0
VERTEX
8
Sketch
10
-18.386
20
-11.414
0
VERTEX
8
Sketch
10
-18.386
20
-11.334
0
SEQEND
0
POLYLINE
66
1
8
Sketch
62
0
0
VERTEX
8
Sketch
10
-19.786
20
-11.734
0
VERTEX
8
Sketch
10
-19.506
20
-11.734
0
VERTEX
8
Sketch
10
-19.306
20
-11.574
0
VERTEX
8
Sketch
10
-19.186
20
-11.574
0
VERTEX
8
Sketch
10
-19.346
20
-11.614
0
VERTEX
8
Sketch
10
-19.506
20
-11.734
0
VERTEX
8
Sketch
10
-19.346
20
-11.734
0
VERTEX
8
Sketch
10
-19.106
20
-11.654
0
SEQEND
0
POLYLINE
66
1
8
Sketch
62
0
0
VERTEX
8
Sketch
10
-20.866
20
-12.014
0
VERTEX
8
Sketch
10
-21.106
20
-12.094
0
VERTEX
8
Sketch
10
-21.266
20
-12.254
0
VERTEX
8
Sketch
10
-21.106
20
-12.294
0
VERTEX
8
Sketch
10
-20.946
20
-12.254
0
VERTEX
8
Sketch
10
-20.746
20
-12.054
0
SEQEND
0
POLYLINE
66
1
8
Sketch
62
0
0
VERTEX
8
Sketch
10
-17.466
20
-10.814
0
VERTEX
8
Sketch
10
-17.546
20
-10.894
0
VERTEX
8
Sketch
10
-17.706
20
-10.934
0
VERTEX
8
Sketch
10
-18.706
20
-11.254
0
VERTEX
8
Sketch
10
-18.946
20
-11.294
0
VERTEX
8
Sketch
10
-19.306
20
-11.454
0
VERTEX
8
Sketch
10
-19.586
20
-11.494
0
VERTEX
8
Sketch
10
-19.706
20
-11.574
0
VERTEX
8
Sketch
10
-20.026
20
-11.654
0
VERTEX
8
Sketch
10
-20.266
20
-11.734
0
VERTEX
8
Sketch
10
-20.506
20
-11.774
0
VERTEX
8
Sketch
10
-20.866
20
-11.894
0
VERTEX
8
Sketch
10
-20.986
20
-11.894
0
VERTEX
8
Sketch
10
-21.506
20
-12.014
0
VERTEX
8
Sketch
10
-21.706
20
-12.014
0
VERTEX
8
Sketch
10
-21.786
20
-11.974
0
VERTEX
8
Sketch
10
-21.866
20
-12.054
0
VERTEX
8
Sketch
10
-22.106
20
-12.094
0
SEQEND
0
POINT
8
Sketch
62
0
10
-17.746
20
-10.894
0
POLYLINE
66
1
8
Sketch
62
0
0
VERTEX
8
Sketch
10
-19.626
20
-7.694
0
VERTEX
8
Sketch
10
-19.906
20
-7.774
0
VERTEX
8
Sketch
10
-20.346
20
-7.854
0
VERTEX
8
Sketch
10
-20.906
20
-7.854
0
VERTEX
8
Sketch
10
-21.026
20
-7.894
0
VERTEX
8
Sketch
10
-21.146
20
-7.854
0
VERTEX
8
Sketch
10
-21.226
20
-7.974
0
VERTEX
8
Sketch
10
-21.346
20
-7.894
0
VERTEX
8
Sketch
10
-21.946
20
-7.894
0
VERTEX
8
Sketch
10
-22.106
20
-7.934
0
SEQEND
0
POLYLINE
66
1
8
Sketch
62
0
0
VERTEX
8
Sketch
10
-21.786
20
-5.374
0
VERTEX
8
Sketch
10
-21.666
20
-5.294
0
VERTEX
8
Sketch
10
-21.346
20
-5.294
0
VERTEX
8
Sketch
10
-21.226
20
-5.254
0
VERTEX
8
Sketch
10
-20.986
20
-5.294
0
VERTEX
8
Sketch
10
-20.866
20
-5.254
0
VERTEX
8
Sketch
10
-20.786
20
-5.294
0
VERTEX
8
Sketch
10
-20.706
20
-5.254
0
VERTEX
8
Sketch
10
-20.466
20
-5.294
0
VERTEX
8
Sketch
10
-20.226
20
-5.334
0
VERTEX
8
Sketch
10
-19.866
20
-5.454
0
VERTEX
8
Sketch
10
-19.626
20
-5.494
0
VERTEX
8
Sketch
10
-18.906
20
-5.774
0
VERTEX
8
Sketch
10
-18.746
20
-5.774
0
VERTEX
8
Sketch
10
-18.546
20
-5.854
0
VERTEX
8
Sketch
10
-18.226
20
-5.854
0
VERTEX
8
Sketch
10
-18.026
20
-5.894
0
VERTEX
8
Sketch
10
-17.906
20
-5.894
0
VERTEX
8
Sketch
10
-17.826
20
-5.934
0
VERTEX
8
Sketch
10
-17.746
20
-5.894
0
VERTEX
8
Sketch
10
-17.666
20
-5.974
0
VERTEX
8
Sketch
10
-17.466
20
-5.974
0
VERTEX
8
Sketch
10
-16.706
20
-6.334
0
SEQEND
0
POLYLINE
66
1
8
Sketch
62
0
0
VERTEX
8
Sketch
10
-16.946
20
-10.694
0
VERTEX
8
Sketch
10
-17.546
20
-10.934
0
VERTEX
8
Sketch
10
-17.626
20
-10.934
0
VERTEX
8
Sketch
10
-17.586
20
-11.054
0
VERTEX
8
Sketch
10
-17.466
20
-11.134
0
VERTEX
8
Sketch
10
-17.306
20
-11.094
0
VERTEX
8
Sketch
10
-17.226
20
-11.134
0
VERTEX
8
Sketch
10
-17.026
20
-11.054
0
VERTEX
8
Sketch
10
-16.906
20
-10.814
0
VERTEX
8
Sketch
10
-16.906
20
-10.654
0
VERTEX
8
Sketch
10
-16.866
20
-10.574
0
SEQEND
0
POLYLINE
66
1
8
Sketch
62
0
0
VERTEX
8
Sketch
10
-14.266
20
-9.414
0
VERTEX
8
Sketch
10
-14.426
20
-9.414
0
VERTEX
8
Sketch
10
-15.106
20
-9.614
0
VERTEX
8
Sketch
10
-15.226
20
-9.694
0
VERTEX
8
Sketch
10
-15.346
20
-9.694
0
VERTEX
8
Sketch
10
-15.226
20
-9.894
0
VERTEX
8
Sketch
10
-15.106
20
-9.774
0
VERTEX
8
Sketch
10
-15.026
20
-9.814
0
VERTEX
8
Sketch
10
-14.786
20
-9.694
0
VERTEX
8
Sketch
10
-14.666
20
-9.694
0
VERTEX
8
Sketch
10
-14.546
20
-9.614
0
VERTEX
8
Sketch
10
-14.466
20
-9.614
0
SEQEND
0
POLYLINE
66
1
8
Sketch
62
0
0
VERTEX
8
Sketch
10
-13.506
20
-9.414
0
VERTEX
8
Sketch
10
-13.426
20
-9.374
0
VERTEX
8
Sketch
10
-13.306
20
-9.094
0
VERTEX
8
Sketch
10
-13.546
20
-9.334
0
VERTEX
8
Sketch
10
-13.666
20
-9.374
0
VERTEX
8
Sketch
10
-13.706
20
-9.454
0
VERTEX
8
Sketch
10
-13.626
20
-9.494
0
VERTEX
8
Sketch
10
-13.546
20
-9.414
0
SEQEND
0
POLYLINE
66
1
8
Sketch
62
0
0
VERTEX
8
Sketch
10
-13.626
20
-9.734
0
VERTEX
8
Sketch
10
-13.626
20
-9.534
0
VERTEX
8
Sketch
10
-13.706
20
-9.454
0
VERTEX
8
Sketch
10
-14.026
20
-9.814
0
VERTEX
8
Sketch
10
-14.066
20
-9.934
0
VERTEX
8
Sketch
10
-13.986
20
-10.014
0
VERTEX
8
Sketch
10
-13.746
20
-10.014
0
VERTEX
8
Sketch
10
-13.706
20
-9.814
0
VERTEX
8
Sketch
10
-13.666
20
-9.614
0
VERTEX
8
Sketch
10
-13.666
20
-9.534
0
SEQEND
0
POLYLINE
66
1
8
Sketch
62
0
0
VERTEX
8
Sketch
10
-14.546
20
-10.014
0
VERTEX
8
Sketch
10
-14.626
20
-9.974
0
VERTEX
8
Sketch
10
-14.746
20
-10.174
0
VERTEX
8
Sketch
10
-14.466
20
-10.094
0
VERTEX
8
Sketch
10
-14.306
20
-9.934
0
VERTEX
8
Sketch
10
-14.306
20
-9.854
0
VERTEX
8
Sketch
10
-14.466
20
-9.814
0
VERTEX
8
Sketch
10
-14.586
20
-9.894
0
SEQEND
0
POLYLINE
66
1
8
Sketch
62
0
0
VERTEX
8
Sketch
10
-15.066
20
-9.894
0
VERTEX
8
Sketch
10
-15.346
20
-9.974
0
VERTEX
8
Sketch
10
-15.626
20
-10.214
0
VERTEX
8
Sketch
10
-15.666
20
-10.414
0
VERTEX
8
Sketch
10
-15.466
20
-10.454
0
VERTEX
8
Sketch
10
-15.306
20
-10.374
0
VERTEX
8
Sketch
10
-15.266
20
-10.174
0
VERTEX
8
Sketch
10
-15.346
20
-10.174
0
SEQEND
0
POLYLINE
66
1
8
Sketch
62
0
0
VERTEX
8
Sketch
10
-15.706
20
-10.134
0
VERTEX
8
Sketch
10
-15.986
20
-10.254
0
VERTEX
8
Sketch
10
-16.106
20
-10.254
0
VERTEX
8
Sketch
10
-16.586
20
-10.534
0
VERTEX
8
Sketch
10
-16.666
20
-10.614
0
VERTEX
8
Sketch
10
-16.546
20
-10.694
0
VERTEX
8
Sketch
10
-16.346
20
-10.694
0
VERTEX
8
Sketch
10
-16.066
20
-10.494
0
VERTEX
8
Sketch
10
-15.986
20
-10.294
0
VERTEX
8
Sketch
10
-15.746
20
-10.174
0
VERTEX
8
Sketch
10
-15.706
20
-10.094
0
SEQEND
0
POLYLINE
66
1
8
Sketch
62
0
0
VERTEX
8
Sketch
10
-15.146
20
-9.814
0
VERTEX
8
Sketch
10
-15.626
20
-10.014
0
VERTEX
8
Sketch
10
-15.746
20
-10.014
0
VERTEX
8
Sketch
10
-15.906
20
-10.134
0
VERTEX
8
Sketch
10
-16.026
20
-10.134
0
VERTEX
8
Sketch
10
-16.386
20
-10.334
0
VERTEX
8
Sketch
10
-16.826
20
-10.534
0
VERTEX
8
Sketch
10
-16.866
20
-10.614
0
VERTEX
8
Sketch
10
-16.986
20
-10.614
0
VERTEX
8
Sketch
10
-17.426
20
-10.814
0
SEQEND
0
POLYLINE
66
1
8
Sketch
62
0
0
VERTEX
8
Sketch
10
-14.106
20
-9.774
0
VERTEX
8
Sketch
10
-14.346
20
-9.774
0
VERTEX
8
Sketch
10
-14.706
20
-9.854
0
VERTEX
8
Sketch
10
-14.826
20
-9.854
0
SEQEND
0
POLYLINE
66
1
8
Sketch
62
0
0
VERTEX
8
Sketch
10
-19.906
20
-7.894
0
VERTEX
8
Sketch
10
-19.786
20
-7.934
0
VERTEX
8
Sketch
10
-19.426
20
-7.854
0
VERTEX
8
Sketch
10
-18.786
20
-7.774
0
VERTEX
8
Sketch
10
-18.586
20
-7.774
0
VERTEX
8
Sketch
10
-18.386
20
-7.734
0
VERTEX
8
Sketch
10
-18.146
20
-7.734
0
VERTEX
8
Sketch
10
-18.026
20
-7.694
0
VERTEX
8
Sketch
10
-17.866
20
-7.734
0
VERTEX
8
Sketch
10
-17.746
20
-7.734
0
VERTEX
8
Sketch
10
-17.546
20
-7.694
0
VERTEX
8
Sketch
10
-17.386
20
-7.734
0
VERTEX
8
Sketch
10
-17.266
20
-7.694
0
VERTEX
8
Sketch
10
-17.026
20
-7.734
0
VERTEX
8
Sketch
10
-16.826
20
-7.734
0
VERTEX
8
Sketch
10
-16.746
20
-7.774
0
VERTEX
8
Sketch
10
-16.466
20
-7.734
0
VERTEX
8
Sketch
10
-16.226
20
-7.774
0
VERTEX
8
Sketch
10
-15.986
20
-7.774
0
VERTEX
8
Sketch
10
-15.706
20
-7.814
0
VERTEX
8
Sketch
10
-15.506
20
-7.814
0
VERTEX
8
Sketch
10
-15.346
20
-7.854
0
VERTEX
8
Sketch
10
-15.026
20
-7.854
0
VERTEX
8
Sketch
10
-14.946
20
-7.814
0
VERTEX
8
Sketch
10
-14.746
20
-7.854
0
VERTEX
8
Sketch
10
-14.146
20
-7.854
0
VERTEX
8
Sketch
10
-13.946
20
-7.814
0
VERTEX
8
Sketch
10
-13.666
20
-7.814
0
SEQEND
0
POLYLINE
66
1
8
Sketch
62
0
0
VERTEX
8
Sketch
10
-19.306
20
-6.294
0
VERTEX
8
Sketch
10
-19.386
20
-6.294
0
VERTEX
8
Sketch
10
-19.466
20
-6.374
0
SEQEND
0
POLYLINE
66
1
8
Sketch
62
0
0
VERTEX
8
Sketch
10
-18.186
20
-6.174
0
VERTEX
8
Sketch
10
-18.306
20
-6.174
0
VERTEX
8
Sketch
10
-18.386
20
-6.214
0
SEQEND
0
POLYLINE
66
1
8
Sketch
62
0
0
VERTEX
8
Sketch
10
-17.386
20
-6.254
0
VERTEX
8
Sketch
10
-17.586
20
-6.254
0
VERTEX
8
Sketch
10
-17.666
20
-6.214
0
SEQEND
0
POLYLINE
66
1
8
Sketch
62
0
0
VERTEX
8
Sketch
10
-15.826
20
-6.214
0
VERTEX
8
Sketch
10
-15.946
20
-6.134
0
VERTEX
8
Sketch
10
-16.106
20
-6.174
0
VERTEX
8
Sketch
10
-16.226
20
-6.174
0
VERTEX
8
Sketch
10
-16.386
20
-6.134
0
VERTEX
8
Sketch
10
-16.586
20
-6.134
0
VERTEX
8
Sketch
10
-16.666
20
-6.174
0
SEQEND
0
POLYLINE
66
1
8
Sketch
62
0
0
VERTEX
8
Sketch
10
-15.666
20
-6.334
0
VERTEX
8
Sketch
10
-15.786
20
-6.414
0
SEQEND
0
POLYLINE
66
1
8
Sketch
62
0
0
VERTEX
8
Sketch
10
-14.506
20
-6.134
0
VERTEX
8
Sketch
10
-14.706
20
-6.174
0
VERTEX
8
Sketch
10
-14.826
20
-6.374
0
SEQEND
0
POLYLINE
66
1
8
Sketch
62
0
0
VERTEX
8
Sketch
10
-13.026
20
-5.894
0
VERTEX
8
Sketch
10
-13.066
20
-5.974
0
VERTEX
8
Sketch
10
-13.066
20
-5.854
0
VERTEX
8
Sketch
10
-13.226
20
-5.894
0
VERTEX
8
Sketch
10
-13.506
20
-5.894
0
VERTEX
8
Sketch
10
-13.786
20
-5.934
0
SEQEND
0
POLYLINE
66
1
8
Sketch
62
0
0
VERTEX
8
Sketch
10
-12.826
20
-7.254
0
VERTEX
8
Sketch
10
-12.826
20
-7.294
0
VERTEX
8
Sketch
10
-12.706
20
-7.254
0
SEQEND
0
POLYLINE
66
1
8
Sketch
62
0
0
VERTEX
8
Sketch
10
-12.986
20
-6.854
0
VERTEX
8
Sketch
10
-12.826
20
-6.854
0
SEQEND
0
POINT
8
Sketch
62
0
10
-12.706
20
-6.534
0
POLYLINE
66
1
8
Sketch
62
0
0
VERTEX
8
Sketch
10
-12.266
20
-6.054
0
VERTEX
8
Sketch
10
-12.386
20
-6.214
0
SEQEND
0
POLYLINE
66
1
8
Sketch
62
0
0
VERTEX
8
Sketch
10
-10.226
20
-7.174
0
VERTEX
8
Sketch
10
-10.186
20
-7.254
0
SEQEND
0
POLYLINE
66
1
8
Sketch
62
0
0
VERTEX
8
Sketch
10
-10.706
20
-6.614
0
VERTEX
8
Sketch
10
-10.666
20
-6.734
0
VERTEX
8
Sketch
10
-10.466
20
-6.774
0
SEQEND
0
POLYLINE
66
1
8
Sketch
62
0
0
VERTEX
8
Sketch
10
-11.266
20
-6.174
0
VERTEX
8
Sketch
10
-11.066
20
-6.334
0
VERTEX
8
Sketch
10
-10.946
20
-6.334
0
SEQEND
0
POLYLINE
66
1
8
Sketch
62
0
0
VERTEX
8
Sketch
10
-10.666
20
-6.614
0
VERTEX
8
Sketch
10
-10.626
20
-6.694
0
VERTEX
8
Sketch
10
-10.506
20
-6.614
0
SEQEND
0
POLYLINE
66
1
8
Sketch
62
0
0
VERTEX
8
Sketch
10
-10.826
20
-6.494
0
VERTEX
8
Sketch
10
-10.786
20
-6.414
0
SEQEND
0
POINT
8
Sketch
62
0
10
-11.106
20
-6.214
0
POINT
8
Sketch
62
0
10
-11.426
20
-6.014
0
POLYLINE
66
1
8
Sketch
62
0
0
VERTEX
8
Sketch
10
-11.786
20
-5.814
0
VERTEX
8
Sketch
10
-11.506
20
-5.774
0
SEQEND
0
POLYLINE
66
1
8
Sketch
62
0
0
VERTEX
8
Sketch
10
-13.426
20
-7.774
0
VERTEX
8
Sketch
10
-13.186
20
-7.854
0
VERTEX
8
Sketch
10
-12.306
20
-7.854
0
VERTEX
8
Sketch
10
-12.106
20
-7.774
0
VERTEX
8
Sketch
10
-11.866
20
-7.774
0
VERTEX
8
Sketch
10
-11.666
20
-7.734
0
VERTEX
8
Sketch
10
-10.906
20
-7.694
0
VERTEX
8
Sketch
10
-10.666
20
-7.654
0
VERTEX
8
Sketch
10
-9.746
20
-7.654
0
SEQEND
0
POLYLINE
66
1
8
Sketch
62
0
0
VERTEX
8
Sketch
10
-6.306
20
-7.574
0
VERTEX
8
Sketch
10
-6.666
20
-7.614
0
VERTEX
8
Sketch
10
-6.746
20
-7.574
0
VERTEX
8
Sketch
10
-6.826
20
-7.694
0
VERTEX
8
Sketch
10
-6.866
20
-7.574
0
VERTEX
8
Sketch
10
-7.506
20
-7.574
0
VERTEX
8
Sketch
10
-7.586
20
-7.614
0
VERTEX
8
Sketch
10
-7.866
20
-7.574
0
VERTEX
8
Sketch
10
-7.986
20
-7.694
0
VERTEX
8
Sketch
10
-8.026
20
-7.574
0
VERTEX
8
Sketch
10
-8.346
20
-7.574
0
VERTEX
8
Sketch
10
-8.426
20
-7.614
0
VERTEX
8
Sketch
10
-8.626
20
-7.574
0
VERTEX
8
Sketch
10
-8.786
20
-7.574
0
VERTEX
8
Sketch
10
-8.986
20
-7.614
0
VERTEX
8
Sketch
10
-9.586
20
-7.694
0
VERTEX
8
Sketch
10
-9.746
20
-7.734
0
VERTEX
8
Sketch
10
-9.826
20
-7.814
0
VERTEX
8
Sketch
10
-9.826
20
-7.734
0
VERTEX
8
Sketch
10
-9.906
20
-7.734
0
SEQEND
0
POINT
8
Sketch
62
0
10
1.254
20
-6.574
0
POLYLINE
66
1
8
Sketch
62
0
0
VERTEX
8
Sketch
10
1.814
20
-6.534
0
VERTEX
8
Sketch
10
1.694
20
-6.574
0
SEQEND
0
POLYLINE
66
1
8
Sketch
62
0
0
VERTEX
8
Sketch
10
2.734
20
-6.614
0
VERTEX
8
Sketch
10
2.214
20
-6.654
0
SEQEND
0
POLYLINE
66
1
8
Sketch
62
0
0
VERTEX
8
Sketch
10
3.734
20
-6.774
0
VERTEX
8
Sketch
10
3.574
20
-6.734
0
VERTEX
8
Sketch
10
3.414
20
-6.774
0
SEQEND
0
POLYLINE
66
1
8
Sketch
62
0
0
VERTEX
8
Sketch
10
1.574
20
-6.454
0
VERTEX
8
Sketch
10
1.334
20
-6.894
0
SEQEND
0
POLYLINE
66
1
8
Sketch
62
0
0
VERTEX
8
Sketch
10
4.654
20
-6.974
0
VERTEX
8
Sketch
10
4.294
20
-6.974
0
VERTEX
8
Sketch
10
4.054
20
-6.934
0
SEQEND
0
POLYLINE
66
1
8
Sketch
62
0
0
VERTEX
8
Sketch
10
6.054
20
-6.814
0
VERTEX
8
Sketch
10
5.654
20
-6.894
0
VERTEX
8
Sketch
10
5.414
20
-6.894
0
SEQEND
0
POLYLINE
66
1
8
Sketch
62
0
0
VERTEX
8
Sketch
10
-12.426
20
-8.894
0
VERTEX
8
Sketch
10
-12.506
20
-9.134
0
VERTEX
8
Sketch
10
-12.666
20
-9.054
0
VERTEX
8
Sketch
10
-13.146
20
-9.454
0
SEQEND
0
POLYLINE
66
1
8
Sketch
62
0
0
VERTEX
8
Sketch
10
-13.066
20
-9.534
0
VERTEX
8
Sketch
10
-13.386
20
-9.694
0
SEQEND
0
POLYLINE
66
1
8
Sketch
62
0
0
VERTEX
8
Sketch
10
-9.226
20
-8.174
0
VERTEX
8
Sketch
10
-10.506
20
-8.494
0
VERTEX
8
Sketch
10
-10.746
20
-8.494
0
VERTEX
8
Sketch
10
-11.066
20
-8.574
0
VERTEX
8
Sketch
10
-11.386
20
-8.574
0
VERTEX
8
Sketch
10
-11.546
20
-8.734
0
VERTEX
8
Sketch
10
-11.866
20
-8.734
0
VERTEX
8
Sketch
10
-12.426
20
-8.974
0
VERTEX
8
Sketch
10
-12.426
20
-9.214
0
VERTEX
8
Sketch
10
-12.746
20
-9.374
0
SEQEND
0
POLYLINE
66
1
8
Sketch
62
0
0
VERTEX
8
Sketch
10
-3.066
20
-8.254
0
VERTEX
8
Sketch
10
-3.546
20
-8.334
0
VERTEX
8
Sketch
10
-3.866
20
-8.414
0
VERTEX
8
Sketch
10
-4.106
20
-8.334
0
VERTEX
8
Sketch
10
-4.266
20
-8.414
0
VERTEX
8
Sketch
10
-4.826
20
-8.334
0
VERTEX
8
Sketch
10
-5.386
20
-8.334
0
VERTEX
8
Sketch
10
-5.626
20
-8.254
0
VERTEX
8
Sketch
10
-6.026
20
-8.334
0
VERTEX
8
Sketch
10
-6.826
20
-8.334
0
VERTEX
8
Sketch
10
-6.986
20
-8.574
0
VERTEX
8
Sketch
10
-7.066
20
-8.254
0
VERTEX
8
Sketch
10
-7.786
20
-8.414
0
VERTEX
8
Sketch
10
-8.106
20
-8.414
0
VERTEX
8
Sketch
10
-8.666
20
-8.494
0
VERTEX
8
Sketch
10
-9.066
20
-8.494
0
VERTEX
8
Sketch
10
-9.386
20
-8.574
0
VERTEX
8
Sketch
10
-9.386
20
-8.334
0
SEQEND
0
POLYLINE
66
1
8
Sketch
62
0
0
VERTEX
8
Sketch
10
-3.306
20
-7.294
0
VERTEX
8
Sketch
10
-3.706
20
-7.374
0
VERTEX
8
Sketch
10
-5.066
20
-7.374
0
VERTEX
8
Sketch
10
-5.306
20
-7.454
0
VERTEX
8
Sketch
10
-5.546
20
-7.374
0
VERTEX
8
Sketch
10
-5.706
20
-7.454
0
VERTEX
8
Sketch
10
-5.866
20
-7.374
0
VERTEX
8
Sketch
10
-6.266
20
-7.454
0
VERTEX
8
Sketch
10
-7.066
20
-7.454
0
VERTEX
8
Sketch
10
-7.386
20
-7.534
0
VERTEX
8
Sketch
10
-7.786
20
-7.534
0
VERTEX
8
Sketch
10
-7.946
20
-7.454
0
SEQEND
0
POLYLINE
66
1
8
Sketch
62
0
0
VERTEX
8
Sketch
10
1.574
20
-7.214
0
VERTEX
8
Sketch
10
1.574
20
-7.454
0
VERTEX
8
Sketch
10
1.414
20
-7.294
0
VERTEX
8
Sketch
10
-0.346
20
-7.294
0
VERTEX
8
Sketch
10
-0.906
20
-7.214
0
VERTEX
8
Sketch
10
-0.986
20
-7.454
0
VERTEX
8
Sketch
10
-0.986
20
-7.214
0
VERTEX
8
Sketch
10
-1.306
20
-7.214
0
VERTEX
8
Sketch
10
-1.466
20
-7.294
0
VERTEX
8
Sketch
10
-2.026
20
-7.294
0
VERTEX
8
Sketch
10
-2.266
20
-7.534
0
VERTEX
8
Sketch
10
-2.266
20
-7.374
0
VERTEX
8
Sketch
10
-2.826
20
-7.374
0
VERTEX
8
Sketch
10
-2.986
20
-7.454
0
VERTEX
8
Sketch
10
-3.386
20
-7.374
0
SEQEND
0
POLYLINE
66
1
8
Sketch
62
0
0
VERTEX
8
Sketch
10
-1.226
20
-7.054
0
VERTEX
8
Sketch
10
-1.066
20
-7.134
0
VERTEX
8
Sketch
10
-0.826
20
-7.054
0
VERTEX
8
Sketch
10
-0.186
20
-7.214
0
VERTEX
8
Sketch
10
0.694
20
-7.294
0
VERTEX
8
Sketch
10
1.014
20
-7.294
0
VERTEX
8
Sketch
10
1.254
20
-7.374
0
VERTEX
8
Sketch
10
1.414
20
-7.294
0
SEQEND
0
POLYLINE
66
1
8
Sketch
62
0
0
VERTEX
8
Sketch
10
7.894
20
-8.254
0
VERTEX
8
Sketch
10
7.734
20
-8.414
0
VERTEX
8
Sketch
10
7.414
20
-8.334
0
VERTEX
8
Sketch
10
6.854
20
-8.414
0
VERTEX
8
Sketch
10
5.734
20
-8.494
0
VERTEX
8
Sketch
10
5.174
20
-8.574
0
VERTEX
8
Sketch
10
4.534
20
-8.574
0
VERTEX
8
Sketch
10
4.374
20
-8.654
0
VERTEX
8
Sketch
10
4.134
20
-8.574
0
VERTEX
8
Sketch
10
3.654
20
-8.654
0
VERTEX
8
Sketch
10
2.934
20
-8.654
0
VERTEX
8
Sketch
10
2.774
20
-8.574
0
VERTEX
8
Sketch
10
2.614
20
-8.654
0
VERTEX
8
Sketch
10
2.134
20
-8.574
0
VERTEX
8
Sketch
10
1.574
20
-8.574
0
VERTEX
8
Sketch
10
1.254
20
-8.494
0
VERTEX
8
Sketch
10
0.294
20
-8.494
0
VERTEX
8
Sketch
10
0.134
20
-8.574
0
VERTEX
8
Sketch
10
0.134
20
-8.414
0
VERTEX
8
Sketch
10
-0.826
20
-8.414
0
VERTEX
8
Sketch
10
-1.146
20
-8.334
0
VERTEX
8
Sketch
10
-1.306
20
-8.574
0
VERTEX
8
Sketch
10
-1.306
20
-8.334
0
VERTEX
8
Sketch
10
-1.946
20
-8.334
0
VERTEX
8
Sketch
10
-2.266
20
-8.254
0
VERTEX
8
Sketch
10
-3.066
20
-8.254
0
VERTEX
8
Sketch
10
-3.386
20
-8.094
0
SEQEND
0
POLYLINE
66
1
8
Sketch
62
0
0
VERTEX
8
Sketch
10
8.214
20
-2.334
0
VERTEX
8
Sketch
10
8.694
20
-2.654
0
VERTEX
8
Sketch
10
8.854
20
-2.654
0
VERTEX
8
Sketch
10
9.014
20
-2.814
0
VERTEX
8
Sketch
10
9.334
20
-2.894
0
VERTEX
8
Sketch
10
9.734
20
-3.454
0
VERTEX
8
Sketch
10
9.654
20
-3.614
0
SEQEND
0
POLYLINE
66
1
8
Sketch
62
0
0
VERTEX
8
Sketch
10
9.334
20
-2.414
0
VERTEX
8
Sketch
10
9.014
20
-2.414
0
VERTEX
8
Sketch
10
8.774
20
-2.814
0
VERTEX
8
Sketch
10
9.174
20
-2.894
0
VERTEX
8
Sketch
10
9.254
20
-2.574
0
VERTEX
8
Sketch
10
9.094
20
-2.414
0
SEQEND
0
POLYLINE
66
1
8
Sketch
62
0
0
VERTEX
8
Sketch
10
11.174
20
-2.574
0
VERTEX
8
Sketch
10
11.014
20
-2.574
0
VERTEX
8
Sketch
10
10.854
20
-2.814
0
VERTEX
8
Sketch
10
10.854
20
-2.654
0
SEQEND
0
POLYLINE
66
1
8
Sketch
62
0
0
VERTEX
8
Sketch
10
10.774
20
-3.294
0
VERTEX
8
Sketch
10
10.614
20
-3.214
0
VERTEX
8
Sketch
10
10.294
20
-3.374
0
VERTEX
8
Sketch
10
10.214
20
-3.774
0
VERTEX
8
Sketch
10
10.934
20
-3.294
0
VERTEX
8
Sketch
10
10.694
20
-3.054
0
VERTEX
8
Sketch
10
10.534
20
-2.974
0
SEQEND
0
POLYLINE
66
1
8
Sketch
62
0
0
VERTEX
8
Sketch
10
11.334
20
-2.334
0
VERTEX
8
Sketch
10
11.174
20
-2.334
0
VERTEX
8
Sketch
10
10.854
20
-2.654
0
VERTEX
8
Sketch
10
11.014
20
-2.814
0
VERTEX
8
Sketch
10
11.174
20
-2.814
0
VERTEX
8
Sketch
10
11.414
20
-2.654
0
VERTEX
8
Sketch
10
11.494
20
-2.334
0
VERTEX
8
Sketch
10
11.254
20
-2.094
0
VERTEX
8
Sketch
10
10.934
20
-2.094
0
VERTEX
8
Sketch
10
10.774
20
-2.174
0
SEQEND
0
POLYLINE
66
1
8
Sketch
62
0
0
VERTEX
8
Sketch
10
10.614
20
-2.894
0
VERTEX
8
Sketch
10
10.214
20
-2.814
0
VERTEX
8
Sketch
10
10.054
20
-2.894
0
VERTEX
8
Sketch
10
9.974
20
-3.134
0
VERTEX
8
Sketch
10
10.134
20
-3.214
0
VERTEX
8
Sketch
10
10.534
20
-2.734
0
SEQEND
0
POLYLINE
66
1
8
Sketch
62
0
0
VERTEX
8
Sketch
10
10.374
20
-2.174
0
VERTEX
8
Sketch
10
10.134
20
-2.494
0
VERTEX
8
Sketch
10
10.134
20
-2.654
0
VERTEX
8
Sketch
10
10.374
20
-2.734
0
VERTEX
8
Sketch
10
10.534
20
-2.254
0
VERTEX
8
Sketch
10
10.214
20
-2.094
0
VERTEX
8
Sketch
10
10.134
20
-2.254
0
SEQEND
0
POLYLINE
66
1
8
Sketch
62
0
0
VERTEX
8
Sketch
10
7.414
20
-6.174
0
VERTEX
8
Sketch
10
6.774
20
-6.894
0
VERTEX
8
Sketch
10
6.774
20
-6.734
0
SEQEND
0
POLYLINE
66
1
8
Sketch
62
0
0
VERTEX
8
Sketch
10
9.814
20
-3.694
0
VERTEX
8
Sketch
10
9.414
20
-4.254
0
VERTEX
8
Sketch
10
9.414
20
-4.094
0
VERTEX
8
Sketch
10
9.094
20
-4.414
0
VERTEX
8
Sketch
10
9.014
20
-4.654
0
VERTEX
8
Sketch
10
7.174
20
-6.494
0
SEQEND
0
POLYLINE
66
1
8
Sketch
62
0
0
VERTEX
8
Sketch
10
12.934
20
-7.054
0
VERTEX
8
Sketch
10
12.934
20
-6.894
0
VERTEX
8
Sketch
10
12.614
20
-6.974
0
VERTEX
8
Sketch
10
12.214
20
-6.974
0
VERTEX
8
Sketch
10
12.054
20
-7.054
0
VERTEX
8
Sketch
10
11.894
20
-6.974
0
VERTEX
8
Sketch
10
11.094
20
-7.134
0
VERTEX
8
Sketch
10
10.774
20
-7.054
0
VERTEX
8
Sketch
10
10.374
20
-7.134
0
VERTEX
8
Sketch
10
10.294
20
-7.294
0
VERTEX
8
Sketch
10
10.294
20
-6.974
0
VERTEX
8
Sketch
10
10.054
20
-7.134
0
VERTEX
8
Sketch
10
9.574
20
-7.134
0
VERTEX
8
Sketch
10
9.414
20
-7.054
0
VERTEX
8
Sketch
10
9.254
20
-7.134
0
VERTEX
8
Sketch
10
9.094
20
-7.054
0
VERTEX
8
Sketch
10
8.774
20
-7.134
0
VERTEX
8
Sketch
10
7.894
20
-7.134
0
VERTEX
8
Sketch
10
7.654
20
-7.054
0
VERTEX
8
Sketch
10
7.254
20
-7.134
0
VERTEX
8
Sketch
10
7.014
20
-7.134
0
SEQEND
0
POLYLINE
66
1
8
Sketch
62
0
0
VERTEX
8
Sketch
10
16.694
20
-7.774
0
VERTEX
8
Sketch
10
16.454
20
-7.694
0
VERTEX
8
Sketch
10
16.294
20
-7.934
0
VERTEX
8
Sketch
10
16.294
20
-7.694
0
VERTEX
8
Sketch
10
16.054
20
-7.694
0
VERTEX
8
Sketch
10
15.894
20
-7.854
0
VERTEX
8
Sketch
10
16.054
20
-8.094
0
VERTEX
8
Sketch
10
16.374
20
-8.094
0
VERTEX
8
Sketch
10
16.614
20
-8.014
0
VERTEX
8
Sketch
10
16.374
20
-7.774
0
SEQEND
0
POLYLINE
66
1
8
Sketch
62
0
0
VERTEX
8
Sketch
10
15.494
20
-7.454
0
VERTEX
8
Sketch
10
15.174
20
-7.454
0
VERTEX
8
Sketch
10
14.934
20
-7.694
0
VERTEX
8
Sketch
10
15.174
20
-8.094
0
VERTEX
8
Sketch
10
15.414
20
-8.094
0
VERTEX
8
Sketch
10
15.654
20
-8.334
0
VERTEX
8
Sketch
10
15.734
20
-8.014
0
VERTEX
8
Sketch
10
15.894
20
-7.934
0
VERTEX
8
Sketch
10
15.894
20
-7.934
0
VERTEX
8
Sketch
10
15.894
20
-7.694
0
VERTEX
8
Sketch
10
15.414
20
-7.374
0
SEQEND
0
POLYLINE
66
1
8
Sketch
62
0
0
VERTEX
8
Sketch
10
15.414
20
-7.214
0
VERTEX
8
Sketch
10
15.014
20
-7.294
0
VERTEX
8
Sketch
10
14.614
20
-7.534
0
VERTEX
8
Sketch
10
14.214
20
-7.374
0
VERTEX
8
Sketch
10
14.214
20
-7.534
0
VERTEX
8
Sketch
10
14.374
20
-7.614
0
VERTEX
8
Sketch
10
14.454
20
-7.854
0
VERTEX
8
Sketch
10
14.774
20
-8.094
0
VERTEX
8
Sketch
10
15.094
20
-7.934
0
VERTEX
8
Sketch
10
15.014
20
-7.454
0
VERTEX
8
Sketch
10
14.694
20
-7.534
0
VERTEX
8
Sketch
10
14.534
20
-7.614
0
SEQEND
0
POLYLINE
66
1
8
Sketch
62
32
0
VERTEX
8
Sketch
10
6.854
20
-8.414
0
VERTEX
8
Sketch
10
7.414
20
-8.254
0
VERTEX
8
Sketch
10
7.734
20
-8.254
0
VERTEX
8
Sketch
10
8.054
20
-8.174
0
VERTEX
8
Sketch
10
8.214
20
-8.174
0
VERTEX
8
Sketch
10
8.374
20
-8.334
0
VERTEX
8
Sketch
10
8.374
20
-8.174
0
VERTEX
8
Sketch
10
9.894
20
-8.174
0
VERTEX
8
Sketch
10
10.054
20
-8.254
0
VERTEX
8
Sketch
10
10.214
20
-8.174
0
VERTEX
8
Sketch
10
10.374
20
-8.334
0
VERTEX
8
Sketch
10
10.454
20
-8.094
0
VERTEX
8
Sketch
10
10.614
20
-8.254
0
VERTEX
8
Sketch
10
11.174
20
-8.254
0
VERTEX
8
Sketch
10
11.174
20
-8.254
0
VERTEX
8
Sketch
10
11.654
20
-8.254
0
VERTEX
8
Sketch
10
11.974
20
-8.334
0
VERTEX
8
Sketch
10
12.134
20
-8.254
0
VERTEX
8
Sketch
10
12.454
20
-8.334
0
VERTEX
8
Sketch
10
12.854
20
-8.334
0
VERTEX
8
Sketch
10
13.174
20
-8.254
0
VERTEX
8
Sketch
10
13.414
20
-8.254
0
VERTEX
8
Sketch
10
13.734
20
-8.174
0
VERTEX
8
Sketch
10
14.694
20
-8.014
0
SEQEND
0
POLYLINE
66
1
8
Sketch
62
0
0
VERTEX
8
Sketch
10
16.054
20
-7.374
0
VERTEX
8
Sketch
10
15.894
20
-7.374
0
VERTEX
8
Sketch
10
15.974
20
-7.534
0
VERTEX
8
Sketch
10
16.374
20
-7.454
0
VERTEX
8
Sketch
10
16.214
20
-7.294
0
SEQEND
0
POLYLINE
66
1
8
Sketch
62
0
0
VERTEX
8
Sketch
10
17.014
20
-7.534
0
VERTEX
8
Sketch
10
17.014
20
-7.454
0
VERTEX
8
Sketch
10
16.854
20
-7.454
0
VERTEX
8
Sketch
10
16.934
20
-7.374
0
VERTEX
8
Sketch
10
16.854
20
-7.694
0
SEQEND
0
POLYLINE
66
1
8
Sketch
62
0
0
VERTEX
8
Sketch
10
20.294
20
-7.374
0
VERTEX
8
Sketch
10
19.654
20
-7.374
0
VERTEX
8
Sketch
10
19.414
20
-7.534
0
VERTEX
8
Sketch
10
19.414
20
-7.694
0
VERTEX
8
Sketch
10
20.054
20
-7.694
0
VERTEX
8
Sketch
10
20.374
20
-7.454
0
VERTEX
8
Sketch
10
20.214
20
-7.134
0
VERTEX
8
Sketch
10
20.054
20
-7.054
0
VERTEX
8
Sketch
10
19.974
20
-7.214
0
SEQEND
0
POLYLINE
66
1
8
Sketch
62
0
0
VERTEX
8
Sketch
10
25.334
20
-6.894
0
VERTEX
8
Sketch
10
24.854
20
-7.054
0
VERTEX
8
Sketch
10
24.694
20
-7.214
0
VERTEX
8
Sketch
10
25.414
20
-7.374
0
VERTEX
8
Sketch
10
25.414
20
-6.974
0
VERTEX
8
Sketch
10
24.934
20
-6.574
0
VERTEX
8
Sketch
10
24.534
20
-6.494
0
SEQEND
0
POLYLINE
66
1
8
Sketch
62
0
0
VERTEX
8
Sketch
10
24.534
20
-6.974
0
VERTEX
8
Sketch
10
24.054
20
-6.734
0
VERTEX
8
Sketch
10
23.894
20
-6.734
0
VERTEX
8
Sketch
10
23.574
20
-6.974
0
VERTEX
8
Sketch
10
23.574
20
-7.134
0
VERTEX
8
Sketch
10
23.734
20
-7.294
0
VERTEX
8
Sketch
10
24.134
20
-7.294
0
VERTEX
8
Sketch
10
24.534
20
-7.214
0
VERTEX
8
Sketch
10
24.454
20
-7.054
0
SEQEND
0
POLYLINE
66
1
8
Sketch
62
0
0
VERTEX
8
Sketch
10
23.414
20
-6.894
0
VERTEX
8
Sketch
10
23.174
20
-6.894
0
VERTEX
8
Sketch
10
22.854
20
-7.214
0
VERTEX
8
Sketch
10
22.934
20
-7.454
0
VERTEX
8
Sketch
10
23.254
20
-7.374
0
VERTEX
8
Sketch
10
23.494
20
-7.134
0
VERTEX
8
Sketch
10
23.334
20
-7.054
0
SEQEND
0
POLYLINE
66
1
8
Sketch
62
0
0
VERTEX
8
Sketch
10
22.294
20
-7.294
0
VERTEX
8
Sketch
10
21.894
20
-7.614
0
VERTEX
8
Sketch
10
21.734
20
-7.454
0
VERTEX
8
Sketch
10
21.574
20
-7.614
0
VERTEX
8
Sketch
10
22.054
20
-7.534
0
VERTEX
8
Sketch
10
22.294
20
-7.454
0
SEQEND
0
POLYLINE
66
1
8
Sketch
62
0
0
VERTEX
8
Sketch
10
21.094
20
-7.134
0
VERTEX
8
Sketch
10
20.614
20
-7.454
0
VERTEX
8
Sketch
10
20.454
20
-7.614
0
VERTEX
8
Sketch
10
20.454
20
-7.694
0
VERTEX
8
Sketch
10
20.854
20
-7.774
0
VERTEX
8
Sketch
10
21.014
20
-7.774
0
VERTEX
8
Sketch
10
21.254
20
-7.614
0
VERTEX
8
Sketch
10
21.254
20
-7.454
0
SEQEND
0
POLYLINE
66
1
8
Sketch
62
0
0
VERTEX
8
Sketch
10
22.374
20
-5.134
0
VERTEX
8
Sketch
10
21.894
20
-5.054
0
VERTEX
8
Sketch
10
21.574
20
-5.214
0
VERTEX
8
Sketch
10
21.734
20
-5.454
0
VERTEX
8
Sketch
10
21.974
20
-5.374
0
VERTEX
8
Sketch
10
22.054
20
-5.214
0
VERTEX
8
Sketch
10
21.894
20
-5.294
0
SEQEND
0
POLYLINE
66
1
8
Sketch
62
0
0
VERTEX
8
Sketch
10
19.974
20
-5.214
0
VERTEX
8
Sketch
10
19.574
20
-5.294
0
VERTEX
8
Sketch
10
19.414
20
-5.454
0
VERTEX
8
Sketch
10
19.574
20
-5.534
0
VERTEX
8
Sketch
10
19.734
20
-5.454
0
VERTEX
8
Sketch
10
19.574
20
-5.614
0
SEQEND
0
POLYLINE
66
1
8
Sketch
62
0
0
VERTEX
8
Sketch
10
20.774
20
-4.174
0
VERTEX
8
Sketch
10
20.614
20
-4.254
0
VERTEX
8
Sketch
10
20.534
20
-4.494
0
VERTEX
8
Sketch
10
20.854
20
-4.814
0
VERTEX
8
Sketch
10
21.094
20
-4.814
0
VERTEX
8
Sketch
10
20.934
20
-4.894
0
VERTEX
8
Sketch
10
21.094
20
-4.974
0
VERTEX
8
Sketch
10
21.254
20
-4.894
0
VERTEX
8
Sketch
10
21.334
20
-4.654
0
VERTEX
8
Sketch
10
21.094
20
-4.654
0
VERTEX
8
Sketch
10
20.934
20
-4.574
0
SEQEND
0
POLYLINE
66
1
8
Sketch
62
0
0
VERTEX
8
Sketch
10
22.614
20
-3.934
0
VERTEX
8
Sketch
10
22.374
20
-3.934
0
VERTEX
8
Sketch
10
22.054
20
-4.174
0
VERTEX
8
Sketch
10
22.054
20
-4.574
0
VERTEX
8
Sketch
10
22.374
20
-4.894
0
VERTEX
8
Sketch
10
22.534
20
-4.734
0
VERTEX
8
Sketch
10
22.374
20
-4.734
0
VERTEX
8
Sketch
10
22.614
20
-4.254
0
VERTEX
8
Sketch
10
22.614
20
-4.094
0
VERTEX
8
Sketch
10
22.454
20
-4.014
0
SEQEND
0
POLYLINE
66
1
8
Sketch
62
0
0
VERTEX
8
Sketch
10
15.894
20
0.066
0
VERTEX
8
Sketch
10
16.214
20
-0.254
0
VERTEX
8
Sketch
10
16.534
20
-0.334
0
VERTEX
8
Sketch
10
16.694
20
-0.494
0
VERTEX
8
Sketch
10
17.734
20
-0.494
0
VERTEX
8
Sketch
10
17.894
20
-0.654
0
VERTEX
8
Sketch
10
17.974
20
-0.494
0
VERTEX
8
Sketch
10
19.574
20
-0.654
0
VERTEX
8
Sketch
10
20.774
20
-0.894
0
VERTEX
8
Sketch
10
21.014
20
-0.814
0
VERTEX
8
Sketch
10
21.254
20
-0.974
0
VERTEX
8
Sketch
10
21.574
20
-1.054
0
VERTEX
8
Sketch
10
22.454
20
-1.294
0
VERTEX
8
Sketch
10
22.854
20
-1.294
0
SEQEND
0
POLYLINE
66
1
8
Sketch
62
0
0
VERTEX
8
Sketch
10
13.814
20
-0.254
0
VERTEX
8
Sketch
10
14.374
20
-0.254
0
VERTEX
8
Sketch
10
14.614
20
-0.174
0
VERTEX
8
Sketch
10
15.574
20
-0.414
0
VERTEX
8
Sketch
10
16.294
20
-0.414
0
VERTEX
8
Sketch
10
16.614
20
-0.494
0
VERTEX
8
Sketch
10
16.854
20
-0.494
0
VERTEX
8
Sketch
10
17.174
20
-0.414
0
VERTEX
8
Sketch
10
17.814
20
-0.414
0
VERTEX
8
Sketch
10
17.974
20
-0.254
0
SEQEND
0
POLYLINE
66
1
8
Sketch
62
0
0
VERTEX
8
Sketch
10
13.494
20
-0.014
0
VERTEX
8
Sketch
10
14.454
20
-0.334
0
VERTEX
8
Sketch
10
14.694
20
-0.334
0
VERTEX
8
Sketch
10
15.014
20
-0.574
0
VERTEX
8
Sketch
10
15.174
20
-0.494
0
VERTEX
8
Sketch
10
15.334
20
-0.574
0
SEQEND
0
POLYLINE
66
1
8
Sketch
62
0
0
VERTEX
8
Sketch
10
25.094
20
-5.454
0
VERTEX
8
Sketch
10
25.734
20
-5.454
0
VERTEX
8
Sketch
10
26.134
20
-5.534
0
VERTEX
8
Sketch
10
25.894
20
-6.174
0
VERTEX
8
Sketch
10
25.894
20
-6.414
0
VERTEX
8
Sketch
10
25.734
20
-6.654
0
VERTEX
8
Sketch
10
25.734
20
-6.814
0
SEQEND
0
POLYLINE
66
1
8
Sketch
62
0
0
VERTEX
8
Sketch
10
22.854
20
-4.494
0
VERTEX
8
Sketch
10
22.934
20
-4.654
0
VERTEX
8
Sketch
10
23.414
20
-4.734
0
VERTEX
8
Sketch
10
23.734
20
-4.894
0
VERTEX
8
Sketch
10
23.974
20
-5.134
0
VERTEX
8
Sketch
10
24.294
20
-5.134
0
VERTEX
8
Sketch
10
24.534
20
-5.054
0
VERTEX
8
Sketch
10
25.094
20
-5.294
0
VERTEX
8
Sketch
10
25.334
20
-5.294
0
VERTEX
8
Sketch
10
25.414
20
-5.534
0
VERTEX
8
Sketch
10
25.414
20
-5.374
0
VERTEX
8
Sketch
10
25.494
20
-5.534
0
SEQEND
0
POLYLINE
66
1
8
Sketch
62
0
0
VERTEX
8
Sketch
10
22.934
20
-1.134
0
VERTEX
8
Sketch
10
22.934
20
-1.454
0
VERTEX
8
Sketch
10
22.694
20
-2.174
0
VERTEX
8
Sketch
10
22.694
20
-2.334
0
VERTEX
8
Sketch
10
23.014
20
-2.894
0
VERTEX
8
Sketch
10
22.854
20
-3.134
0
VERTEX
8
Sketch
10
22.854
20
-3.694
0
VERTEX
8
Sketch
10
22.934
20
-4.094
0
VERTEX
8
Sketch
10
22.934
20
-4.254
0
SEQEND
0
POLYLINE
66
1
8
Sketch
62
0
0
VERTEX
8
Sketch
10
26.054
20
-5.374
0
VERTEX
8
Sketch
10
25.814
20
-5.694
0
VERTEX
8
Sketch
10
25.734
20
-6.254
0
VERTEX
8
Sketch
10
25.894
20
-6.734
0
VERTEX
8
Sketch
10
25.734
20
-6.654
0
SEQEND
0
POLYLINE
66
1
8
Sketch
62
0
0
VERTEX
8
Sketch
10
18.854
20
-7.214
0
VERTEX
8
Sketch
10
18.614
20
-7.454
0
VERTEX
8
Sketch
10
19.094
20
-7.374
0
VERTEX
8
Sketch
10
19.414
20
-7.214
0
VERTEX
8
Sketch
10
19.334
20
-7.374
0
VERTEX
8
Sketch
10
19.494
20
-7.534
0
SEQEND
0
POLYLINE
66
1
8
Sketch
62
0
0
VERTEX
8
Sketch
10
17.574
20
-7.374
0
VERTEX
8
Sketch
10
17.414
20
-7.534
0
VERTEX
8
Sketch
10
17.494
20
-7.694
0
SEQEND
0
POLYLINE
66
1
8
Sketch
62
0
0
VERTEX
8
Sketch
10
17.654
20
-7.374
0
VERTEX
8
Sketch
10
17.254
20
-7.534
0
VERTEX
8
Sketch
10
17.174
20
-7.774
0
VERTEX
8
Sketch
10
17.334
20
-7.854
0
SEQEND
0
POLYLINE
66
1
8
Sketch
62
0
0
VERTEX
8
Sketch
10
18.054
20
-7.214
0
VERTEX
8
Sketch
10
17.814
20
-7.214
0
VERTEX
8
Sketch
10
17.414
20
-7.374
0
VERTEX
8
Sketch
10
17.254
20
-7.534
0
SEQEND
0
POLYLINE
66
1
8
Sketch
62
0
0
VERTEX
8
Sketch
10
16.214
20
-7.614
0
VERTEX
8
Sketch
10
17.414
20
-7.614
0
VERTEX
8
Sketch
10
17.654
20
-7.534
0
VERTEX
8
Sketch
10
17.414
20
-7.534
0
VERTEX
8
Sketch
10
17.814
20
-7.454
0
VERTEX
8
Sketch
10
18.054
20
-7.294
0
VERTEX
8
Sketch
10
18.294
20
-7.454
0
SEQEND
0
POLYLINE
66
1
8
Sketch
62
0
0
VERTEX
8
Sketch
10
25.574
20
-6.654
0
VERTEX
8
Sketch
10
25.254
20
-6.574
0
VERTEX
8
Sketch
10
24.934
20
-6.654
0
VERTEX
8
Sketch
10
24.774
20
-6.574
0
VERTEX
8
Sketch
10
24.374
20
-6.654
0
VERTEX
8
Sketch
10
23.734
20
-6.734
0
VERTEX
8
Sketch
10
23.414
20
-6.734
0
VERTEX
8
Sketch
10
23.094
20
-6.814
0
VERTEX
8
Sketch
10
22.774
20
-6.814
0
VERTEX
8
Sketch
10
22.614
20
-6.974
0
VERTEX
8
Sketch
10
21.894
20
-7.054
0
VERTEX
8
Sketch
10
20.534
20
-7.054
0
VERTEX
8
Sketch
10
19.974
20
-7.134
0
VERTEX
8
Sketch
10
18.774
20
-7.134
0
VERTEX
8
Sketch
10
18.534
20
-7.054
0
VERTEX
8
Sketch
10
18.214
20
-7.134
0
VERTEX
8
Sketch
10
17.094
20
-7.134
0
VERTEX
8
Sketch
10
16.774
20
-7.294
0
SEQEND
0
POLYLINE
66
1
8
Sketch
62
0
0
VERTEX
8
Sketch
10
9.434
20
-1.834
0
VERTEX
8
Sketch
10
9.314
20
-1.834
0
VERTEX
8
Sketch
10
8.654
20
-2.254
0
VERTEX
8
Sketch
10
8.474
20
-2.314
0
VERTEX
8
Sketch
10
8.654
20
-2.194
0
SEQEND
0
POLYLINE
66
1
8
Sketch
62
0
0
VERTEX
8
Sketch
10
8.354
20
-2.374
0
VERTEX
8
Sketch
10
8.654
20
-2.074
0
VERTEX
8
Sketch
10
8.774
20
-2.074
0
VERTEX
8
Sketch
10
9.074
20
-1.894
0
VERTEX
8
Sketch
10
9.194
20
-1.954
0
VERTEX
8
Sketch
10
9.254
20
-1.834
0
VERTEX
8
Sketch
10
9.494
20
-1.774
0
SEQEND
0
POLYLINE
66
1
8
Sketch
62
0
0
VERTEX
8
Sketch
10
9.974
20
-2.134
0
VERTEX
8
Sketch
10
9.434
20
-2.314
0
SEQEND
0
POLYLINE
66
1
8
Sketch
62
0
0
VERTEX
8
Sketch
10
10.754
20
-1.894
0
VERTEX
8
Sketch
10
10.574
20
-1.894
0
VERTEX
8
Sketch
10
10.214
20
-2.014
0
SEQEND
0
POLYLINE
66
1
8
Sketch
62
0
0
VERTEX
8
Sketch
10
11.534
20
-1.774
0
VERTEX
8
Sketch
10
10.934
20
-1.774
0
VERTEX
8
Sketch
10
10.814
20
-1.954
0
VERTEX
8
Sketch
10
10.874
20
-2.194
0
VERTEX
8
Sketch
10
11.354
20
-2.014
0
VERTEX
8
Sketch
10
11.474
20
-1.894
0
VERTEX
8
Sketch
10
11.474
20
-1.594
0
VERTEX
8
Sketch
10
11.414
20
-1.294
0
SEQEND
0
POLYLINE
66
1
8
Sketch
62
0
0
VERTEX
8
Sketch
10
11.714
20
-1.714
0
VERTEX
8
Sketch
10
11.834
20
-2.074
0
VERTEX
8
Sketch
10
11.474
20
-2.014
0
VERTEX
8
Sketch
10
11.594
20
-1.894
0
SEQEND
0
POLYLINE
66
1
8
Sketch
62
0
0
VERTEX
8
Sketch
10
11.894
20
-1.534
0
VERTEX
8
Sketch
10
11.654
20
-1.714
0
VERTEX
8
Sketch
10
11.474
20
-1.714
0
VERTEX
8
Sketch
10
11.414
20
-2.014
0
VERTEX
8
Sketch
10
11.594
20
-1.894
0
SEQEND
0
POLYLINE
66
1
8
Sketch
62
0
0
VERTEX
8
Sketch
10
10.274
20
-2.074
0
VERTEX
8
Sketch
10
10.214
20
-1.894
0
SEQEND
0
POLYLINE
66
1
8
Sketch
62
0
0
VERTEX
8
Sketch
10
10.814
20
-1.714
0
VERTEX
8
Sketch
10
10.694
20
-2.014
0
VERTEX
8
Sketch
10
10.514
20
-2.314
0
SEQEND
0
POLYLINE
66
1
8
Sketch
62
0
0
VERTEX
8
Sketch
10
10.274
20
-1.594
0
VERTEX
8
Sketch
10
10.454
20
-1.654
0
VERTEX
8
Sketch
10
10.694
20
-1.594
0
VERTEX
8
Sketch
10
10.694
20
-1.774
0
VERTEX
8
Sketch
10
10.514
20
-2.014
0
SEQEND
0
POLYLINE
66
1
8
Sketch
62
0
0
VERTEX
8
Sketch
10
10.874
20
-1.654
0
VERTEX
8
Sketch
10
10.634
20
-1.594
0
SEQEND
0
POLYLINE
66
1
8
Sketch
62
0
0
VERTEX
8
Sketch
10
10.154
20
-1.534
0
VERTEX
8
Sketch
10
10.214
20
-1.714
0
VERTEX
8
Sketch
10
9.734
20
-2.014
0
VERTEX
8
Sketch
10
9.674
20
-2.134
0
VERTEX
8
Sketch
10
10.094
20
-2.074
0
VERTEX
8
Sketch
10
9.854
20
-2.374
0
VERTEX
8
Sketch
10
9.854
20
-2.254
0
SEQEND
0
POLYLINE
66
1
8
Sketch
62
0
0
VERTEX
8
Sketch
10
10.334
20
-1.534
0
VERTEX
8
Sketch
10
10.274
20
-1.714
0
VERTEX
8
Sketch
10
9.854
20
-1.714
0
VERTEX
8
Sketch
10
9.434
20
-1.834
0
VERTEX
8
Sketch
10
9.374
20
-2.014
0
VERTEX
8
Sketch
10
9.014
20
-2.134
0
VERTEX
8
Sketch
10
8.954
20
-2.254
0
VERTEX
8
Sketch
10
9.254
20
-2.374
0
VERTEX
8
Sketch
10
9.434
20
-2.374
0
SEQEND
0
POINT
8
Sketch
62
0
10
8.414
20
-2.254
0
POLYLINE
66
1
8
Sketch
62
0
0
VERTEX
8
Sketch
10
13.394
20
-0.454
0
VERTEX
8
Sketch
10
13.094
20
-0.634
0
VERTEX
8
Sketch
10
13.034
20
-0.754
0
VERTEX
8
Sketch
10
13.034
20
-0.514
0
VERTEX
8
Sketch
10
12.794
20
-0.694
0
VERTEX
8
Sketch
10
11.114
20
-0.694
0
VERTEX
8
Sketch
10
10.874
20
-0.754
0
VERTEX
8
Sketch
10
10.454
20
-0.754
0
VERTEX
8
Sketch
10
10.214
20
-0.814
0
VERTEX
8
Sketch
10
10.034
20
-0.814
0
VERTEX
8
Sketch
10
9.914
20
-0.874
0
VERTEX
8
Sketch
10
9.854
20
-1.054
0
VERTEX
8
Sketch
10
9.794
20
-0.874
0
VERTEX
8
Sketch
10
9.554
20
-0.934
0
VERTEX
8
Sketch
10
8.654
20
-0.934
0
VERTEX
8
Sketch
10
8.594
20
-1.114
0
VERTEX
8
Sketch
10
8.474
20
-0.994
0
SEQEND
0
POLYLINE
66
1
8
Sketch
62
0
0
VERTEX
8
Sketch
10
1.094
20
2.006
0
VERTEX
8
Sketch
10
1.094
20
0.926
0
VERTEX
8
Sketch
10
1.154
20
0.686
0
VERTEX
8
Sketch
10
1.154
20
0.566
0
VERTEX
8
Sketch
10
2.474
20
0.206
0
VERTEX
8
Sketch
10
2.954
20
0.086
0
VERTEX
8
Sketch
10
3.734
20
-0.094
0
VERTEX
8
Sketch
10
3.914
20
-0.094
0
VERTEX
8
Sketch
10
4.274
20
-0.274
0
VERTEX
8
Sketch
10
4.514
20
-0.334
0
VERTEX
8
Sketch
10
5.054
20
-0.454
0
VERTEX
8
Sketch
10
5.174
20
-0.574
0
VERTEX
8
Sketch
10
5.354
20
-0.574
0
VERTEX
8
Sketch
10
6.134
20
-0.814
0
VERTEX
8
Sketch
10
7.274
20
-1.054
0
VERTEX
8
Sketch
10
7.394
20
-1.294
0
VERTEX
8
Sketch
10
7.394
20
-1.174
0
VERTEX
8
Sketch
10
8.054
20
-1.294
0
SEQEND
0
POLYLINE
66
1
8
Sketch
62
0
0
VERTEX
8
Sketch
10
0.494
20
-1.354
0
VERTEX
8
Sketch
10
0.494
20
-1.354
0
VERTEX
8
Sketch
10
0.854
20
-1.354
0
VERTEX
8
Sketch
10
1.094
20
-1.414
0
VERTEX
8
Sketch
10
1.634
20
-1.414
0
VERTEX
8
Sketch
10
1.874
20
-1.474
0
VERTEX
8
Sketch
10
2.234
20
-1.474
0
VERTEX
8
Sketch
10
2.474
20
-1.534
0
VERTEX
8
Sketch
10
3.014
20
-1.594
0
VERTEX
8
Sketch
10
3.554
20
-1.654
0
VERTEX
8
Sketch
10
3.794
20
-1.714
0
VERTEX
8
Sketch
10
4.934
20
-1.894
0
VERTEX
8
Sketch
10
5.174
20
-1.954
0
VERTEX
8
Sketch
10
5.354
20
-1.954
0
VERTEX
8
Sketch
10
5.594
20
-2.014
0
VERTEX
8
Sketch
10
6.134
20
-2.074
0
VERTEX
8
Sketch
10
6.374
20
-2.074
0
VERTEX
8
Sketch
10
6.614
20
-2.134
0
VERTEX
8
Sketch
10
6.914
20
-2.194
0
VERTEX
8
Sketch
10
7.574
20
-2.374
0
VERTEX
8
Sketch
10
7.934
20
-2.374
0
VERTEX
8
Sketch
10
8.234
20
-2.434
0
SEQEND
0
LINE
8
Shots
62
1
10
-51.146
20
-11.83
11
-55.102
21
-11.608
0
CIRCLE
8
Shots
62
1
10
-55.102
20
-11.608
40
0.1
0
LINE
8
XSect
62
1
10
-55.102
20
-11.608
11
-55.182
21
-12.908
0
LINE
8
XSect
62
1
6
DASH
10
-55.102
20
-11.608
11
-53.632
21
-11.142
0
LINE
8
XSect
62
1
6
DASH
10
-55.102
20
-11.608
11
-55.72
21
-11.698
0
LINE
8
XSect
62
1
6
DASH
10
-55.102
20
-11.608
11
-56.482
21
-12.094
0
LINE
8
XSect
62
1
10
-55.102
20
-11.608
11
-56.048
21
-12.978
0
LINE
8
Shots
62
1
10
-45.696
20
-10.746
11
-51.146
21
-11.83
0
CIRCLE
8
Shots
62
1
10
-51.146
20
-11.83
40
0.1
0
LINE
8
XSect
62
1
6
DASH
10
-51.146
20
-11.83
11
-51.372
21
-12.796
0
LINE
8
XSect
62
1
10
-51.146
20
-11.83
11
-51.044
21
-14.426
0
LINE
8
XSect
62
1
10
-51.146
20
-11.83
11
-51.124
21
-14.666
0
LINE
8
XSect
62
1
10
-51.146
20
-11.83
11
-51.298
21
-9.586
0
LINE
8
XSect
62
1
10
-51.146
20
-11.83
11
-52.814
21
-11.012
0
LINE
8
XSect
62
1
10
-51.146
20
-11.83
11
-55.722
21
-11.336
0
LINE
8
XSect
62
1
10
-51.146
20
-11.83
11
-53.306
21
-12.334
0
LINE
8
XSect
62
1
10
-51.146
20
-11.83
11
-52.98
21
-11.238
0
LINE
8
XSect
62
1
6
DASH
10
-51.146
20
-11.83
11
-53.312
21
-11.97
0
LINE
8
XSect
62
1
10
-51.146
20
-11.83
11
-54.84
21
-11.974
0
LINE
8
XSect
62
1
10
-51.146
20
-11.83
11
-55.066
21
-11.928
0
LINE
8
Shots
62
1
10
-40.81
20
-11.338
11
-45.696
21
-10.746
0
CIRCLE
8
Shots
62
1
10
-45.696
20
-10.746
40
0.1
0
LINE
8
XSect
62
1
10
-45.696
20
-10.746
11
-45.468
21
-15.232
0
LINE
8
XSect
62
1
10
-45.696
20
-10.746
11
-45.32
21
-10.02
0
LINE
8
XSect
62
1
10
-45.696
20
-10.746
11
-45.718
21
-6.222
0
LINE
8
XSect
62
1
10
-45.696
20
-10.746
11
-47.51
21
-8.27
0
LINE
8
XSect
62
1
6
DASH
10
-45.696
20
-10.746
11
-46.146
21
-11.28
0
LINE
8
XSect
62
1
6
DASH
10
-45.696
20
-10.746
11
-46.006
21
-10.81
0
LINE
8
XSect
62
1
10
-45.696
20
-10.746
11
-47.544
21
-10.128
0
LINE
8
XSect
62
1
10
-45.696
20
-10.746
11
-50.1
21
-8.828
0
LINE
8
XSect
62
1
10
-45.696
20
-10.746
11
-52.852
21
-8.966
0
LINE
8
XSect
62
1
10
-45.696
20
-10.746
11
-52.722
21
-9.802
0
LINE
8
XSect
62
1
10
-45.696
20
-10.746
11
-51.596
21
-11.808
0
LINE
8
XSect
62
1
10
-45.696
20
-10.746
11
-51.604
21
-11.798
0
LINE
8
XSect
62
1
10
-45.696
20
-10.746
11
-45.55
21
-14.008
0
LINE
8
XSect
62
1
10
-45.696
20
-10.746
11
-46.412
21
-7.84
0
LINE
8
XSect
62
1
6
DASH
10
-45.696
20
-10.746
11
-46.022
21
-10.784
0
LINE
8
XSect
62
1
10
-45.696
20
-10.746
11
-42.578
21
-11.88
0
LINE
8
XSect
62
1
10
-45.696
20
-10.746
11
-50.24
21
-8.728
0
LINE
8
XSect
62
1
10
-45.696
20
-10.746
11
-51.668
21
-10.346
0
LINE
8
XSect
62
1
10
-45.696
20
-10.746
11
-50.838
21
-14.38
0
LINE
8
XSect
62
1
10
-45.696
20
-10.746
11
-50.686
21
-12.896
0
LINE
8
XSect
62
1
10
-45.696
20
-10.746
11
-49.316
21
-12.1
0
LINE
8
Shots
62
1
10
-35.218
20
-12.378
11
-40.81
21
-11.338
0
CIRCLE
8
Shots
62
1
10
-40.81
20
-11.338
40
0.1
0
LINE
8
XSect
62
1
6
DASH
10
-40.81
20
-11.338
11
-40.196
21
-13.736
0
LINE
8
XSect
62
1
10
-40.81
20
-11.338
11
-40.926
21
-9.39
0
LINE
8
XSect
62
1
10
-40.81
20
-11.338
11
-38.534
21
-11.086
0
LINE
8
XSect
62
1
10
-40.81
20
-11.338
11
-43.24
21
-9.528
0
LINE
8
XSect
62
1
10
-40.81
20
-11.338
11
-45.734
21
-9.404
0
LINE
8
XSect
62
1
10
-40.81
20
-11.338
11
-52.834
21
-8.978
0
LINE
8
XSect
62
1
10
-40.81
20
-11.338
11
-44.604
21
-14.322
0
LINE
8
XSect
62
1
10
-40.81
20
-11.338
11
-47.216
21
-14.78
0
LINE
8
XSect
62
1
10
-40.81
20
-11.338
11
-42.96
21
-14.17
0
LINE
8
Shots
62
1
10
-28.204
20
-11.532
11
-35.218
21
-12.378
0
CIRCLE
8
Shots
62
1
10
-35.218
20
-12.378
40
0.1
0
LINE
8
XSect
62
1
6
DASH
10
-35.218
20
-12.378
11
-35.938
21
-12.26
0
LINE
8
XSect
62
1
10
-35.218
20
-12.378
11
-35.536
21
-12.836
0
LINE
8
XSect
62
1
6
DASH
10
-35.218
20
-12.378
11
-35.416
21
-11.646
0
LINE
8
XSect
62
1
10
-35.218
20
-12.378
11
-40.434
21
-11.754
0
LINE
8
XSect
62
1
10
-35.218
20
-12.378
11
-41.044
21
-12.488
0
LINE
8
XSect
62
1
10
-35.218
20
-12.378
11
-44.278
21
-12.624
0
LINE
8
Shots
62
1
10
-22.146
20
-10.958
11
-28.204
21
-11.532
0
CIRCLE
8
Shots
62
1
10
-28.204
20
-11.532
40
0.1
0
LINE
8
XSect
62
1
10
-28.204
20
-11.532
11
-27.53
21
-11.022
0
LINE
8
XSect
62
1
10
-28.204
20
-11.532
11
-28.19
21
-12.196
0
LINE
8
XSect
62
1
6
DASH
10
-28.204
20
-11.532
11
-28.802
21
-12.106
0
LINE
8
XSect
62
1
10
-28.204
20
-11.532
11
-29.418
21
-7.694
0
LINE
8
XSect
62
1
10
-28.204
20
-11.532
11
-31.048
21
-8.26
0
LINE
8
XSect
62
1
10
-28.204
20
-11.532
11
-31.944
21
-10.234
0
LINE
8
XSect
62
1
10
-28.204
20
-11.532
11
-31.73
21
-12.342
0
LINE
8
XSect
62
1
10
-28.204
20
-11.532
11
-33.2
21
-12.378
0
LINE
8
XSect
62
1
10
-28.204
20
-11.532
11
-36.048
21
-12.592
0
LINE
8
XSect
62
1
10
-28.204
20
-11.532
11
-35.174
21
-11.208
0
LINE
8
Shots
62
1
10
-14.04
20
-8.542
11
-22.146
21
-10.958
0
CIRCLE
8
Shots
62
1
10
-22.146
20
-10.958
40
0.1
0
LINE
8
XSect
62
1
10
-22.146
20
-10.958
11
-22.092
21
-11.958
0
LINE
8
XSect
62
1
10
-22.146
20
-10.958
11
-22.018
21
-8.756
0
LINE
8
XSect
62
1
10
-22.146
20
-10.958
11
-21.98
21
-7.718
0
LINE
8
XSect
62
1
10
-22.146
20
-10.958
11
-21.718
21
-5.394
0
LINE
8
XSect
62
1
6
DASH
10
-22.146
20
-10.958
11
-21.698
21
-11.094
0
LINE
8
XSect
62
1
10
-22.146
20
-10.958
11
-24.554
21
-11.852
0
LINE
8
XSect
62
1
10
-22.146
20
-10.958
11
-24.702
21
-11.484
0
LINE
8
XSect
62
1
10
-22.146
20
-10.958
11
-14.348
21
-8.814
0
LINE
8
XSect
62
1
10
-22.146
20
-10.958
11
-15.87
21
-8.544
0
LINE
8
XSect
62
1
10
-22.146
20
-10.958
11
-24.888
21
-8.222
0
LINE
8
XSect
62
1
10
-22.146
20
-10.958
11
-24.892
21
-10.3
0
LINE
8
Shots
62
1
10
-9.586
20
-8.152
11
-14.04
21
-8.542
0
CIRCLE
8
Shots
62
1
10
-14.04
20
-8.542
40
0.1
0
LINE
8
XSect
62
1
10
-14.04
20
-8.542
11
-14.068
21
-9.748
0
LINE
8
XSect
62
1
10
-14.04
20
-8.542
11
-13.596
21
-7.958
0
LINE
8
XSect
62
1
6
DASH
10
-14.04
20
-8.542
11
-13.582
21
-9.16
0
LINE
8
XSect
62
1
10
-14.04
20
-8.542
11
-9.398
21
-7.4
0
LINE
8
XSect
62
1
10
-14.04
20
-8.542
11
-18.296
21
-9.714
0
LINE
8
XSect
62
1
10
-14.04
20
-8.542
11
-21.036
21
-10.706
0
LINE
8
XSect
62
1
10
-14.04
20
-8.542
11
-14.358
21
-8.472
0
LINE
8
XSect
62
1
10
-14.04
20
-8.542
11
-21.856
21
-8.088
0
LINE
8
Shots
62
1
10
-6.258
20
-7.752
11
-9.586
21
-8.152
0
CIRCLE
8
Shots
62
1
10
-9.586
20
-8.152
40
0.1
0
LINE
8
XSect
62
1
10
-9.586
20
-8.152
11
-9.56
21
-8.542
0
LINE
8
XSect
62
1
10
-9.586
20
-8.152
11
-9.65
21
-7.86
0
LINE
8
XSect
62
1
6
DASH
10
-9.586
20
-8.152
11
-9.942
21
-7.98
0
LINE
8
XSect
62
1
6
DASH
10
-9.586
20
-8.152
11
-11.748
21
-7.638
0
LINE
8
XSect
62
1
10
-9.586
20
-8.152
11
-12.15
21
-7.902
0
LINE
8
XSect
62
1
10
-9.586
20
-8.152
11
-11.212
21
-8.31
0
LINE
8
XSect
62
1
10
-9.586
20
-8.152
11
-13.178
21
-8.318
0
LINE
8
XSect
62
1
10
-9.586
20
-8.152
11
-14.042
21
-8.504
0
LINE
8
Shots
62
1
10
-0.742
20
-7.728
11
-6.258
21
-7.752
0
CIRCLE
8
Shots
62
1
10
-6.258
20
-7.752
40
0.1
0
LINE
8
XSect
62
1
10
-6.258
20
-7.752
11
-6.206
21
-8.332
0
LINE
8
XSect
62
1
6
DASH
10
-6.258
20
-7.752
11
-6.25
21
-7.95
0
LINE
8
XSect
62
1
6
DASH
10
-6.258
20
-7.752
11
-6.048
21
-7.838
0
LINE
8
XSect
62
1
10
-6.258
20
-7.752
11
-8.592
21
-8.066
0
LINE
8
XSect
62
1
10
-6.258
20
-7.752
11
-8.622
21
-7.97
0
LINE
8
XSect
62
1
10
-6.258
20
-7.752
11
-8.66
21
-8.536
0
LINE
8
Shots
62
1
10
6.6
20
-8.116
11
-0.742
21
-7.728
0
CIRCLE
8
Shots
62
1
10
-0.742
20
-7.728
40
0.1
0
LINE
8
XSect
62
1
6
DASH
10
-0.742
20
-7.728
11
-0.87
21
-7.808
0
LINE
8
XSect
62
1
10
-0.742
20
-7.728
11
-0.75
21
-8.118
0
LINE
8
XSect
62
1
10
-0.742
20
-7.728
11
-0.896
21
-7.434
0
LINE
8
XSect
62
1
6
DASH
10
-0.742
20
-7.728
11
-2.398
21
-6.534
0
LINE
8
XSect
62
1
10
-0.742
20
-7.728
11
-4.454
21
-7.868
0
LINE
8
XSect
62
1
10
-0.742
20
-7.728
11
-4.742
21
-8.26
0
LINE
8
XSect
62
1
10
-0.742
20
-7.728
11
-5.406
21
-7.618
0
LINE
8
XSect
62
1
10
-0.742
20
-7.728
11
-6.178
21
-8.136
0
LINE
8
Shots
62
1
10
15.562
20
-6.422
11
6.6
21
-8.116
0
CIRCLE
8
Shots
62
1
10
6.6
20
-8.116
40
0.1
0
LINE
8
XSect
62
1
10
6.6
20
-8.116
11
6.522
21
-8.438
0
LINE
8
XSect
62
1
10
6.6
20
-8.116
11
6.478
21
-7.126
0
LINE
8
XSect
62
1
6
DASH
10
6.6
20
-8.116
11
8.242
21
-7.148
0
LINE
8
XSect
62
1
6
DASH
10
6.6
20
-8.116
11
6.8
21
-7.21
0
LINE
8
XSect
62
1
6
DASH
10
6.6
20
-8.116
11
5.294
21
-6.946
0
LINE
8
XSect
62
1
10
6.6
20
-8.116
11
1.77
21
-6.588
0
LINE
8
XSect
62
1
10
6.6
20
-8.116
11
2.286
21
-7.07
0
LINE
8
XSect
62
1
10
6.6
20
-8.116
11
1.562
21
-7.392
0
LINE
8
XSect
62
1
10
6.6
20
-8.116
11
10.226
21
-7.288
0
LINE
8
XSect
62
1
10
6.6
20
-8.116
11
12.438
21
-7.47
0
LINE
8
XSect
62
1
6
DASH
10
6.6
20
-8.116
11
5.794
21
-7.816
0
LINE
8
XSect
62
1
10
6.6
20
-8.116
11
3.332
21
-7.992
0
LINE
8
XSect
62
1
10
6.6
20
-8.116
11
1.196
21
-7.926
0
LINE
8
Shots
62
1
10
15.562
20
-6.422
11
15.562
21
-6.422
0
CIRCLE
8
Shots
62
1
10
15.562
20
-6.422
40
0.1
0
LINE
8
XSect
62
1
6
DASH
10
15.562
20
-6.422
11
14.65
21
-6.38
0
LINE
8
XSect
62
1
10
15.562
20
-6.422
11
13.556
21
-6.766
0
LINE
8
XSect
62
1
10
15.562
20
-6.422
11
11.166
21
-7.298
0
LINE
8
Shots
62
1
10
15.562
20
-6.422
11
21.08
21
-5.776
0
CIRCLE
8
Shots
62
1
10
21.08
20
-5.776
40
0.1
0
LINE
8
XSect
62
1
10
21.08
20
-5.776
11
20.882
21
-6.708
0
LINE
8
XSect
62
1
10
21.08
20
-5.776
11
21.732
21
-5.848
0
LINE
8
XSect
62
1
6
DASH
10
21.08
20
-5.776
11
21.458
21
-5.878
0
LINE
8
XSect
62
1
10
21.08
20
-5.776
11
22.374
21
-5.808
0
LINE
8
XSect
62
1
10
21.08
20
-5.776
11
23.334
21
-5.842
0
LINE
8
XSect
62
1
10
21.08
20
-5.776
11
25.484
21
-5.718
0
LINE
8
XSect
62
1
10
21.08
20
-5.776
11
26.18
21
-5.686
0
LINE
8
XSect
62
1
10
21.08
20
-5.776
11
26.054
21
-5.728
0
LINE
8
XSect
62
1
10
21.08
20
-5.776
11
26.044
21
-5.776
0
LINE
8
XSect
62
1
10
21.08
20
-5.776
11
24.37
21
-5.74
0
LINE
8
XSect
62
1
10
21.08
20
-5.776
11
22.676
21
-6.832
0
LINE
8
XSect
62
1
10
21.08
20
-5.776
11
25.572
21
-5.782
0
LINE
8
Shots
62
1
10
14.126
20
-1.206
11
15.562
21
-6.422
0
CIRCLE
8
Shots
62
1
10
15.562
20
-6.422
40
0.1
0
LINE
8
XSect
62
1
6
DASH
10
15.562
20
-6.422
11
16.258
21
-6.068
0
LINE
8
XSect
62
1
10
15.562
20
-6.422
11
15.062
21
-6.044
0
LINE
8
XSect
62
1
10
15.562
20
-6.422
11
15.782
21
-5.878
0
LINE
8
XSect
62
1
10
15.562
20
-6.422
11
15.622
21
-5.144
0
LINE
8
XSect
62
1
10
15.562
20
-6.422
11
22.698
21
-1.38
0
LINE
8
XSect
62
1
10
15.562
20
-6.422
11
22.764
21
-2.956
0
LINE
8
XSect
62
1
10
15.562
20
-6.422
11
20.042
21
-3.824
0
LINE
8
Shots
62
1
10
12.572
20
-1.338
11
14.126
21
-1.206
0
CIRCLE
8
Shots
62
1
10
14.126
20
-1.206
40
0.1
0
LINE
8
XSect
62
1
10
14.126
20
-1.206
11
14.15
21
-2.616
0
LINE
8
XSect
62
1
10
14.126
20
-1.206
11
14.688
21
-1.154
0
LINE
8
XSect
62
1
10
14.126
20
-1.206
11
14.212
21
-0.672
0
LINE
8
XSect
62
1
6
DASH
10
14.126
20
-1.206
11
15.64
21
-3.956
0
LINE
8
XSect
62
1
6
DASH
10
14.126
20
-1.206
11
15.01
21
-3.59
0
LINE
8
XSect
62
1
6
DASH
10
14.126
20
-1.206
11
15.498
21
-4.55
0
LINE
8
Shots
62
1
10
5.836
20
-0.932
11
12.572
21
-1.338
0
CIRCLE
8
Shots
62
1
10
12.572
20
-1.338
40
0.1
0
LINE
8
XSect
62
1
10
12.572
20
-1.338
11
12.604
21
-0.746
0
LINE
8
XSect
62
1
10
12.572
20
-1.338
11
13.038
21
-2.89
0
LINE
8
XSect
62
1
6
DASH
10
12.572
20
-1.338
11
12.92
21
-1.476
0
LINE
8
XSect
62
1
10
12.572
20
-1.338
11
11.212
21
-0.862
0
LINE
8
XSect
62
1
10
12.572
20
-1.338
11
14.768
21
-1.37
0
LINE
8
Shots
62
1
10
0
20
0
11
5.836
21
-0.932
0
CIRCLE
8
Shots
62
1
10
5.836
20
-0.932
40
0.1
0
LINE
8
XSect
62
1
10
5.836
20
-0.932
11
5.986
21
-1.974
0
LINE
8
XSect
62
1
10
5.836
20
-0.932
11
5.864
21
-1.86
0
LINE
8
XSect
62
1
6
DASH
10
5.836
20
-0.932
11
6.112
21
-1.5
0
LINE
8
XSect
62
1
10
5.836
20
-0.932
11
3.938
21
-1.738
0
LINE
8
XSect
62
1
10
5.836
20
-0.932
11
3.164
21
-1.59
0
LINE
8
XSect
62
1
10
5.836
20
-0.932
11
3.494
21
-1.532
0
LINE
8
XSect
62
1
10
5.836
20
-0.932
11
4.868
21
-1.518
0
LINE
8
XSect
62
1
10
5.836
20
-0.932
11
7.138
21
-1.412
0
LINE
8
XSect
62
1
10
5.836
20
-0.932
11
8.088
21
-2.156
0
LINE
8
XSect
62
1
10
5.836
20
-0.932
11
8.234
21
-1.72
0
LINE
8
XSect
62
1
10
5.836
20
-0.932
11
8.732
21
-1.918
0
LINE
8
XSect
62
1
10
5.836
20
-0.932
11
9.782
21
-1.686
0
LINE
8
XSect
62
1
10
5.836
20
-0.932
11
10.26
21
-1.45
0
LINE
8
XSect
62
1
10
5.836
20
-0.932
11
12.574
21
-1.346
0
LINE
8
XSect
62
1
10
5.836
20
-0.932
11
13.188
21
-1.406
0
LINE
8
Shots
62
1
10
0
20
0
11
5.832
21
-0.936
0
CIRCLE
8
Shots
62
1
10
5.832
20
-0.936
40
0.1
0
LINE
8
XSect
62
1
6
DASH
10
0
20
0
11
0.856
21
-0.534
0
LINE
8
XSect
62
1
10
0
20
0
11
2.02
21
-0.304
0
LINE
8
XSect
62
1
10
0
20
0
11
2.342
21
-1.796
0
LINE
8
XSect
62
1
10
0
20
0
11
0.072
21
-1.34
0
LINE
8
XSect
62
1
10
0
20
0
11
0.31
21
-1.396
0
LINE
8
XSect
62
1
10
0
20
0
11
4.618
21
-1.888
0
ENDSEC
0
EOF
