0
SECTION
2
HEADER
9
$ACADVER
1
AC1002
9
$INSUNITS
70
4
0
ENDSEC
0
SECTION
2
TABLES
0
TABLE
2
LTYPE
70
1
0
LTYPE
2
DASH
70
0
3
---
72
65
73
2
40
0.6
49
0.3
49
-0.3
0
ENDTAB
0
ENDSEC
0
SECTION
2
ENTITIES
0
POLYLINE
66
1
8
Sketch
62
0
0
VERTEX
8
Sketch
10
130.02
20
-22.264
0
VERTEX
8
Sketch
10
130.42
20
-22.584
0
VERTEX
8
Sketch
10
131.46
20
-23.064
0
VERTEX
8
Sketch
10
131.62
20
-22.984
0
VERTEX
8
Sketch
10
132.18
20
-23.224
0
VERTEX
8
Sketch
10
132.5
20
-23.544
0
VERTEX
8
Sketch
10
131.78
20
-23.224
0
VERTEX
8
Sketch
10
131.06
20
-22.904
0
VERTEX
8
Sketch
10
129.94
20
-22.104
0
SEQEND
0
POLYLINE
66
1
8
Sketch
62
0
0
VERTEX
8
Sketch
10
131.46
20
-19.624
0
VERTEX
8
Sketch
10
131.62
20
-19.624
0
VERTEX
8
Sketch
10
131.94
20
-19.944
0
VERTEX
8
Sketch
10
132.02
20
-20.184
0
VERTEX
8
Sketch
10
132.5
20
-20.584
0
VERTEX
8
Sketch
10
132.5
20
-20.744
0
VERTEX
8
Sketch
10
132.66
20
-20.744
0
VERTEX
8
Sketch
10
133.06
20
-20.984
0
SEQEND
0
POLYLINE
66
1
8
Sketch
62
0
0
VERTEX
8
Sketch
10
131.86
20
-23.304
0
VERTEX
8
Sketch
10
132.18
20
-23.304
0
VERTEX
8
Sketch
10
132.34
20
-23.224
0
VERTEX
8
Sketch
10
132.5
20
-23.464
0
VERTEX
8
Sketch
10
132.66
20
-23.224
0
SEQEND
0
POLYLINE
66
1
8
Sketch
62
0
0
VERTEX
8
Sketch
10
129.38
20
-20.824
0
VERTEX
8
Sketch
10
129.54
20
-21.384
0
VERTEX
8
Sketch
10
129.54
20
-21.704
0
VERTEX
8
Sketch
10
129.7
20
-22.104
0
VERTEX
8
Sketch
10
129.86
20
-22.264
0
VERTEX
8
Sketch
10
129.86
20
-22.424
0
VERTEX
8
Sketch
10
130.34
20
-23.064
0
VERTEX
8
Sketch
10
131.06
20
-23.304
0
VERTEX
8
Sketch
10
131.22
20
-23.464
0
VERTEX
8
Sketch
10
131.78
20
-23.464
0
SEQEND
0
POLYLINE
66
1
8
Sketch
62
0
0
VERTEX
8
Sketch
10
129.46
20
-19.304
0
VERTEX
8
Sketch
10
129.38
20
-19.864
0
VERTEX
8
Sketch
10
129.22
20
-20.584
0
VERTEX
8
Sketch
10
129.22
20
-21.544
0
SEQEND
0
POLYLINE
66
1
8
Sketch
62
0
0
VERTEX
8
Sketch
10
133.14
20
-20.504
0
VERTEX
8
Sketch
10
132.98
20
-21.144
0
SEQEND
0
POLYLINE
66
1
8
Sketch
62
0
0
VERTEX
8
Sketch
10
135.3
20
-21.064
0
VERTEX
8
Sketch
10
136.1
20
-21.624
0
SEQEND
0
POLYLINE
66
1
8
Sketch
62
0
0
VERTEX
8
Sketch
10
136.34
20
-21.464
0
VERTEX
8
Sketch
10
136.82
20
-21.624
0
VERTEX
8
Sketch
10
137.22
20
-21.704
0
VERTEX
8
Sketch
10
137.54
20
-21.864
0
VERTEX
8
Sketch
10
137.94
20
-21.864
0
VERTEX
8
Sketch
10
138.42
20
-22.104
0
SEQEND
0
POLYLINE
66
1
8
Sketch
62
0
0
VERTEX
8
Sketch
10
133.46
20
-18.264
0
VERTEX
8
Sketch
10
133.54
20
-18.664
0
VERTEX
8
Sketch
10
134.58
20
-20.264
0
VERTEX
8
Sketch
10
135.7
20
-21.064
0
SEQEND
0
POLYLINE
66
1
8
Sketch
62
0
0
VERTEX
8
Sketch
10
133.14
20
-20.904
0
VERTEX
8
Sketch
10
132.98
20
-20.584
0
VERTEX
8
Sketch
10
133.06
20
-20.104
0
VERTEX
8
Sketch
10
133.06
20
-19.304
0
VERTEX
8
Sketch
10
133.14
20
-18.904
0
VERTEX
8
Sketch
10
133.14
20
-18.184
0
SEQEND
0
POLYLINE
66
1
8
Sketch
62
0
0
VERTEX
8
Sketch
10
132.18
20
-23.384
0
VERTEX
8
Sketch
10
132.42
20
-24.184
0
VERTEX
8
Sketch
10
132.58
20
-25.144
0
VERTEX
8
Sketch
10
132.58
20
-26.104
0
VERTEX
8
Sketch
10
132.5
20
-26.824
0
SEQEND
0
POLYLINE
66
1
8
Sketch
62
0
0
VERTEX
8
Sketch
10
136.18
20
-36.184
0
VERTEX
8
Sketch
10
136.42
20
-36.744
0
VERTEX
8
Sketch
10
136.82
20
-37.944
0
VERTEX
8
Sketch
10
136.82
20
-38.264
0
VERTEX
8
Sketch
10
137.06
20
-38.744
0
VERTEX
8
Sketch
10
137.14
20
-39.064
0
VERTEX
8
Sketch
10
137.22
20
-39.224
0
SEQEND
0
POLYLINE
66
1
8
Sketch
62
0
0
VERTEX
8
Sketch
10
133.14
20
-28.344
0
VERTEX
8
Sketch
10
133.3
20
-28.824
0
VERTEX
8
Sketch
10
133.54
20
-29.224
0
VERTEX
8
Sketch
10
134.18
20
-31.224
0
VERTEX
8
Sketch
10
134.26
20
-31.704
0
VERTEX
8
Sketch
10
134.82
20
-33.304
0
VERTEX
8
Sketch
10
135.06
20
-33.864
0
VERTEX
8
Sketch
10
135.38
20
-34.184
0
VERTEX
8
Sketch
10
135.38
20
-34.344
0
VERTEX
8
Sketch
10
136.02
20
-35.544
0
VERTEX
8
Sketch
10
136.26
20
-36.664
0
SEQEND
0
POLYLINE
66
1
8
Sketch
62
0
0
VERTEX
8
Sketch
10
132.18
20
-26.184
0
VERTEX
8
Sketch
10
131.94
20
-26.664
0
VERTEX
8
Sketch
10
131.94
20
-27.144
0
VERTEX
8
Sketch
10
132.18
20
-27.944
0
VERTEX
8
Sketch
10
132.42
20
-28.504
0
VERTEX
8
Sketch
10
132.74
20
-28.904
0
VERTEX
8
Sketch
10
132.98
20
-29.864
0
VERTEX
8
Sketch
10
133.14
20
-30.024
0
VERTEX
8
Sketch
10
133.94
20
-32.264
0
SEQEND
0
POLYLINE
66
1
8
Sketch
62
0
0
VERTEX
8
Sketch
10
134.9
20
-34.504
0
VERTEX
8
Sketch
10
134.5
20
-33.864
0
VERTEX
8
Sketch
10
133.46
20
-32.024
0
VERTEX
8
Sketch
10
133.06
20
-31.064
0
VERTEX
8
Sketch
10
132.98
20
-30.664
0
VERTEX
8
Sketch
10
132.82
20
-30.184
0
SEQEND
0
POLYLINE
66
1
8
Sketch
62
0
0
VERTEX
8
Sketch
10
134.74
20
-34.664
0
VERTEX
8
Sketch
10
134.82
20
-35.224
0
VERTEX
8
Sketch
10
134.82
20
-35.464
0
VERTEX
8
Sketch
10
134.98
20
-36.104
0
VERTEX
8
Sketch
10
135.54
20
-36.664
0
VERTEX
8
Sketch
10
135.78
20
-37.304
0
VERTEX
8
Sketch
10
136.02
20
-37.704
0
VERTEX
8
Sketch
10
136.18
20
-38.264
0
VERTEX
8
Sketch
10
136.58
20
-38.984
0
VERTEX
8
Sketch
10
136.66
20
-39.624
0
SEQEND
0
POLYLINE
66
1
8
Sketch
62
0
0
VERTEX
8
Sketch
10
138.66
20
-38.904
0
VERTEX
8
Sketch
10
138.34
20
-38.904
0
VERTEX
8
Sketch
10
137.78
20
-39.064
0
VERTEX
8
Sketch
10
137.62
20
-39.384
0
VERTEX
8
Sketch
10
137.46
20
-39.224
0
VERTEX
8
Sketch
10
136.58
20
-39.544
0
SEQEND
0
POLYLINE
66
1
8
Sketch
62
0
0
VERTEX
8
Sketch
10
140.9
20
-38.264
0
VERTEX
8
Sketch
10
140.5
20
-38.344
0
VERTEX
8
Sketch
10
138.74
20
-39.144
0
SEQEND
0
POLYLINE
66
1
8
Sketch
62
0
0
VERTEX
8
Sketch
10
140.66
20
-37.224
0
VERTEX
8
Sketch
10
140.98
20
-38.344
0
VERTEX
8
Sketch
10
141.14
20
-38.584
0
SEQEND
0
POLYLINE
66
1
8
Sketch
62
0
0
VERTEX
8
Sketch
10
139.38
20
-33.784
0
VERTEX
8
Sketch
10
139.86
20
-34.664
0
VERTEX
8
Sketch
10
140.18
20
-35.704
0
VERTEX
8
Sketch
10
140.26
20
-36.264
0
VERTEX
8
Sketch
10
140.5
20
-36.984
0
SEQEND
0
POLYLINE
66
1
8
Sketch
62
0
0
VERTEX
8
Sketch
10
138.26
20
-26.584
0
VERTEX
8
Sketch
10
138.5
20
-27.784
0
VERTEX
8
Sketch
10
138.5
20
-28.184
0
VERTEX
8
Sketch
10
138.82
20
-29.384
0
VERTEX
8
Sketch
10
138.82
20
-29.624
0
VERTEX
8
Sketch
10
138.98
20
-30.184
0
VERTEX
8
Sketch
10
138.98
20
-31.064
0
VERTEX
8
Sketch
10
139.46
20
-33.704
0
VERTEX
8
Sketch
10
139.54
20
-33.864
0
SEQEND
0
POLYLINE
66
1
8
Sketch
62
0
0
VERTEX
8
Sketch
10
138.1
20
-24.904
0
VERTEX
8
Sketch
10
138.02
20
-25.224
0
VERTEX
8
Sketch
10
138.02
20
-25.784
0
VERTEX
8
Sketch
10
138.18
20
-26.264
0
SEQEND
0
POINT
8
Sketch
62
0
10
148.74
20
-19.144
0
POINT
8
Sketch
62
0
10
148.1
20
-19.224
0
POINT
8
Sketch
62
0
10
147.62
20
-19.224
0
POINT
8
Sketch
62
0
10
148.26
20
-20.904
0
POINT
8
Sketch
62
0
10
147.46
20
-21.144
0
POLYLINE
66
1
8
Sketch
62
0
0
VERTEX
8
Sketch
10
134.42
20
-21.464
0
VERTEX
8
Sketch
10
136.1
20
-21.464
0
VERTEX
8
Sketch
10
136.34
20
-21.544
0
VERTEX
8
Sketch
10
137.06
20
-21.464
0
VERTEX
8
Sketch
10
137.54
20
-21.464
0
VERTEX
8
Sketch
10
138.02
20
-21.384
0
VERTEX
8
Sketch
10
138.42
20
-21.384
0
VERTEX
8
Sketch
10
138.82
20
-21.304
0
VERTEX
8
Sketch
10
139.38
20
-21.304
0
VERTEX
8
Sketch
10
140.5
20
-21.064
0
VERTEX
8
Sketch
10
140.82
20
-21.064
0
VERTEX
8
Sketch
10
141.3
20
-20.904
0
VERTEX
8
Sketch
10
141.78
20
-20.824
0
VERTEX
8
Sketch
10
142.5
20
-20.664
0
VERTEX
8
Sketch
10
143.78
20
-20.424
0
VERTEX
8
Sketch
10
144.26
20
-20.344
0
VERTEX
8
Sketch
10
145.46
20
-20.104
0
VERTEX
8
Sketch
10
145.78
20
-20.024
0
VERTEX
8
Sketch
10
145.78
20
-20.024
0
VERTEX
8
Sketch
10
146.66
20
-19.784
0
VERTEX
8
Sketch
10
147.06
20
-19.704
0
SEQEND
0
POLYLINE
66
1
8
Sketch
62
0
0
VERTEX
8
Sketch
10
138.34
20
-24.584
0
VERTEX
8
Sketch
10
138.66
20
-24.664
0
VERTEX
8
Sketch
10
139.3
20
-24.584
0
VERTEX
8
Sketch
10
142.26
20
-23.384
0
VERTEX
8
Sketch
10
142.42
20
-23.224
0
VERTEX
8
Sketch
10
142.58
20
-23.224
0
VERTEX
8
Sketch
10
144.26
20
-22.264
0
VERTEX
8
Sketch
10
144.58
20
-22.184
0
VERTEX
8
Sketch
10
145.78
20
-21.704
0
VERTEX
8
Sketch
10
146.18
20
-21.464
0
VERTEX
8
Sketch
10
146.9
20
-21.144
0
SEQEND
0
LINE
8
Shots
62
1
10
138.438
20
-22.338
11
143.728
21
-21.496
0
CIRCLE
8
Shots
62
1
10
143.728
20
-21.496
40
0.1
0
LINE
8
XSect
62
1
10
143.728
20
-21.496
11
143.67
21
-20.92
0
LINE
8
XSect
62
1
6
DASH
10
143.728
20
-21.496
11
143.278
21
-21.284
0
LINE
8
XSect
62
1
6
DASH
10
143.728
20
-21.496
11
143.294
21
-21.094
0
LINE
8
XSect
62
1
10
143.728
20
-21.496
11
143.864
21
-22.124
0
LINE
8
XSect
62
1
6
DASH
10
143.728
20
-21.496
11
147.122
21
-20.616
0
LINE
8
XSect
62
1
6
DASH
10
143.728
20
-21.496
11
144.43
21
-21.152
0
LINE
8
XSect
62
1
6
DASH
10
143.728
20
-21.496
11
146.398
21
-20.746
0
LINE
8
XSect
62
1
6
DASH
10
143.728
20
-21.496
11
146.1
21
-21.384
0
LINE
8
Shots
62
1
10
132.724
20
-22.212
11
138.438
21
-22.338
0
CIRCLE
8
Shots
62
1
10
138.438
20
-22.338
40
0.1
0
LINE
8
XSect
62
1
6
DASH
10
138.438
20
-22.338
11
138.834
21
-22.492
0
LINE
8
XSect
62
1
10
138.438
20
-22.338
11
138.75
21
-24.494
0
LINE
8
XSect
62
1
10
138.438
20
-22.338
11
138.522
21
-21.6
0
LINE
8
Shots
62
1
10
132.724
20
-22.212
11
132.724
21
-22.212
0
CIRCLE
8
Shots
62
1
10
132.724
20
-22.212
40
0.1
0
LINE
8
Shots
62
1
10
135.212
20
-26.472
11
139.082
21
-35.556
0
CIRCLE
8
Shots
62
1
10
139.082
20
-35.556
40
0.1
0
LINE
8
XSect
62
1
10
139.082
20
-35.556
11
134.59
21
-35.14
0
LINE
8
XSect
62
1
10
139.082
20
-35.556
11
136.01
21
-35.202
0
LINE
8
XSect
62
1
6
DASH
10
139.082
20
-35.556
11
137.65
21
-34.904
0
LINE
8
XSect
62
1
10
139.082
20
-35.556
11
134.396
21
-39.182
0
LINE
8
XSect
62
1
10
139.082
20
-35.556
11
136.418
21
-38.406
0
LINE
8
XSect
62
1
10
139.082
20
-35.556
11
138.652
21
-37.976
0
LINE
8
XSect
62
1
6
DASH
10
139.082
20
-35.556
11
139.23
21
-37.822
0
LINE
8
XSect
62
1
10
139.082
20
-35.556
11
140.74
21
-37.952
0
LINE
8
Shots
62
1
10
132.724
20
-22.212
11
135.212
21
-26.472
0
CIRCLE
8
Shots
62
1
10
135.212
20
-26.472
40
0.1
0
LINE
8
XSect
62
1
6
DASH
10
135.212
20
-26.472
11
137.614
21
-26.326
0
LINE
8
XSect
62
1
6
DASH
10
135.212
20
-26.472
11
135.35
21
-26.608
0
LINE
8
XSect
62
1
6
DASH
10
135.212
20
-26.472
11
133.716
21
-26.286
0
LINE
8
XSect
62
1
10
135.212
20
-26.472
11
132.294
21
-26.5
0
LINE
8
XSect
62
1
10
135.212
20
-26.472
11
133.464
21
-26.362
0
LINE
8
Shots
62
1
10
129.272
20
-19.256
11
132.724
21
-22.212
0
CIRCLE
8
Shots
62
1
10
132.724
20
-22.212
40
0.1
0
LINE
8
XSect
62
1
6
DASH
10
132.724
20
-22.212
11
134.046
21
-23.546
0
LINE
8
XSect
62
1
10
132.724
20
-22.212
11
138.05
21
-23.29
0
LINE
8
XSect
62
1
10
132.724
20
-22.212
11
135.846
21
-23.358
0
LINE
8
XSect
62
1
10
132.724
20
-22.212
11
140.128
21
-22.486
0
LINE
8
XSect
62
1
10
132.724
20
-22.212
11
134.198
21
-21.432
0
LINE
8
XSect
62
1
10
132.724
20
-22.212
11
137.204
21
-29.924
0
LINE
8
XSect
62
1
10
132.724
20
-22.212
11
135.19
21
-26.476
0
LINE
8
XSect
62
1
10
132.724
20
-22.212
11
135.302
21
-26.67
0
LINE
8
Shots
62
1
10
129.272
20
-19.256
11
129.272
21
-19.256
0
CIRCLE
8
Shots
62
1
10
129.272
20
-19.256
40
0.1
0
ENDSEC
0
EOF
