0
SECTION
2
HEADER
9
$ACADVER
1
AC1002
9
$INSUNITS
70
4
0
ENDSEC
0
SECTION
2
TABLES
0
TABLE
2
LTYPE
70
1
0
LTYPE
2
DASH
70
0
3
---
72
65
73
2
40
0.6
49
0.3
49
-0.3
0
ENDTAB
0
ENDSEC
0
SECTION
2
ENTITIES
0
POLYLINE
66
1
8
Sketch
62
32
0
VERTEX
8
Sketch
10
-100.372
20
15.82
0
VERTEX
8
Sketch
10
-100.532
20
15.66
0
VERTEX
8
Sketch
10
-100.692
20
15.02
0
VERTEX
8
Sketch
10
-100.772
20
14.62
0
VERTEX
8
Sketch
10
-100.772
20
14.3
0
VERTEX
8
Sketch
10
-100.852
20
13.9
0
VERTEX
8
Sketch
10
-100.932
20
13.58
0
VERTEX
8
Sketch
10
-101.012
20
12.86
0
VERTEX
8
Sketch
10
-101.012
20
11.74
0
VERTEX
8
Sketch
10
-100.772
20
10.86
0
VERTEX
8
Sketch
10
-100.772
20
10.62
0
VERTEX
8
Sketch
10
-100.532
20
9.66
0
VERTEX
8
Sketch
10
-100.052
20
8.54
0
VERTEX
8
Sketch
10
-99.972
20
8.14
0
VERTEX
8
Sketch
10
-99.812
20
7.66
0
SEQEND
0
POLYLINE
66
1
8
Sketch
62
0
0
VERTEX
8
Sketch
10
-97.812
20
7.58
0
VERTEX
8
Sketch
10
-97.812
20
7.1
0
VERTEX
8
Sketch
10
-97.892
20
6.94
0
VERTEX
8
Sketch
10
-97.892
20
4.86
0
VERTEX
8
Sketch
10
-97.492
20
2.3
0
VERTEX
8
Sketch
10
-97.492
20
1.98
0
VERTEX
8
Sketch
10
-97.412
20
1.66
0
VERTEX
8
Sketch
10
-97.412
20
1.34
0
VERTEX
8
Sketch
10
-97.332
20
1.02
0
VERTEX
8
Sketch
10
-97.332
20
0.62
0
VERTEX
8
Sketch
10
-97.412
20
0.38
0
VERTEX
8
Sketch
10
-97.332
20
0.06
0
VERTEX
8
Sketch
10
-97.012
20
0.06
0
VERTEX
8
Sketch
10
-96.372
20
0.7
0
VERTEX
8
Sketch
10
-95.972
20
1.42
0
VERTEX
8
Sketch
10
-95.732
20
2.78
0
VERTEX
8
Sketch
10
-95.572
20
3.82
0
VERTEX
8
Sketch
10
-95.412
20
4.06
0
SEQEND
0
POLYLINE
66
1
8
Sketch
62
0
0
VERTEX
8
Sketch
10
-95.652
20
9.82
0
VERTEX
8
Sketch
10
-95.652
20
6.94
0
VERTEX
8
Sketch
10
-95.732
20
6.46
0
VERTEX
8
Sketch
10
-95.732
20
5.98
0
VERTEX
8
Sketch
10
-95.812
20
5.66
0
VERTEX
8
Sketch
10
-95.812
20
4.78
0
VERTEX
8
Sketch
10
-95.892
20
4.62
0
VERTEX
8
Sketch
10
-95.812
20
4.46
0
VERTEX
8
Sketch
10
-95.892
20
4.06
0
VERTEX
8
Sketch
10
-95.892
20
3.58
0
VERTEX
8
Sketch
10
-95.972
20
3.18
0
VERTEX
8
Sketch
10
-95.972
20
2.78
0
VERTEX
8
Sketch
10
-96.132
20
1.82
0
VERTEX
8
Sketch
10
-96.132
20
1.66
0
SEQEND
0
POLYLINE
66
1
8
Sketch
62
0
0
VERTEX
8
Sketch
10
-91.972
20
17.18
0
VERTEX
8
Sketch
10
-91.652
20
17.42
0
VERTEX
8
Sketch
10
-91.252
20
17.66
0
SEQEND
0
POLYLINE
66
1
8
Sketch
62
0
0
VERTEX
8
Sketch
10
-93.332
20
18.14
0
VERTEX
8
Sketch
10
-92.692
20
18.62
0
SEQEND
0
POLYLINE
66
1
8
Sketch
62
0
0
VERTEX
8
Sketch
10
-95.252
20
16.62
0
VERTEX
8
Sketch
10
-94.692
20
17.02
0
SEQEND
0
POLYLINE
66
1
8
Sketch
62
0
0
VERTEX
8
Sketch
10
-93.252
20
15.5
0
VERTEX
8
Sketch
10
-92.852
20
16.14
0
SEQEND
0
POLYLINE
66
1
8
Sketch
62
0
0
VERTEX
8
Sketch
10
-94.372
20
14.3
0
VERTEX
8
Sketch
10
-94.212
20
14.7
0
VERTEX
8
Sketch
10
-94.052
20
14.78
0
SEQEND
0
POLYLINE
66
1
8
Sketch
62
0
0
VERTEX
8
Sketch
10
-95.572
20
12.7
0
VERTEX
8
Sketch
10
-95.172
20
12.94
0
VERTEX
8
Sketch
10
-94.932
20
13.42
0
SEQEND
0
POLYLINE
66
1
8
Sketch
62
0
0
VERTEX
8
Sketch
10
-97.012
20
12.94
0
VERTEX
8
Sketch
10
-96.132
20
14.54
0
VERTEX
8
Sketch
10
-95.412
20
15.5
0
SEQEND
0
POLYLINE
66
1
8
Sketch
62
0
0
VERTEX
8
Sketch
10
-97.892
20
15.26
0
VERTEX
8
Sketch
10
-97.892
20
14.86
0
VERTEX
8
Sketch
10
-97.652
20
14.14
0
VERTEX
8
Sketch
10
-97.652
20
13.9
0
VERTEX
8
Sketch
10
-97.252
20
12.94
0
VERTEX
8
Sketch
10
-97.252
20
12.3
0
VERTEX
8
Sketch
10
-97.172
20
12.06
0
SEQEND
0
POLYLINE
66
1
8
Sketch
62
0
0
VERTEX
8
Sketch
10
-99.092
20
16.14
0
VERTEX
8
Sketch
10
-99.812
20
15.98
0
VERTEX
8
Sketch
10
-99.972
20
15.9
0
VERTEX
8
Sketch
10
-100.372
20
15.98
0
VERTEX
8
Sketch
10
-100.532
20
16.14
0
VERTEX
8
Sketch
10
-100.932
20
16.14
0
VERTEX
8
Sketch
10
-101.092
20
16.06
0
SEQEND
0
POLYLINE
66
1
8
Sketch
62
0
0
VERTEX
8
Sketch
10
-97.412
20
19.5
0
VERTEX
8
Sketch
10
-97.892
20
18.94
0
VERTEX
8
Sketch
10
-97.972
20
18.62
0
VERTEX
8
Sketch
10
-98.212
20
18.38
0
VERTEX
8
Sketch
10
-98.452
20
17.98
0
VERTEX
8
Sketch
10
-98.452
20
17.82
0
VERTEX
8
Sketch
10
-98.692
20
17.42
0
VERTEX
8
Sketch
10
-99.172
20
15.98
0
VERTEX
8
Sketch
10
-99.172
20
15.66
0
SEQEND
0
POLYLINE
66
1
8
Sketch
62
0
0
VERTEX
8
Sketch
10
-96.052
20
17.02
0
VERTEX
8
Sketch
10
-96.532
20
16.3
0
VERTEX
8
Sketch
10
-97.012
20
15.9
0
VERTEX
8
Sketch
10
-97.172
20
15.9
0
VERTEX
8
Sketch
10
-98.212
20
14.86
0
VERTEX
8
Sketch
10
-98.212
20
14.46
0
SEQEND
0
POLYLINE
66
1
8
Sketch
62
0
0
VERTEX
8
Sketch
10
-97.412
20
19.18
0
VERTEX
8
Sketch
10
-96.372
20
18.3
0
VERTEX
8
Sketch
10
-96.212
20
18.22
0
VERTEX
8
Sketch
10
-96.212
20
17.82
0
VERTEX
8
Sketch
10
-95.972
20
17.5
0
VERTEX
8
Sketch
10
-96.132
20
16.86
0
SEQEND
0
POLYLINE
66
1
8
Sketch
62
0
0
VERTEX
8
Sketch
10
-96.772
20
8.62
0
VERTEX
8
Sketch
10
-97.012
20
8.22
0
VERTEX
8
Sketch
10
-98.212
20
7.42
0
VERTEX
8
Sketch
10
-98.692
20
7.34
0
VERTEX
8
Sketch
10
-98.852
20
7.34
0
VERTEX
8
Sketch
10
-99.012
20
7.18
0
VERTEX
8
Sketch
10
-99.252
20
7.18
0
VERTEX
8
Sketch
10
-99.572
20
7.1
0
VERTEX
8
Sketch
10
-99.732
20
7.1
0
SEQEND
0
POLYLINE
66
1
8
Sketch
62
0
0
VERTEX
8
Sketch
10
-102.932
20
11.1
0
VERTEX
8
Sketch
10
-103.012
20
10.7
0
VERTEX
8
Sketch
10
-102.772
20
10.3
0
VERTEX
8
Sketch
10
-102.772
20
10.3
0
VERTEX
8
Sketch
10
-102.292
20
9.34
0
VERTEX
8
Sketch
10
-101.012
20
8.06
0
VERTEX
8
Sketch
10
-100.452
20
7.74
0
VERTEX
8
Sketch
10
-99.972
20
7.66
0
VERTEX
8
Sketch
10
-99.812
20
7.42
0
VERTEX
8
Sketch
10
-99.652
20
7.42
0
SEQEND
0
POLYLINE
66
1
8
Sketch
62
0
0
VERTEX
8
Sketch
10
-101.012
20
15.9
0
VERTEX
8
Sketch
10
-101.252
20
15.9
0
VERTEX
8
Sketch
10
-102.132
20
15.02
0
VERTEX
8
Sketch
10
-102.772
20
13.74
0
VERTEX
8
Sketch
10
-103.012
20
13.34
0
VERTEX
8
Sketch
10
-103.252
20
12.62
0
VERTEX
8
Sketch
10
-103.252
20
11.18
0
VERTEX
8
Sketch
10
-103.092
20
10.94
0
SEQEND
0
POLYLINE
66
1
8
Sketch
62
0
0
VERTEX
8
Sketch
10
-96.692
20
9.18
0
VERTEX
8
Sketch
10
-97.012
20
8.86
0
VERTEX
8
Sketch
10
-97.172
20
8.46
0
VERTEX
8
Sketch
10
-97.332
20
8.3
0
SEQEND
0
POLYLINE
66
1
8
Sketch
62
0
0
VERTEX
8
Sketch
10
-95.572
20
12.54
0
VERTEX
8
Sketch
10
-95.412
20
12.06
0
VERTEX
8
Sketch
10
-95.412
20
11.66
0
VERTEX
8
Sketch
10
-95.652
20
10.86
0
VERTEX
8
Sketch
10
-95.652
20
10.54
0
VERTEX
8
Sketch
10
-96.052
20
10.06
0
VERTEX
8
Sketch
10
-96.132
20
9.74
0
SEQEND
0
LINE
8
Shots
62
1
10
-100.434
20
10.22
11
-96.432
21
6.76
0
CIRCLE
8
Shots
62
1
10
-96.432
20
6.76
40
0.1
0
LINE
8
XSect
62
1
6
DASH
10
-96.432
20
6.76
11
-96.438
21
6.84
0
LINE
8
XSect
62
1
10
-96.432
20
6.76
11
-97.346
21
6.39
0
LINE
8
XSect
62
1
10
-96.432
20
6.76
11
-97.272
21
6.454
0
LINE
8
XSect
62
1
6
DASH
10
-96.432
20
6.76
11
-96.27
21
6.74
0
LINE
8
XSect
62
1
10
-96.432
20
6.76
11
-96.4
21
1.61
0
LINE
8
XSect
62
1
10
-96.432
20
6.76
11
-97.512
21
4.44
0
LINE
8
XSect
62
1
10
-96.432
20
6.76
11
-97.172
21
1.826
0
LINE
8
XSect
62
1
10
-96.432
20
6.76
11
-96.532
21
3.02
0
LINE
8
Shots
62
1
10
-98.648
20
15.646
11
-100.434
21
10.22
0
CIRCLE
8
Shots
62
1
10
-100.434
20
10.22
40
0.1
0
LINE
8
XSect
62
1
10
-100.434
20
10.22
11
-98.49
21
10.536
0
LINE
8
XSect
62
1
6
DASH
10
-100.434
20
10.22
11
-100.216
21
9.994
0
LINE
8
XSect
62
1
6
DASH
10
-100.434
20
10.22
11
-100.404
21
10.124
0
LINE
8
Shots
62
1
10
-98.648
20
15.646
11
-98.648
21
15.646
0
CIRCLE
8
Shots
62
1
10
-98.648
20
15.646
40
0.1
0
LINE
8
Shots
62
1
10
-99.572
20
13.338
11
-98.43
21
9.64
0
CIRCLE
8
Shots
62
1
10
-98.43
20
9.64
40
0.1
0
LINE
8
XSect
62
1
10
-98.43
20
9.64
11
-95.95
21
15.104
0
LINE
8
XSect
62
1
10
-98.43
20
9.64
11
-98.418
21
12.858
0
LINE
8
XSect
62
1
10
-98.43
20
9.64
11
-96.004
21
11.886
0
LINE
8
XSect
62
1
10
-98.43
20
9.64
11
-94.202
21
15.848
0
LINE
8
XSect
62
1
10
-98.43
20
9.64
11
-95.984
21
13.182
0
LINE
8
XSect
62
1
6
DASH
10
-98.43
20
9.64
11
-97.646
21
10.33
0
LINE
8
XSect
62
1
10
-98.43
20
9.64
11
-96.01
21
10.23
0
LINE
8
XSect
62
1
6
DASH
10
-98.43
20
9.64
11
-96.888
21
8.38
0
LINE
8
Shots
62
1
10
-98.648
20
15.646
11
-99.572
21
13.338
0
CIRCLE
8
Shots
62
1
10
-99.572
20
13.338
40
0.1
0
LINE
8
XSect
62
1
10
-99.572
20
13.338
11
-103.094
21
10.66
0
LINE
8
XSect
62
1
10
-99.572
20
13.338
11
-103.102
21
13.332
0
LINE
8
XSect
62
1
10
-99.572
20
13.338
11
-102.156
21
15.218
0
LINE
8
XSect
62
1
10
-99.572
20
13.338
11
-99.318
21
16.386
0
LINE
8
XSect
62
1
10
-99.572
20
13.338
11
-98.964
21
14.976
0
LINE
8
Shots
62
1
10
-96.796
20
18.558
11
-98.648
21
15.646
0
CIRCLE
8
Shots
62
1
10
-98.648
20
15.646
40
0.1
0
LINE
8
XSect
62
1
10
-98.648
20
15.646
11
-101.356
21
15.444
0
LINE
8
XSect
62
1
10
-98.648
20
15.646
11
-101.918
21
11.23
0
LINE
8
XSect
62
1
10
-98.648
20
15.646
11
-97.284
21
11.714
0
LINE
8
XSect
62
1
10
-98.648
20
15.646
11
-99.108
21
7.832
0
LINE
8
XSect
62
1
10
-98.648
20
15.646
11
-98.854
21
14.136
0
LINE
8
XSect
62
1
6
DASH
10
-98.648
20
15.646
11
-100.352
21
11.5
0
LINE
8
XSect
62
1
6
DASH
10
-98.648
20
15.646
11
-99.582
21
13.362
0
LINE
8
XSect
62
1
6
DASH
10
-98.648
20
15.646
11
-99.614
21
13.254
0
LINE
8
Shots
62
1
10
-96.796
20
18.558
11
-96.796
21
18.558
0
CIRCLE
8
Shots
62
1
10
-96.796
20
18.558
40
0.1
0
ENDSEC
0
EOF
