0
SECTION
2
HEADER
9
$ACADVER
1
AC1002
9
$INSUNITS
70
4
0
ENDSEC
0
SECTION
2
TABLES
0
TABLE
2
LTYPE
70
1
0
LTYPE
2
DASH
70
0
3
---
72
65
73
2
40
0.6
49
0.3
49
-0.3
0
ENDTAB
0
ENDSEC
0
SECTION
2
ENTITIES
0
POLYLINE
66
1
8
Sketch
62
0
0
VERTEX
8
Sketch
10
-85.75
20
54.014
0
VERTEX
8
Sketch
10
-85.81
20
53.774
0
VERTEX
8
Sketch
10
-85.93
20
52.754
0
VERTEX
8
Sketch
10
-86.05
20
52.214
0
VERTEX
8
Sketch
10
-86.05
20
51.974
0
VERTEX
8
Sketch
10
-86.23
20
51.434
0
VERTEX
8
Sketch
10
-86.35
20
50.894
0
SEQEND
0
POLYLINE
66
1
8
Sketch
62
0
0
VERTEX
8
Sketch
10
-87.37
20
49.034
0
VERTEX
8
Sketch
10
-87.37
20
48.734
0
VERTEX
8
Sketch
10
-87.43
20
48.614
0
VERTEX
8
Sketch
10
-87.37
20
48.494
0
VERTEX
8
Sketch
10
-87.01
20
48.434
0
VERTEX
8
Sketch
10
-87.01
20
48.554
0
VERTEX
8
Sketch
10
-86.77
20
48.914
0
VERTEX
8
Sketch
10
-86.71
20
49.214
0
SEQEND
0
POLYLINE
66
1
8
Sketch
62
0
0
VERTEX
8
Sketch
10
-86.11
20
50.594
0
VERTEX
8
Sketch
10
-86.65
20
49.514
0
VERTEX
8
Sketch
10
-86.95
20
48.734
0
SEQEND
0
POLYLINE
66
1
8
Sketch
62
0
0
VERTEX
8
Sketch
10
-87.43
20
51.134
0
VERTEX
8
Sketch
10
-87.43
20
50.534
0
VERTEX
8
Sketch
10
-87.37
20
50.354
0
VERTEX
8
Sketch
10
-87.43
20
49.994
0
VERTEX
8
Sketch
10
-87.43
20
49.094
0
SEQEND
0
POLYLINE
66
1
8
Sketch
62
0
0
VERTEX
8
Sketch
10
-87.55
20
50.234
0
VERTEX
8
Sketch
10
-87.13
20
50.114
0
SEQEND
0
POLYLINE
66
1
8
Sketch
62
0
0
VERTEX
8
Sketch
10
-87.37
20
51.014
0
VERTEX
8
Sketch
10
-87.49
20
50.594
0
SEQEND
0
POLYLINE
66
1
8
Sketch
62
0
0
VERTEX
8
Sketch
10
-84.61
20
58.154
0
VERTEX
8
Sketch
10
-85.63
20
54.614
0
VERTEX
8
Sketch
10
-85.81
20
53.654
0
VERTEX
8
Sketch
10
-85.81
20
53.654
0
SEQEND
0
POLYLINE
66
1
8
Sketch
62
0
0
VERTEX
8
Sketch
10
-87.43
20
51.254
0
VERTEX
8
Sketch
10
-87.07
20
52.034
0
VERTEX
8
Sketch
10
-87.07
20
52.214
0
VERTEX
8
Sketch
10
-86.95
20
52.394
0
VERTEX
8
Sketch
10
-86.95
20
52.694
0
VERTEX
8
Sketch
10
-86.83
20
53.174
0
VERTEX
8
Sketch
10
-86.83
20
53.894
0
VERTEX
8
Sketch
10
-86.59
20
55.094
0
VERTEX
8
Sketch
10
-86.35
20
55.574
0
VERTEX
8
Sketch
10
-86.35
20
55.754
0
VERTEX
8
Sketch
10
-85.99
20
56.534
0
SEQEND
0
POLYLINE
66
1
8
Sketch
62
0
0
VERTEX
8
Sketch
10
-87.31
20
51.494
0
VERTEX
8
Sketch
10
-87.37
20
51.134
0
SEQEND
0
POLYLINE
66
1
8
Sketch
62
0
0
VERTEX
8
Sketch
10
-85.27
20
58.454
0
VERTEX
8
Sketch
10
-85.33
20
58.214
0
VERTEX
8
Sketch
10
-85.51
20
57.674
0
VERTEX
8
Sketch
10
-85.75
20
56.954
0
VERTEX
8
Sketch
10
-85.75
20
56.834
0
SEQEND
0
POLYLINE
66
1
8
Sketch
62
5
0
VERTEX
8
Sketch
10
-84.19
20
53.534
0
VERTEX
8
Sketch
10
-83.77
20
53.714
0
VERTEX
8
Sketch
10
-82.81
20
53.714
0
VERTEX
8
Sketch
10
-82.09
20
53.414
0
SEQEND
0
POLYLINE
66
1
8
Sketch
62
5
0
VERTEX
8
Sketch
10
-83.35
20
47.054
0
VERTEX
8
Sketch
10
-82.87
20
46.094
0
VERTEX
8
Sketch
10
-82.57
20
45.674
0
VERTEX
8
Sketch
10
-82.27
20
45.374
0
VERTEX
8
Sketch
10
-81.67
20
45.014
0
VERTEX
8
Sketch
10
-81.37
20
45.014
0
VERTEX
8
Sketch
10
-80.95
20
44.774
0
VERTEX
8
Sketch
10
-80.71
20
44.834
0
SEQEND
0
POLYLINE
66
1
8
Sketch
62
5
0
VERTEX
8
Sketch
10
-79.45
20
50.654
0
VERTEX
8
Sketch
10
-79.93
20
49.394
0
VERTEX
8
Sketch
10
-79.93
20
49.214
0
VERTEX
8
Sketch
10
-80.11
20
48.674
0
VERTEX
8
Sketch
10
-80.17
20
48.134
0
VERTEX
8
Sketch
10
-80.29
20
47.654
0
VERTEX
8
Sketch
10
-80.23
20
47.534
0
VERTEX
8
Sketch
10
-80.29
20
47.294
0
VERTEX
8
Sketch
10
-80.29
20
47.054
0
VERTEX
8
Sketch
10
-80.35
20
46.694
0
VERTEX
8
Sketch
10
-80.35
20
46.094
0
VERTEX
8
Sketch
10
-80.41
20
45.854
0
VERTEX
8
Sketch
10
-80.59
20
45.134
0
VERTEX
8
Sketch
10
-80.59
20
44.894
0
VERTEX
8
Sketch
10
-80.65
20
44.774
0
SEQEND
0
POLYLINE
66
1
8
Sketch
62
5
0
VERTEX
8
Sketch
10
-83.89
20
49.094
0
VERTEX
8
Sketch
10
-83.59
20
48.194
0
VERTEX
8
Sketch
10
-83.53
20
47.834
0
VERTEX
8
Sketch
10
-83.41
20
47.474
0
SEQEND
0
POLYLINE
66
1
8
Sketch
62
5
0
VERTEX
8
Sketch
10
-84.79
20
53.054
0
VERTEX
8
Sketch
10
-85.45
20
52.574
0
VERTEX
8
Sketch
10
-85.63
20
52.274
0
VERTEX
8
Sketch
10
-86.05
20
51.854
0
VERTEX
8
Sketch
10
-86.17
20
51.194
0
VERTEX
8
Sketch
10
-86.11
20
51.074
0
SEQEND
0
POLYLINE
66
1
8
Sketch
62
5
0
VERTEX
8
Sketch
10
-83.83
20
48.854
0
VERTEX
8
Sketch
10
-84.19
20
49.214
0
VERTEX
8
Sketch
10
-84.19
20
49.454
0
VERTEX
8
Sketch
10
-84.31
20
49.814
0
VERTEX
8
Sketch
10
-84.73
20
50.114
0
VERTEX
8
Sketch
10
-84.85
20
50.054
0
VERTEX
8
Sketch
10
-85.45
20
50.114
0
VERTEX
8
Sketch
10
-85.69
20
50.174
0
VERTEX
8
Sketch
10
-86.17
20
50.654
0
VERTEX
8
Sketch
10
-86.17
20
50.954
0
SEQEND
0
POLYLINE
66
1
8
Sketch
62
5
0
VERTEX
8
Sketch
10
-81.43
20
55.694
0
VERTEX
8
Sketch
10
-81.43
20
54.794
0
VERTEX
8
Sketch
10
-81.55
20
54.314
0
VERTEX
8
Sketch
10
-81.79
20
53.774
0
VERTEX
8
Sketch
10
-82.21
20
53.174
0
SEQEND
0
POLYLINE
66
1
8
Sketch
62
5
0
VERTEX
8
Sketch
10
-82.51
20
58.274
0
VERTEX
8
Sketch
10
-82.21
20
57.554
0
VERTEX
8
Sketch
10
-82.09
20
57.434
0
VERTEX
8
Sketch
10
-81.61
20
55.694
0
VERTEX
8
Sketch
10
-81.61
20
55.814
0
SEQEND
0
POLYLINE
66
1
8
Sketch
62
5
0
VERTEX
8
Sketch
10
-78.07
20
55.814
0
VERTEX
8
Sketch
10
-78.37
20
55.334
0
VERTEX
8
Sketch
10
-78.79
20
54.794
0
VERTEX
8
Sketch
10
-79.09
20
54.434
0
VERTEX
8
Sketch
10
-79.27
20
54.134
0
VERTEX
8
Sketch
10
-79.69
20
53.594
0
VERTEX
8
Sketch
10
-80.23
20
53.114
0
VERTEX
8
Sketch
10
-80.59
20
52.994
0
VERTEX
8
Sketch
10
-80.71
20
52.874
0
SEQEND
0
POLYLINE
66
1
8
Sketch
62
5
0
VERTEX
8
Sketch
10
-80.23
20
63.734
0
VERTEX
8
Sketch
10
-80.89
20
63.254
0
VERTEX
8
Sketch
10
-81.13
20
63.014
0
VERTEX
8
Sketch
10
-81.67
20
62.054
0
VERTEX
8
Sketch
10
-81.79
20
61.694
0
VERTEX
8
Sketch
10
-81.85
20
61.214
0
VERTEX
8
Sketch
10
-82.57
20
59.474
0
VERTEX
8
Sketch
10
-82.51
20
59.174
0
VERTEX
8
Sketch
10
-82.57
20
58.754
0
VERTEX
8
Sketch
10
-82.57
20
58.574
0
VERTEX
8
Sketch
10
-82.63
20
58.454
0
VERTEX
8
Sketch
10
-82.69
20
57.974
0
SEQEND
0
POLYLINE
66
1
8
Sketch
62
5
0
VERTEX
8
Sketch
10
-79.75
20
64.094
0
VERTEX
8
Sketch
10
-80.11
20
63.794
0
VERTEX
8
Sketch
10
-80.35
20
63.374
0
VERTEX
8
Sketch
10
-80.53
20
63.134
0
SEQEND
0
POINT
8
Sketch
62
5
10
-79.75
20
64.034
0
POLYLINE
66
1
8
Sketch
62
5
0
VERTEX
8
Sketch
10
-75.55
20
62.174
0
VERTEX
8
Sketch
10
-75.49
20
61.934
0
VERTEX
8
Sketch
10
-75.61
20
61.334
0
VERTEX
8
Sketch
10
-75.97
20
60.494
0
VERTEX
8
Sketch
10
-76.03
20
60.254
0
VERTEX
8
Sketch
10
-76.39
20
59.774
0
VERTEX
8
Sketch
10
-76.63
20
59.174
0
VERTEX
8
Sketch
10
-76.75
20
59.174
0
VERTEX
8
Sketch
10
-77.47
20
57.374
0
VERTEX
8
Sketch
10
-77.65
20
57.134
0
VERTEX
8
Sketch
10
-77.83
20
56.594
0
VERTEX
8
Sketch
10
-78.01
20
56.114
0
VERTEX
8
Sketch
10
-78.01
20
55.814
0
VERTEX
8
Sketch
10
-78.25
20
55.394
0
SEQEND
0
POLYLINE
66
1
8
Sketch
62
5
0
VERTEX
8
Sketch
10
-77.59
20
64.274
0
VERTEX
8
Sketch
10
-77.59
20
63.974
0
VERTEX
8
Sketch
10
-77.53
20
63.674
0
VERTEX
8
Sketch
10
-77.29
20
63.614
0
VERTEX
8
Sketch
10
-76.57
20
63.134
0
VERTEX
8
Sketch
10
-75.73
20
62.534
0
VERTEX
8
Sketch
10
-75.61
20
62.354
0
VERTEX
8
Sketch
10
-75.49
20
62.414
0
VERTEX
8
Sketch
10
-75.25
20
62.234
0
SEQEND
0
POLYLINE
66
1
8
Sketch
62
5
0
VERTEX
8
Sketch
10
-78.01
20
64.514
0
VERTEX
8
Sketch
10
-78.37
20
64.154
0
VERTEX
8
Sketch
10
-79.21
20
64.094
0
VERTEX
8
Sketch
10
-79.39
20
64.034
0
VERTEX
8
Sketch
10
-79.51
20
64.094
0
VERTEX
8
Sketch
10
-79.93
20
64.034
0
SEQEND
0
POLYLINE
66
1
8
Sketch
62
3
0
VERTEX
8
Sketch
10
-83.95
20
59.834
0
VERTEX
8
Sketch
10
-83.95
20
59.594
0
VERTEX
8
Sketch
10
-84.19
20
59.054
0
VERTEX
8
Sketch
10
-84.19
20
58.934
0
SEQEND
0
POLYLINE
66
1
8
Sketch
62
3
0
VERTEX
8
Sketch
10
-83.47
20
61.094
0
VERTEX
8
Sketch
10
-83.65
20
60.854
0
VERTEX
8
Sketch
10
-83.83
20
60.434
0
SEQEND
0
POLYLINE
66
1
8
Sketch
62
3
0
VERTEX
8
Sketch
10
-82.99
20
62.234
0
VERTEX
8
Sketch
10
-83.23
20
61.754
0
SEQEND
0
POLYLINE
66
1
8
Sketch
62
3
0
VERTEX
8
Sketch
10
-82.57
20
63.014
0
VERTEX
8
Sketch
10
-82.75
20
62.594
0
SEQEND
0
POLYLINE
66
1
8
Sketch
62
3
0
VERTEX
8
Sketch
10
-81.97
20
63.914
0
VERTEX
8
Sketch
10
-82.27
20
63.494
0
SEQEND
0
POLYLINE
66
1
8
Sketch
62
0
0
VERTEX
8
Sketch
10
-82.63
20
64.634
0
VERTEX
8
Sketch
10
-82.03
20
65.234
0
VERTEX
8
Sketch
10
-81.73
20
65.414
0
VERTEX
8
Sketch
10
-81.31
20
65.834
0
VERTEX
8
Sketch
10
-80.83
20
66.134
0
SEQEND
0
POLYLINE
66
1
8
Sketch
62
9
0
VERTEX
8
Sketch
10
-81.61
20
64.274
0
VERTEX
8
Sketch
10
-81.13
20
64.754
0
VERTEX
8
Sketch
10
-81.07
20
64.814
0
VERTEX
8
Sketch
10
-81.55
20
64.274
0
VERTEX
8
Sketch
10
-81.61
20
64.154
0
VERTEX
8
Sketch
10
-81.13
20
64.754
0
VERTEX
8
Sketch
10
-81.67
20
64.154
0
VERTEX
8
Sketch
10
-81.73
20
63.974
0
VERTEX
8
Sketch
10
-82.03
20
63.674
0
VERTEX
8
Sketch
10
-81.49
20
64.094
0
VERTEX
8
Sketch
10
-81.67
20
63.854
0
VERTEX
8
Sketch
10
-81.37
20
64.334
0
VERTEX
8
Sketch
10
-81.25
20
64.394
0
VERTEX
8
Sketch
10
-81.55
20
63.974
0
VERTEX
8
Sketch
10
-81.73
20
63.854
0
VERTEX
8
Sketch
10
-80.95
20
64.874
0
VERTEX
8
Sketch
10
-81.25
20
64.574
0
VERTEX
8
Sketch
10
-81.31
20
64.394
0
VERTEX
8
Sketch
10
-80.77
20
65.054
0
VERTEX
8
Sketch
10
-80.59
20
65.294
0
VERTEX
8
Sketch
10
-81.01
20
64.874
0
VERTEX
8
Sketch
10
-80.47
20
65.474
0
SEQEND
0
POLYLINE
66
1
8
Sketch
62
9
0
VERTEX
8
Sketch
10
-80.53
20
65.474
0
VERTEX
8
Sketch
10
-80.53
20
65.354
0
VERTEX
8
Sketch
10
-80.71
20
65.294
0
VERTEX
8
Sketch
10
-81.73
20
64.154
0
SEQEND
0
POLYLINE
66
1
8
Sketch
62
0
0
VERTEX
8
Sketch
10
-85.15
20
58.454
0
VERTEX
8
Sketch
10
-84.79
20
59.174
0
VERTEX
8
Sketch
10
-84.67
20
59.654
0
VERTEX
8
Sketch
10
-84.61
20
59.894
0
VERTEX
8
Sketch
10
-84.49
20
60.434
0
VERTEX
8
Sketch
10
-84.31
20
60.974
0
VERTEX
8
Sketch
10
-84.07
20
61.334
0
VERTEX
8
Sketch
10
-84.07
20
61.454
0
VERTEX
8
Sketch
10
-83.77
20
61.994
0
VERTEX
8
Sketch
10
-83.71
20
62.234
0
VERTEX
8
Sketch
10
-83.65
20
62.474
0
VERTEX
8
Sketch
10
-83.65
20
62.594
0
VERTEX
8
Sketch
10
-83.47
20
62.894
0
VERTEX
8
Sketch
10
-83.41
20
63.134
0
VERTEX
8
Sketch
10
-83.23
20
63.434
0
VERTEX
8
Sketch
10
-83.17
20
63.674
0
VERTEX
8
Sketch
10
-82.69
20
64.454
0
VERTEX
8
Sketch
10
-82.51
20
64.754
0
SEQEND
0
POLYLINE
66
1
8
Sketch
62
0
0
VERTEX
8
Sketch
10
-79.75
20
65.594
0
VERTEX
8
Sketch
10
-79.87
20
65.534
0
VERTEX
8
Sketch
10
-79.39
20
64.934
0
VERTEX
8
Sketch
10
-79.21
20
64.754
0
VERTEX
8
Sketch
10
-78.85
20
64.034
0
VERTEX
8
Sketch
10
-78.85
20
63.914
0
VERTEX
8
Sketch
10
-78.73
20
63.794
0
VERTEX
8
Sketch
10
-78.61
20
63.254
0
SEQEND
0
POINT
8
Sketch
62
0
10
-80.59
20
64.934
0
POLYLINE
66
1
8
Sketch
62
0
0
VERTEX
8
Sketch
10
-80.53
20
64.094
0
VERTEX
8
Sketch
10
-80.41
20
64.094
0
SEQEND
0
POLYLINE
66
1
8
Sketch
62
0
0
VERTEX
8
Sketch
10
-80.47
20
63.554
0
VERTEX
8
Sketch
10
-80.35
20
63.554
0
VERTEX
8
Sketch
10
-80.23
20
63.674
0
SEQEND
0
POLYLINE
66
1
8
Sketch
62
0
0
VERTEX
8
Sketch
10
-80.29
20
62.954
0
VERTEX
8
Sketch
10
-80.17
20
63.014
0
SEQEND
0
POLYLINE
66
1
8
Sketch
62
0
0
VERTEX
8
Sketch
10
-80.41
20
62.234
0
VERTEX
8
Sketch
10
-80.23
20
62.174
0
VERTEX
8
Sketch
10
-80.11
20
62.234
0
SEQEND
0
POLYLINE
66
1
8
Sketch
62
0
0
VERTEX
8
Sketch
10
-80.11
20
61.814
0
VERTEX
8
Sketch
10
-80.05
20
62.114
0
VERTEX
8
Sketch
10
-79.99
20
62.594
0
VERTEX
8
Sketch
10
-79.99
20
63.374
0
VERTEX
8
Sketch
10
-80.05
20
64.094
0
VERTEX
8
Sketch
10
-79.99
20
64.334
0
VERTEX
8
Sketch
10
-80.05
20
64.574
0
VERTEX
8
Sketch
10
-80.41
20
64.874
0
VERTEX
8
Sketch
10
-80.41
20
65.054
0
VERTEX
8
Sketch
10
-80.29
20
65.474
0
VERTEX
8
Sketch
10
-80.35
20
65.714
0
SEQEND
0
POLYLINE
66
1
8
Sketch
62
0
0
VERTEX
8
Sketch
10
-79.03
20
61.274
0
VERTEX
8
Sketch
10
-79.51
20
61.454
0
VERTEX
8
Sketch
10
-79.69
20
61.454
0
VERTEX
8
Sketch
10
-80.05
20
61.574
0
SEQEND
0
POLYLINE
66
1
8
Sketch
62
0
0
VERTEX
8
Sketch
10
-79.99
20
61.574
0
VERTEX
8
Sketch
10
-79.99
20
61.574
0
VERTEX
8
Sketch
10
-79.81
20
61.574
0
VERTEX
8
Sketch
10
-79.33
20
61.454
0
VERTEX
8
Sketch
10
-79.15
20
61.454
0
VERTEX
8
Sketch
10
-78.91
20
61.394
0
SEQEND
0
POLYLINE
66
1
8
Sketch
62
0
0
VERTEX
8
Sketch
10
-79.99
20
61.514
0
VERTEX
8
Sketch
10
-79.09
20
61.694
0
SEQEND
0
POLYLINE
66
1
8
Sketch
62
0
0
VERTEX
8
Sketch
10
-81.07
20
57.194
0
VERTEX
8
Sketch
10
-80.53
20
56.954
0
VERTEX
8
Sketch
10
-80.05
20
56.414
0
VERTEX
8
Sketch
10
-79.93
20
56.114
0
VERTEX
8
Sketch
10
-79.81
20
55.994
0
SEQEND
0
POLYLINE
66
1
8
Sketch
62
0
0
VERTEX
8
Sketch
10
-79.33
20
60.974
0
VERTEX
8
Sketch
10
-79.03
20
61.094
0
SEQEND
0
POLYLINE
66
1
8
Sketch
62
0
0
VERTEX
8
Sketch
10
-79.45
20
60.314
0
VERTEX
8
Sketch
10
-79.15
20
60.374
0
SEQEND
0
POLYLINE
66
1
8
Sketch
62
0
0
VERTEX
8
Sketch
10
-79.39
20
59.234
0
VERTEX
8
Sketch
10
-79.15
20
59.354
0
SEQEND
0
POLYLINE
66
1
8
Sketch
62
0
0
VERTEX
8
Sketch
10
-79.27
20
58.454
0
VERTEX
8
Sketch
10
-78.97
20
58.514
0
SEQEND
0
POLYLINE
66
1
8
Sketch
62
0
0
VERTEX
8
Sketch
10
-79.21
20
57.494
0
VERTEX
8
Sketch
10
-78.91
20
57.554
0
SEQEND
0
POLYLINE
66
1
8
Sketch
62
0
0
VERTEX
8
Sketch
10
-79.39
20
56.714
0
VERTEX
8
Sketch
10
-79.15
20
56.714
0
VERTEX
8
Sketch
10
-78.97
20
56.654
0
SEQEND
0
POLYLINE
66
1
8
Sketch
62
0
0
VERTEX
8
Sketch
10
-79.21
20
55.754
0
VERTEX
8
Sketch
10
-78.91
20
55.754
0
SEQEND
0
POLYLINE
66
1
8
Sketch
62
0
0
VERTEX
8
Sketch
10
-78.73
20
56.174
0
VERTEX
8
Sketch
10
-78.97
20
55.334
0
VERTEX
8
Sketch
10
-78.97
20
54.794
0
SEQEND
0
POLYLINE
66
1
8
Sketch
62
0
0
VERTEX
8
Sketch
10
-79.09
20
61.694
0
VERTEX
8
Sketch
10
-79.03
20
61.214
0
VERTEX
8
Sketch
10
-79.03
20
60.794
0
VERTEX
8
Sketch
10
-78.97
20
60.554
0
VERTEX
8
Sketch
10
-78.97
20
58.814
0
VERTEX
8
Sketch
10
-78.85
20
58.094
0
VERTEX
8
Sketch
10
-78.85
20
57.314
0
VERTEX
8
Sketch
10
-78.91
20
56.774
0
VERTEX
8
Sketch
10
-78.91
20
55.574
0
SEQEND
0
POLYLINE
66
1
8
Sketch
62
0
0
VERTEX
8
Sketch
10
-75.19
20
54.734
0
VERTEX
8
Sketch
10
-75.25
20
54.494
0
VERTEX
8
Sketch
10
-75.43
20
54.014
0
VERTEX
8
Sketch
10
-75.61
20
53.774
0
VERTEX
8
Sketch
10
-75.73
20
53.414
0
VERTEX
8
Sketch
10
-75.61
20
53.594
0
SEQEND
0
POLYLINE
66
1
8
Sketch
62
0
0
VERTEX
8
Sketch
10
-78.55
20
63.194
0
VERTEX
8
Sketch
10
-78.49
20
62.954
0
VERTEX
8
Sketch
10
-78.49
20
62.654
0
VERTEX
8
Sketch
10
-78.31
20
61.874
0
VERTEX
8
Sketch
10
-78.13
20
61.334
0
VERTEX
8
Sketch
10
-77.89
20
60.794
0
VERTEX
8
Sketch
10
-77.35
20
59.174
0
VERTEX
8
Sketch
10
-77.29
20
58.754
0
VERTEX
8
Sketch
10
-77.17
20
58.634
0
VERTEX
8
Sketch
10
-77.05
20
58.094
0
VERTEX
8
Sketch
10
-76.63
20
56.954
0
VERTEX
8
Sketch
10
-76.63
20
56.774
0
VERTEX
8
Sketch
10
-76.27
20
56.174
0
VERTEX
8
Sketch
10
-75.97
20
55.814
0
VERTEX
8
Sketch
10
-75.91
20
55.634
0
VERTEX
8
Sketch
10
-75.67
20
55.454
0
VERTEX
8
Sketch
10
-75.49
20
55.154
0
VERTEX
8
Sketch
10
-75.19
20
54.734
0
SEQEND
0
POLYLINE
66
1
8
Sketch
62
0
0
VERTEX
8
Sketch
10
-79.75
20
55.754
0
VERTEX
8
Sketch
10
-79.69
20
55.514
0
VERTEX
8
Sketch
10
-79.51
20
55.094
0
VERTEX
8
Sketch
10
-79.09
20
54.674
0
VERTEX
8
Sketch
10
-78.91
20
54.134
0
VERTEX
8
Sketch
10
-78.73
20
53.414
0
VERTEX
8
Sketch
10
-78.61
20
53.174
0
VERTEX
8
Sketch
10
-78.61
20
52.454
0
VERTEX
8
Sketch
10
-78.55
20
52.214
0
VERTEX
8
Sketch
10
-78.55
20
51.914
0
VERTEX
8
Sketch
10
-78.43
20
51.374
0
VERTEX
8
Sketch
10
-78.49
20
51.254
0
VERTEX
8
Sketch
10
-78.43
20
51.134
0
VERTEX
8
Sketch
10
-78.49
20
50.894
0
VERTEX
8
Sketch
10
-78.43
20
50.654
0
VERTEX
8
Sketch
10
-78.49
20
50.354
0
VERTEX
8
Sketch
10
-78.43
20
50.114
0
VERTEX
8
Sketch
10
-78.49
20
49.454
0
VERTEX
8
Sketch
10
-78.55
20
49.154
0
VERTEX
8
Sketch
10
-78.67
20
48.314
0
VERTEX
8
Sketch
10
-78.73
20
48.074
0
VERTEX
8
Sketch
10
-78.85
20
47.234
0
VERTEX
8
Sketch
10
-78.91
20
46.994
0
VERTEX
8
Sketch
10
-78.91
20
46.214
0
VERTEX
8
Sketch
10
-78.85
20
46.094
0
VERTEX
8
Sketch
10
-78.85
20
45.434
0
VERTEX
8
Sketch
10
-78.79
20
45.554
0
SEQEND
0
POLYLINE
66
1
8
Sketch
62
0
0
VERTEX
8
Sketch
10
-75.67
20
53.474
0
VERTEX
8
Sketch
10
-75.55
20
53.474
0
VERTEX
8
Sketch
10
-74.77
20
52.874
0
VERTEX
8
Sketch
10
-74.47
20
52.574
0
SEQEND
0
POLYLINE
66
1
8
Sketch
62
3
0
VERTEX
8
Sketch
10
-78.01
20
48.434
0
VERTEX
8
Sketch
10
-77.89
20
48.434
0
VERTEX
8
Sketch
10
-77.71
20
48.674
0
VERTEX
8
Sketch
10
-77.77
20
48.974
0
VERTEX
8
Sketch
10
-77.59
20
48.974
0
VERTEX
8
Sketch
10
-77.47
20
49.334
0
VERTEX
8
Sketch
10
-77.53
20
49.634
0
VERTEX
8
Sketch
10
-77.35
20
50.054
0
VERTEX
8
Sketch
10
-77.35
20
50.294
0
VERTEX
8
Sketch
10
-76.99
20
50.234
0
VERTEX
8
Sketch
10
-76.87
20
50.294
0
VERTEX
8
Sketch
10
-76.87
20
50.534
0
VERTEX
8
Sketch
10
-76.99
20
50.654
0
VERTEX
8
Sketch
10
-76.99
20
50.834
0
SEQEND
0
POLYLINE
66
1
8
Sketch
62
3
0
VERTEX
8
Sketch
10
-78.07
20
47.834
0
VERTEX
8
Sketch
10
-77.83
20
48.014
0
SEQEND
0
POINT
8
Sketch
62
3
10
-78.13
20
47.294
0
POINT
8
Sketch
62
3
10
-78.25
20
46.754
0
POLYLINE
66
1
8
Sketch
62
3
0
VERTEX
8
Sketch
10
-76.57
20
51.674
0
VERTEX
8
Sketch
10
-76.93
20
50.774
0
VERTEX
8
Sketch
10
-76.99
20
50.534
0
VERTEX
8
Sketch
10
-77.05
20
50.234
0
VERTEX
8
Sketch
10
-77.41
20
49.634
0
VERTEX
8
Sketch
10
-77.41
20
49.454
0
VERTEX
8
Sketch
10
-77.83
20
48.254
0
VERTEX
8
Sketch
10
-77.95
20
47.774
0
VERTEX
8
Sketch
10
-78.25
20
47.114
0
VERTEX
8
Sketch
10
-78.25
20
46.934
0
VERTEX
8
Sketch
10
-78.37
20
46.574
0
VERTEX
8
Sketch
10
-78.37
20
46.394
0
VERTEX
8
Sketch
10
-78.49
20
46.154
0
SEQEND
0
POLYLINE
66
1
8
Sketch
62
0
0
VERTEX
8
Sketch
10
-78.73
20
45.934
0
VERTEX
8
Sketch
10
-78.97
20
45.214
0
VERTEX
8
Sketch
10
-79.13
20
44.494
0
VERTEX
8
Sketch
10
-79.21
20
44.174
0
VERTEX
8
Sketch
10
-79.53
20
43.294
0
VERTEX
8
Sketch
10
-79.61
20
42.974
0
VERTEX
8
Sketch
10
-79.93
20
41.934
0
SEQEND
0
POLYLINE
66
1
8
Sketch
62
0
0
VERTEX
8
Sketch
10
-76.81
20
45.854
0
VERTEX
8
Sketch
10
-76.97
20
46.014
0
VERTEX
8
Sketch
10
-77.29
20
45.934
0
VERTEX
8
Sketch
10
-77.85
20
45.374
0
VERTEX
8
Sketch
10
-78.25
20
44.174
0
VERTEX
8
Sketch
10
-78.49
20
43.134
0
VERTEX
8
Sketch
10
-79.21
20
41.614
0
VERTEX
8
Sketch
10
-79.29
20
41.294
0
VERTEX
8
Sketch
10
-79.45
20
41.134
0
VERTEX
8
Sketch
10
-79.45
20
40.894
0
SEQEND
0
POLYLINE
66
1
8
Sketch
62
0
0
VERTEX
8
Sketch
10
-71.69
20
44.574
0
VERTEX
8
Sketch
10
-71.29
20
45.294
0
VERTEX
8
Sketch
10
-71.29
20
46.094
0
VERTEX
8
Sketch
10
-71.37
20
46.494
0
VERTEX
8
Sketch
10
-71.37
20
47.134
0
VERTEX
8
Sketch
10
-71.45
20
47.454
0
VERTEX
8
Sketch
10
-71.69
20
48.414
0
VERTEX
8
Sketch
10
-71.93
20
49.214
0
VERTEX
8
Sketch
10
-72.65
20
50.574
0
VERTEX
8
Sketch
10
-73.13
20
51.054
0
VERTEX
8
Sketch
10
-73.85
20
52.014
0
VERTEX
8
Sketch
10
-74.41
20
52.574
0
SEQEND
0
POLYLINE
66
1
8
Sketch
62
3
0
VERTEX
8
Sketch
10
-76.73
20
52.574
0
VERTEX
8
Sketch
10
-76.49
20
52.414
0
SEQEND
0
POLYLINE
66
1
8
Sketch
62
3
0
VERTEX
8
Sketch
10
-76.49
20
53.294
0
VERTEX
8
Sketch
10
-76.17
20
53.054
0
SEQEND
0
POLYLINE
66
1
8
Sketch
62
3
0
VERTEX
8
Sketch
10
-75.93
20
53.134
0
VERTEX
8
Sketch
10
-76.17
20
52.814
0
VERTEX
8
Sketch
10
-76.17
20
52.574
0
VERTEX
8
Sketch
10
-76.65
20
51.774
0
VERTEX
8
Sketch
10
-76.73
20
51.614
0
SEQEND
0
POLYLINE
66
1
8
Sketch
62
0
0
VERTEX
8
Sketch
10
-71.17
20
40.894
0
VERTEX
8
Sketch
10
-71.09
20
40.374
0
VERTEX
8
Sketch
10
-71.05
20
39.974
0
VERTEX
8
Sketch
10
-71.05
20
39.694
0
VERTEX
8
Sketch
10
-71.01
20
39.494
0
VERTEX
8
Sketch
10
-71.01
20
39.054
0
VERTEX
8
Sketch
10
-70.97
20
38.974
0
VERTEX
8
Sketch
10
-70.97
20
38.814
0
VERTEX
8
Sketch
10
-70.89
20
38.814
0
VERTEX
8
Sketch
10
-70.49
20
38.134
0
VERTEX
8
Sketch
10
-70.41
20
37.934
0
VERTEX
8
Sketch
10
-70.33
20
37.854
0
VERTEX
8
Sketch
10
-70.29
20
37.694
0
VERTEX
8
Sketch
10
-70.21
20
37.494
0
SEQEND
0
POLYLINE
66
1
8
Sketch
62
0
0
VERTEX
8
Sketch
10
-71.09
20
40.854
0
VERTEX
8
Sketch
10
-70.89
20
40.854
0
VERTEX
8
Sketch
10
-70.73
20
40.894
0
VERTEX
8
Sketch
10
-70.57
20
40.894
0
VERTEX
8
Sketch
10
-70.49
20
40.854
0
VERTEX
8
Sketch
10
-70.45
20
40.694
0
VERTEX
8
Sketch
10
-70.25
20
40.094
0
VERTEX
8
Sketch
10
-70.21
20
39.894
0
VERTEX
8
Sketch
10
-70.09
20
39.494
0
VERTEX
8
Sketch
10
-70.05
20
39.294
0
VERTEX
8
Sketch
10
-69.93
20
38.894
0
VERTEX
8
Sketch
10
-69.93
20
38.774
0
VERTEX
8
Sketch
10
-69.73
20
38.374
0
VERTEX
8
Sketch
10
-69.69
20
38.214
0
VERTEX
8
Sketch
10
-69.61
20
38.014
0
SEQEND
0
POLYLINE
66
1
8
Sketch
62
0
0
VERTEX
8
Sketch
10
-72.01
20
44.654
0
VERTEX
8
Sketch
10
-71.85
20
44.534
0
VERTEX
8
Sketch
10
-71.73
20
44.334
0
VERTEX
8
Sketch
10
-71.73
20
44.254
0
VERTEX
8
Sketch
10
-71.61
20
44.094
0
VERTEX
8
Sketch
10
-71.61
20
43.974
0
VERTEX
8
Sketch
10
-71.21
20
43.134
0
VERTEX
8
Sketch
10
-71.21
20
43.014
0
VERTEX
8
Sketch
10
-71.09
20
42.654
0
VERTEX
8
Sketch
10
-71.01
20
42.614
0
VERTEX
8
Sketch
10
-71.09
20
42.934
0
SEQEND
0
POLYLINE
66
1
8
Sketch
62
0
0
VERTEX
8
Sketch
10
-70.77
20
43.054
0
VERTEX
8
Sketch
10
-70.85
20
42.734
0
VERTEX
8
Sketch
10
-71.01
20
42.414
0
VERTEX
8
Sketch
10
-71.01
20
42.894
0
SEQEND
0
POLYLINE
66
1
8
Sketch
62
0
0
VERTEX
8
Sketch
10
-76.85
20
45.934
0
VERTEX
8
Sketch
10
-76.69
20
45.294
0
VERTEX
8
Sketch
10
-76.37
20
44.814
0
VERTEX
8
Sketch
10
-75.49
20
43.854
0
VERTEX
8
Sketch
10
-75.33
20
43.854
0
VERTEX
8
Sketch
10
-74.53
20
43.214
0
VERTEX
8
Sketch
10
-74.45
20
43.054
0
VERTEX
8
Sketch
10
-74.05
20
42.814
0
VERTEX
8
Sketch
10
-73.73
20
42.494
0
VERTEX
8
Sketch
10
-73.09
20
42.094
0
VERTEX
8
Sketch
10
-72.85
20
41.774
0
SEQEND
0
POLYLINE
66
1
8
Sketch
62
0
0
VERTEX
8
Sketch
10
-73.17
20
30.334
0
VERTEX
8
Sketch
10
-73.35
20
29.794
0
VERTEX
8
Sketch
10
-72.33
20
30.214
0
VERTEX
8
Sketch
10
-72.33
20
30.094
0
VERTEX
8
Sketch
10
-72.63
20
29.674
0
VERTEX
8
Sketch
10
-72.75
20
29.494
0
VERTEX
8
Sketch
10
-72.75
20
29.374
0
SEQEND
0
POLYLINE
66
1
8
Sketch
62
0
0
VERTEX
8
Sketch
10
-72.93
20
31.354
0
VERTEX
8
Sketch
10
-73.05
20
31.354
0
VERTEX
8
Sketch
10
-73.17
20
31.234
0
VERTEX
8
Sketch
10
-73.23
20
30.934
0
VERTEX
8
Sketch
10
-73.41
20
30.694
0
VERTEX
8
Sketch
10
-73.23
20
30.814
0
SEQEND
0
POLYLINE
66
1
8
Sketch
62
0
0
VERTEX
8
Sketch
10
-72.69
20
41.674
0
VERTEX
8
Sketch
10
-72.63
20
41.374
0
VERTEX
8
Sketch
10
-72.63
20
41.194
0
VERTEX
8
Sketch
10
-72.51
20
40.654
0
VERTEX
8
Sketch
10
-72.57
20
40.474
0
VERTEX
8
Sketch
10
-72.51
20
40.354
0
VERTEX
8
Sketch
10
-72.57
20
40.054
0
VERTEX
8
Sketch
10
-72.45
20
39.454
0
VERTEX
8
Sketch
10
-72.33
20
39.334
0
VERTEX
8
Sketch
10
-72.27
20
39.034
0
VERTEX
8
Sketch
10
-71.91
20
38.014
0
VERTEX
8
Sketch
10
-71.91
20
37.834
0
VERTEX
8
Sketch
10
-71.85
20
37.714
0
VERTEX
8
Sketch
10
-71.85
20
37.834
0
SEQEND
0
POLYLINE
66
1
8
Sketch
62
0
0
VERTEX
8
Sketch
10
-68.31
20
39.934
0
VERTEX
8
Sketch
10
-68.19
20
39.874
0
VERTEX
8
Sketch
10
-68.01
20
39.934
0
VERTEX
8
Sketch
10
-67.83
20
39.814
0
VERTEX
8
Sketch
10
-67.59
20
39.874
0
VERTEX
8
Sketch
10
-67.53
20
39.754
0
VERTEX
8
Sketch
10
-67.53
20
39.514
0
VERTEX
8
Sketch
10
-67.65
20
39.274
0
VERTEX
8
Sketch
10
-67.71
20
38.734
0
SEQEND
0
POLYLINE
66
1
8
Sketch
62
0
0
VERTEX
8
Sketch
10
-68.31
20
39.634
0
VERTEX
8
Sketch
10
-68.43
20
38.914
0
VERTEX
8
Sketch
10
-68.43
20
38.794
0
VERTEX
8
Sketch
10
-68.19
20
38.854
0
VERTEX
8
Sketch
10
-67.95
20
38.854
0
SEQEND
0
POLYLINE
66
1
8
Sketch
62
0
0
VERTEX
8
Sketch
10
-66.99
20
39.574
0
VERTEX
8
Sketch
10
-66.75
20
39.454
0
VERTEX
8
Sketch
10
-66.75
20
39.214
0
VERTEX
8
Sketch
10
-66.99
20
38.614
0
SEQEND
0
POLYLINE
66
1
8
Sketch
62
0
0
VERTEX
8
Sketch
10
-67.11
20
39.394
0
VERTEX
8
Sketch
10
-67.11
20
39.094
0
VERTEX
8
Sketch
10
-67.17
20
38.674
0
VERTEX
8
Sketch
10
-67.17
20
38.494
0
VERTEX
8
Sketch
10
-66.75
20
38.674
0
SEQEND
0
POLYLINE
66
1
8
Sketch
62
0
0
VERTEX
8
Sketch
10
-68.67
20
38.434
0
VERTEX
8
Sketch
10
-68.13
20
38.614
0
VERTEX
8
Sketch
10
-67.65
20
38.914
0
VERTEX
8
Sketch
10
-67.59
20
38.614
0
VERTEX
8
Sketch
10
-67.65
20
38.494
0
VERTEX
8
Sketch
10
-67.65
20
38.014
0
SEQEND
0
POLYLINE
66
1
8
Sketch
62
0
0
VERTEX
8
Sketch
10
-68.67
20
37.954
0
VERTEX
8
Sketch
10
-68.61
20
38.134
0
VERTEX
8
Sketch
10
-68.49
20
37.654
0
VERTEX
8
Sketch
10
-68.07
20
37.594
0
VERTEX
8
Sketch
10
-67.83
20
37.834
0
SEQEND
0
POLYLINE
66
1
8
Sketch
62
0
0
VERTEX
8
Sketch
10
-70.83
20
43.054
0
VERTEX
8
Sketch
10
-70.29
20
42.694
0
VERTEX
8
Sketch
10
-69.57
20
42.274
0
VERTEX
8
Sketch
10
-69.39
20
42.034
0
VERTEX
8
Sketch
10
-69.09
20
42.034
0
VERTEX
8
Sketch
10
-68.97
20
42.094
0
VERTEX
8
Sketch
10
-68.73
20
42.034
0
VERTEX
8
Sketch
10
-68.61
20
42.034
0
VERTEX
8
Sketch
10
-67.71
20
41.554
0
VERTEX
8
Sketch
10
-67.47
20
41.314
0
VERTEX
8
Sketch
10
-66.93
20
41.194
0
VERTEX
8
Sketch
10
-66.45
20
41.014
0
VERTEX
8
Sketch
10
-66.21
20
40.774
0
VERTEX
8
Sketch
10
-65.85
20
40.114
0
VERTEX
8
Sketch
10
-65.79
20
39.394
0
VERTEX
8
Sketch
10
-65.73
20
39.094
0
VERTEX
8
Sketch
10
-65.73
20
38.794
0
VERTEX
8
Sketch
10
-65.91
20
38.554
0
VERTEX
8
Sketch
10
-66.03
20
38.254
0
VERTEX
8
Sketch
10
-66.15
20
38.134
0
VERTEX
8
Sketch
10
-66.21
20
37.834
0
VERTEX
8
Sketch
10
-66.33
20
37.714
0
VERTEX
8
Sketch
10
-66.39
20
37.474
0
VERTEX
8
Sketch
10
-66.69
20
36.814
0
VERTEX
8
Sketch
10
-67.17
20
36.094
0
VERTEX
8
Sketch
10
-67.47
20
35.374
0
VERTEX
8
Sketch
10
-67.47
20
35.254
0
SEQEND
0
POLYLINE
66
1
8
Sketch
62
0
0
VERTEX
8
Sketch
10
-70.53
20
42.994
0
VERTEX
8
Sketch
10
-70.65
20
42.994
0
SEQEND
0
POLYLINE
66
1
8
Sketch
62
0
0
VERTEX
8
Sketch
10
-69.87
20
37.894
0
VERTEX
8
Sketch
10
-69.69
20
37.894
0
VERTEX
8
Sketch
10
-69.57
20
37.834
0
VERTEX
8
Sketch
10
-69.57
20
37.474
0
VERTEX
8
Sketch
10
-69.63
20
37.354
0
SEQEND
0
POLYLINE
66
1
8
Sketch
62
0
0
VERTEX
8
Sketch
10
-69.87
20
37.894
0
VERTEX
8
Sketch
10
-69.87
20
37.594
0
VERTEX
8
Sketch
10
-69.81
20
37.354
0
VERTEX
8
Sketch
10
-69.69
20
37.234
0
VERTEX
8
Sketch
10
-69.57
20
37.234
0
SEQEND
0
POLYLINE
66
1
8
Sketch
62
0
0
VERTEX
8
Sketch
10
-69.27
20
37.714
0
VERTEX
8
Sketch
10
-68.97
20
37.594
0
VERTEX
8
Sketch
10
-68.55
20
37.294
0
VERTEX
8
Sketch
10
-68.43
20
37.054
0
VERTEX
8
Sketch
10
-68.61
20
36.214
0
VERTEX
8
Sketch
10
-68.49
20
36.394
0
SEQEND
0
POLYLINE
66
1
8
Sketch
62
0
0
VERTEX
8
Sketch
10
-69.27
20
37.534
0
VERTEX
8
Sketch
10
-69.27
20
36.694
0
VERTEX
8
Sketch
10
-68.55
20
36.394
0
SEQEND
0
POLYLINE
66
1
8
Sketch
62
0
0
VERTEX
8
Sketch
10
-70.29
20
37.354
0
VERTEX
8
Sketch
10
-70.53
20
36.394
0
VERTEX
8
Sketch
10
-70.53
20
36.034
0
VERTEX
8
Sketch
10
-70.35
20
36.694
0
VERTEX
8
Sketch
10
-70.35
20
37.234
0
VERTEX
8
Sketch
10
-70.17
20
37.474
0
VERTEX
8
Sketch
10
-69.93
20
37.054
0
VERTEX
8
Sketch
10
-69.81
20
36.994
0
VERTEX
8
Sketch
10
-69.69
20
37.114
0
VERTEX
8
Sketch
10
-70.41
20
35.614
0
SEQEND
0
POLYLINE
66
1
8
Sketch
62
0
0
VERTEX
8
Sketch
10
-71.31
20
35.494
0
VERTEX
8
Sketch
10
-71.31
20
35.254
0
VERTEX
8
Sketch
10
-71.13
20
34.654
0
VERTEX
8
Sketch
10
-71.19
20
35.014
0
VERTEX
8
Sketch
10
-71.25
20
35.374
0
VERTEX
8
Sketch
10
-71.19
20
35.494
0
VERTEX
8
Sketch
10
-71.01
20
35.554
0
VERTEX
8
Sketch
10
-70.65
20
36.094
0
VERTEX
8
Sketch
10
-70.65
20
35.974
0
VERTEX
8
Sketch
10
-70.53
20
35.974
0
VERTEX
8
Sketch
10
-70.17
20
35.134
0
VERTEX
8
Sketch
10
-70.11
20
34.834
0
SEQEND
0
POLYLINE
66
1
8
Sketch
62
0
0
VERTEX
8
Sketch
10
-72.03
20
33.634
0
VERTEX
8
Sketch
10
-71.31
20
34.114
0
VERTEX
8
Sketch
10
-71.19
20
33.754
0
VERTEX
8
Sketch
10
-71.37
20
33.154
0
VERTEX
8
Sketch
10
-71.19
20
33.094
0
VERTEX
8
Sketch
10
-70.83
20
33.334
0
VERTEX
8
Sketch
10
-70.83
20
33.334
0
VERTEX
8
Sketch
10
-71.07
20
33.094
0
VERTEX
8
Sketch
10
-71.19
20
33.094
0
VERTEX
8
Sketch
10
-71.13
20
33.274
0
SEQEND
0
POLYLINE
66
1
8
Sketch
62
0
0
VERTEX
8
Sketch
10
-70.29
20
34.474
0
VERTEX
8
Sketch
10
-70.53
20
33.934
0
VERTEX
8
Sketch
10
-70.53
20
33.754
0
VERTEX
8
Sketch
10
-70.95
20
32.794
0
SEQEND
0
POLYLINE
66
1
8
Sketch
62
0
0
VERTEX
8
Sketch
10
-72.45
20
32.734
0
VERTEX
8
Sketch
10
-72.21
20
32.674
0
VERTEX
8
Sketch
10
-71.73
20
32.854
0
VERTEX
8
Sketch
10
-72.15
20
32.134
0
VERTEX
8
Sketch
10
-72.15
20
31.954
0
SEQEND
0
POLYLINE
66
1
8
Sketch
62
0
0
VERTEX
8
Sketch
10
-70.23
20
34.414
0
VERTEX
8
Sketch
10
-70.41
20
34.174
0
VERTEX
8
Sketch
10
-70.59
20
33.214
0
VERTEX
8
Sketch
10
-70.53
20
33.394
0
SEQEND
0
POLYLINE
66
1
8
Sketch
62
0
0
VERTEX
8
Sketch
10
-72.03
20
33.754
0
VERTEX
8
Sketch
10
-72.03
20
33.814
0
SEQEND
0
POLYLINE
66
1
8
Sketch
62
0
0
VERTEX
8
Sketch
10
-70.05
20
35.494
0
VERTEX
8
Sketch
10
-70.23
20
34.774
0
VERTEX
8
Sketch
10
-70.23
20
34.534
0
VERTEX
8
Sketch
10
-70.29
20
34.234
0
VERTEX
8
Sketch
10
-70.23
20
34.354
0
SEQEND
0
POLYLINE
66
1
8
Sketch
62
0
0
VERTEX
8
Sketch
10
-72.69
20
34.234
0
VERTEX
8
Sketch
10
-72.57
20
34.114
0
VERTEX
8
Sketch
10
-72.57
20
33.994
0
VERTEX
8
Sketch
10
-72.45
20
33.934
0
VERTEX
8
Sketch
10
-72.75
20
33.574
0
VERTEX
8
Sketch
10
-72.63
20
33.634
0
SEQEND
0
POLYLINE
66
1
8
Sketch
62
0
0
VERTEX
8
Sketch
10
-72.03
20
37.534
0
VERTEX
8
Sketch
10
-72.09
20
37.114
0
VERTEX
8
Sketch
10
-72.09
20
36.934
0
VERTEX
8
Sketch
10
-72.69
20
35.614
0
VERTEX
8
Sketch
10
-72.69
20
35.434
0
VERTEX
8
Sketch
10
-72.87
20
34.954
0
VERTEX
8
Sketch
10
-72.87
20
34.774
0
VERTEX
8
Sketch
10
-72.93
20
34.534
0
VERTEX
8
Sketch
10
-72.99
20
34.294
0
SEQEND
0
POLYLINE
66
1
8
Sketch
62
0
0
VERTEX
8
Sketch
10
-72.57
20
33.754
0
VERTEX
8
Sketch
10
-72.63
20
34.054
0
VERTEX
8
Sketch
10
-72.99
20
34.174
0
VERTEX
8
Sketch
10
-72.69
20
34.594
0
SEQEND
0
POLYLINE
66
1
8
Sketch
62
0
0
VERTEX
8
Sketch
10
-66.99
20
32.894
0
VERTEX
8
Sketch
10
-67.07
20
32.814
0
VERTEX
8
Sketch
10
-67.03
20
32.614
0
VERTEX
8
Sketch
10
-66.91
20
32.494
0
VERTEX
8
Sketch
10
-66.91
20
32.214
0
VERTEX
8
Sketch
10
-66.63
20
32.014
0
SEQEND
0
POLYLINE
66
1
8
Sketch
62
0
0
VERTEX
8
Sketch
10
-67.43
20
35.134
0
VERTEX
8
Sketch
10
-67.43
20
34.614
0
VERTEX
8
Sketch
10
-67.27
20
33.934
0
VERTEX
8
Sketch
10
-67.27
20
33.774
0
VERTEX
8
Sketch
10
-67.15
20
33.254
0
VERTEX
8
Sketch
10
-66.99
20
32.694
0
VERTEX
8
Sketch
10
-66.83
20
32.294
0
VERTEX
8
Sketch
10
-66.59
20
32.054
0
VERTEX
8
Sketch
10
-66.39
20
31.694
0
VERTEX
8
Sketch
10
-66.23
20
31.574
0
VERTEX
8
Sketch
10
-66.19
20
31.454
0
VERTEX
8
Sketch
10
-65.87
20
31.134
0
VERTEX
8
Sketch
10
-65.83
20
31.014
0
VERTEX
8
Sketch
10
-65.83
20
31.134
0
SEQEND
0
POLYLINE
66
1
8
Sketch
62
0
0
VERTEX
8
Sketch
10
-69.51
20
36.534
0
VERTEX
8
Sketch
10
-69.47
20
36.534
0
VERTEX
8
Sketch
10
-69.11
20
36.174
0
VERTEX
8
Sketch
10
-68.39
20
35.774
0
VERTEX
8
Sketch
10
-68.11
20
35.574
0
VERTEX
8
Sketch
10
-68.03
20
35.574
0
VERTEX
8
Sketch
10
-67.99
20
35.454
0
VERTEX
8
Sketch
10
-67.79
20
35.334
0
VERTEX
8
Sketch
10
-67.75
20
35.254
0
VERTEX
8
Sketch
10
-67.67
20
35.254
0
VERTEX
8
Sketch
10
-67.43
20
35.014
0
SEQEND
0
POLYLINE
66
1
8
Sketch
62
0
0
VERTEX
8
Sketch
10
-69.63
20
36.574
0
VERTEX
8
Sketch
10
-69.75
20
36.214
0
VERTEX
8
Sketch
10
-69.75
20
36.214
0
VERTEX
8
Sketch
10
-69.87
20
35.614
0
VERTEX
8
Sketch
10
-69.93
20
35.374
0
SEQEND
0
POLYLINE
66
1
8
Sketch
62
0
0
VERTEX
8
Sketch
10
-69.57
20
36.514
0
VERTEX
8
Sketch
10
-68.85
20
35.794
0
VERTEX
8
Sketch
10
-68.49
20
35.554
0
SEQEND
0
POLYLINE
66
1
8
Sketch
62
0
0
VERTEX
8
Sketch
10
-69.21
20
31.714
0
VERTEX
8
Sketch
10
-68.91
20
31.654
0
VERTEX
8
Sketch
10
-69.15
20
31.054
0
VERTEX
8
Sketch
10
-69.69
20
30.694
0
SEQEND
0
POLYLINE
66
1
8
Sketch
62
0
0
VERTEX
8
Sketch
10
-69.39
20
31.894
0
VERTEX
8
Sketch
10
-69.51
20
31.894
0
VERTEX
8
Sketch
10
-70.17
20
31.534
0
VERTEX
8
Sketch
10
-70.71
20
30.994
0
VERTEX
8
Sketch
10
-70.17
20
30.934
0
VERTEX
8
Sketch
10
-69.75
20
30.694
0
SEQEND
0
POLYLINE
66
1
8
Sketch
62
0
0
VERTEX
8
Sketch
10
-70.23
20
32.254
0
VERTEX
8
Sketch
10
-69.81
20
31.894
0
VERTEX
8
Sketch
10
-69.81
20
31.774
0
VERTEX
8
Sketch
10
-70.95
20
30.874
0
SEQEND
0
POLYLINE
66
1
8
Sketch
62
0
0
VERTEX
8
Sketch
10
-70.29
20
32.014
0
VERTEX
8
Sketch
10
-71.49
20
31.234
0
VERTEX
8
Sketch
10
-71.91
20
30.814
0
VERTEX
8
Sketch
10
-71.91
20
30.694
0
VERTEX
8
Sketch
10
-71.25
20
30.394
0
VERTEX
8
Sketch
10
-71.13
20
30.274
0
SEQEND
0
POLYLINE
66
1
8
Sketch
62
0
0
VERTEX
8
Sketch
10
-72.75
20
33.514
0
VERTEX
8
Sketch
10
-72.75
20
33.334
0
VERTEX
8
Sketch
10
-72.87
20
32.734
0
VERTEX
8
Sketch
10
-72.93
20
32.494
0
VERTEX
8
Sketch
10
-73.11
20
31.954
0
VERTEX
8
Sketch
10
-73.35
20
31.474
0
SEQEND
0
POLYLINE
66
1
8
Sketch
62
0
0
VERTEX
8
Sketch
10
-72.57
20
29.434
0
VERTEX
8
Sketch
10
-72.57
20
29.014
0
VERTEX
8
Sketch
10
-72.51
20
28.654
0
VERTEX
8
Sketch
10
-72.51
20
28.534
0
SEQEND
0
POLYLINE
66
1
8
Sketch
62
0
0
VERTEX
8
Sketch
10
-71.91
20
29.554
0
VERTEX
8
Sketch
10
-72.09
20
28.654
0
SEQEND
0
POLYLINE
66
1
8
Sketch
62
0
0
VERTEX
8
Sketch
10
-69.63
20
29.794
0
VERTEX
8
Sketch
10
-69.93
20
29.734
0
VERTEX
8
Sketch
10
-70.17
20
29.734
0
VERTEX
8
Sketch
10
-70.59
20
29.674
0
VERTEX
8
Sketch
10
-71.25
20
29.614
0
VERTEX
8
Sketch
10
-71.49
20
29.554
0
VERTEX
8
Sketch
10
-71.67
20
29.554
0
VERTEX
8
Sketch
10
-71.79
20
29.494
0
SEQEND
0
POLYLINE
66
1
8
Sketch
62
0
0
VERTEX
8
Sketch
10
-68.43
20
30.454
0
VERTEX
8
Sketch
10
-68.07
20
30.154
0
VERTEX
8
Sketch
10
-68.55
20
29.674
0
SEQEND
0
POLYLINE
66
1
8
Sketch
62
0
0
VERTEX
8
Sketch
10
-68.85
20
30.994
0
VERTEX
8
Sketch
10
-69.15
20
30.694
0
VERTEX
8
Sketch
10
-69.45
20
30.394
0
VERTEX
8
Sketch
10
-68.61
20
29.554
0
SEQEND
0
POLYLINE
66
1
8
Sketch
62
0
0
VERTEX
8
Sketch
10
-68.91
20
31.174
0
VERTEX
8
Sketch
10
-68.67
20
30.874
0
VERTEX
8
Sketch
10
-68.31
20
30.154
0
SEQEND
0
POLYLINE
66
1
8
Sketch
62
0
0
VERTEX
8
Sketch
10
-67.83
20
32.134
0
VERTEX
8
Sketch
10
-68.31
20
31.414
0
VERTEX
8
Sketch
10
-68.55
20
31.114
0
VERTEX
8
Sketch
10
-68.01
20
30.514
0
VERTEX
8
Sketch
10
-67.83
20
30.454
0
SEQEND
0
POLYLINE
66
1
8
Sketch
62
0
0
VERTEX
8
Sketch
10
-67.71
20
31.894
0
VERTEX
8
Sketch
10
-67.29
20
31.174
0
VERTEX
8
Sketch
10
-67.17
20
30.754
0
VERTEX
8
Sketch
10
-67.53
20
30.274
0
VERTEX
8
Sketch
10
-67.89
20
30.034
0
SEQEND
0
POLYLINE
66
1
8
Sketch
62
0
0
VERTEX
8
Sketch
10
-66.99
20
30.334
0
VERTEX
8
Sketch
10
-67.95
20
29.254
0
VERTEX
8
Sketch
10
-67.29
20
28.294
0
VERTEX
8
Sketch
10
-66.99
20
27.754
0
VERTEX
8
Sketch
10
-66.81
20
27.634
0
VERTEX
8
Sketch
10
-66.57
20
27.214
0
SEQEND
0
POLYLINE
66
1
8
Sketch
62
0
0
VERTEX
8
Sketch
10
-66.81
20
30.274
0
VERTEX
8
Sketch
10
-66.69
20
30.154
0
VERTEX
8
Sketch
10
-66.69
20
29.974
0
VERTEX
8
Sketch
10
-66.45
20
29.434
0
VERTEX
8
Sketch
10
-65.79
20
28.414
0
VERTEX
8
Sketch
10
-65.79
20
28.294
0
VERTEX
8
Sketch
10
-65.61
20
28.054
0
VERTEX
8
Sketch
10
-66.21
20
27.634
0
VERTEX
8
Sketch
10
-66.63
20
27.154
0
VERTEX
8
Sketch
10
-66.75
20
27.154
0
SEQEND
0
POLYLINE
66
1
8
Sketch
62
0
0
VERTEX
8
Sketch
10
-65.67
20
30.034
0
VERTEX
8
Sketch
10
-66.15
20
29.134
0
VERTEX
8
Sketch
10
-66.15
20
29.014
0
VERTEX
8
Sketch
10
-65.67
20
28.534
0
VERTEX
8
Sketch
10
-65.37
20
28.474
0
SEQEND
0
POLYLINE
66
1
8
Sketch
62
0
0
VERTEX
8
Sketch
10
-65.61
20
29.974
0
VERTEX
8
Sketch
10
-65.49
20
29.794
0
VERTEX
8
Sketch
10
-65.13
20
29.614
0
VERTEX
8
Sketch
10
-64.89
20
29.374
0
VERTEX
8
Sketch
10
-64.89
20
29.014
0
VERTEX
8
Sketch
10
-65.19
20
28.474
0
VERTEX
8
Sketch
10
-65.19
20
28.354
0
VERTEX
8
Sketch
10
-65.43
20
28.114
0
SEQEND
0
POLYLINE
66
1
8
Sketch
62
0
0
VERTEX
8
Sketch
10
-64.95
20
27.154
0
VERTEX
8
Sketch
10
-65.07
20
26.914
0
VERTEX
8
Sketch
10
-65.91
20
26.374
0
VERTEX
8
Sketch
10
-65.97
20
26.254
0
VERTEX
8
Sketch
10
-66.21
20
26.314
0
VERTEX
8
Sketch
10
-66.45
20
26.494
0
VERTEX
8
Sketch
10
-66.45
20
26.614
0
VERTEX
8
Sketch
10
-65.79
20
27.274
0
VERTEX
8
Sketch
10
-65.25
20
27.514
0
VERTEX
8
Sketch
10
-65.19
20
27.334
0
VERTEX
8
Sketch
10
-65.07
20
27.334
0
SEQEND
0
POLYLINE
66
1
8
Sketch
62
0
0
VERTEX
8
Sketch
10
-69.57
20
29.614
0
VERTEX
8
Sketch
10
-69.39
20
29.374
0
VERTEX
8
Sketch
10
-69.39
20
29.194
0
VERTEX
8
Sketch
10
-69.27
20
29.014
0
VERTEX
8
Sketch
10
-69.15
20
28.414
0
VERTEX
8
Sketch
10
-69.15
20
27.874
0
VERTEX
8
Sketch
10
-69.09
20
27.454
0
VERTEX
8
Sketch
10
-69.09
20
27.154
0
VERTEX
8
Sketch
10
-69.15
20
26.914
0
VERTEX
8
Sketch
10
-69.15
20
26.734
0
VERTEX
8
Sketch
10
-68.91
20
26.074
0
VERTEX
8
Sketch
10
-68.61
20
25.774
0
VERTEX
8
Sketch
10
-68.55
20
25.474
0
VERTEX
8
Sketch
10
-68.43
20
25.294
0
VERTEX
8
Sketch
10
-68.37
20
25.054
0
VERTEX
8
Sketch
10
-68.25
20
24.694
0
VERTEX
8
Sketch
10
-68.25
20
24.514
0
VERTEX
8
Sketch
10
-68.01
20
23.614
0
VERTEX
8
Sketch
10
-67.89
20
23.494
0
VERTEX
8
Sketch
10
-67.89
20
23.194
0
VERTEX
8
Sketch
10
-67.53
20
22.174
0
VERTEX
8
Sketch
10
-67.53
20
22.054
0
SEQEND
0
POLYLINE
66
1
8
Sketch
62
0
0
VERTEX
8
Sketch
10
-65.79
20
31.054
0
VERTEX
8
Sketch
10
-64.71
20
30.154
0
VERTEX
8
Sketch
10
-64.11
20
29.614
0
VERTEX
8
Sketch
10
-63.81
20
29.434
0
VERTEX
8
Sketch
10
-63.03
20
28.594
0
VERTEX
8
Sketch
10
-62.43
20
27.394
0
VERTEX
8
Sketch
10
-61.95
20
26.734
0
VERTEX
8
Sketch
10
-61.47
20
26.134
0
SEQEND
0
POLYLINE
66
1
8
Sketch
62
0
0
VERTEX
8
Sketch
10
-62.43
20
27.154
0
VERTEX
8
Sketch
10
-61.59
20
26.134
0
VERTEX
8
Sketch
10
-61.41
20
25.954
0
VERTEX
8
Sketch
10
-61.41
20
25.954
0
SEQEND
0
POLYLINE
66
1
8
Sketch
62
3
0
VERTEX
8
Sketch
10
-64.95
20
26.434
0
VERTEX
8
Sketch
10
-64.41
20
25.894
0
VERTEX
8
Sketch
10
-63.45
20
25.294
0
VERTEX
8
Sketch
10
-63.33
20
25.114
0
VERTEX
8
Sketch
10
-63.21
20
25.114
0
VERTEX
8
Sketch
10
-63.21
20
25.114
0
VERTEX
8
Sketch
10
-63.21
20
24.934
0
VERTEX
8
Sketch
10
-63.09
20
24.994
0
SEQEND
0
POLYLINE
66
1
8
Sketch
62
0
0
VERTEX
8
Sketch
10
-70.05
20
23.194
0
VERTEX
8
Sketch
10
-69.93
20
23.134
0
VERTEX
8
Sketch
10
-69.51
20
23.254
0
SEQEND
0
POLYLINE
66
1
8
Sketch
62
0
0
VERTEX
8
Sketch
10
-70.29
20
22.654
0
VERTEX
8
Sketch
10
-69.99
20
22.594
0
VERTEX
8
Sketch
10
-69.87
20
22.594
0
SEQEND
0
POLYLINE
66
1
8
Sketch
62
0
0
VERTEX
8
Sketch
10
-70.47
20
23.014
0
VERTEX
8
Sketch
10
-70.47
20
22.594
0
VERTEX
8
Sketch
10
-70.53
20
22.354
0
VERTEX
8
Sketch
10
-70.53
20
22.054
0
VERTEX
8
Sketch
10
-70.41
20
22.114
0
VERTEX
8
Sketch
10
-70.05
20
22.054
0
VERTEX
8
Sketch
10
-69.87
20
22.054
0
SEQEND
0
POLYLINE
66
1
8
Sketch
62
0
0
VERTEX
8
Sketch
10
-70.23
20
21.934
0
VERTEX
8
Sketch
10
-70.11
20
21.934
0
SEQEND
0
POLYLINE
66
1
8
Sketch
62
0
0
VERTEX
8
Sketch
10
-69.33
20
22.054
0
VERTEX
8
Sketch
10
-69.63
20
21.754
0
VERTEX
8
Sketch
10
-69.99
20
21.034
0
VERTEX
8
Sketch
10
-69.93
20
20.794
0
VERTEX
8
Sketch
10
-69.87
20
20.494
0
VERTEX
8
Sketch
10
-69.57
20
20.194
0
VERTEX
8
Sketch
10
-69.15
20
20.134
0
VERTEX
8
Sketch
10
-68.85
20
20.254
0
VERTEX
8
Sketch
10
-68.61
20
20.554
0
VERTEX
8
Sketch
10
-68.55
20
20.854
0
VERTEX
8
Sketch
10
-68.61
20
20.674
0
VERTEX
8
Sketch
10
-69.15
20
20.194
0
VERTEX
8
Sketch
10
-69.27
20
20.194
0
VERTEX
8
Sketch
10
-69.69
20
20.374
0
VERTEX
8
Sketch
10
-69.87
20
20.614
0
VERTEX
8
Sketch
10
-69.87
20
20.974
0
VERTEX
8
Sketch
10
-69.75
20
21.454
0
SEQEND
0
POLYLINE
66
1
8
Sketch
62
0
0
VERTEX
8
Sketch
10
-68.07
20
22.054
0
VERTEX
8
Sketch
10
-68.55
20
22.234
0
VERTEX
8
Sketch
10
-68.97
20
22.234
0
VERTEX
8
Sketch
10
-69.09
20
22.114
0
VERTEX
8
Sketch
10
-68.43
20
22.234
0
VERTEX
8
Sketch
10
-68.79
20
22.294
0
VERTEX
8
Sketch
10
-69.09
20
22.114
0
VERTEX
8
Sketch
10
-69.21
20
22.114
0
VERTEX
8
Sketch
10
-69.09
20
22.054
0
VERTEX
8
Sketch
10
-68.97
20
22.174
0
VERTEX
8
Sketch
10
-69.09
20
22.234
0
VERTEX
8
Sketch
10
-69.51
20
21.934
0
VERTEX
8
Sketch
10
-69.63
20
21.694
0
VERTEX
8
Sketch
10
-69.15
20
21.934
0
VERTEX
8
Sketch
10
-69.03
20
22.234
0
VERTEX
8
Sketch
10
-69.39
20
21.994
0
VERTEX
8
Sketch
10
-69.93
20
21.334
0
VERTEX
8
Sketch
10
-69.93
20
21.214
0
SEQEND
0
POLYLINE
66
1
8
Sketch
62
0
0
VERTEX
8
Sketch
10
-68.19
20
22.054
0
VERTEX
8
Sketch
10
-68.49
20
21.214
0
VERTEX
8
Sketch
10
-67.95
20
21.934
0
VERTEX
8
Sketch
10
-67.95
20
22.174
0
VERTEX
8
Sketch
10
-68.43
20
21.214
0
VERTEX
8
Sketch
10
-68.55
20
21.034
0
VERTEX
8
Sketch
10
-68.61
20
20.794
0
VERTEX
8
Sketch
10
-68.13
20
21.634
0
VERTEX
8
Sketch
10
-68.37
20
21.394
0
VERTEX
8
Sketch
10
-68.85
20
20.554
0
VERTEX
8
Sketch
10
-68.97
20
20.434
0
VERTEX
8
Sketch
10
-68.61
20
20.794
0
SEQEND
0
POLYLINE
66
1
8
Sketch
62
0
0
VERTEX
8
Sketch
10
-68.19
20
21.754
0
VERTEX
8
Sketch
10
-67.35
20
22.174
0
VERTEX
8
Sketch
10
-67.11
20
22.114
0
SEQEND
0
POLYLINE
66
1
8
Sketch
62
0
0
VERTEX
8
Sketch
10
-66.87
20
21.454
0
VERTEX
8
Sketch
10
-67.59
20
20.854
0
VERTEX
8
Sketch
10
-68.13
20
20.434
0
VERTEX
8
Sketch
10
-68.31
20
20.194
0
SEQEND
0
POLYLINE
66
1
8
Sketch
62
3
0
VERTEX
8
Sketch
10
-65.07
20
26.314
0
VERTEX
8
Sketch
10
-64.47
20
25.894
0
VERTEX
8
Sketch
10
-64.29
20
25.234
0
VERTEX
8
Sketch
10
-64.47
20
24.694
0
VERTEX
8
Sketch
10
-64.83
20
24.154
0
VERTEX
8
Sketch
10
-65.01
20
24.034
0
VERTEX
8
Sketch
10
-65.25
20
23.614
0
VERTEX
8
Sketch
10
-65.67
20
23.074
0
VERTEX
8
Sketch
10
-66.27
20
22.474
0
VERTEX
8
Sketch
10
-66.57
20
22.114
0
SEQEND
0
POLYLINE
66
1
8
Sketch
62
3
0
VERTEX
8
Sketch
10
-65.55
20
22.114
0
VERTEX
8
Sketch
10
-65.55
20
21.994
0
SEQEND
0
POLYLINE
66
1
8
Sketch
62
3
0
VERTEX
8
Sketch
10
-64.77
20
23.194
0
VERTEX
8
Sketch
10
-64.71
20
22.894
0
SEQEND
0
POLYLINE
66
1
8
Sketch
62
3
0
VERTEX
8
Sketch
10
-63.81
20
24.034
0
VERTEX
8
Sketch
10
-63.75
20
23.914
0
SEQEND
0
POLYLINE
66
1
8
Sketch
62
3
0
VERTEX
8
Sketch
10
-61.65
20
26.434
0
VERTEX
8
Sketch
10
-61.95
20
26.014
0
VERTEX
8
Sketch
10
-63.03
20
25.114
0
VERTEX
8
Sketch
10
-63.21
20
24.814
0
VERTEX
8
Sketch
10
-63.51
20
24.514
0
VERTEX
8
Sketch
10
-63.63
20
24.514
0
VERTEX
8
Sketch
10
-63.81
20
24.214
0
VERTEX
8
Sketch
10
-64.11
20
24.034
0
VERTEX
8
Sketch
10
-64.77
20
23.434
0
VERTEX
8
Sketch
10
-65.07
20
23.194
0
VERTEX
8
Sketch
10
-65.13
20
23.014
0
VERTEX
8
Sketch
10
-65.43
20
22.834
0
VERTEX
8
Sketch
10
-66.09
20
22.234
0
VERTEX
8
Sketch
10
-66.81
20
21.574
0
SEQEND
0
POLYLINE
66
1
8
Sketch
62
0
0
VERTEX
8
Sketch
10
-69.06
20
20.344
0
VERTEX
8
Sketch
10
-68.82
20
20.344
0
VERTEX
8
Sketch
10
-68.64
20
20.374
0
VERTEX
8
Sketch
10
-68.52
20
20.374
0
VERTEX
8
Sketch
10
-68.4
20
20.344
0
VERTEX
8
Sketch
10
-68.34
20
20.284
0
VERTEX
8
Sketch
10
-68.37
20
20.224
0
VERTEX
8
Sketch
10
-68.58
20
20.044
0
VERTEX
8
Sketch
10
-68.82
20
20.014
0
VERTEX
8
Sketch
10
-68.94
20
20.044
0
VERTEX
8
Sketch
10
-69
20
20.044
0
VERTEX
8
Sketch
10
-69.27
20
20.104
0
VERTEX
8
Sketch
10
-69.18
20
20.104
0
SEQEND
0
POLYLINE
66
1
8
Sketch
62
0
0
VERTEX
8
Sketch
10
-69.45
20
20.314
0
VERTEX
8
Sketch
10
-69.84
20
20.134
0
VERTEX
8
Sketch
10
-69.99
20
20.014
0
VERTEX
8
Sketch
10
-69.84
20
19.894
0
VERTEX
8
Sketch
10
-69.66
20
19.834
0
VERTEX
8
Sketch
10
-69.57
20
19.774
0
VERTEX
8
Sketch
10
-69.42
20
19.834
0
VERTEX
8
Sketch
10
-69.27
20
20.014
0
VERTEX
8
Sketch
10
-69.21
20
20.104
0
VERTEX
8
Sketch
10
-69.21
20
20.164
0
VERTEX
8
Sketch
10
-69.27
20
20.254
0
VERTEX
8
Sketch
10
-69.36
20
20.314
0
VERTEX
8
Sketch
10
-69.48
20
20.314
0
VERTEX
8
Sketch
10
-69.63
20
20.344
0
SEQEND
0
POLYLINE
66
1
8
Sketch
62
0
0
VERTEX
8
Sketch
10
-69.36
20
21.964
0
VERTEX
8
Sketch
10
-69.51
20
21.784
0
VERTEX
8
Sketch
10
-69.57
20
21.634
0
VERTEX
8
Sketch
10
-69.63
20
21.574
0
VERTEX
8
Sketch
10
-69.66
20
21.484
0
VERTEX
8
Sketch
10
-69.81
20
21.244
0
VERTEX
8
Sketch
10
-69.81
20
21.184
0
VERTEX
8
Sketch
10
-69.93
20
20.914
0
VERTEX
8
Sketch
10
-69.93
20
20.644
0
VERTEX
8
Sketch
10
-69.84
20
20.404
0
VERTEX
8
Sketch
10
-69.72
20
20.314
0
VERTEX
8
Sketch
10
-69.42
20
20.224
0
VERTEX
8
Sketch
10
-69.36
20
20.224
0
SEQEND
0
POLYLINE
66
1
8
Sketch
62
0
0
VERTEX
8
Sketch
10
-68.31
20
22.084
0
VERTEX
8
Sketch
10
-68.31
20
22.024
0
VERTEX
8
Sketch
10
-68.4
20
21.724
0
VERTEX
8
Sketch
10
-68.4
20
21.634
0
VERTEX
8
Sketch
10
-68.52
20
21.334
0
VERTEX
8
Sketch
10
-68.67
20
20.974
0
VERTEX
8
Sketch
10
-69.3
20
20.254
0
VERTEX
8
Sketch
10
-69.51
20
20.044
0
SEQEND
0
POLYLINE
66
1
8
Sketch
62
0
0
VERTEX
8
Sketch
10
-69.39
20
21.844
0
VERTEX
8
Sketch
10
-69.21
20
21.964
0
VERTEX
8
Sketch
10
-69.15
20
21.964
0
VERTEX
8
Sketch
10
-68.88
20
22.054
0
VERTEX
8
Sketch
10
-68.55
20
22.054
0
VERTEX
8
Sketch
10
-68.43
20
22.084
0
VERTEX
8
Sketch
10
-68.37
20
22.084
0
VERTEX
8
Sketch
10
-68.31
20
22.054
0
SEQEND
0
LINE
8
Shots
62
1
10
-81.126
20
53.004
11
-84.374
21
50.238
0
CIRCLE
8
Shots
62
1
10
-84.374
20
50.238
40
0.1
0
LINE
8
XSect
62
1
6
DASH
10
-84.374
20
50.238
11
-83.994
21
50.424
0
LINE
8
XSect
62
1
6
DASH
10
-84.374
20
50.238
11
-87.292
21
51.452
0
LINE
8
XSect
62
1
10
-84.374
20
50.238
11
-79.466
21
50.958
0
LINE
8
XSect
62
1
10
-84.374
20
50.238
11
-78.55
21
49.708
0
LINE
8
XSect
62
1
6
DASH
10
-84.374
20
50.238
11
-80.308
21
46.302
0
LINE
8
Shots
62
1
10
-80.026
20
61.64
11
-81.126
21
53.004
0
CIRCLE
8
Shots
62
1
10
-81.126
20
53.004
40
0.1
0
LINE
8
XSect
62
1
6
DASH
10
-81.126
20
53.004
11
-81.45
21
53.062
0
LINE
8
XSect
62
1
10
-81.126
20
53.004
11
-82.45
21
53.08
0
LINE
8
XSect
62
1
6
DASH
10
-81.126
20
53.004
11
-81.776
21
53.644
0
LINE
8
XSect
62
1
10
-81.126
20
53.004
11
-84.068
21
48.8
0
LINE
8
XSect
62
1
10
-81.126
20
53.004
11
-84.538
21
49.796
0
LINE
8
XSect
62
1
10
-81.126
20
53.004
11
-86.098
21
50.136
0
LINE
8
XSect
62
1
10
-81.126
20
53.004
11
-86.552
21
50.984
0
LINE
8
XSect
62
1
10
-81.126
20
53.004
11
-85.324
21
52.566
0
LINE
8
XSect
62
1
10
-81.126
20
53.004
11
-79.278
21
50.598
0
LINE
8
XSect
62
1
10
-81.126
20
53.004
11
-81.078
21
44.814
0
LINE
8
XSect
62
1
10
-81.126
20
53.004
11
-82.65
21
46.258
0
LINE
8
Shots
62
1
10
-80.902
20
57.092
11
-80.026
21
61.64
0
CIRCLE
8
Shots
62
1
10
-80.026
20
61.64
40
0.1
0
LINE
8
XSect
62
1
10
-80.026
20
61.64
11
-84.124
21
61.652
0
LINE
8
XSect
62
1
10
-80.026
20
61.64
11
-82.798
21
57.628
0
LINE
8
XSect
62
1
10
-80.026
20
61.64
11
-81.214
21
56.184
0
LINE
8
XSect
62
1
6
DASH
10
-80.026
20
61.64
11
-77.774
21
64.424
0
LINE
8
XSect
62
1
10
-80.026
20
61.64
11
-75.016
21
62.104
0
LINE
8
XSect
62
1
10
-80.026
20
61.64
11
-76.89
21
58.426
0
LINE
8
XSect
62
1
10
-80.026
20
61.64
11
-78.228
21
55.492
0
LINE
8
XSect
62
1
6
DASH
10
-80.026
20
61.64
11
-82.522
21
61.06
0
LINE
8
XSect
62
1
6
DASH
10
-80.026
20
61.64
11
-83.77
21
61.618
0
LINE
8
XSect
62
1
6
DASH
10
-80.026
20
61.64
11
-83.652
21
61.236
0
LINE
8
XSect
62
1
6
DASH
10
-80.026
20
61.64
11
-83.204
21
61.814
0
LINE
8
XSect
62
1
6
DASH
10
-80.026
20
61.64
11
-83.602
21
62.198
0
LINE
8
XSect
62
1
6
DASH
10
-80.026
20
61.64
11
-79.198
21
58.246
0
LINE
8
Shots
62
1
10
-76.358
20
51.958
11
-80.902
21
57.092
0
CIRCLE
8
Shots
62
1
10
-80.902
20
57.092
40
0.1
0
LINE
8
XSect
62
1
10
-80.902
20
57.092
11
-79.286
21
61.082
0
LINE
8
XSect
62
1
10
-80.902
20
57.092
11
-80.002
21
61.362
0
LINE
8
XSect
62
1
10
-80.902
20
57.092
11
-80.374
21
64.97
0
LINE
8
XSect
62
1
10
-80.902
20
57.092
11
-79.16
21
64.896
0
LINE
8
XSect
62
1
10
-80.902
20
57.092
11
-79.854
21
65.572
0
LINE
8
XSect
62
1
10
-80.902
20
57.092
11
-80.632
21
57.758
0
LINE
8
XSect
62
1
10
-80.902
20
57.092
11
-85.184
21
58.406
0
LINE
8
XSect
62
1
10
-80.902
20
57.092
11
-84.42
21
60.472
0
LINE
8
XSect
62
1
10
-80.902
20
57.092
11
-83.502
21
62.876
0
LINE
8
XSect
62
1
10
-80.902
20
57.092
11
-82.564
21
64.38
0
LINE
8
XSect
62
1
10
-80.902
20
57.092
11
-81.542
21
63.536
0
LINE
8
XSect
62
1
10
-80.902
20
57.092
11
-80.56
21
64.516
0
LINE
8
XSect
62
1
6
DASH
10
-80.902
20
57.092
11
-78.116
21
64.078
0
LINE
8
Shots
62
1
10
-71.048
20
42.32
11
-76.358
21
51.958
0
CIRCLE
8
Shots
62
1
10
-76.358
20
51.958
40
0.1
0
LINE
8
XSect
62
1
6
DASH
10
-76.358
20
51.958
11
-76.28
21
51.714
0
LINE
8
XSect
62
1
10
-76.358
20
51.958
11
-74.282
21
43.71
0
LINE
8
XSect
62
1
10
-76.358
20
51.958
11
-76.36
21
45.556
0
LINE
8
XSect
62
1
10
-76.358
20
51.958
11
-71.278
21
45.564
0
LINE
8
XSect
62
1
10
-76.358
20
51.958
11
-74.892
21
53.068
0
LINE
8
XSect
62
1
10
-76.358
20
51.958
11
-72.498
21
50.554
0
LINE
8
XSect
62
1
10
-76.358
20
51.958
11
-71.328
21
45.95
0
LINE
8
XSect
62
1
10
-76.358
20
51.958
11
-77.11
21
46.24
0
LINE
8
XSect
62
1
10
-76.358
20
51.958
11
-78.194
21
45.18
0
LINE
8
XSect
62
1
10
-76.358
20
51.958
11
-79.806
21
41.428
0
LINE
8
XSect
62
1
10
-76.358
20
51.958
11
-79.088
21
45.82
0
LINE
8
XSect
62
1
10
-76.358
20
51.958
11
-79.736
21
45.95
0
LINE
8
XSect
62
1
10
-76.358
20
51.958
11
-79.126
21
48.62
0
LINE
8
XSect
62
1
10
-76.358
20
51.958
11
-78.538
21
50.744
0
LINE
8
XSect
62
1
10
-76.358
20
51.958
11
-78.616
21
52.39
0
LINE
8
XSect
62
1
10
-76.358
20
51.958
11
-78.752
21
53.75
0
LINE
8
XSect
62
1
10
-76.358
20
51.958
11
-79.766
21
55.706
0
LINE
8
XSect
62
1
10
-76.358
20
51.958
11
-84.676
21
66.976
0
LINE
8
XSect
62
1
10
-76.358
20
51.958
11
-75.024
21
54.606
0
LINE
8
XSect
62
1
10
-76.358
20
51.958
11
-76.358
21
56.292
0
LINE
8
XSect
62
1
10
-76.358
20
51.958
11
-77.102
21
57.952
0
LINE
8
XSect
62
1
10
-76.358
20
51.958
11
-78.612
21
63.172
0
LINE
8
XSect
62
1
10
-76.358
20
51.958
11
-79.01
21
56.332
0
LINE
8
XSect
62
1
10
-76.358
20
51.958
11
-79.138
21
61.478
0
LINE
8
Shots
62
1
10
-69.196
20
36.094
11
-71.048
21
42.32
0
CIRCLE
8
Shots
62
1
10
-71.048
20
42.32
40
0.1
0
LINE
8
XSect
62
1
6
DASH
10
-71.048
20
42.32
11
-71.67
21
41.91
0
LINE
8
XSect
62
1
10
-71.048
20
42.32
11
-72.62
21
41.548
0
LINE
8
XSect
62
1
10
-71.048
20
42.32
11
-72.308
21
41.858
0
LINE
8
XSect
62
1
10
-71.048
20
42.32
11
-74.54
21
43.286
0
LINE
8
XSect
62
1
10
-71.048
20
42.32
11
-76.298
21
44.63
0
LINE
8
XSect
62
1
10
-71.048
20
42.32
11
-76.996
21
45.936
0
LINE
8
XSect
62
1
10
-71.048
20
42.32
11
-71.988
21
44.766
0
LINE
8
XSect
62
1
10
-71.048
20
42.32
11
-73.476
21
45.16
0
LINE
8
XSect
62
1
10
-71.048
20
42.32
11
-74.914
21
47.912
0
LINE
8
XSect
62
1
10
-71.048
20
42.32
11
-83.016
21
64.408
0
LINE
8
Shots
62
1
10
-66.858
20
32.218
11
-69.196
21
36.094
0
CIRCLE
8
Shots
62
1
10
-69.196
20
36.094
40
0.1
0
LINE
8
XSect
62
1
6
DASH
10
-69.196
20
36.094
11
-69.196
21
36.3
0
LINE
8
XSect
62
1
10
-69.196
20
36.094
11
-71.972
21
37.036
0
LINE
8
XSect
62
1
10
-69.196
20
36.094
11
-67.412
21
34.984
0
LINE
8
XSect
62
1
10
-69.196
20
36.094
11
-66.878
21
36.602
0
LINE
8
XSect
62
1
10
-69.196
20
36.094
11
-66.126
21
37.97
0
LINE
8
XSect
62
1
10
-69.196
20
36.094
11
-65.608
21
39.42
0
LINE
8
XSect
62
1
10
-69.196
20
36.094
11
-66.484
21
41.246
0
LINE
8
XSect
62
1
10
-69.196
20
36.094
11
-68.908
21
41.924
0
LINE
8
XSect
62
1
10
-69.196
20
36.094
11
-70.774
21
42.84
0
LINE
8
XSect
62
1
10
-69.196
20
36.094
11
-72.308
21
39.24
0
LINE
8
XSect
62
1
10
-69.196
20
36.094
11
-72.662
21
41.412
0
LINE
8
Shots
62
1
10
-67.146
20
21.638
11
-66.858
21
32.218
0
CIRCLE
8
Shots
62
1
10
-66.858
20
32.218
40
0.1
0
LINE
8
XSect
62
1
6
DASH
10
-66.858
20
32.218
11
-67.022
21
32.114
0
LINE
8
XSect
62
1
6
DASH
10
-66.858
20
32.218
11
-67.096
21
31.86
0
LINE
8
XSect
62
1
10
-66.858
20
32.218
11
-68.342
21
25.152
0
LINE
8
XSect
62
1
10
-66.858
20
32.218
11
-69.116
21
26.44
0
LINE
8
XSect
62
1
10
-66.858
20
32.218
11
-69.08
21
28.47
0
LINE
8
XSect
62
1
10
-66.858
20
32.218
11
-69.802
21
29.648
0
LINE
8
XSect
62
1
10
-66.858
20
32.218
11
-65.614
21
26.41
0
LINE
8
XSect
62
1
10
-66.858
20
32.218
11
-72.6
21
29.396
0
LINE
8
XSect
62
1
10
-66.858
20
32.218
11
-73.34
21
31.308
0
LINE
8
XSect
62
1
10
-66.858
20
32.218
11
-72.754
21
33.444
0
LINE
8
Shots
62
1
10
-69.466
20
21.674
11
-67.146
21
21.638
0
CIRCLE
8
Shots
62
1
10
-67.146
20
21.638
40
0.1
0
LINE
8
XSect
62
1
6
DASH
10
-67.146
20
21.638
11
-66.294
21
21.986
0
LINE
8
XSect
62
1
10
-67.146
20
21.638
11
-61.802
21
26.19
0
LINE
8
XSect
62
1
10
-67.146
20
21.638
11
-63.81
21
24.618
0
LINE
8
XSect
62
1
10
-67.146
20
21.638
11
-65.18
21
26.07
0
LINE
8
XSect
62
1
10
-67.146
20
21.638
11
-65.812
21
30.832
0
LINE
8
XSect
62
1
10
-67.146
20
21.638
11
-66.426
21
21.782
0
LINE
8
Shots
62
1
10
-69.466
20
21.674
11
-69.466
21
21.674
0
CIRCLE
8
Shots
62
1
10
-69.466
20
21.674
40
0.1
0
LINE
8
XSect
62
1
10
-69.466
20
21.674
11
-68.368
21
21.888
0
LINE
8
XSect
62
1
10
-69.466
20
21.674
11
-68.73
21
20.854
0
LINE
8
XSect
62
1
6
DASH
10
-69.466
20
21.674
11
-69.522
21
20.422
0
ENDSEC
0
EOF
