0
SECTION
2
HEADER
9
$ACADVER
1
AC1002
9
$INSUNITS
70
4
0
ENDSEC
0
SECTION
2
TABLES
0
TABLE
2
LTYPE
70
1
0
LTYPE
2
DASH
70
0
3
---
72
65
73
2
40
0.6
49
0.3
49
-0.3
0
ENDTAB
0
ENDSEC
0
SECTION
2
ENTITIES
0
LINE
8
Shots
62
1
10
-98.386
20
18.72
11
-96.796
21
18.558
0
CIRCLE
8
Shots
62
1
10
-96.796
20
18.558
40
0.1
0
LINE
8
Shots
62
1
10
-83.274
20
8.336
11
-98.386
21
18.72
0
CIRCLE
8
Shots
62
1
10
-98.386
20
18.72
40
0.1
0
LINE
8
Shots
62
1
10
-79.53
20
6.158
11
-83.274
21
8.336
0
CIRCLE
8
Shots
62
1
10
-83.274
20
8.336
40
0.1
0
LINE
8
XSect
62
1
10
-83.274
20
8.336
11
-84.682
21
6.372
0
LINE
8
Shots
62
1
10
-79.53
20
6.158
11
-75.766
21
3.97
0
CIRCLE
8
Shots
62
1
10
-75.766
20
3.97
40
0.1
0
LINE
8
Shots
62
1
10
-68.868
20
15.972
11
-79.53
21
6.158
0
CIRCLE
8
Shots
62
1
10
-79.53
20
6.158
40
0.1
0
LINE
8
XSect
62
1
6
DASH
10
-79.53
20
6.158
11
-79.974
21
5.606
0
LINE
8
Shots
62
1
10
-68.868
20
15.972
11
-68.868
21
15.972
0
CIRCLE
8
Shots
62
1
10
-68.868
20
15.972
40
0.1
0
LINE
8
Shots
62
1
10
-71.26
20
18.178
11
-68.868
21
15.972
0
CIRCLE
8
Shots
62
1
10
-68.868
20
15.972
40
0.1
0
LINE
8
Shots
62
1
10
-58.092
20
13.966
11
-71.26
21
18.178
0
CIRCLE
8
Shots
62
1
10
-71.26
20
18.178
40
0.1
0
LINE
8
Shots
62
1
10
-50.666
20
0.644
11
-58.092
21
13.966
0
CIRCLE
8
Shots
62
1
10
-58.092
20
13.966
40
0.1
0
LINE
8
Shots
62
1
10
-42.844
20
3.194
11
-50.666
21
0.644
0
CIRCLE
8
Shots
62
1
10
-50.666
20
0.644
40
0.1
0
LINE
8
Shots
62
1
10
-30.596
20
6.5
11
-42.844
21
3.194
0
CIRCLE
8
Shots
62
1
10
-42.844
20
3.194
40
0.1
0
LINE
8
Shots
62
1
10
-24.764
20
2.122
11
-30.596
21
6.5
0
CIRCLE
8
Shots
62
1
10
-30.596
20
6.5
40
0.1
0
LINE
8
Shots
62
1
10
-1.266
20
-5.214
11
-24.764
21
2.122
0
CIRCLE
8
Shots
62
1
10
-24.764
20
2.122
40
0.1
0
LINE
8
XSect
62
1
10
-24.764
20
2.122
11
-29.962
21
6.008
0
LINE
8
XSect
62
1
10
-24.764
20
2.122
11
-30.592
21
6.546
0
LINE
8
Shots
62
1
10
-1.266
20
-5.214
11
-1.266
21
-5.214
0
CIRCLE
8
Shots
62
1
10
-1.266
20
-5.214
40
0.1
0
LINE
8
XSect
62
1
10
-1.266
20
-5.214
11
-25.206
21
1.582
0
LINE
8
XSect
62
1
10
-1.266
20
-5.214
11
-24.284
21
1.33
0
LINE
8
XSect
62
1
10
-1.266
20
-5.214
11
-25.034
21
1.536
0
LINE
8
Shots
62
1
10
116.714
20
-41.86
11
125.24
21
-35.728
0
CIRCLE
8
Shots
62
1
10
125.24
20
-35.728
40
0.1
0
LINE
8
Shots
62
1
10
99.864
20
-41.674
11
116.714
21
-41.86
0
CIRCLE
8
Shots
62
1
10
116.714
20
-41.86
40
0.1
0
LINE
8
Shots
62
1
10
85.296
20
-33.794
11
99.864
21
-41.674
0
CIRCLE
8
Shots
62
1
10
99.864
20
-41.674
40
0.1
0
LINE
8
Shots
62
1
10
74.808
20
-25.136
11
85.296
21
-33.794
0
CIRCLE
8
Shots
62
1
10
85.296
20
-33.794
40
0.1
0
LINE
8
Shots
62
1
10
68.2
20
-26.888
11
74.808
21
-25.136
0
CIRCLE
8
Shots
62
1
10
74.808
20
-25.136
40
0.1
0
LINE
8
Shots
62
1
10
62.592
20
-23.468
11
68.2
21
-26.888
0
CIRCLE
8
Shots
62
1
10
68.2
20
-26.888
40
0.1
0
LINE
8
XSect
62
1
10
68.2
20
-26.888
11
69.466
21
-21.676
0
LINE
8
XSect
62
1
10
68.2
20
-26.888
11
69.46
21
-21.694
0
LINE
8
Shots
62
1
10
53.136
20
-25.608
11
62.592
21
-23.468
0
CIRCLE
8
Shots
62
1
10
62.592
20
-23.468
40
0.1
0
LINE
8
Shots
62
1
10
41.56
20
-33.37
11
53.136
21
-25.608
0
CIRCLE
8
Shots
62
1
10
53.136
20
-25.608
40
0.1
0
LINE
8
Shots
62
1
10
30.504
20
-27.062
11
41.56
21
-33.37
0
CIRCLE
8
Shots
62
1
10
41.56
20
-33.37
40
0.1
0
LINE
8
XSect
62
1
10
41.56
20
-33.37
11
47.284
21
-40.578
0
LINE
8
Shots
62
1
10
22.604
20
-26.374
11
30.504
21
-27.062
0
CIRCLE
8
Shots
62
1
10
30.504
20
-27.062
40
0.1
0
LINE
8
Shots
62
1
10
17.662
20
-24.384
11
22.604
21
-26.374
0
CIRCLE
8
Shots
62
1
10
22.604
20
-26.374
40
0.1
0
LINE
8
Shots
62
1
10
12.022
20
-21.66
11
17.662
21
-24.384
0
CIRCLE
8
Shots
62
1
10
17.662
20
-24.384
40
0.1
0
LINE
8
Shots
62
1
10
7.912
20
-14.104
11
12.022
21
-21.66
0
CIRCLE
8
Shots
62
1
10
12.022
20
-21.66
40
0.1
0
LINE
8
Shots
62
1
10
4.082
20
-8.192
11
7.912
21
-14.104
0
CIRCLE
8
Shots
62
1
10
7.912
20
-14.104
40
0.1
0
LINE
8
Shots
62
1
10
-1.266
20
-5.214
11
4.082
21
-8.192
0
CIRCLE
8
Shots
62
1
10
4.082
20
-8.192
40
0.1
0
LINE
8
Shots
62
1
10
-1.266
20
-5.214
11
-1.266
21
-5.214
0
CIRCLE
8
Shots
62
1
10
-1.266
20
-5.214
40
0.1
0
LINE
8
Shots
62
1
10
0
20
0
11
-1.266
21
-5.214
0
CIRCLE
8
Shots
62
1
10
-1.266
20
-5.214
40
0.1
0
LINE
8
Shots
62
1
10
0
20
0
11
0
21
0
0
CIRCLE
8
Shots
62
1
10
0
20
0
40
0.1
0
ENDSEC
0
EOF
