0
SECTION
2
HEADER
9
$ACADVER
1
AC1002
9
$INSUNITS
70
4
0
ENDSEC
0
SECTION
2
TABLES
0
TABLE
2
LTYPE
70
1
0
LTYPE
2
DASH
70
0
3
---
72
65
73
2
40
0.6
49
0.3
49
-0.3
0
ENDTAB
0
ENDSEC
0
SECTION
2
ENTITIES
0
LINE
8
Shots
62
1
10
127.674
20
-18.366
11
129.272
21
-19.256
0
CIRCLE
8
Shots
62
1
10
129.272
20
-19.256
40
0.1
0
LINE
8
Shots
62
1
10
109.338
20
-14.784
11
127.674
21
-18.366
0
CIRCLE
8
Shots
62
1
10
127.674
20
-18.366
40
0.1
0
LINE
8
Shots
62
1
10
105.008
20
-14.108
11
109.338
21
-14.784
0
CIRCLE
8
Shots
62
1
10
109.338
20
-14.784
40
0.1
0
LINE
8
XSect
62
1
6
DASH
10
109.338
20
-14.784
11
109.562
21
-16.528
0
LINE
8
Shots
62
1
10
105.008
20
-14.108
11
109.362
21
-13.432
0
CIRCLE
8
Shots
62
1
10
109.362
20
-13.432
40
0.1
0
LINE
8
Shots
62
1
10
90.518
20
-12.898
11
105.008
21
-14.108
0
CIRCLE
8
Shots
62
1
10
105.008
20
-14.108
40
0.1
0
LINE
8
XSect
62
1
10
105.008
20
-14.108
11
105.708
21
-17.09
0
LINE
8
Shots
62
1
10
90.518
20
-12.898
11
90.518
21
-12.898
0
CIRCLE
8
Shots
62
1
10
90.518
20
-12.898
40
0.1
0
LINE
8
Shots
62
1
10
87.264
20
-12.832
11
90.518
21
-12.898
0
CIRCLE
8
Shots
62
1
10
90.518
20
-12.898
40
0.1
0
LINE
8
Shots
62
1
10
73.44
20
-8.158
11
87.264
21
-12.832
0
CIRCLE
8
Shots
62
1
10
87.264
20
-12.832
40
0.1
0
LINE
8
Shots
62
1
10
58.188
20
-7.546
11
73.44
21
-8.158
0
CIRCLE
8
Shots
62
1
10
73.44
20
-8.158
40
0.1
0
LINE
8
Shots
62
1
10
49.96
20
-5.23
11
58.188
21
-7.546
0
CIRCLE
8
Shots
62
1
10
58.188
20
-7.546
40
0.1
0
LINE
8
Shots
62
1
10
37.274
20
-3.758
11
49.96
21
-5.23
0
CIRCLE
8
Shots
62
1
10
49.96
20
-5.23
40
0.1
0
LINE
8
Shots
62
1
10
29.982
20
-1.392
11
37.274
21
-3.758
0
CIRCLE
8
Shots
62
1
10
37.274
20
-3.758
40
0.1
0
LINE
8
Shots
62
1
10
5.366
20
2.85
11
29.982
21
-1.392
0
CIRCLE
8
Shots
62
1
10
29.982
20
-1.392
40
0.1
0
LINE
8
XSect
62
1
10
29.982
20
-1.392
11
36.102
21
-3.486
0
LINE
8
XSect
62
1
10
29.982
20
-1.392
11
36.862
21
-3.826
0
LINE
8
Shots
62
1
10
5.366
20
2.85
11
5.366
21
2.85
0
CIRCLE
8
Shots
62
1
10
5.366
20
2.85
40
0.1
0
LINE
8
XSect
62
1
6
DASH
10
5.366
20
2.85
11
5.366
21
-1.57
0
LINE
8
XSect
62
1
6
DASH
10
5.366
20
2.85
11
5.366
21
-1.378
0
LINE
8
XSect
62
1
6
DASH
10
5.366
20
2.85
11
5.366
21
-1.538
0
LINE
8
Shots
62
1
10
143.434
20
28.02
11
153.938
21
31.73
0
CIRCLE
8
Shots
62
1
10
153.938
20
31.73
40
0.1
0
LINE
8
Shots
62
1
10
126.584
20
26.474
11
143.434
21
28.02
0
CIRCLE
8
Shots
62
1
10
143.434
20
28.02
40
0.1
0
LINE
8
Shots
62
1
10
110.022
20
22.416
11
126.584
21
26.474
0
CIRCLE
8
Shots
62
1
10
126.584
20
26.474
40
0.1
0
LINE
8
Shots
62
1
10
96.422
20
18.996
11
110.022
21
22.416
0
CIRCLE
8
Shots
62
1
10
110.022
20
22.416
40
0.1
0
LINE
8
Shots
62
1
10
89.586
20
17.466
11
96.422
21
18.996
0
CIRCLE
8
Shots
62
1
10
96.422
20
18.996
40
0.1
0
LINE
8
Shots
62
1
10
83.018
20
15.042
11
89.586
21
17.466
0
CIRCLE
8
Shots
62
1
10
89.586
20
17.466
40
0.1
0
LINE
8
XSect
62
1
6
DASH
10
89.586
20
17.466
11
87.956
21
14.624
0
LINE
8
XSect
62
1
6
DASH
10
89.586
20
17.466
11
87.96
21
14.618
0
LINE
8
Shots
62
1
10
73.322
20
14.958
11
83.018
21
15.042
0
CIRCLE
8
Shots
62
1
10
83.018
20
15.042
40
0.1
0
LINE
8
Shots
62
1
10
59.384
20
14.974
11
73.322
21
14.958
0
CIRCLE
8
Shots
62
1
10
73.322
20
14.958
40
0.1
0
LINE
8
Shots
62
1
10
46.654
20
12.418
11
59.384
21
14.974
0
CIRCLE
8
Shots
62
1
10
59.384
20
14.974
40
0.1
0
LINE
8
XSect
62
1
10
59.384
20
14.974
11
67.928
21
18.298
0
LINE
8
Shots
62
1
10
38.724
20
11.412
11
46.654
21
12.418
0
CIRCLE
8
Shots
62
1
10
46.654
20
12.418
40
0.1
0
LINE
8
Shots
62
1
10
33.396
20
10.914
11
38.724
21
11.412
0
CIRCLE
8
Shots
62
1
10
38.724
20
11.412
40
0.1
0
LINE
8
Shots
62
1
10
27.132
20
9.46
11
33.396
21
10.914
0
CIRCLE
8
Shots
62
1
10
33.396
20
10.914
40
0.1
0
LINE
8
Shots
62
1
10
18.53
20
7.988
11
27.132
21
9.46
0
CIRCLE
8
Shots
62
1
10
27.132
20
9.46
40
0.1
0
LINE
8
Shots
62
1
10
11.486
20
5.438
11
18.53
21
7.988
0
CIRCLE
8
Shots
62
1
10
18.53
20
7.988
40
0.1
0
LINE
8
Shots
62
1
10
5.366
20
2.85
11
11.486
21
5.438
0
CIRCLE
8
Shots
62
1
10
11.486
20
5.438
40
0.1
0
LINE
8
Shots
62
1
10
5.366
20
2.85
11
5.366
21
2.85
0
CIRCLE
8
Shots
62
1
10
5.366
20
2.85
40
0.1
0
LINE
8
Shots
62
1
10
0
20
0
11
5.366
21
2.85
0
CIRCLE
8
Shots
62
1
10
5.366
20
2.85
40
0.1
0
LINE
8
Shots
62
1
10
0
20
0
11
0
21
0
0
CIRCLE
8
Shots
62
1
10
0
20
0
40
0.1
0
ENDSEC
0
EOF
